<svg width="100" height="100" viewBox="0 0 100 100" fill="none" xmlns="http://www.w3.org/2000/svg">
<path d="M50 100C77.6142 100 100 77.6142 100 50C100 22.3858 77.6142 0 50 0C22.3858 0 0 22.3858 0 50C0 77.6142 22.3858 100 50 100Z" fill="#292929"/>
<path d="M50 96C75.4051 96 96 75.4051 96 50C96 24.5949 75.4051 4 50 4C24.5949 4 4 24.5949 4 50C4 75.4051 24.5949 96 50 96Z" fill="#E82344"/>
<path d="M21.5 21.25L24.5 18.5L25 19L22.75 21L24.5 23L26.75 21L27.25 21.5L25 23.5L27.25 26L26.5 26.75L21.5 21.25Z" fill="white"/>
<path d="M35.2499 16.25C36.4999 18.5 35.7499 20.5 33.9999 21.5C32.2499 22.5 30.2499 21.75 28.9999 19.75C27.7499 17.5 28.2499 15.5 30.2499 14.5C31.9999 13.75 33.9999 14.25 35.2499 16.25ZM29.9998 19.5C30.7498 21 32.2498 21.75 33.7498 21C35.2498 20.25 35.2498 18.5 34.2498 17C33.4998 15.75 31.9998 14.75 30.4998 15.5C29.2498 16.25 29.2498 18 29.9998 19.5Z" fill="white"/>
<path d="M44.2505 13.7501C45.0005 16.2501 43.7505 18.0001 41.7505 18.5001C39.7505 19.0001 38.0005 17.7501 37.5005 15.5001C37.0005 13.2501 38.0005 11.2501 40.0005 10.7501C41.7505 10.2501 43.5005 11.5001 44.2505 13.7501ZM38.5005 15.2501C39.0005 16.7501 40.2505 18.0001 41.7505 17.7501C43.2505 17.2501 43.7505 15.7501 43.2505 14.0001C42.7505 12.5001 41.7505 11.2501 40.0005 11.5001C38.5005 12.0001 38.0005 13.7501 38.5005 15.2501Z" fill="white"/>
<path d="M47.75 10.5H45.5V9.75L51.25 9.5V10.25H49L49.25 17H48.25L47.75 10.5Z" fill="white"/>
<path d="M54 10C54.5 10 55.25 10 55.75 10.25C56.75 10.5 57.25 10.75 57.75 11.25C58 11.5 58.25 12 58.25 12.75C58.25 13.5 57.5 14 56.75 14.25C57.5 14.5 58.25 15.25 58 16.5C58 17.25 57.5 17.5 57 18C56.5 18.5 55.5 18.5 54.25 18.25C53.5 18.25 53 18 52.75 18L54 10ZM54 16.75C54.25 16.75 54.5 16.75 54.75 17C55.75 17.25 56.75 17 57 15.75C57.25 14.75 56.25 14.25 55.25 14L54.5 13.75L54 16.75ZM54.5 13.25L55.5 13.5C56.5 13.75 57.25 13.25 57.25 12.5C57.5 11.5 56.75 11.25 55.75 11C55.25 11 55 11 54.75 11L54.5 13.25Z" fill="white"/>
<path d="M61.5 17L59.75 19L58.75 18.5L64 12.25L65 12.75L64.5 21L63.5 20.5L63.75 18L61.5 17ZM64.25 17V14.75C64.25 14.25 64.25 13.75 64.5 13.25C64.25 13.75 64 14 63.5 14.5L62 16.25L64.25 17Z" fill="white"/>
<path d="M70.5 15.25L71.25 15.75L67.5 21.5L70.25 23.25L69.75 24L66.25 21.75L70.5 15.25Z" fill="white"/>
<path d="M76.5 19.75L77.25 20.5L72.5 25.5L74.75 27.75L74.25 28.25L71.25 25.25L76.5 19.75Z" fill="white"/>
<path d="M26.25 77L24.25 78.75L22.25 77.25L23 79.75L21.25 81.25L23.75 81L24.5 83.5L25.25 81L27.75 80.75L25.5 79.5L26.25 77Z" fill="#292929"/>
<path d="M76.75 79.75L77.75 77.25L75.5 78.75L73.75 77L74.25 79.5L72.25 80.75L74.75 81L75.25 83.5L76.25 81L78.75 81.25L76.75 79.75Z" fill="#292929"/>
<path d="M50 78.75C65.8782 78.75 78.75 65.8782 78.75 50C78.75 34.1218 65.8782 21.25 50 21.25C34.1218 21.25 21.25 34.1218 21.25 50C21.25 65.8782 34.1218 78.75 50 78.75Z" fill="#292929"/>
<path d="M66.2519 69.9175C77.2577 60.9111 78.8787 44.688 69.8723 33.6821C60.8659 22.6762 44.6428 21.0553 33.6369 30.0617C22.631 39.068 21.0101 55.2912 30.0165 66.2971C39.0228 77.303 55.246 78.9239 66.2519 69.9175Z" fill="white"/>
<path d="M54.5 46.75L43.5 53.75L43.25 53.5L54.25 46.75H54.5Z" fill="#292929"/>
<path d="M55 37C54.75 37.25 53.5 36 51.5 34.75C49.5 33.5 46.75 32.25 44.25 31.75V31.5C49.5 32.5 55 37 55 37Z" fill="#292929"/>
<path d="M35.7491 36.25C34.7491 39.75 34.7491 43 34.7491 45.5C34.7491 48 35.2491 49.25 35.2491 49.25H34.9991C34.9991 49.25 33.7491 43.25 35.7491 36.25Z" fill="#292929"/>
<path d="M63.75 52.25C65 57.5 63.5 63.5 63.5 63.5H63.25C63.25 63.5 63.5 62 63.75 59.75C64 57.75 64 54.75 63.75 52.25C63.5 52 63.25 51.5 63.25 51.25H63.5C63.5 51.5 63.5 51.75 63.75 52.25Z" fill="#292929"/>
<path d="M50.25 67.25C52.5 68.25 54.25 68.75 54.25 68.75V69C54.25 69 47 67 43.25 63.25L43.5 63C45.25 65 48 66.5 50.25 67.25Z" fill="#292929"/>
<path d="M64 29.5C64.75 33 63.75 36.25 63.75 36.25H63.5C63.5 36.25 63.75 35.5 64 34.25C64 32.75 64.25 31.25 64 29.5C63.75 29.25 63.75 29 63.5 28.75H63.75C63.75 28.75 64 29.25 64 29.5Z" fill="#292929"/>
<path d="M28.75 55C29.75 55.5 30.5 55.5 30.5 55.5V55.75C30.5 55.75 27.5 55.25 24.75 52.5L25 52.25C26.25 53.75 27.75 54.5 28.75 55Z" fill="#292929"/>
<path d="M35.0009 64C35.0009 64 34.7509 66.5 35.5009 69.75C35.5009 70 35.7509 70.5 35.7509 70.75C35.7509 70.25 35.5009 70 35.5009 69.75C34.7509 66.75 35.0009 64 35.0009 64Z" fill="#292929"/>
<path d="M75 47.75C74.25 47.25 72.75 46.5 71.5 46C70.25 45.25 69 45 69 45V44.75C69 44.75 73.75 46.75 75 47.75Z" fill="#292929"/>
<path d="M75.25 55C72.75 62.75 68 65.75 68 65.75C68 65.75 69.25 65 70.75 63.25C72.25 61.5 74 59 75.25 55Z" fill="#292929"/>
<path d="M54.25 73.5C54.25 73.5 48.25 75.25 42 74.5C42 74.5 49 75.75 54.25 74V73.5V73.5Z" fill="white"/>
<path d="M31.5 34.75C31.5 34.75 29.5 35.25 27.5 37.75C27.5 37.75 28.5 35.75 31.5 34.25V34.75Z" fill="#292929"/>
<path d="M44.5 27.25C44.5 27.25 46.75 25.75 51 24.5C51 24.5 46.75 25.25 44.25 27L44.5 27.25Z" fill="#292929"/>
<path d="M68.75 65.25C67 69.5 62 72.75 62 72.75C57.25 74.5 53.5 74 53.5 74L53.75 68.5C58 67 63.5 62.75 63.5 62.75L68.75 65.25Z" fill="#292929"/>
<path d="M63.75 52.25C63.75 52.25 56.25 47.75 54 47C54 47 54.5 39 54.25 36.5C54.25 36.5 59.5 34.25 63.75 35C63.75 35 67.5 38.75 69.5 44.75C69.5 45 66.5 50.5 63.75 52.25Z" fill="#292929"/>
<path d="M45 31.75C45 31.75 38.5 34 35.5 37.75C35.5 37.75 33.25 35.75 30.75 34.75C30.75 34.75 33.5 29.25 36.5 27.75C36.5 27.75 40.25 26 45.5 26.5C45.5 26.5 44.75 28.75 45 31.75Z" fill="#292929"/>
<path d="M44.25 63.75C44.25 63.75 44 56.25 44.25 53.25C44.25 53.25 38 50 35 48.25C35 48.25 30 53 30 55.5C30 55.5 31 61 35.25 65C35 65 39.25 66.25 44.25 63.75Z" fill="#292929"/>
<path d="M43.75 63.25C43.75 63.25 43.5 56.25 43.75 53.25C43.75 53.25 37.75 50.25 35 48.5C35 48.5 30.25 53 30.25 55.5C30.25 55.5 31.25 60.75 35.25 64.5C35 64.5 39 65.75 43.75 63.25Z" fill="#292929"/>
<path d="M75 56.25C76 52.25 76.25 48.25 75 44C75 44 75 44 75 43.75C75 45 74.75 46.5 74.25 47.5C74.5 47.75 75.5 52.75 75 56.25Z" fill="#292929"/>
<path d="M63.75 29.75C63.75 29.75 65.5 30 67.25 30.75C63.25 27.25 58.25 25 53 24.25C55.75 24.75 60.75 26.5 63.75 29.75Z" fill="#292929"/>
<path d="M24.2508 46C23.7508 49 23.7508 52.25 24.5008 55.5C24.5008 54.5 24.7508 53.5 25.0008 52.75C25.2508 52.75 24.5008 49.5 24.2508 46Z" fill="#292929"/>
<path d="M35.75 70.5C34 70.25 31.5 68.25 30 66.5C33.25 70.5 38 73.5 43 75C39.25 73.5 35.75 70.5 35.75 70.5Z" fill="#292929"/>
<g opacity="0.2">
<path d="M52.75 47.5L45 52.25C44.5 52.5 43.5 52.5 43 52.25L36.25 48.75C35.75 48.5 35.75 48.5 36.25 48.75L43 51.75C43.5 52 44.5 52 45 51.75L52.75 47.5C53.25 47 53.25 47 52.75 47.5Z" fill="#292929"/>
<path d="M64 52.5C64 52.5 65 59.25 63.75 63L68.75 65.25L64.25 63C64.25 62.75 65.25 58.25 64 52.5Z" fill="#292929"/>
<path d="M69 65.5C69 65.5 67.75 69 63.5 72C63.5 72 67.5 69.75 69 65.5Z" fill="#292929"/>
<path d="M54.5009 36.25C54.5009 36.25 49.5009 32.25 45.0009 31.25C45.0009 31.25 44.7509 29.5 45.5009 26.5C45.5009 26.5 45.2509 29.25 45.5009 31C45.2509 31.25 50.0009 32 54.5009 36.25Z" fill="#292929"/>
<path d="M35.4994 37.75C35.4994 37.75 34.4994 42.5 34.9994 48C34.9994 48 34.9994 41.5 35.4994 38.75C35.4994 38.5 35.9994 37.75 36.2494 37.5C37.2494 36.5 39.9994 34 44.4994 32.25C44.7494 32 39.4994 33.25 35.4994 37.75Z" fill="#292929"/>
<path d="M34.75 48.25C34.75 48.25 30.25 52.25 29.75 55.25C29.75 55.25 30 51.75 34.75 48.25Z" fill="#292929"/>
</g>
<path opacity="0.1" d="M75 44C72.75 34.75 66 28 57.75 25.25C59.75 28.25 61.25 31.5 62.25 35.25C66 51 56.25 66.5 40.5 70.25C38.75 70.75 36.75 71 35 71C40.75 75.25 48.25 77 56 75.25C69.75 72 78.25 58 75 44Z" fill="#292929"/>
</svg>
