<svg width="85" height="100" viewBox="0 0 85 100" fill="none" xmlns="http://www.w3.org/2000/svg">
<g clip-path="url(#clip0_1_81)">
<path d="M41.151 99.7834C40.2846 99.6287 32.6114 98.1745 24.5359 94.5854C14.1399 89.9443 7.67327 83.9418 5.29084 76.6708C4.14604 76.0829 3.03218 75.2785 2.01114 74.2884L0 72.3082V55.0433L0.247525 55.0743C0.371287 53.1869 0.928218 51.4851 1.91832 50C2.56807 49.0408 3.34158 48.2054 4.2698 47.5557V19.9257L42.3267 0L80.3836 19.9257V48.2054C81.25 48.9171 82.0235 49.8144 82.6114 50.8045C83.6015 52.5062 84.0965 54.5483 84.0965 56.8379C84.0965 57.2401 84.0656 57.6114 84.0346 58.0136C84.0656 58.4158 84.0965 58.8181 84.0965 59.2512C84.0965 59.901 84.0656 60.5507 83.9728 61.1696L84.6535 61.3861V77.8156L78.9294 77.8465C76.2376 84.6225 69.8639 90.2537 59.9629 94.6473C51.9492 98.2054 44.3379 99.6287 43.5025 99.7834L42.3267 100L41.151 99.7834Z" fill="#FFEDDE"/>
<path d="M14.8515 27.6298L42.3267 50.433L69.771 27.6298L76.3614 22.1533V41.4293L71.3799 45.5753L42.3267 69.709L13.2735 45.5753L8.29208 41.4293V22.1533L14.8515 27.6298Z" fill="#FFEDDE"/>
<path d="M42.3267 57.766L7.85891 29.115L8.75619 28.063L42.3577 55.9714L75.9592 28.063L76.8564 29.115L42.3267 57.766ZM76.7945 35.5506L75.8973 34.4986L42.2958 62.407L8.72525 34.4677L7.82797 35.5197L42.2958 64.1707L76.7945 35.5506Z" fill="#FF893B"/>
<path d="M71.3799 45.5754V70.1113C71.3799 77.7227 63.6448 82.8898 57.1473 85.8601C50.6807 88.8304 44.0903 90.3155 42.3267 90.6559C40.594 90.3155 34.0656 88.8613 27.599 85.891C21.0705 82.9207 13.2735 77.7537 13.2735 70.1113V45.5754L42.3267 69.7091L71.3799 45.5754Z" fill="#232D59"/>
<path d="M76.3614 41.4294V70.1114C76.3614 89.3255 44.1522 95.3898 42.7599 95.6374L42.3267 95.7302L41.8936 95.6374C40.5322 95.3898 8.29208 89.3255 8.29208 70.1114V41.4294L13.2735 45.5755V70.1114C13.2735 77.7537 21.0705 82.9208 27.599 85.8911C34.0656 88.8614 40.5941 90.2846 42.3267 90.6559C44.0594 90.2846 50.6497 88.8304 57.1473 85.8601C63.6448 82.8898 71.3799 77.7228 71.3799 70.1114V45.5755L76.3614 41.4294Z" fill="#FFC299"/>
<path d="M76.3614 22.1533L69.771 27.6298L42.3267 13.2424L14.8515 27.6298L8.29208 22.1533L42.3267 4.33154L76.3614 22.1533Z" fill="#FFC299"/>
<path d="M66.8317 26.0829L69.771 27.63L76.3614 22.1535L73.422 20.6064L66.8317 26.0829Z" fill="#FF893B"/>
<path d="M17.7908 26.0829L14.8515 27.63L8.29208 22.1535L11.2314 20.6064L17.7908 26.0829Z" fill="#FF893B"/>
<path d="M69.771 27.6298L42.3267 50.433L14.8515 27.6298L42.3267 13.2424L69.771 27.6298Z" fill="#232D59"/>
<path d="M42.3267 3.55811L7.58044 21.7512V70.1113C7.58044 89.8824 40.3465 96.0705 41.7389 96.318L42.2958 96.4108L42.8527 96.318C44.245 96.0705 77.0111 89.8824 77.0111 70.1113V21.7512L42.3267 3.55811ZM75.6497 41.12L42.2958 68.8428L8.97277 41.12V23.6385L42.3267 51.3613L75.6807 23.6385V41.12H75.6497ZM13.9542 47.0606L42.2958 70.6373L70.6374 47.0606V70.1113C70.6374 77.3514 63.1188 82.3329 56.8069 85.2103C50.5879 88.0569 44.276 89.5111 42.2958 89.9442C40.3156 89.542 34.0656 88.0878 27.8465 85.2722C21.5037 82.3638 13.9233 77.3824 13.9233 70.1113V47.0606H13.9542ZM16.0891 27.7536L42.2958 14.047L68.5025 27.7536L42.2958 49.5358L16.0891 27.7536ZM75.1237 22.2772L69.7091 26.7945L42.3267 12.469L14.9443 26.7945L9.5297 22.2772L42.3267 5.10514L75.1237 22.2772ZM59.7772 89.3564C51.547 93.3168 43.0074 94.8947 42.6361 94.9566L42.3267 95.0185L42.0173 94.9566C41.646 94.8947 33.1064 93.3168 24.8762 89.3564C14.3255 84.2821 8.97277 77.8155 8.97277 70.1113V42.9145L12.5619 45.9158V70.1113C12.5619 78.1249 20.5755 83.4467 27.2896 86.5098C33.7871 89.4801 40.3156 90.9343 42.172 91.3056L42.2958 91.3366L42.4195 91.3056C44.276 90.9343 50.8663 89.4492 57.3948 86.448C64.078 83.3848 72.0297 78.063 72.0297 70.0804V45.8848L75.6188 42.8836V70.0804C75.6497 77.8155 70.328 84.2821 59.7772 89.3564Z" fill="#12172E"/>
<path d="M42.3267 59.2203C52.477 59.2203 60.7054 50.9919 60.7054 40.8416C60.7054 30.6913 52.477 22.4629 42.3267 22.4629C32.1764 22.4629 23.948 30.6913 23.948 40.8416C23.948 50.9919 32.1764 59.2203 42.3267 59.2203Z" fill="#6585C9"/>
<path d="M58.9683 42.1481C60.5078 32.9459 54.2959 24.238 45.0936 22.6985C35.8914 21.1591 27.1835 27.371 25.6441 36.5732C24.1046 45.7755 30.3165 54.4833 39.5187 56.0228C48.721 57.5622 57.4288 51.3503 58.9683 42.1481Z" fill="#B7C7EB"/>
<path d="M24.6287 40.4084L27.073 47.0916C27.073 47.0916 27.6299 49.7215 28.3416 50.7735C29.0532 51.8255 27.8156 45.7611 27.8156 45.7611L25.3403 40.0371L24.6287 40.4084Z" fill="#FFEDDE"/>
<path d="M36.2624 54.9815C36.2624 54.9815 36.8193 54.6721 37.1596 54.0224C37.3143 53.7439 37.5928 53.5583 37.9022 53.5273L44.5544 52.661C44.802 52.63 45.0495 52.6919 45.2661 52.8466C45.7611 53.2179 46.7203 53.8986 47.4629 54.1771L45.1733 51.5471L36.6646 52.7229L36.2624 54.9815Z" fill="#FFEDDE"/>
<path d="M58.8181 36.1388L58.0136 36.6029C57.6114 36.8195 57.302 37.2217 57.1473 37.6858L55.2908 43.9977C55.2289 44.1834 55.2289 44.4 55.2599 44.5856C55.4146 45.2972 55.7859 47.0608 55.7549 48.0819L54.146 44.0287L56.9926 35.8604L58.8181 36.1388Z" fill="#FFEDDE"/>
<path d="M47.3643 46.0078C53.5689 43.2235 56.3415 35.9365 53.5572 29.732C50.7729 23.5274 43.4859 20.7547 37.2813 23.5391C31.0767 26.3234 28.3041 33.6104 31.0884 39.815C33.8728 46.0195 41.1597 48.7922 47.3643 46.0078Z" fill="#FFEDDE"/>
<path d="M61.2933 39.0471C60.7054 33.9728 58.1992 29.4246 54.177 26.2686C50.1856 23.0818 45.1732 21.6585 40.099 22.2464C29.6411 23.453 22.0916 32.9518 23.2982 43.4097C24.4121 53.156 32.7042 60.3342 42.2648 60.3342C42.9765 60.3342 43.719 60.3033 44.4616 60.2105C49.5359 59.6226 54.0841 57.1164 57.2401 53.0941C60.4579 49.1028 61.8812 44.1214 61.2933 39.0471ZM55.8168 36.3243C56.0024 36.51 56.0953 36.8194 56.0024 37.0669L54.0222 43.286C53.9294 43.5335 53.7128 43.7191 53.4344 43.7191C51.6708 43.7501 49.9381 44.0595 48.2054 44.5855C47.9579 44.6474 47.6794 44.5855 47.5247 44.3689L43.1621 39.0162C42.9765 38.7686 42.9146 38.4283 43.0074 38.1498C43.6571 36.2625 44.1522 34.2823 44.5854 32.3021C44.6472 32.0236 44.8638 31.807 45.1423 31.7761L51.2995 30.8478C51.5161 30.8169 51.7636 30.9407 51.8873 31.1263C53.0012 33.1065 54.3007 34.8082 55.8168 36.3243ZM38.9851 27.9085L39.6349 23.8862C39.6658 23.6696 39.8515 23.484 40.099 23.453C40.1918 23.453 40.2537 23.4221 40.3465 23.4221C44.3688 22.958 48.3292 23.8862 51.7017 26.0521C51.8873 26.1758 51.9802 26.4233 51.9183 26.6399C51.6398 27.5991 51.4542 28.5892 51.4542 29.6102C51.4542 29.8577 51.2685 30.0743 51.021 30.1053L44.5235 31.0644C44.3069 31.0954 44.0903 31.0335 43.9356 30.9407C42.4195 29.9196 40.9034 29.0842 39.3564 28.4654C39.0779 28.3726 38.9542 28.156 38.9851 27.9085ZM28.2487 30.8788C28.2487 30.6313 28.3416 30.3528 28.4963 30.1672C30.8787 27.0112 34.344 24.6907 38.3972 23.7625C38.6138 23.7006 38.8304 23.9172 38.7995 24.1337L38.1497 28.0941C38.1188 28.2798 37.995 28.4345 37.8094 28.5273C35.7673 29.5483 34.0656 30.9716 32.7042 32.7352C32.6423 32.7971 32.5495 32.859 32.4567 32.859L28.5891 33.0446C28.4034 33.0446 28.2487 32.8899 28.2487 32.7043C28.2487 32.1164 28.2487 31.5285 28.2487 30.8788ZM27.9393 50.4642C26.3923 48.2055 25.3713 45.5756 25.0309 42.6672C24.9381 41.9555 24.9072 41.2439 24.9072 40.5632C24.9072 40.3157 25.1547 40.4394 25.2475 40.7179L27.4752 46.7204C27.5371 46.8751 27.568 47.0607 27.568 47.2464C27.6299 48.2674 27.8156 49.3194 28.1559 50.3714C28.2178 50.4951 28.0322 50.5879 27.9393 50.4642ZM31.6831 46.5966C30.7549 46.411 29.7648 46.3491 28.7128 46.411C28.4653 46.411 28.2178 46.2563 28.125 46.0087L25.9901 40.2847C25.8972 40.0681 25.9282 39.8206 26.052 39.604C26.7945 38.2736 27.8774 36.2006 28.1559 34.2823C28.1869 34.0347 28.4034 33.8491 28.62 33.8491L31.9307 33.6944C32.1472 33.6944 32.3329 33.8491 32.3948 34.0657C32.7351 35.8602 33.2611 37.5929 34.1274 39.2018C34.3131 39.5422 34.344 39.9444 34.2203 40.3157L32.1472 46.3491C32.0854 46.5038 31.8688 46.6276 31.6831 46.5966ZM32.8589 46.7513L34.9319 40.687C35.0866 40.2538 35.4888 39.9753 35.9529 39.9444C37.8094 39.8516 39.6658 39.635 41.5222 39.2946C41.9245 39.2327 42.3267 39.3565 42.5742 39.6659L46.875 44.8949C47.0916 45.1424 47.0916 45.4827 46.9368 45.7612C45.9468 47.4011 45.2351 49.0409 44.8638 50.7117C44.802 51.0211 44.5544 51.2377 44.245 51.2996L37.4381 52.2278C37.1596 52.2587 36.8812 52.135 36.7265 51.9184C35.5507 50.3095 34.3131 48.8243 33.0445 47.4939C32.8589 47.3082 32.7661 47.0298 32.8589 46.7513ZM35.1175 56.4976C34.9938 56.4357 34.8391 56.3738 34.7153 56.312C34.4059 56.1573 34.5297 55.6622 34.901 55.6931C34.901 55.6931 34.901 55.6931 34.9319 55.6931C35.0557 55.6931 35.2104 55.755 35.3032 55.8478L35.427 55.9407C35.7673 56.1882 35.4888 56.6523 35.1175 56.4976ZM48.6695 55.1362L47.6485 56.9308C47.5247 57.1474 47.3081 57.333 47.0606 57.3949C46.1633 57.6424 45.2351 57.828 44.276 57.9518C43.0074 58.1065 41.7698 58.1065 40.5631 57.9827C39.8824 57.9209 39.2326 57.6733 38.6757 57.2711L36.5408 55.755C36.2005 55.5075 36.1076 55.0743 36.3242 54.734C36.5408 54.3627 36.6955 53.9914 36.8502 53.5892C36.943 53.3107 37.1906 53.0941 37.5 53.0632L44.5235 52.0731C44.8638 52.0422 45.1732 52.1659 45.3898 52.4134C46.2562 53.4654 47.2153 54.208 48.3911 54.4865C48.7005 54.5793 48.8242 54.8887 48.6695 55.1362ZM56.9925 50.031C56.6831 50.5261 56.3119 51.0211 55.9406 51.4852C54.2388 53.6201 52.1039 55.2909 49.6906 56.4357C49.3502 56.5904 49.0099 56.2191 49.1955 55.8788L49.8453 54.734C49.9381 54.5483 50.0928 54.4246 50.2784 54.3318C52.4752 53.2488 54.177 51.7637 55.4146 50.031C55.5383 49.8454 55.7549 49.7216 56.0024 49.6907L56.7141 49.5978C56.9616 49.5978 57.1163 49.8454 56.9925 50.031ZM57.9208 48.3912C57.8279 48.5768 57.6423 48.7006 57.4566 48.7315L56.4975 48.8553C56.1571 48.8862 55.8787 48.6696 55.8168 48.3293C55.6002 46.8751 55.167 45.6374 54.7029 44.4617C54.6411 44.3379 54.6411 44.1832 54.672 44.0285L56.8997 37.005C56.9616 36.7884 57.1472 36.6028 57.3948 36.5409C57.8279 36.4481 58.2302 36.3243 58.5705 36.1696C58.818 36.0459 59.1274 36.2006 59.1893 36.479C59.375 37.1907 59.4987 37.9332 59.5916 38.7068C59.9938 42.0793 59.4059 45.4209 57.9208 48.3912Z" fill="#12172E"/>
<path d="M33.0755 33.1374C33.4468 32.7042 33.849 32.2711 34.2512 31.8379C34.6534 31.4357 35.0866 31.0334 35.5198 30.6312C35.953 30.2599 36.4171 29.8886 36.9121 29.5792C37.4072 29.2698 37.9332 28.9604 38.4591 28.7129C38.521 28.682 38.5829 28.682 38.6138 28.7129C39.5421 29.1151 40.4393 29.5792 41.3057 30.0743C41.7388 30.3218 42.172 30.6003 42.5742 30.8787C42.9765 31.1572 43.4096 31.4357 43.7809 31.776C43.8119 31.807 43.8428 31.8688 43.7809 31.9307C43.75 31.9617 43.6881 31.9926 43.6262 31.9307C43.2549 31.6213 42.8218 31.3738 42.4195 31.0953C41.9864 30.8478 41.5532 30.6003 41.12 30.3837C40.2537 29.9196 39.3564 29.5174 38.4282 29.177H38.6138C38.0879 29.3627 37.5928 29.6411 37.0978 29.9196C36.6027 30.229 36.1386 30.5384 35.7054 30.9097C35.2413 31.25 34.8082 31.6523 34.4059 32.0235C33.9728 32.4258 33.5705 32.828 33.1992 33.2612C33.1683 33.2921 33.1064 33.2921 33.0445 33.2612C33.0445 33.2302 33.0136 33.1683 33.0755 33.1374Z" fill="#6585C9"/>
<path d="M45.5445 51.4542C45.6373 50.9282 45.792 50.4332 45.9158 49.9381C46.0705 49.4431 46.2252 48.948 46.4109 48.453C46.7821 47.4629 47.2153 46.5037 47.896 45.6374C47.927 45.6064 47.927 45.6064 47.9579 45.5755C48.422 45.3589 48.917 45.2042 49.4121 45.0804C49.9071 44.9567 50.4022 44.8639 50.8663 44.802C51.3614 44.7401 51.8564 44.6782 52.3515 44.6163C52.8465 44.5854 53.3416 44.5544 53.8366 44.5544C53.8675 44.5544 53.8985 44.5854 53.8985 44.6163C53.8985 44.6473 53.8675 44.6782 53.8366 44.6782C53.3416 44.6782 52.8465 44.7401 52.3824 44.802C51.8873 44.8639 51.4232 44.9567 50.9282 45.0495C50.4331 45.1423 49.969 45.2661 49.5049 45.3898C49.0408 45.5445 48.5767 45.6992 48.1435 45.9158L48.2054 45.8539C47.5557 46.6275 47.0916 47.5557 46.6893 48.5148C46.4727 48.9789 46.318 49.474 46.1324 49.969C45.9777 50.4641 45.823 50.9591 45.6992 51.4542C45.6992 51.4851 45.6373 51.5161 45.6064 51.5161C45.5755 51.5161 45.5445 51.4851 45.5445 51.4542Z" fill="#6585C9"/>
<path d="M80.5074 63.4281C80.5074 63.4281 80.2289 63.3353 79.8886 63.2425C80.4455 61.912 80.724 60.5197 80.724 59.0655C80.724 58.6633 80.693 58.2301 80.6621 57.8279C80.693 57.4257 80.724 57.0234 80.724 56.6521C80.724 54.9504 80.3836 53.4962 79.672 52.2895C78.8366 50.8353 77.568 49.8452 75.9901 49.443C75.4332 49.2883 74.8143 49.1955 74.1646 49.1955C73.3292 49.1955 72.4319 49.3192 71.4727 49.6286C69.3688 50.2474 67.2029 50.7425 65.3465 51.1447L64.1398 51.4232C60.8911 52.1039 57.5495 52.6299 54.2698 53.0011L52.3205 53.2177L51.3304 53.3106V53.3724C50.7735 53.3106 50.2166 53.2796 49.6287 53.2796C49.3193 53.2796 49.0099 53.2796 48.7005 53.3106C46.9059 53.4343 45.297 53.8675 43.9356 54.6101C43.6262 54.7648 43.3478 54.9504 43.1002 55.136C42.2648 54.6101 41.3676 54.2078 40.4393 53.9294C39.3874 53.62 38.2426 53.4343 37.0668 53.3724C36.8502 53.3724 36.6027 53.3415 36.3861 53.3415C34.8082 53.3415 33.3849 53.62 32.1473 54.2078C31.4975 54.5172 30.8787 54.8885 30.3527 55.3217C29.5792 54.4863 28.6819 53.7747 27.6918 53.2177C26.578 52.568 25.4022 52.1348 24.1337 51.9182C23.5458 51.8254 22.9888 51.7635 22.4319 51.7635C21.6584 51.7635 20.8849 51.8563 20.2042 52.0729C19.6163 52.2276 19.0594 52.4752 18.5643 52.7536C17.7908 51.9492 16.9245 51.2685 15.9653 50.7115C14.8824 50.0618 13.6757 49.5667 12.3453 49.2264C11.5408 49.0098 10.7673 48.917 10.0247 48.917C9.40593 48.917 8.81806 48.9789 8.23019 49.1336C6.74504 49.5358 5.50742 50.4021 4.67202 51.6707C3.89851 52.8155 3.52722 54.2388 3.52722 55.8786C3.52722 56.2809 3.55816 56.714 3.5891 57.1472C3.52722 57.5185 3.52722 57.9207 3.52722 58.292C3.52722 58.4158 3.52722 58.5395 3.52722 58.6942L3.27969 58.6633V59.9009V62.3143V67.8836V70.2969V70.761L3.62004 71.1014L4.30073 71.7511C5.44553 72.865 6.7141 73.6385 8.0136 74.0717C9.15841 74.443 10.396 74.6286 11.8502 74.6286C13.2735 74.6286 14.6039 74.3502 15.7797 73.8551C16.5841 73.5148 17.2648 73.0507 17.8837 72.4937C18.5025 73.0197 19.1832 73.4529 19.9257 73.8242C20.297 74.0098 20.6992 74.1645 21.1015 74.2883V74.3811V76.7945C21.1015 77.9083 21.6893 78.9294 22.6485 79.4863C23.7933 80.136 24.8453 80.4455 26.052 80.4455H58.3849C60.0557 80.4455 61.2624 79.9195 62.1906 78.8365C62.9641 77.9083 63.521 76.1447 63.1188 74.6905C63.1497 74.6286 63.1497 74.5358 63.1807 74.4739H63.8614H67.1411L74.0718 74.443L80.2289 74.412H81.3428V73.2982V70.8848V66.9863V64.5729V63.7375L80.5074 63.4281Z" fill="#12172E"/>
<path d="M78.5272 64.0161C78.3416 63.3664 78.125 62.7475 77.9393 62.1287C77.9703 62.0668 78.0322 62.005 78.0631 61.9431C78.3416 61.5099 78.62 61.0149 78.8366 60.5198V60.4889C79.3626 59.2822 79.6101 58.0136 79.6101 56.6832C79.6101 55.198 79.3007 53.8985 78.7129 52.8775C78.0322 51.7017 76.9802 50.8664 75.7116 50.526C75.2475 50.4022 74.7215 50.3094 74.1955 50.3094C73.453 50.3094 72.6795 50.4332 71.8131 50.6807C69.771 51.2686 67.698 51.7636 65.625 52.2277L64.4183 52.5062C61.1386 53.1869 57.7661 53.7129 54.4245 54.0842L52.4752 54.3008V54.703C52.3205 54.672 52.1349 54.6102 51.9802 54.5792C51.2376 54.4245 50.4641 54.3626 49.6906 54.3626C49.4121 54.3626 49.1337 54.3626 48.8552 54.3936C47.2153 54.4864 45.7611 54.8886 44.5545 55.5693C44.0594 55.8478 43.6262 56.1572 43.1931 56.4975C42.2649 55.8169 41.2748 55.2909 40.1918 54.9815C39.2017 54.703 38.1807 54.5173 37.0978 54.4864C36.8812 54.4864 36.6646 54.4555 36.479 54.4555C35.0557 54.4555 33.7871 54.703 32.7042 55.229C31.776 55.6621 30.9715 56.25 30.3527 56.9926C30.1671 56.7451 29.9814 56.4975 29.7649 56.281C29.0223 55.4765 28.1869 54.7649 27.2277 54.2389C26.2376 53.651 25.1547 53.2797 24.0408 53.0941C23.5149 53.0013 23.0198 52.9703 22.5557 52.9703C21.875 52.9703 21.2253 53.0631 20.6064 53.2488C19.8329 53.4654 19.0904 53.8367 18.4715 54.3008L18.1003 53.8985C17.3267 53.0631 16.4604 52.3515 15.4703 51.7636C14.4802 51.1758 13.3663 50.7116 12.1597 50.4022C11.448 50.2166 10.7673 50.1238 10.1176 50.1238C9.59159 50.1238 9.09654 50.1857 8.63243 50.3094C7.42575 50.6188 6.40471 51.3614 5.72402 52.4134C5.07426 53.3725 4.76486 54.5792 4.76486 56.0025C4.76486 57.3329 5.01238 58.5396 5.47649 59.5607C5.56931 59.7772 5.69308 59.9629 5.7859 60.1795L4.51733 60.0248V68.0074L5.19803 68.6572C6.21907 69.6473 7.33293 70.3589 8.47773 70.7302C9.49877 71.0706 10.6436 71.2253 11.974 71.2253C13.2426 71.2253 14.4183 71.0087 15.4394 70.5446C16.4604 70.0805 17.3267 69.4307 17.9455 68.5953C18.6572 69.3998 19.5235 70.0495 20.5136 70.5136C21.1015 70.7921 21.7512 71.0087 22.401 71.1015H22.3391V74.4431C22.3391 75.1547 22.7104 75.8354 23.3292 76.1758C24.1955 76.6708 25.0928 77.0112 26.1757 77.0112C26.1757 77.0112 56.5903 77.0112 58.5087 77.0112C60.0247 77.0112 60.8601 76.4852 61.479 75.7735C61.6337 75.6188 61.7574 75.4332 61.8502 75.2785C61.8502 75.2475 61.8812 75.2475 61.8812 75.2166C62.1596 74.7216 62.2834 74.1646 62.2834 73.5458C62.2834 73.1745 62.2215 72.8032 62.0978 72.4319C62.1287 72.2463 62.1596 72.0297 62.1596 71.8131C62.1596 71.5347 62.1287 71.2562 62.0668 71.0087C62.7166 71.0087 63.9851 71.0087 63.9851 71.0087H67.2648L74.1955 70.9777L80.3527 70.9468V64.6349C80.198 64.5112 78.5582 64.0161 78.5272 64.0161Z" fill="#232D59"/>
<path d="M11.8812 69.5236C10.8292 69.5236 9.90098 69.3999 9.09653 69.1214C8.29207 68.8429 7.45668 68.3479 6.65222 67.5744C6.65222 66.0583 6.65222 64.5422 6.65222 63.0261C7.45668 63.1189 8.23019 63.2118 9.03465 63.3046C9.12747 64.0472 9.22029 64.8207 9.31311 65.5632C9.49876 65.8417 9.8391 66.0892 10.3032 66.3058C10.7673 66.5224 11.2933 66.6462 11.8502 66.6462C12.2525 66.6771 12.5619 66.6152 12.8403 66.5224C13.3663 66.3058 13.6448 65.8726 13.6448 65.2229C13.6448 64.9135 13.5829 64.635 13.4592 64.3875C13.2116 63.9234 12.6238 63.3974 11.6646 62.8405C10.5817 62.2835 9.6844 61.6957 8.97277 61.1078C8.26113 60.5199 7.76608 59.8702 7.42574 59.1276C7.08539 58.385 6.93069 57.5187 6.93069 56.4976C6.93069 55.5385 7.11633 54.734 7.51856 54.1462C7.92079 53.5583 8.44678 53.1561 9.15841 52.9704C9.87004 52.7848 10.6436 52.8157 11.5718 53.0632C12.5928 53.3417 13.521 53.713 14.3255 54.208C15.1299 54.7031 15.8416 55.26 16.4604 55.9407C16.4604 57.1165 16.4913 58.3231 16.4913 59.4989C15.7178 59.3751 14.9752 59.2514 14.2017 59.1276C14.078 58.416 13.9542 57.7043 13.8304 56.9927C13.6448 56.838 13.3354 56.6523 12.9641 56.4667C12.5928 56.2811 12.1906 56.1573 11.7884 56.0335C11.4171 55.9407 11.1077 55.9407 10.8601 55.9717C10.5817 56.0335 10.3651 56.1573 10.2104 56.3429C10.0557 56.5595 9.96286 56.838 9.96286 57.1783C9.96286 57.4568 10.0247 57.7353 10.1794 58.0137C10.3342 58.2922 10.5817 58.6016 10.9839 58.911C11.3861 59.2204 11.8193 59.5608 12.3143 59.8702C13.7686 60.6437 14.8824 61.4172 15.625 62.2526C16.3985 63.088 16.7698 64.109 16.8007 65.3776C16.8007 66.2439 16.6151 66.9865 16.2129 67.5744C15.8106 68.1932 15.2228 68.6573 14.5111 68.9667C13.7067 69.338 12.8403 69.5236 11.8812 69.5236ZM23.7933 69.5236C22.896 69.5236 22.0916 69.3689 21.3181 68.9976C20.5755 68.6573 19.9257 68.1313 19.3688 67.4816C18.8119 66.8318 18.3787 66.0273 18.0693 65.1301C17.7599 64.2328 17.6052 63.2427 17.5742 62.1907C17.5742 62.1288 17.5742 62.036 17.5742 61.9741C17.5742 60.9222 17.698 59.9939 17.9765 59.1585C18.2549 58.3231 18.6881 57.6424 19.2141 57.0855C19.7401 56.5286 20.3898 56.1573 21.1324 55.9407C21.875 55.7241 22.6794 55.7241 23.5767 55.8788C24.4431 56.0335 25.2785 56.3429 26.021 56.7761C26.7636 57.2093 27.4443 57.7662 28.0322 58.385C28.5891 59.0348 29.0532 59.7464 29.3626 60.5199C29.672 61.3244 29.8577 62.1598 29.8577 63.0261C29.8577 63.088 29.8577 63.1499 29.8577 63.2118C29.8577 64.109 29.7339 64.9444 29.4245 65.687C29.1151 66.4296 28.6819 67.1103 28.125 67.6672C27.5681 68.2241 26.9183 68.6882 26.1757 68.9976C25.4641 69.338 24.6596 69.5236 23.7933 69.5236ZM23.7624 67.0793C24.4121 67.1103 24.969 66.9246 25.4332 66.6152C26.3614 65.9036 26.8255 64.7278 26.7945 63.0261C26.7945 62.9642 26.7945 62.8714 26.7945 62.8095C26.7945 62.0051 26.6398 61.2934 26.3923 60.6127C26.1448 59.963 25.7735 59.437 25.3094 59.0348C24.8453 58.6325 24.2884 58.385 23.6386 58.2922C22.927 58.1994 22.37 58.2922 21.9678 58.5707C21.5346 58.8801 21.2252 59.3442 21.0087 59.963C20.7921 60.5818 20.6992 61.3553 20.7302 62.2526C20.7302 62.3454 20.7302 62.4073 20.7302 62.5001C20.7302 63.3974 20.854 64.2019 21.1015 64.8825C21.3181 65.5632 21.6584 66.0892 22.1225 66.4915C22.5247 66.8627 23.0817 67.0484 23.7624 67.0793ZM37.1287 69.5236C35.922 69.5236 34.8082 69.307 33.849 68.8429C32.8898 68.3788 32.1163 67.6981 31.5594 66.7699C31.0025 65.8726 30.724 64.7588 30.6931 63.4593C30.6931 63.2736 30.6931 63.088 30.6931 62.9023C30.6931 61.7266 30.9096 60.6746 31.4356 59.8083C31.9307 58.942 32.6423 58.2922 33.6015 57.859C34.5297 57.4259 35.6436 57.2402 36.974 57.3021C37.8713 57.333 38.7376 57.4877 39.573 57.7353C40.4084 57.9828 41.151 58.3541 41.8626 58.8801C41.8626 59.9011 41.8626 60.8912 41.8626 61.9123C41.0891 61.9123 40.3465 61.9122 39.573 61.8813C39.4802 61.2934 39.3564 60.7056 39.2636 60.1486C39.1708 60.0868 39.047 60.0249 38.9542 59.963C38.8614 59.9011 38.7376 59.8392 38.6139 59.8083C38.1497 59.5917 37.6547 59.4989 37.0668 59.4679C36.4171 59.437 35.8292 59.5608 35.3341 59.8083C34.8391 60.0868 34.4678 60.489 34.1893 61.015C33.9109 61.541 33.7871 62.2217 33.7871 62.9952C33.7871 63.1808 33.7871 63.3665 33.7871 63.5521C33.7871 64.2947 33.9418 64.9444 34.2203 65.5014C34.4988 66.0583 34.901 66.5224 35.396 66.8318C35.8911 67.1412 36.479 67.2959 37.1287 67.3269C37.469 67.3269 37.8403 67.2959 38.1807 67.234C38.552 67.1721 38.8923 67.0793 39.2327 66.9556C39.3255 66.3986 39.4492 65.8417 39.5421 65.2848C40.3156 65.2848 41.0582 65.2848 41.8317 65.2848C41.8317 66.2749 41.8317 67.265 41.8317 68.2551C41.3057 68.5645 40.6559 68.8429 39.8824 69.0905C39.078 69.3999 38.1807 69.5236 37.1287 69.5236ZM48.979 69.5236C47.7723 69.5236 46.6584 69.307 45.6992 68.8429C44.7401 68.3788 43.9975 67.7291 43.4406 66.8937C42.8837 66.0273 42.6052 65.0063 42.6052 63.7687C42.6052 63.583 42.6052 63.3974 42.6052 63.2427C42.6052 62.1288 42.8527 61.1078 43.3787 60.2415C43.9047 59.3751 44.6163 58.6944 45.5755 58.1684C46.5346 57.6424 47.6485 57.364 48.948 57.2712C49.8453 57.2093 50.7116 57.2712 51.547 57.4259C52.3515 57.5806 53.125 57.2712 53.8057 57.7662C53.8057 58.8182 53.7747 60.5199 53.7747 61.5719C53.0322 61.6338 52.2587 61.6647 51.5161 61.6957C51.4233 61.1078 51.3304 60.5199 51.2067 59.932C51.1138 59.8702 50.9901 59.8392 50.8973 59.7773C50.8044 59.7155 50.6807 59.6845 50.5879 59.6536C50.1237 59.4989 49.6287 59.437 49.0408 59.437C48.3911 59.4679 47.8032 59.6536 47.3082 59.932C46.8131 60.2415 46.4418 60.6746 46.1634 61.2006C45.8849 61.7575 45.7611 62.4073 45.7611 63.1808C45.7611 63.3665 45.7611 63.5521 45.7611 63.7377C45.7611 64.4494 45.8849 65.0991 46.1634 65.6251C46.4418 66.1821 46.8131 66.5843 47.3391 66.8937C47.8341 67.2031 48.422 67.3578 49.0718 67.3269C49.4121 67.3269 49.7834 67.2959 50.1237 67.2031C50.495 67.1412 50.8354 67.0174 51.1757 66.9246C51.2995 66.3677 51.3923 65.7798 51.5161 65.1919C52.2587 65.161 53.0322 65.1301 53.7747 65.1301C53.7747 66.1511 53.7438 67.2031 53.7438 68.2241C53.2178 68.5645 52.5681 68.8739 51.7636 69.1214C50.9282 69.3999 50.0309 69.5236 48.979 69.5236ZM65.0062 65.1919C64.9752 66.5533 64.9752 67.9457 64.9443 69.307C61.4789 69.307 57.9827 69.338 54.5173 69.338C54.5173 68.7501 54.5173 68.1622 54.5483 67.6053C54.9814 67.5125 55.4455 67.4197 55.8787 67.2959C55.9096 64.4803 55.9406 61.6647 55.9715 58.8182C55.5383 58.7873 55.0742 58.7254 54.6411 58.6635C54.6411 58.0756 54.6411 57.4877 54.672 56.8999C58.1374 56.5286 61.5718 55.9717 65.0062 55.26C64.9752 56.6214 64.9752 57.9519 64.9443 59.3132C64.1708 59.437 63.3973 59.5298 62.5928 59.6536C62.5619 59.1895 62.5619 58.7254 62.5309 58.2613C61.3861 58.4469 60.2413 58.6016 59.0965 58.7254C59.0965 59.6226 59.0656 60.489 59.0656 61.3863C60.427 61.2625 61.8193 61.1078 63.1807 60.9531C63.1807 61.7885 63.1497 62.6239 63.1497 63.4902C61.7884 63.614 60.396 63.7068 59.0346 63.7996C59.0346 64.8207 59.0037 65.8726 59.0037 66.8937C60.2104 66.8627 61.4171 66.8318 62.5928 66.7699C62.6237 66.2749 62.6547 65.7798 62.6856 65.3157C63.4591 65.2848 64.2327 65.2229 65.0062 65.1919ZM75.4641 62.2526C75.8973 63.614 76.3304 65.0063 76.7945 66.4605C77.1968 66.5843 77.599 66.6771 78.0012 66.8009C78.0012 67.6053 78.0012 68.4407 78.0012 69.2452C76.7636 69.2452 75.495 69.2452 74.2574 69.2761C73.7314 67.3268 73.2054 65.4085 72.7104 63.5521C71.9987 63.614 71.3181 63.6759 70.6064 63.7377C70.6064 64.7588 70.5755 65.7798 70.5755 66.8009C71.0087 66.8937 71.4728 66.9865 71.9059 67.0793C71.9059 67.8219 71.9059 68.5645 71.875 69.2761C69.9567 69.2761 68.0384 69.2761 66.0891 69.307C66.0891 68.6264 66.12 67.9766 66.12 67.2959C66.5532 67.1721 67.0173 67.0484 67.4505 66.9246C67.4814 63.6449 67.5124 60.3652 67.5742 57.0855C67.1411 57.0546 66.677 57.0546 66.2438 57.0236C66.2438 56.3429 66.2747 55.6622 66.2747 54.9816C68.3787 54.5174 70.4827 53.9915 72.5557 53.4036C73.5767 53.1251 74.4431 53.0632 75.1547 53.2489C75.8973 53.4345 76.4542 53.8986 76.8564 54.5793C77.2586 55.26 77.4443 56.1573 77.4443 57.2712C77.4443 58.2922 77.2277 59.2823 76.8255 60.2105C76.6398 60.6127 76.4542 60.984 76.2067 61.3244C75.9901 61.6957 75.7426 62.0051 75.4641 62.2526ZM70.6374 56.7761C70.6374 58.1375 70.6064 59.5298 70.6064 60.8912C71.2562 60.7984 71.875 60.7056 72.5247 60.6127C73.1126 60.5199 73.5767 60.2724 73.9171 59.8702C74.2265 59.4679 74.4121 58.911 74.4121 58.2303C74.4121 57.5187 74.2574 56.9927 73.948 56.6523C73.6386 56.312 73.1745 56.2192 72.5557 56.3429C71.9059 56.4976 71.2562 56.6523 70.6374 56.7761ZM26.052 75.2786C25.7116 75.2786 25.4332 75.2476 25.1856 75.1858C24.9381 75.1239 24.6906 75.0001 24.4431 74.8454V73.7934H25.1856L25.2785 74.3194C25.3403 74.3813 25.4332 74.4432 25.5879 74.4741C25.7426 74.5051 25.8973 74.536 26.0829 74.536C26.2067 74.536 26.2995 74.536 26.3923 74.4741C26.547 74.4122 26.6398 74.2885 26.6398 74.1338C26.6398 74.041 26.6089 73.9791 26.578 73.9172C26.5161 73.7934 26.3304 73.6697 26.021 73.5769C25.6807 73.484 25.4022 73.3603 25.1856 73.2365C24.9691 73.1127 24.8143 72.989 24.6906 72.8343C24.5978 72.6796 24.5359 72.4939 24.5359 72.2464C24.5359 72.0298 24.5978 71.8442 24.7215 71.6585C24.8453 71.5038 25.0309 71.3491 25.2475 71.2563C25.4641 71.1635 25.7116 71.1016 26.021 71.1016C26.3614 71.1016 26.6398 71.1325 26.8874 71.1944C27.1349 71.2563 27.3515 71.3801 27.5371 71.5348V72.4939H26.8255L26.7017 71.9679C26.6398 71.937 26.547 71.9061 26.4233 71.8751C26.2995 71.8442 26.1757 71.8442 26.052 71.8442C25.9282 71.8442 25.8354 71.8442 25.7426 71.8751C25.6497 71.9061 25.5879 71.937 25.526 71.9989C25.4641 72.0608 25.4641 72.1226 25.4641 72.2155C25.4641 72.2773 25.495 72.3392 25.526 72.4011C25.5569 72.463 25.6497 72.5249 25.7735 72.5868C25.8973 72.6486 26.021 72.7105 26.1757 72.7724C26.6398 72.8962 26.9802 73.0818 27.1968 73.2674C27.4443 73.4531 27.5371 73.7316 27.5371 74.0719C27.5371 74.3194 27.4752 74.5051 27.3515 74.6598C27.2277 74.8145 27.0421 74.9382 26.8255 75.0311C26.6089 75.2476 26.3614 75.2786 26.052 75.2786ZM29.5792 74.5051V75.2167H27.7846V74.5051L28.1869 74.4122V71.8751L27.7846 71.7823V70.9778L29.7339 71.1944C30.0433 71.1944 30.3218 71.2563 30.5693 71.3491C30.8168 71.4729 30.9715 71.6276 31.1262 71.8132C31.25 71.9989 31.3119 72.2464 31.3119 72.4939C31.3119 72.7724 31.25 72.989 31.1262 73.1746C31.0025 73.3603 30.8168 73.515 30.5693 73.6387C30.3218 73.7625 30.0433 73.7934 29.7339 73.7934H29.177V74.3504L29.5792 74.5051ZM29.7339 71.9679H29.177V73.1437H29.7339C29.9195 73.1437 30.0742 73.0818 30.1671 72.989C30.2599 72.8962 30.3218 72.7415 30.3218 72.5868C30.3218 72.4011 30.2599 72.2773 30.1671 72.1536C30.0742 72.0298 29.9195 71.9679 29.7339 71.9679ZM33.4158 75.2786C33.1374 75.2786 32.8898 75.2167 32.6423 75.1239C32.4257 75.0311 32.2091 74.8764 32.0544 74.6907C31.8997 74.5051 31.745 74.2885 31.6522 74.041C31.5594 73.7934 31.5285 73.515 31.5285 73.2365V73.1746C31.5285 72.8962 31.5594 72.6177 31.6522 72.3702C31.745 72.1226 31.8688 71.9061 32.0544 71.7204C32.2091 71.5348 32.4257 71.3801 32.6423 71.2872C32.8589 71.1944 33.1374 71.1325 33.4158 71.1325C33.6943 71.1325 33.9418 71.1944 34.1584 71.2872C34.4059 71.3801 34.5916 71.5348 34.7772 71.7204C34.9629 71.9061 35.0866 72.1226 35.1794 72.3702C35.2723 72.6177 35.3341 72.8962 35.3341 73.1746V73.2365C35.3341 73.515 35.2723 73.7934 35.1794 74.041C35.0866 74.2885 34.9319 74.5051 34.7772 74.6907C34.5916 74.8764 34.4059 75.0311 34.1584 75.1239C33.9418 75.2476 33.6943 75.2786 33.4158 75.2786ZM33.4158 74.5669C33.6015 74.5669 33.7871 74.5051 33.9418 74.4122C34.2203 74.1957 34.375 73.8244 34.375 73.2674V73.2056C34.375 72.958 34.344 72.7415 34.2512 72.5249C34.1893 72.3392 34.0656 72.1845 33.9109 72.0608C33.7562 71.9679 33.6015 71.9061 33.3849 71.9061C33.1683 71.9061 32.9827 71.9679 32.8589 72.0608C32.7351 72.1536 32.6114 72.3083 32.5495 72.4939C32.4876 72.6796 32.4567 72.9271 32.4567 73.1746V73.2365C32.4567 73.484 32.4876 73.7316 32.5495 73.9172C32.6114 74.1028 32.7042 74.2575 32.8589 74.3813C33.0445 74.5051 33.2302 74.5669 33.4158 74.5669ZM38.521 73.5459L38.9233 74.3194L39.2945 74.4122V75.2167H38.1188L37.6238 73.7625H36.974V74.4122L37.3762 74.5051V75.2167H35.5817V74.4432L35.9839 74.3504V71.8442L35.5817 71.7514V71.0397L37.5619 71.1944C37.8713 71.1944 38.1497 71.2563 38.3973 71.3491C38.6448 71.442 38.7995 71.5967 38.9233 71.7823C39.047 71.9679 39.1089 72.1845 39.1089 72.4321C39.1089 72.6796 39.047 72.8962 38.9233 73.0818C38.8614 73.1746 38.7995 73.2365 38.7376 73.3293C38.6757 73.4221 38.5829 73.515 38.521 73.5459ZM36.974 71.9679V73.0509H37.5619C37.7475 73.0509 37.9022 73.0199 37.995 72.9271C38.0879 72.8343 38.1497 72.7105 38.1497 72.5558C38.1497 72.4011 38.0879 72.2464 37.995 72.1536C37.9022 72.0608 37.7475 71.9989 37.5619 71.9989H36.974V71.9679ZM42.0792 74.4432V75.2476H40.2846V74.4432L40.6869 74.3504V71.9989H40.0681L40.0371 72.4321H39.2945V71.2563H43.0074V72.4321H42.2648L42.2339 71.9989H41.6151V74.3504L42.0792 74.4432ZM47.0606 75.2786C46.6893 75.2786 46.349 75.2167 46.0396 75.062C45.7302 74.9073 45.5136 74.6907 45.328 74.3813C45.1423 74.1028 45.0804 73.7316 45.0804 73.3293V73.1437C45.0804 72.7724 45.1733 72.4321 45.328 72.1226C45.4827 71.8132 45.6992 71.5967 46.0087 71.4419C46.2871 71.2872 46.6275 71.1944 47.0297 71.1944C47.3082 71.1944 47.5866 71.2254 47.8341 71.3182C48.0817 71.3801 48.3292 71.5038 48.5458 71.6895V72.7105H47.8341L47.7413 72.1226C47.7104 72.0917 47.6794 72.0917 47.6485 72.0608C47.6176 72.0298 47.5866 72.0298 47.5557 71.9989C47.4319 71.937 47.2463 71.9061 47.0916 71.9061C46.875 71.9061 46.7203 71.9679 46.5656 72.0608C46.4109 72.1536 46.2871 72.3083 46.2252 72.4939C46.1324 72.6796 46.1015 72.8962 46.1015 73.1746V73.3603C46.1015 73.6078 46.1324 73.8244 46.2252 74.01C46.3181 74.1957 46.4418 74.3504 46.5965 74.4432C46.7512 74.536 46.9369 74.5979 47.1225 74.5979C47.2153 74.5979 47.3391 74.5979 47.4629 74.5669C47.5866 74.536 47.6794 74.5051 47.7723 74.4741L47.8651 73.9172H48.5767V74.9382C48.422 75.062 48.2054 75.1548 47.9579 75.2167C47.6794 75.2476 47.401 75.2786 47.0606 75.2786ZM51.8874 73.9481V75.2476H48.7933V74.536L49.1955 74.5979V71.9061L48.7933 71.8132V71.0088H50.6807V71.8132L50.1856 71.9061V74.5051H51.1448L51.1757 73.9481H51.8874ZM54.1151 75.2786C53.7747 75.2786 53.4653 75.2167 53.2178 75.1239C52.9703 75.0001 52.7537 74.8454 52.6299 74.6288C52.4752 74.4122 52.4134 74.1647 52.4134 73.8553V71.9061L52.0111 71.8132V71.0088H53.8057V71.8132L53.4035 71.9061V73.8553C53.4035 74.01 53.4344 74.1647 53.4963 74.2575C53.62 74.4741 53.8366 74.5669 54.146 74.5669C54.3007 74.5669 54.4554 74.536 54.5483 74.5051C54.7648 74.4122 54.8886 74.1957 54.8886 73.8553V71.9061L54.4864 71.8132V71.0088H56.2809V71.8132L55.8787 71.9061V73.8553C55.8787 74.1647 55.8168 74.4122 55.6621 74.6288C55.5074 74.8454 55.3218 75.0001 55.0742 75.1239C54.7648 75.2476 54.4554 75.2786 54.1151 75.2786ZM58.4158 75.2476H56.4047V74.4741L56.8069 74.5979V71.9061L56.4047 71.8132V70.9778L58.1992 71.2563C58.6943 71.2563 59.0965 71.3491 59.375 71.5348C59.6535 71.7204 59.8082 71.9989 59.8082 72.3702C59.8082 72.5558 59.7772 72.7415 59.6844 72.8652C59.5916 73.0199 59.4678 73.1127 59.2822 73.2056C59.4369 73.2365 59.5606 73.2984 59.6844 73.3912C59.7772 73.484 59.87 73.5769 59.901 73.7006C59.9629 73.8244 59.9629 73.9481 59.9629 74.0719C59.9629 74.4741 59.8391 74.7526 59.5606 74.9692C59.2822 75.1239 58.9109 75.2476 58.4158 75.2476ZM58.1992 71.9679H57.7661V72.8962H58.1683C58.6324 72.8962 58.849 72.7415 58.849 72.463C58.849 72.3083 58.7871 72.1845 58.6943 72.0917C58.5705 71.9989 58.4158 71.9679 58.1992 71.9679ZM58.4468 73.5459H57.7661V74.5051H58.4158C58.7871 74.5051 59.0037 74.3504 59.0037 74.041C59.0037 73.9172 58.9728 73.8244 58.9418 73.7625C58.849 73.6078 58.6943 73.5459 58.4468 73.5459Z" fill="#FFEDDE"/>
<path d="M42.3267 86.8504L44.2141 87.8405L43.8428 85.7366L45.3589 84.2514L43.2549 83.942L42.3267 82.0237L41.3676 83.942L39.2636 84.2514L40.8106 85.7366L40.4394 87.8405L42.3267 86.8504Z" fill="#FF893B"/>
<path d="M35.6436 85.1486L37.1596 85.953L36.8502 84.2513L38.0879 83.0756L36.3861 82.828L35.6436 81.281L34.87 82.828L33.1992 83.0756L34.4059 84.2513L34.1275 85.953L35.6436 85.1486Z" fill="#FF893B"/>
<path d="M49.0099 85.1486L50.526 85.953L50.2166 84.2513L51.4542 83.0756L49.7525 82.828L49.0099 81.281L48.2364 82.828L46.5656 83.0756L47.7723 84.2513L47.4938 85.953L49.0099 85.1486Z" fill="#FF893B"/>
</g>
<defs>
<clipPath id="clip0_1_81">
<rect width="84.6535" height="100" fill="white"/>
</clipPath>
</defs>
</svg>
