<svg width="100" height="100" viewBox="0 0 100 100" fill="none" xmlns="http://www.w3.org/2000/svg">
<path d="M50.1283 100C46.2723 100 35.2183 91.5 29.0486 86C14.3957 73 12.082 65.75 12.082 62.5V8.5L12.8532 8C13.3674 7.75 24.9355 0 50.1283 0C75.3211 0 86.6322 7.75 87.1463 8L87.9175 8.5V62.5C87.9175 65.75 85.6039 73 70.9509 86C64.7813 91.5 53.7273 100 50.1283 100Z" fill="#292929"/>
<path d="M16.1953 11.5V62.5C16.1953 66.5 21.8508 74 31.3624 82.5C40.6169 90.5 48.329 95.25 49.8714 95.5C51.4138 95.25 59.383 90.5 68.3804 82.5C77.892 74 83.5475 66.5 83.5475 62.5V11.5C80.4627 10 69.6658 4.75 49.8714 4.75C30.0771 4.75 19.2801 9.75 16.1953 11.5Z" fill="white"/>
<path d="M18.5098 14V61.25C18.5098 65 23.9082 72 32.6486 79.75C41.1319 87.25 48.5869 91.75 49.8722 92C51.4147 91.75 58.6126 87.25 67.0959 79.75C76.0933 72 81.2347 65 81.2347 61.25V14C78.4069 12.5 68.3812 7.75 49.8722 7.75C31.3632 7.75 21.3375 12.5 18.5098 14Z" fill="#292929"/>
<path d="M20.3086 15.5V60.75C20.3086 64.25 25.1929 71 33.6762 78.5C41.6454 85.75 48.5862 89.75 49.8716 90C51.1569 89.75 58.0978 85.5 66.0669 78.5C74.5502 71 79.4346 64.5 79.4346 60.75V15.5C76.8639 14 67.3523 9.5 49.8716 9.5C32.3909 9.75 23.1364 14.25 20.3086 15.5Z" fill="#E86A23"/>
<path d="M50.129 79.25L50.6432 81.5H53.2138L51.1573 82.75L51.9285 85L50.129 83.75L48.0725 85L48.8437 82.75L46.7871 81.5H49.3578L50.129 79.25Z" fill="white"/>
<path d="M42.6737 77.5L43.1879 79H44.9874L43.702 80L44.2162 81.75L42.6737 80.75L41.3884 81.75L41.9025 80L40.6172 79H42.1596L42.6737 77.5Z" fill="white"/>
<path d="M57.3273 77.5L57.8414 79H59.6409L58.0985 80L58.6126 81.75L57.3273 80.75L55.7849 81.75L56.299 80L55.0137 79H56.8132L57.3273 77.5Z" fill="white"/>
<path d="M50.1279 37.25L20.0508 18V22.5L50.1279 42L79.948 22.5V18L50.1279 37.25Z" fill="#292929"/>
<path d="M20.0508 25.5V30.25L50.1279 49.5L79.948 30.25V25.5L50.1279 44.75L20.0508 25.5Z" fill="#292929"/>
<path d="M20.0508 33V37.75L50.1279 57L79.948 37.75V33L50.1279 52.5L20.0508 33Z" fill="#292929"/>
<path d="M20.0508 40.75V45.25L50.1279 64.75L79.948 45.25V40.75L50.1279 60L20.0508 40.75Z" fill="#292929"/>
<path d="M50.1296 69.25C63.0494 69.25 73.523 59.0645 73.523 46.5C73.523 33.9355 63.0494 23.75 50.1296 23.75C37.2099 23.75 26.7363 33.9355 26.7363 46.5C26.7363 59.0645 37.2099 69.25 50.1296 69.25Z" fill="#E86A23"/>
<path d="M50.1293 66.75C61.6293 66.75 70.9519 57.6838 70.9519 46.5C70.9519 35.3162 61.6293 26.25 50.1293 26.25C38.6292 26.25 29.3066 35.3162 29.3066 46.5C29.3066 57.6838 38.6292 66.75 50.1293 66.75Z" fill="#292929"/>
<path d="M58.4599 63.0714C67.8944 58.5758 71.7952 47.4935 67.1724 38.3184C62.5497 29.1432 51.154 25.3498 41.7195 29.8454C32.2849 34.341 28.3842 45.4232 33.0069 54.5984C37.6296 63.7735 49.0253 67.567 58.4599 63.0714Z" fill="white"/>
<path d="M53.4704 44.25L45.2441 49.25V49L53.2133 44.25H53.4704Z" fill="#292929"/>
<path d="M53.7289 37.25C53.7289 37.5 52.7006 36.5 51.1582 35.75C49.6158 34.75 47.5593 34 45.7598 33.5V33.25C49.8729 34 53.7289 37.25 53.7289 37.25Z" fill="#292929"/>
<path d="M39.5866 36.75C38.8174 39.25 38.8174 41.5 38.8174 43.25C38.8174 45 39.0738 46 39.0738 46H38.8174C39.0738 46.25 38.0481 41.75 39.5866 36.75Z" fill="#292929"/>
<path d="M60.1534 48.25C60.9227 52 59.897 56.25 59.897 56.25H59.6406C59.6406 56.25 59.897 55.25 60.1534 53.75C60.4099 52 60.4099 50 60.1534 48.25C59.897 48 59.897 47.75 59.6406 47.5H59.897C59.897 47.5 60.1534 48 60.1534 48.25Z" fill="#292929"/>
<path d="M50.3855 59C51.9279 59.75 53.4704 60 53.4704 60V60.25C53.4704 60.25 48.0719 59 45.2441 56C46.5295 57.25 48.586 58.25 50.3855 59Z" fill="#292929"/>
<path d="M60.4113 31.75C60.9241 34.25 60.1548 36.5 60.1548 36.5H59.8984C59.8984 36.5 60.1548 36 60.1548 35C60.4113 34.25 60.4113 33 60.4113 31.75C60.1548 31.5 60.1548 31.5 60.1548 31.25H60.4113C60.1548 31.5 60.4113 31.75 60.4113 31.75Z" fill="#292929"/>
<path d="M34.4481 50.25C35.2193 50.5 35.7335 50.75 35.7335 50.75V51C35.7335 51 33.4198 50.75 31.3633 48.5C32.6486 49.25 33.6769 49.75 34.4481 50.25Z" fill="#292929"/>
<path d="M39.0758 56.75C39.0758 56.75 38.8194 58.5 39.3322 61C39.3322 61.25 39.5886 61.5 39.5886 61.75C39.5886 61.5 39.3322 61.25 39.3322 61C38.8194 58.5 39.0758 56.75 39.0758 56.75Z" fill="#292929"/>
<path d="M68.3819 45C67.8678 44.75 66.8395 44.25 65.8112 43.75C64.7829 43.25 64.0117 43 64.0117 43V42.75C64.0117 42.75 67.6107 44.25 68.3819 45Z" fill="#292929"/>
<path d="M68.6387 50.25C66.8392 55.75 63.2402 58 63.2402 58C63.2402 58 64.0114 57.5 65.2968 56.25C66.3251 54.75 67.8675 53 68.6387 50.25Z" fill="#292929"/>
<path d="M53.2142 63.5C53.2142 63.5 48.844 64.75 44.2168 64.25C44.2168 64.25 49.3582 65.25 53.2142 63.5Z" fill="white"/>
<path d="M36.2477 35.75C36.2477 35.75 34.7053 36.25 33.4199 38C33.4199 38 34.1911 36.5 36.2477 35.5V35.75Z" fill="#292929"/>
<path d="M46.0156 30.25C46.0156 30.25 47.558 29.25 50.8999 28.25C50.8999 28.25 47.8151 28.75 46.0156 30V30.25Z" fill="#292929"/>
<path d="M64.011 57.5C62.7257 60.5 59.1267 63 59.1267 63C55.7848 64.25 52.957 64 52.957 64V60C56.0419 59 60.155 56 60.155 56L64.011 57.5Z" fill="#292929"/>
<path d="M60.155 48.25C60.155 48.25 54.4994 45 52.957 44.5C52.957 44.5 53.4712 38.75 53.2141 37C53.2141 37 57.0701 35.5 60.155 36C60.155 36 62.9827 38.75 64.2681 43C64.5252 43 62.2115 47 60.155 48.25Z" fill="#292929"/>
<path d="M46.273 33.5001C46.273 33.5001 41.3887 35.0001 39.3321 37.7501C39.3321 37.7501 37.5327 36.2501 35.9902 35.7501C35.9902 35.7501 38.0468 31.7501 40.1033 30.7501C40.1033 30.7501 42.9311 29.5001 46.5301 29.7501C46.7871 29.7501 46.273 31.2501 46.273 33.5001Z" fill="#292929"/>
<path d="M45.7598 56.5C45.7598 56.5 45.7598 51.25 45.7598 49C45.7598 49 41.1326 46.75 38.8189 45.5C38.8189 45.5 35.22 49 34.9629 50.75C34.9629 50.75 35.7341 54.75 38.8189 57.5C39.076 57.25 42.1608 58.25 45.7598 56.5Z" fill="#292929"/>
<path d="M45.5023 56.25C45.5023 56.25 45.5023 51.25 45.5023 49.25C45.5023 49.25 41.1321 47 39.0755 45.75C39.0755 45.75 35.7336 49 35.4766 50.75C35.4766 50.75 36.2478 54.5 39.0755 57.25C39.0755 57 41.9033 58 45.5023 56.25Z" fill="#292929"/>
<path d="M68.3813 51C69.1525 48.25 69.1525 45.25 68.3813 42.25C68.3813 43 68.1243 44.25 67.8672 45C68.1243 45 68.8955 48.5 68.3813 51Z" fill="#292929"/>
<path d="M60.1547 32C60.1547 32 61.44 32.25 62.7254 32.75C59.8976 30.25 56.0416 28.5 52.1855 28C54.2421 28.5 58.0981 29.75 60.1547 32Z" fill="#292929"/>
<path d="M31.1059 43.75C30.8495 46 30.8495 48.25 31.3623 50.5C31.3623 49.75 31.3623 49 31.8752 48.5C31.6187 48.5 31.3623 46.25 31.1059 43.75Z" fill="#292929"/>
<path d="M39.5897 61.25C38.3043 61 36.5048 59.5 35.4766 58.5C38.0473 61.5 41.3892 63.5 44.9881 64.5C42.1604 63.25 39.5897 61.25 39.5897 61.25Z" fill="#292929"/>
<g opacity="0.2">
<path d="M51.9288 44.75L46.2733 48.25C45.7591 48.5 45.245 48.5 44.7309 48.25L39.8465 45.75C39.3324 45.5 39.3324 45.5 39.8465 45.75L44.7309 47.75C45.245 48 45.7591 48 46.2733 47.75L51.9288 44.75C52.4429 44.5 52.4429 44.5 51.9288 44.75Z" fill="#292929"/>
<path d="M60.4114 48.25C60.4114 48.25 61.1826 53 60.1543 55.75L63.7533 57.25L60.4114 55.5C60.4114 55.75 61.1826 52.5 60.4114 48.25Z" fill="#292929"/>
<path d="M64.0096 57.5C64.0096 57.5 63.2384 60 59.8965 62.25C59.8965 62.25 62.9813 60.75 64.0096 57.5Z" fill="#292929"/>
<path d="M53.47 36.75C53.47 36.75 49.871 34 46.5291 33.25C46.5291 33.25 46.272 32 46.7862 30C46.7862 30 46.5291 32 46.7862 33.25C46.5291 33 50.1281 33.75 53.47 36.75Z" fill="#292929"/>
<path d="M39.3322 37.75C39.3322 37.75 38.561 41 39.0752 45C39.0752 45 39.0752 40.25 39.5893 38.25C39.5893 38 39.8464 37.5 40.1035 37.25C40.8747 36.5 42.9312 34.75 46.2731 33.5C46.2731 33.75 42.4171 34.75 39.3322 37.75Z" fill="#292929"/>
<path d="M38.8177 45.25C38.8177 45.25 35.4758 48.25 35.2188 50.25C35.2188 50.25 35.2188 47.75 38.8177 45.25Z" fill="#292929"/>
</g>
<path d="M37.7894 19.5V20C37.5324 20 37.5324 20 37.2753 20C37.0182 20 37.0182 20 36.7612 20C36.5041 20 36.247 20 35.99 20C35.7329 20 35.4758 20 35.4758 20C35.4758 20 35.2188 19.75 35.2188 19.5C35.2188 19.25 35.2188 19 35.2188 18.75C35.2188 18.5 35.2188 18.25 35.2188 18C35.2188 17.75 35.4758 17.5 35.4758 17.5C35.4758 17.5 35.7329 17.25 35.99 17.25C36.247 17.25 36.5041 17.25 36.7612 17.25C37.0182 17.25 37.2753 17.25 37.2753 17.25C37.5324 17.25 37.5324 17.25 37.7894 17.25V18C37.5324 18 37.5324 18 37.2753 18C37.0182 18 37.0182 18 36.7612 18C36.5041 18 36.5041 18 36.247 18C36.247 18 35.99 18 35.99 18.25V18.5C35.99 18.75 35.99 18.75 35.99 19C35.99 19.25 35.99 19.5 35.99 19.5C35.99 19.75 35.99 19.75 35.99 19.75C35.99 19.75 36.247 19.75 36.247 20C36.247 20 36.5041 20 36.7612 20C37.0182 20 37.0182 20 37.2753 20C37.2753 19.5 37.5324 19.5 37.7894 19.5Z" fill="#292929"/>
<path d="M38.8181 20.25H38.0469V17H38.8181V18.25H40.1034V17H41.1317V20.25H40.3605V18.75H39.0752V20.25H38.8181Z" fill="#292929"/>
<path d="M44.7294 20.25H43.9582C43.7011 20 43.7011 20 43.7011 20V19.75H42.6728C42.6728 20 42.4157 20.25 42.4157 20.25H41.6445L42.6728 17H43.9582L44.7294 20.25ZM42.9299 17.5C42.9299 17.75 42.9299 18 42.6728 18.25C42.6728 18.5 42.4157 18.75 42.4157 19H43.1869C43.1869 18.75 42.9299 18.5 42.9299 18.25C43.1869 18 42.9299 17.75 42.9299 17.5Z" fill="#292929"/>
<path d="M46.5307 20C46.5307 19.75 46.5307 19.5 46.2736 19.5C46.2736 19.25 46.2736 19 46.0166 19C45.7595 19 46.0166 18.5 45.7595 18.5C45.7595 18.25 45.7595 18.25 45.7595 18C45.7595 17.75 45.7595 17.75 45.7595 17.75V18V18.25V18.5V20.25H44.9883V17H46.2736C46.2736 17.25 46.2736 17.25 46.5307 17.5C46.7878 17.75 46.5307 18 46.7878 18C46.7878 18.25 46.7878 18.5 47.0448 18.5C47.0448 18.75 47.0448 18.75 47.0448 19C47.0448 18.75 47.0448 18.75 47.0448 18.5C47.0448 18.25 47.0448 18.25 47.3019 18C47.559 17.75 47.3019 17.5 47.559 17.5C47.816 17.5 47.559 17 47.816 17H48.8443V20.25H48.0731V18.25V18V17.75V17.5V17.75C48.0731 18 48.0731 18 48.0731 18.25C48.0731 18.5 48.0731 18.5 47.816 18.75C47.816 19 47.816 19.25 47.559 19.25C47.559 19.5 47.559 19.75 47.3019 19.75H46.5307V20Z" fill="#292929"/>
<path d="M50.3864 20.25H49.6152V17H51.1577C51.4147 17 51.6718 17 51.9289 17C52.1859 17 52.1859 17.25 52.443 17.5C52.7001 17.75 52.7001 18 52.7001 18.25C52.7001 18.5 52.7001 18.75 52.443 19C52.443 19.25 52.1859 19.25 51.9289 19.5C51.6718 19.75 51.4147 19.25 50.9006 19.25H50.3864V20.25ZM50.9006 17.5H50.3864V18.5H50.9006C51.1577 18.5 51.4147 18.5 51.4147 18.5C51.4147 18.5 51.4147 18.25 51.4147 18C51.4147 17.75 51.4147 17.75 51.4147 17.5C51.1577 17.75 51.1577 17.5 50.9006 17.5Z" fill="#292929"/>
<path d="M53.4684 20.25H52.6992V17H53.4684V20.25Z" fill="#292929"/>
<path d="M53.9844 18.5C53.9844 18 53.9844 17.75 54.2414 17.5C54.2414 17.25 54.4985 17 54.7556 17C55.0127 17 55.2697 16.75 55.7839 16.75C56.0409 16.75 56.298 16.75 56.5551 16.75C56.8121 16.75 56.8121 17 57.0692 17C57.0692 17.25 57.3263 17.25 57.3263 17.5C57.3263 17.75 57.3263 18 57.3263 18.25C57.3263 18.5 57.3263 18.75 57.3263 19C57.3263 19.25 57.0692 19.5 57.0692 19.5C57.0692 19.5 56.8121 20 56.5551 20.25C56.298 20.25 56.0409 20.25 55.7839 20.25C55.5268 20.25 55.2697 20.25 55.0127 20.25C54.7556 20.25 54.7556 20 54.4985 20C54.2414 20 54.2414 19.75 54.2414 19.5C53.9844 19 53.9844 18.75 53.9844 18.5ZM55.7839 19.5C56.0409 19.5 56.298 19.5 56.298 19.5L56.5551 19.25C56.5551 19 56.5551 19 56.5551 18.75C56.5551 18.5 56.5551 18.25 56.5551 18.25C56.5551 18 56.5551 18 56.298 18C56.298 18 56.0409 18 55.7839 18C55.5268 18 55.2697 18 55.2697 18L55.0127 18.25C55.0127 18.25 55.0127 18.5 55.0127 18.75C55.0127 19 55.0127 19.25 55.0127 19.25C55.0127 19.25 55.0127 19.5 55.2697 19.5C55.2697 19.5 55.5268 19.5 55.7839 19.5Z" fill="#292929"/>
<path d="M59.8976 17H60.6688V20.25H59.8976L59.1264 18.75L58.8693 18.5C58.8693 18.5 58.8693 18.25 58.6123 18.25C58.6123 18.25 58.6123 18 58.3552 18C58.3552 18.25 58.3552 18.25 58.3552 18.5C58.3552 18.75 58.3552 18.75 58.3552 19V20.25H57.584V17H58.3552L59.3835 18.25L59.6405 18.5C59.6405 18.5 59.6405 18.75 59.8976 18.75C59.8976 18.75 59.8976 19 60.1547 19C60.1547 18.75 60.1547 18.75 60.1547 18.5C60.1547 18.25 60.1547 18.25 60.1547 18V17H59.8976Z" fill="#292929"/>
<path d="M61.1836 19.25C61.4407 19.25 61.4407 19.25 61.6977 19.25C61.9548 19.25 61.9548 19.25 62.2119 19.25C62.4689 19.25 62.726 19.25 62.726 19.25H62.9831C62.9831 19.25 62.9831 19.25 62.9831 19C62.9831 19 62.9831 19 62.9831 18.75C62.9831 18.75 62.9831 18.75 62.726 18.75H62.4689H62.2119C61.9548 18.75 61.6977 18.75 61.6977 18.5C61.4407 18.5 61.4407 18.25 61.4407 18.25C61.4407 18 61.4407 18 61.4407 17.75C61.4407 17.5 61.4407 17.25 61.6977 17.25C61.6977 17 61.9548 17 62.2119 17C62.4689 17 62.726 17 62.9831 17C63.4972 17 63.7543 17 64.2684 17.25V18C64.0114 18 63.4972 17.75 63.2402 17.75C62.9831 17.75 62.9831 17.75 62.726 17.75H62.4689C62.4689 17.75 62.4689 17.75 62.4689 18C62.4689 18.25 62.4689 18.25 62.4689 18.25C62.4689 18.25 62.4689 18.25 62.726 18.25H62.9831H63.2402C63.4972 18.25 63.7543 18.25 64.0114 18.5C64.2684 18.5 64.2684 18.75 64.2684 18.75C64.2684 18.75 64.2684 19 64.2684 19.25C64.2684 19.5 64.2684 19.75 64.0114 19.75C63.7543 20 63.7543 20 63.4972 20C63.2402 20 62.9831 20 62.4689 20C62.2119 20 61.9548 20 61.6977 20C61.4407 20 61.1836 20 61.1836 20V19.25Z" fill="#292929"/>
<path d="M31.6198 16.25L32.1339 17.75H33.6764L32.391 18.5L32.9051 19.75L31.6198 19L30.5915 19.75L30.8486 18.5L29.8203 17.75H31.1057L31.6198 16.25Z" fill="white"/>
<path d="M68.3808 16.25L68.8949 17.75H70.1803L69.152 18.5L69.6661 19.75L68.3808 19L67.0954 19.75L67.6096 18.5L66.3242 17.75H67.8666L68.3808 16.25Z" fill="white"/>
<path d="M50.1288 52C19.0234 52 0.771484 44.75 0.771484 44.75V67.75C0.771484 67.75 22.6224 74.5 50.1288 74.5C77.6352 74.5 99.4861 67.75 99.4861 67.75V44.75C99.2291 44.75 81.2342 52 50.1288 52Z" fill="#E86A23"/>
<path d="M50.1293 75C22.6229 75 0.771951 68.25 0.514882 68H0.257812V44L1.02902 44.25C1.28609 44.25 19.2809 51.5 50.1293 51.5C66.0676 51.5 78.664 49.5 86.3761 47.75C94.6023 46 99.2295 44.25 99.2295 44L100.001 43.75V67.75H99.7437C99.2295 68.25 77.3786 75 50.1293 75ZM1.28609 67.5C4.11385 68.25 24.6794 74.25 50.1293 74.25C75.5792 74.25 96.1447 68.25 98.9725 67.5V45.25C95.3735 46.5 77.6357 52.25 50.1293 52.25C33.9339 52.25 21.3375 50.25 13.6254 48.5C7.19869 47 2.82851 45.75 1.28609 45V67.5V67.5Z" fill="#292929"/>
<path d="M50.1285 75.25C22.8792 75.25 0.771208 68.5 0.514139 68.25H0V43.75L1.02828 44.25C1.28535 44.25 19.5373 51.5 49.8715 51.5C65.8098 51.5 78.4062 49.5 85.8612 48C94.0874 46.25 98.4576 44.5 98.7147 44.5L99.7429 44V68.5L99.2288 68.75C99.2288 68.5 77.3779 75.25 50.1285 75.25ZM0.514139 67.75C0.771208 67.75 22.8792 74.75 50.1285 74.75C77.3779 74.75 99.2288 68 99.4859 68H99.7429V44.5L99.4859 44.75C99.2288 44.75 94.6015 46.75 86.6324 48.5C78.9203 50.25 66.581 52.25 50.3856 52.25C19.7943 52.25 1.54242 45 1.28535 45L1.02828 44.75V67.75H0.514139ZM50.1285 74.5C24.6787 74.5 3.59897 68.5 1.28535 67.75H1.02828V45H1.28535C2.82776 45.5 6.94087 47 13.6247 48.5C21.3368 50.25 33.9332 52.25 50.1285 52.25C77.892 52.25 95.6298 46.25 98.7147 45.25H98.9717V68H98.7147C96.6581 68.25 75.5784 74.5 50.1285 74.5ZM1.54242 67.25C4.62725 68.25 25.1928 74 50.1285 74C75.0643 74 95.6298 68.25 98.7147 67.25V45.75C94.6015 47.25 77.1208 52.75 50.1285 52.75C33.9332 52.75 21.3368 50.75 13.6247 49C7.45501 47.75 3.3419 46.25 1.54242 45.75V67.25V67.25Z" fill="#292929"/>
<path d="M17.737 66.75C16.9658 66.75 16.7087 66.5 15.9375 66.5C15.9375 62.25 15.9375 58.25 15.9375 54C17.9941 54.25 19.0223 54.5 21.0789 54.75C21.0789 55.5 21.0789 55.75 21.0789 56.5C19.7935 56.25 19.0223 56.25 17.737 56C17.737 57.25 17.737 58 17.737 59.5C18.7653 59.75 19.2794 59.75 20.0506 59.75C20.0506 60.5 20.0506 61 20.0506 61.75C19.0223 61.5 18.5082 61.5 17.737 61.5C17.737 63.5 17.737 64.5 17.737 66.75Z" fill="white"/>
<path d="M25.191 55.2499C25.9623 55.2499 26.7335 55.7499 27.2476 56.4999C27.7617 57.2499 28.0188 57.9999 28.0188 58.7499C28.0188 61.4999 28.0188 62.7499 28.0188 65.4999C28.0188 66.2499 27.7617 66.9999 27.2476 67.4999C26.7335 67.9999 25.9623 68.2499 25.191 67.9999C24.4198 67.9999 23.6486 67.4999 23.1345 66.7499C22.6204 65.9999 22.3633 65.2499 22.3633 64.4999C22.3633 61.7499 22.3633 60.4999 22.3633 57.7499C22.3633 56.9999 22.6204 56.2499 23.1345 55.7499C23.6486 55.2499 24.4198 54.9999 25.191 55.2499ZM26.2193 58.2499C26.2193 57.9999 26.2193 57.7499 25.9623 57.4999C25.7052 57.2499 25.4481 57.2499 25.191 56.9999C24.934 56.9999 24.6769 56.9999 24.4198 57.2499C24.1628 57.4999 24.1628 57.7499 24.1628 57.9999C24.1628 60.7499 24.1628 61.9999 24.1628 64.7499C24.1628 64.9999 24.1628 65.2499 24.4198 65.4999C24.6769 65.7499 24.934 65.9999 25.191 65.9999C25.4481 65.9999 25.7052 65.9999 25.9623 65.7499C26.2193 65.4999 26.2193 65.2499 26.2193 64.9999C26.2193 62.2499 26.2193 60.9999 26.2193 58.2499Z" fill="white"/>
<path d="M32.3903 56C33.1615 56 33.9327 56.5 34.4468 57C34.961 57.75 35.218 58.25 35.218 59.25C35.218 62 35.218 63.25 35.218 66C35.218 66.75 34.961 67.5 34.4468 68C33.9327 68.5 33.1615 68.75 32.3903 68.75C31.6191 68.75 30.8478 68.25 30.3337 67.5C29.8196 66.75 29.5625 66 29.5625 65.25C29.5625 62.5 29.5625 61.25 29.5625 58.5C29.5625 57.75 29.8196 57 30.3337 56.5C30.8478 56.25 31.6191 56 32.3903 56ZM33.4185 59.25C33.4185 59 33.4185 58.75 33.1615 58.5C32.9044 58.25 32.6473 58.25 32.3903 58C32.1332 58 31.8761 58 31.6191 58.25C31.362 58.5 31.362 58.75 31.362 59C31.362 61.75 31.362 63 31.362 65.75C31.362 66 31.362 66.25 31.6191 66.5C31.8761 66.75 32.1332 66.75 32.3903 67C32.6473 67 32.9044 67 33.1615 66.75C33.4185 66.5 33.4185 66.25 33.4185 66C33.4185 63.25 33.4185 61.75 33.4185 59.25Z" fill="white"/>
<path d="M38.3026 58.75C37.5314 58.75 37.0173 58.75 36.2461 58.5C36.2461 57.75 36.2461 57.5 36.2461 56.75C38.5597 57 39.588 57 41.9016 57.25C41.9016 58 41.9016 58.5 41.9016 59.25C41.1304 59.25 40.6163 59.25 39.8451 59C39.8451 63.25 39.8451 65.25 39.8451 69.5C39.0739 69.5 38.8168 69.5 38.0456 69.25C38.3026 65 38.3026 63 38.3026 58.75Z" fill="white"/>
<path d="M43.4434 69.75C43.4434 65.5 43.4434 61.5 43.4434 57.25C44.4716 57.25 44.9858 57.25 46.2711 57.25C47.0423 57.25 47.5565 57.5 48.3277 58C48.8418 58.25 49.0989 58.75 49.356 59.5C49.356 59.75 49.613 60.25 49.613 60.75C49.613 61.5 49.356 62.25 48.8418 62.75C48.5847 63 48.3277 63.25 48.3277 63.25C48.3277 63.25 49.0989 63.75 49.356 64.25C49.613 64.5 49.613 65 49.8701 65.5C49.8701 65.75 49.8701 66 49.8701 66.25C49.8701 67 49.613 67.75 49.356 68.25C49.0989 68.75 48.8418 69 48.3277 69.25C47.8135 69.5 47.2994 69.75 47.0423 69.75C45.4999 69.75 44.7287 69.75 43.4434 69.75ZM45.4999 62.5C45.757 62.5 46.0141 62.5 46.2711 62.5C46.7853 62.5 47.2994 62.25 47.2994 61.75C47.2994 61.5 47.2994 61.25 47.2994 61C47.2994 60.5 47.2994 60 47.0423 59.75C46.7853 59.5 46.5282 59.25 46.2711 59.25C46.0141 59.25 45.757 59.25 45.4999 59.25C45.4999 60.5 45.4999 61.25 45.4999 62.5ZM45.4999 68C45.757 68 46.0141 68 46.2711 68C46.7853 68 47.2994 67.75 47.5565 67C47.5565 66.75 47.5565 66.5 47.5565 66.25C47.5565 65.5 47.2994 65 47.0423 64.75C46.7853 64.5 46.5282 64.25 46.0141 64.25C45.757 64.25 45.4999 64.25 45.2428 64.25C45.4999 65.75 45.4999 66.5 45.4999 68Z" fill="white"/>
<path d="M52.9562 67C52.6991 68.25 52.6991 68.75 52.4421 69.75C51.6709 69.75 51.4138 69.75 50.6426 69.75C51.4138 65.5 51.9279 61.5 52.6991 57.25C53.7274 57.25 54.2415 57.25 55.2698 57.25C56.041 61.25 56.5552 65.5 57.3264 69.5C56.5552 69.5 56.2981 69.5 55.5269 69.5C55.2698 68.25 55.2698 67.75 55.0128 66.75C54.2415 67 53.7274 67 52.9562 67ZM53.9845 60.25C53.7274 62.25 53.4703 63.25 53.2133 65.25C53.7274 65.25 53.9845 65.25 54.4986 65.25C54.4986 63.25 54.2415 62.25 53.9845 60.25Z" fill="white"/>
<path d="M63.4957 69.25C61.4391 69.5 60.4108 69.5 58.6113 69.75C58.6113 65.5 58.6113 61.5 58.6113 57.25C59.3825 57.25 59.6396 57.25 60.4108 57C60.4108 61.25 60.4108 63.25 60.4108 67.5C61.6962 67.5 62.2103 67.25 63.4957 67.25C63.4957 68 63.4957 68.5 63.4957 69.25Z" fill="white"/>
<path d="M69.6656 68.5C67.609 68.75 66.5807 68.75 64.7812 69C64.7812 64.75 64.7812 60.75 64.7812 56.5C65.5525 56.5 65.8095 56.5 66.5807 56.25C66.5807 60.5 66.5807 62.5 66.5807 66.75C67.8661 66.5 68.3802 66.5 69.6656 66.5C69.6656 67.25 69.6656 67.75 69.6656 68.5Z" fill="white"/>
<path d="M73.778 68C73.0068 68 72.7497 68.25 71.9785 68.25C71.9785 64 71.9785 60 71.9785 55.75C74.0351 55.5 75.0633 55.25 77.1199 55C77.1199 55.75 77.1199 56.25 77.1199 57C75.8346 57.25 75.0634 57.25 73.778 57.5C73.778 58.75 73.778 59.5 73.778 61C74.8063 60.75 75.3204 60.75 76.3487 60.75C76.3487 61.5 76.3487 62 76.3487 62.75C75.3204 63 74.8063 63 73.778 63C73.778 64.75 73.778 65.75 73.778 68Z" fill="white"/>
<path d="M80.9762 67C80.205 67 79.4338 67 78.9196 66.5C78.4055 66 78.1484 65.25 78.1484 64.5C78.1484 61.75 78.1484 60.5 78.1484 57.75C78.1484 57 78.4055 56.25 78.9196 55.5C79.4338 54.75 80.205 54.5 80.9762 54.25C81.7474 54.25 82.5186 54.25 83.0328 54.75C83.5469 55.25 83.804 56 83.804 56.75C83.804 57.25 83.804 57.5 83.804 58.25C83.0328 58.25 82.7757 58.5 82.0045 58.5C82.0045 58 82.0045 57.75 82.0045 57C82.0045 56.75 82.0045 56.5 81.7474 56.25C81.4903 56 81.2333 56 80.9762 56C80.7191 56 80.4621 56.25 80.205 56.5C79.9479 56.75 79.9479 57 79.9479 57.25C79.9479 60 79.9479 61.25 79.9479 64C79.9479 64.25 79.9479 64.5 80.205 64.75C80.4621 65 80.7191 65 80.9762 65C81.2333 65 81.4903 64.75 81.7474 64.5C82.0045 64.25 82.0045 64 82.0045 63.75C82.0045 63 82.0045 62.75 82.0045 62C82.7757 62 83.0328 61.75 83.804 61.75C83.804 62.5 83.804 62.75 83.804 63.5C83.804 64.25 83.5469 65 83.0328 65.75C82.5186 66.5 82.0045 67 80.9762 67Z" fill="white"/>
</svg>
