<svg width="103" height="100" viewBox="0 0 103 100" fill="none" xmlns="http://www.w3.org/2000/svg">
<g clip-path="url(#clip0_1_84)">
<path fill-rule="evenodd" clip-rule="evenodd" d="M94.973 57.2997C93.4707 66.3136 89.2142 74.6726 82.6271 81.2404C74.3259 89.5609 63.1548 94.1834 51.406 94.1834C39.6572 94.1834 28.4861 89.5609 20.1656 81.2404C13.5978 74.6726 9.32203 66.3136 7.81972 57.2997H0V55.99H7.62712H19.6841H21.5139C22.6887 61.8452 25.5585 67.2573 29.8536 71.5524C40.8706 82.5693 62.134 82.396 72.9584 71.5524C77.2535 67.2573 80.1233 61.8452 81.2981 55.99H83.1279H95.1849H102.812V57.2997H94.973Z" fill="#404041"/>
<path fill-rule="evenodd" clip-rule="evenodd" d="M20.1656 18.7596C28.4861 10.4391 39.6379 5.81665 51.406 5.81665C63.1548 5.81665 74.3259 10.4391 82.6464 18.7596C89.2142 25.3274 93.49 33.6865 94.9923 42.7003H102.831V44.01H95.2041H83.1471H81.3174C80.1425 38.1549 77.2727 32.7427 72.9777 28.4476C67.2381 22.708 59.5339 19.5108 51.4253 19.5108C43.3166 19.5108 35.6125 22.708 29.8729 28.4476C25.5778 32.7427 22.708 38.1549 21.5331 44.01H19.7034H7.62712H0V42.7003H7.81972C9.32203 33.6865 13.5978 25.3274 20.1656 18.7596Z" fill="#24D1D1"/>
<path fill-rule="evenodd" clip-rule="evenodd" d="M94.9923 50.0385C94.9152 49.9999 94.8382 49.9422 94.7804 49.8844C94.7226 49.8266 94.6649 49.7496 94.6263 49.6725C94.5878 49.5955 94.5493 49.5184 94.53 49.4221C94.5108 49.3258 94.4915 49.2295 94.4915 49.1332C94.4915 48.9406 94.53 48.7673 94.5878 48.6132C94.6456 48.4591 94.7419 48.3243 94.8767 48.2087C95.0115 48.0932 95.1656 47.9969 95.339 47.9391C95.5123 47.8813 95.7049 47.8428 95.936 47.8428C96.1479 47.8428 96.3405 47.8813 96.5139 47.9391C96.6872 47.9969 96.8413 48.0932 96.9761 48.2087C97.1109 48.3243 97.2072 48.4591 97.2843 48.6132C97.3421 48.7673 97.3806 48.9406 97.3806 49.1332C97.3806 49.2295 97.3613 49.3258 97.342 49.4221C97.3228 49.5184 97.2843 49.5955 97.2458 49.6725C97.2072 49.7496 97.1495 49.8073 97.0917 49.8844C97.0339 49.9422 96.9568 49.9999 96.8798 50.0385C96.9761 50.077 97.0531 50.1348 97.1109 50.2118C97.188 50.2696 97.2458 50.3466 97.2843 50.4429C97.3228 50.52 97.3613 50.6163 97.3998 50.7126C97.4191 50.8089 97.4384 50.9244 97.4384 51.04C97.4384 51.2519 97.3998 51.4445 97.342 51.6178C97.265 51.7912 97.1687 51.9452 97.0339 52.0608C96.8991 52.1764 96.7257 52.2727 96.5524 52.3305C96.3598 52.3882 96.1479 52.4268 95.9168 52.4268C95.6857 52.4268 95.4738 52.3882 95.2812 52.3305C95.0886 52.2727 94.9345 52.1764 94.7997 52.0415C94.6649 51.9067 94.5686 51.7719 94.4915 51.5986C94.4145 51.4252 94.3952 51.2326 94.3952 51.0207C94.3952 50.9052 94.4145 50.7896 94.4337 50.6933C94.453 50.597 94.4915 50.5007 94.5493 50.4237C94.6071 50.3274 94.6649 50.2503 94.7226 50.1925C94.8189 50.1348 94.896 50.077 94.9923 50.0385ZM95.9746 51.5793C96.0516 51.5793 96.1286 51.5793 96.1864 51.5408C96.2442 51.5215 96.302 51.4637 96.3598 51.4252C96.4175 51.3674 96.4561 51.3096 96.4753 51.2326C96.4946 51.1556 96.5139 51.0785 96.5139 51.0015C96.5139 50.9244 96.4946 50.8474 96.4753 50.7704C96.4561 50.7126 96.4175 50.6548 96.3598 50.597C96.302 50.5392 96.2442 50.5007 96.1864 50.4815C96.1286 50.4622 96.0516 50.4429 95.9746 50.4429C95.8975 50.4429 95.8205 50.4622 95.7627 50.4815C95.7049 50.5007 95.6471 50.5392 95.5894 50.597C95.5508 50.6548 95.5123 50.7126 95.4738 50.7896C95.4545 50.8667 95.4353 50.9437 95.4353 51.04C95.4353 51.117 95.4545 51.1941 95.4738 51.2711C95.4931 51.3482 95.5316 51.406 95.5894 51.4445C95.6471 51.5023 95.7049 51.5408 95.7627 51.56C95.8205 51.5793 95.8783 51.5793 95.9746 51.5793ZM95.9746 49.6918C96.0516 49.6918 96.1286 49.6918 96.1864 49.6533C96.2442 49.634 96.302 49.5955 96.3405 49.5377C96.379 49.4992 96.4176 49.4414 96.4368 49.3643C96.4561 49.3066 96.4753 49.2295 96.4753 49.1525C96.4753 49.0754 96.4561 48.9984 96.4368 48.9406C96.4176 48.8828 96.379 48.8251 96.3405 48.7865C96.302 48.748 96.2442 48.7095 96.1864 48.6902C96.1286 48.671 96.0516 48.6517 95.9746 48.6517C95.8975 48.6517 95.8205 48.671 95.7627 48.6902C95.7049 48.7095 95.6471 48.748 95.5894 48.8058C95.5508 48.8443 95.5123 48.9021 95.493 48.9599C95.4738 49.0177 95.4545 49.0947 95.4545 49.1717C95.4545 49.2488 95.4738 49.3066 95.493 49.3836C95.5123 49.4414 95.5508 49.4992 95.6086 49.5569C95.6471 49.6147 95.7049 49.6533 95.782 49.6725C95.8205 49.6918 95.8975 49.711 95.9746 49.6918ZM92.1225 52.369V49.268L91.275 49.6725V48.7095L93.047 47.8428H93.1433V52.3497H92.1225V52.369ZM90.2542 50.9822C90.2542 51.2133 90.2157 51.4252 90.1579 51.6178C90.1001 51.7912 90.0038 51.9645 89.869 52.0801C89.7342 52.2149 89.5801 52.3112 89.4068 52.369C89.2334 52.4267 89.0216 52.4653 88.7904 52.4653C88.5593 52.4653 88.3474 52.4267 88.1741 52.369C88.0008 52.3112 87.8274 52.2149 87.7119 52.0801C87.577 51.9452 87.4807 51.7912 87.4229 51.6178C87.3652 51.4445 87.3266 51.2326 87.3266 51.0015V49.3451C87.3266 49.114 87.3652 48.9021 87.4229 48.7288C87.4807 48.5554 87.577 48.4013 87.7119 48.2665C87.8467 48.1317 88.0008 48.0354 88.1741 47.9776C88.3474 47.9198 88.5593 47.8813 88.7904 47.8813C89.0216 47.8813 89.2334 47.9198 89.4068 47.9776C89.5801 48.0354 89.7342 48.1317 89.869 48.2665C90.0038 48.4013 90.1001 48.5554 90.1579 48.7288C90.2157 48.9021 90.2542 49.114 90.2542 49.3451V50.9822ZM88.3089 49.3643V50.9244C88.3089 51.0207 88.3282 51.117 88.3475 51.1941C88.3667 51.2711 88.4052 51.3289 88.4437 51.3867C88.4823 51.4445 88.54 51.483 88.5978 51.5022C88.6556 51.5215 88.7134 51.5408 88.7904 51.5408C88.8675 51.5408 88.9253 51.5215 88.983 51.5022C89.0408 51.483 89.0793 51.4445 89.1179 51.3867C89.1564 51.3289 89.1949 51.2711 89.2142 51.1941C89.2334 51.117 89.2527 51.0207 89.2527 50.9244V49.3451C89.2527 49.2488 89.2527 49.1525 89.2142 49.0947C89.1949 49.0177 89.1564 48.9599 89.1179 48.9021C89.0793 48.8443 89.0408 48.8058 88.983 48.7865C88.9253 48.7673 88.8675 48.748 88.7904 48.748C88.7134 48.748 88.6556 48.7673 88.5978 48.7865C88.54 48.8251 88.5015 48.8636 88.4437 48.9021C88.4052 48.9599 88.3667 49.0177 88.3475 49.0947C88.3282 49.191 88.3089 49.268 88.3089 49.3643ZM83.6286 52.369V52.2534L85.4391 49.7303C85.4969 49.6725 85.5354 49.6147 85.5547 49.5569C85.5932 49.4992 85.6125 49.4606 85.6317 49.4221C85.651 49.3836 85.6702 49.3451 85.6702 49.3258C85.6702 49.2873 85.6895 49.2488 85.6895 49.2295C85.6895 49.1525 85.6702 49.0947 85.651 49.0369C85.6317 48.9791 85.5932 48.9406 85.5547 48.8828C85.5162 48.8443 85.4584 48.8058 85.4006 48.7865C85.3428 48.7673 85.285 48.748 85.208 48.748C85.131 48.748 85.0539 48.7673 84.9961 48.7865C84.9384 48.8058 84.8806 48.8443 84.8421 48.9021C84.8035 48.9599 84.765 49.0177 84.7458 49.0947C84.7265 49.1717 84.7072 49.2488 84.7072 49.3451V49.3836H83.6864C83.6864 49.1525 83.725 48.9406 83.802 48.748C83.879 48.5554 83.9753 48.4013 84.1102 48.2665C84.245 48.1317 84.3991 48.0354 84.5917 47.9583C84.7843 47.9006 84.9961 47.862 85.2273 47.862C85.4391 47.862 85.651 47.9006 85.8243 47.9583C85.9977 48.0161 86.171 48.1124 86.3058 48.228C86.4407 48.3435 86.537 48.4976 86.614 48.6517C86.6911 48.8058 86.7103 48.9984 86.7103 49.191C86.7103 49.268 86.7103 49.3451 86.6911 49.4414C86.6718 49.5184 86.6525 49.5955 86.6333 49.6725C86.614 49.7496 86.5755 49.8266 86.537 49.9036C86.4984 49.9807 86.4407 50.0577 86.3829 50.1348L85.4391 51.4252H86.6911V52.3882H83.6286V52.369ZM17.0069 51.8875C17.0069 51.9645 16.9877 52.0415 16.9684 52.1186C16.9491 52.1956 16.8914 52.2534 16.8528 52.3112C16.7951 52.369 16.7373 52.4075 16.6602 52.4268C16.5832 52.446 16.5254 52.4653 16.4291 52.4653C16.3521 52.4653 16.275 52.446 16.2172 52.4268C16.1402 52.4075 16.0824 52.369 16.0246 52.3112C15.9669 52.2534 15.9283 52.1956 15.9091 52.1186C15.8898 52.0415 15.8706 51.9838 15.8706 51.8875C15.8706 51.8104 15.8898 51.7334 15.9091 51.6756C15.9283 51.5986 15.9861 51.5408 16.0246 51.483C16.0824 51.4252 16.1402 51.3867 16.2172 51.3674C16.2943 51.3289 16.3521 51.3289 16.4291 51.3289C16.5062 51.3289 16.5832 51.3482 16.641 51.3674C16.718 51.406 16.7758 51.4445 16.8143 51.5022C16.8721 51.56 16.9106 51.6178 16.9491 51.6949C17.0069 51.7526 17.0069 51.8104 17.0069 51.8875ZM14.1179 52.369V48.8251H13.1163V47.9198H16.2365V48.8251H15.235V52.369H14.1179ZM10.6317 51.0978C10.6317 51.1748 10.651 51.2519 10.6703 51.2904C10.6895 51.3482 10.728 51.3867 10.7858 51.4445C10.8436 51.483 10.9014 51.5215 10.9592 51.5408C11.0169 51.56 11.094 51.5793 11.1903 51.5793C11.2673 51.5793 11.3444 51.5793 11.4022 51.56C11.4599 51.5408 11.5177 51.5215 11.5755 51.483C11.614 51.4445 11.6525 51.406 11.6718 51.3482C11.6911 51.2904 11.7103 51.2519 11.7103 51.1748C11.7103 51.117 11.6911 51.0785 11.6718 51.0207C11.6525 50.963 11.614 50.9244 11.5755 50.8859C11.537 50.8474 11.4599 50.8089 11.3636 50.7511C11.2673 50.7126 11.1518 50.6548 10.9977 50.597C10.9784 50.597 10.9592 50.597 10.9399 50.5778C10.9206 50.5778 10.9014 50.5585 10.8629 50.5585C10.6895 50.5007 10.5354 50.4429 10.4006 50.3659C10.2658 50.3081 10.1695 50.2311 10.0732 50.1733C9.99614 50.1155 9.93836 50.0577 9.88058 49.9807C9.8228 49.9036 9.76502 49.8266 9.7265 49.7496C9.68798 49.6725 9.64945 49.5762 9.63019 49.4799C9.61093 49.3836 9.59167 49.2873 9.59167 49.191C9.59167 48.9984 9.63019 48.8058 9.68798 48.6517C9.76502 48.4976 9.86132 48.3435 9.99614 48.228C10.131 48.1124 10.285 48.0161 10.4777 47.9583C10.651 47.9006 10.8629 47.862 11.094 47.862C11.3444 47.862 11.5755 47.9006 11.7488 47.9583C11.9414 48.0161 12.0955 48.1124 12.2303 48.228C12.3652 48.3435 12.4615 48.4976 12.5385 48.6517C12.6156 48.8251 12.6348 49.0177 12.6541 49.2295H11.6333C11.6333 49.1525 11.614 49.0754 11.5948 49.0177C11.5755 48.9599 11.537 48.9021 11.4985 48.8443C11.4599 48.8058 11.4022 48.7673 11.3444 48.748C11.2866 48.7288 11.2095 48.7095 11.1325 48.7095C11.0555 48.7095 10.9977 48.7095 10.9206 48.7288C10.8629 48.748 10.8051 48.7673 10.7666 48.8058C10.728 48.8443 10.6895 48.8828 10.6703 48.9406C10.651 48.9984 10.6317 49.0562 10.6317 49.114C10.6317 49.2103 10.6895 49.2873 10.8051 49.3836C10.9206 49.4606 11.0747 49.557 11.3058 49.634C11.3444 49.6533 11.3829 49.6725 11.4214 49.6725C11.4599 49.6918 11.4792 49.6918 11.5177 49.711C11.537 49.711 11.537 49.7303 11.5755 49.7303C11.5948 49.7303 11.614 49.7496 11.6525 49.7496C11.8451 49.8266 12.0185 49.9036 12.1726 49.9807C12.3074 50.0577 12.423 50.154 12.5 50.2311C12.5578 50.2888 12.5963 50.3466 12.6348 50.4044C12.6733 50.4622 12.6926 50.5392 12.7311 50.597C12.7504 50.6548 12.7696 50.7318 12.7889 50.8089C12.8082 50.8859 12.8082 50.963 12.8082 51.0593C12.8082 51.2711 12.7696 51.4637 12.6926 51.6371C12.6156 51.8104 12.5 51.9645 12.3652 52.0993C12.2111 52.2341 12.0377 52.3304 11.8451 52.3882C11.6525 52.446 11.4214 52.4845 11.171 52.4845C10.9399 52.4845 10.728 52.446 10.5354 52.3882C10.3428 52.3304 10.1887 52.2341 10.0539 52.1186C9.9191 52.003 9.80354 51.8489 9.74576 51.6756C9.66871 51.5022 9.63019 51.3096 9.63019 51.0978H10.6317ZM6.35593 52.369V47.9198H8.85978V48.7865H7.47303V49.6918H8.85978V50.5392H7.47303V51.4637H8.85978V52.3497H6.35593V52.369Z" fill="white"/>
<path fill-rule="evenodd" clip-rule="evenodd" d="M81.6448 74.4799L78.8906 72.4768L79.4106 71.7449L81.4522 71.8797C81.4908 71.8797 81.5293 71.8797 81.5678 71.8797C81.6063 71.8797 81.6448 71.8797 81.6834 71.899C81.7026 71.899 81.7219 71.899 81.7411 71.899C81.7604 71.899 81.7797 71.899 81.7989 71.899C81.8567 71.899 81.9145 71.9182 81.953 71.9182C82.0108 71.9182 82.0493 71.9375 82.1071 71.9568C82.0493 71.9375 81.9915 71.899 81.9337 71.8797C81.876 71.8604 81.8182 71.8219 81.7797 71.8027C81.7219 71.7641 81.6834 71.7449 81.6256 71.7064C81.5678 71.6678 81.5293 71.6486 81.4908 71.6101L80.2003 70.6663L80.7011 69.9922L83.4553 71.9953L82.9546 72.6694L80.8552 72.5923C80.8166 72.5923 80.7781 72.5923 80.7396 72.5923C80.7011 72.5923 80.6433 72.5731 80.6048 72.5731C80.5855 72.5731 80.547 72.5731 80.5277 72.5538C80.5085 72.5538 80.47 72.5538 80.4507 72.5346C80.4122 72.5346 80.3929 72.5346 80.3544 72.5153C80.3351 72.5153 80.2966 72.496 80.2581 72.496C80.3159 72.5153 80.3544 72.5346 80.4122 72.5538C80.47 72.5731 80.5085 72.5923 80.547 72.6309C80.5855 72.6501 80.6433 72.6886 80.6818 72.7079C80.7203 72.7464 80.7781 72.7657 80.8166 72.8042L82.1456 73.7672L81.6448 74.4799ZM76.5023 78.2356L77.1572 77.6L75.7319 76.7719L76.5023 78.2356ZM76.3867 79.9113L74.8652 76.637L75.6163 75.9051L78.8328 77.5423L78.178 78.1779L77.735 77.9275L76.7912 78.8327L77.0416 79.2757L76.3867 79.9113ZM71.0901 80.8165C71.0131 80.778 70.9553 80.7587 70.8783 80.7587C70.8012 80.7395 70.7435 80.7395 70.6664 80.7395C70.5894 80.7395 70.5316 80.7588 70.4545 80.778C70.3775 80.7973 70.3197 80.8358 70.2619 80.8743C70.1464 80.9514 70.0501 81.0284 69.9923 81.1247C69.9153 81.221 69.8767 81.3366 69.8575 81.4714C69.8382 81.5869 69.8382 81.7218 69.8767 81.8373C69.896 81.9722 69.9538 82.0877 70.0308 82.2225C70.1079 82.3381 70.2042 82.4537 70.3005 82.5307C70.3968 82.6078 70.5123 82.6655 70.6279 82.7041C70.7435 82.7426 70.8783 82.7426 70.9938 82.7233C71.1094 82.7041 71.225 82.6655 71.3405 82.5885C71.4368 82.5307 71.4946 82.4729 71.5717 82.3959C71.6294 82.3188 71.6872 82.2418 71.7257 82.1648C71.7643 82.0877 71.7835 81.9914 71.8028 81.8951C71.8028 81.7988 71.8028 81.7025 71.7835 81.6062L71.0324 82.0685L70.6857 81.5099L72.188 80.5661C72.188 80.5854 72.2072 80.5854 72.2072 80.6047C72.2072 80.6239 72.2265 80.6432 72.2458 80.6624C72.265 80.6817 72.265 80.701 72.2843 80.7202C72.3035 80.7395 72.3035 80.7395 72.3035 80.7587C72.3421 80.8165 72.3613 80.8551 72.3998 80.9128C72.4191 80.9706 72.4576 81.0091 72.4769 81.0669C72.4962 81.0862 72.4962 81.1247 72.5154 81.144C72.5347 81.1632 72.5347 81.2017 72.5347 81.221C72.5539 81.298 72.5732 81.3751 72.5924 81.4521C72.6117 81.5292 72.6117 81.5869 72.6117 81.664C72.6117 81.8373 72.5925 81.9914 72.5539 82.1455C72.5154 82.2996 72.4576 82.4344 72.3998 82.5692C72.3228 82.7041 72.2458 82.8196 72.1302 82.9159C72.0146 83.0315 71.8991 83.1278 71.7643 83.2048C71.6487 83.2819 71.5524 83.3204 71.4368 83.3782C71.3213 83.4167 71.225 83.4552 71.1094 83.4745C70.9938 83.4937 70.8783 83.513 70.7627 83.513C70.6472 83.513 70.5316 83.4937 70.416 83.4745C70.3005 83.4552 70.1849 83.4167 70.0886 83.3782C69.9923 83.3396 69.8767 83.2819 69.7997 83.2048C69.7034 83.1278 69.6264 83.0507 69.53 82.9737C69.453 82.8967 69.376 82.8004 69.2989 82.6848C69.2219 82.5692 69.1834 82.4729 69.1256 82.3574C69.0871 82.2418 69.0485 82.1262 69.0293 82.0107C69.01 81.8951 68.9908 81.7796 69.01 81.664C69.01 81.5484 69.0293 81.4329 69.0485 81.3173C69.0678 81.2017 69.1063 81.0862 69.1448 80.9899C69.1834 80.8936 69.2411 80.7973 69.3182 80.701C69.3952 80.6047 69.4723 80.5276 69.5493 80.4313C69.6456 80.3543 69.7419 80.2772 69.8382 80.2002C69.9538 80.1232 70.0693 80.0654 70.2042 80.0076C70.3197 79.9691 70.4545 79.9306 70.5701 79.9113C70.6857 79.892 70.8205 79.892 70.9361 79.892C71.0709 79.9113 71.1864 79.9306 71.3213 79.9691L71.0901 80.8165ZM63.463 83.3204C63.5786 83.2819 63.6941 83.2433 63.8097 83.2241C63.9253 83.2048 64.0408 83.1856 64.1564 83.1856C64.272 83.1856 64.3875 83.2048 64.5031 83.2241C64.6186 83.2433 64.7342 83.2819 64.8305 83.3204C64.9461 83.3589 65.0424 83.4167 65.1387 83.4937C65.235 83.5515 65.312 83.6286 65.3891 83.7249C65.4661 83.8212 65.5431 83.8982 65.6009 84.0138C65.6587 84.1101 65.7165 84.2256 65.7743 84.3412C65.8128 84.4567 65.8513 84.5723 65.8706 84.6879C65.8898 84.8034 65.9091 84.919 65.9091 85.0346C65.9091 85.1501 65.8898 85.2657 65.8706 85.3812C65.8513 85.4968 65.8128 85.5931 65.755 85.7087C65.7165 85.8242 65.6587 85.9205 65.5817 86.0168C65.5239 86.1131 65.4468 86.1902 65.3505 86.2865C65.2735 86.3635 65.1772 86.4406 65.0616 86.4984C64.9653 86.5561 64.8498 86.6139 64.7342 86.6717C64.6186 86.7102 64.5031 86.7487 64.3875 86.7873C64.272 86.8065 64.1564 86.8258 64.0408 86.8258C63.9253 86.8258 63.8097 86.8258 63.6941 86.7873C63.5786 86.768 63.4823 86.7295 63.3667 86.6717C63.2512 86.6332 63.1549 86.5754 63.0586 86.4984C62.9622 86.4406 62.8852 86.3635 62.8082 86.2865C62.7311 86.2094 62.6541 86.1131 62.5963 86.0168C62.5385 85.9205 62.4807 85.805 62.423 85.6894C62.3844 85.5739 62.3459 85.4583 62.3267 85.3427C62.3074 85.2272 62.2881 85.1116 62.2881 84.996C62.2881 84.8805 62.3074 84.7649 62.3267 84.6494C62.3459 84.5338 62.3844 84.4182 62.423 84.3219C62.4615 84.2064 62.5193 84.1101 62.5963 84.0138C62.6541 83.9175 62.7311 83.8404 62.8274 83.7634C62.9045 83.6863 63.0008 83.6093 63.1163 83.5515C63.2319 83.4359 63.3475 83.3782 63.463 83.3204ZM64.5031 85.9205C64.6379 85.882 64.7342 85.805 64.8112 85.7279C64.8883 85.6509 64.9653 85.5353 65.0039 85.4198C65.0424 85.3042 65.0616 85.1694 65.0616 85.0538C65.0616 84.919 65.0231 84.7842 64.9653 84.6494C64.9076 84.5145 64.8498 84.399 64.7535 84.3027C64.6764 84.2064 64.5609 84.1293 64.4646 84.0715C64.349 84.0138 64.2334 83.9752 64.1179 83.9752C64.0023 83.9752 63.8675 83.9945 63.7519 84.0523C63.6364 84.1101 63.5208 84.1678 63.4438 84.2449C63.3667 84.3219 63.2897 84.4375 63.2512 84.5531C63.2126 84.6686 63.1934 84.7842 63.1934 84.919C63.1934 85.0538 63.2319 85.1886 63.2897 85.3235C63.3475 85.4583 63.4052 85.5739 63.5015 85.6702C63.5786 85.7665 63.6941 85.8435 63.7905 85.9013C63.906 85.9591 64.0216 85.9976 64.1371 85.9976C64.2527 85.9976 64.3683 85.9591 64.5031 85.9205ZM57.5116 88.4437L56.876 85.0923L57.7234 84.9383L58.2242 87.6155L59.0717 87.4614L59.2065 88.1355L57.5116 88.4437ZM51.5023 87.9429C51.5023 88.0007 51.5216 88.0584 51.5408 88.097C51.5601 88.1355 51.5986 88.174 51.6371 88.2125C51.6757 88.251 51.7142 88.2703 51.772 88.2896C51.8297 88.3088 51.8875 88.3088 51.9453 88.3088C52.0031 88.3088 52.0609 88.2896 52.1186 88.2896C52.1764 88.2703 52.2149 88.251 52.2535 88.2318C52.292 88.1933 52.3113 88.174 52.3305 88.1355C52.3498 88.097 52.3498 88.0584 52.3498 88.0007C52.3498 87.9621 52.3305 87.9236 52.3113 87.8851C52.292 87.8466 52.2727 87.8081 52.2342 87.7888C52.1957 87.7695 52.1379 87.731 52.0609 87.6925C51.9838 87.654 51.8875 87.6155 51.772 87.5769C51.7527 87.5769 51.7527 87.5769 51.7334 87.5769C51.7142 87.5769 51.6949 87.5577 51.6757 87.5577C51.5408 87.5192 51.4253 87.4806 51.329 87.4228C51.2327 87.3843 51.1364 87.3266 51.0786 87.288C51.0208 87.2495 50.963 87.1917 50.9245 87.1532C50.886 87.0954 50.8475 87.0376 50.8089 86.9799C50.7704 86.9221 50.7512 86.845 50.7319 86.768C50.7126 86.691 50.7126 86.6139 50.6934 86.5369C50.6934 86.3828 50.7126 86.248 50.7512 86.1131C50.7897 85.9783 50.8667 85.882 50.9823 85.7665C51.0786 85.6702 51.1941 85.5931 51.3482 85.5353C51.4831 85.4776 51.6371 85.4583 51.8105 85.439C52.0031 85.439 52.1764 85.439 52.3305 85.4968C52.4846 85.5353 52.6002 85.5931 52.7157 85.6894C52.8313 85.7857 52.9083 85.882 52.9661 86.0168C53.0239 86.1517 53.0624 86.2865 53.0624 86.4598L52.292 86.4791C52.292 86.4213 52.2727 86.3635 52.2535 86.3057C52.2342 86.248 52.2149 86.2094 52.1764 86.1902C52.1379 86.1517 52.0994 86.1324 52.0416 86.1131C51.9838 86.0939 51.9453 86.0939 51.8683 86.0939C51.8105 86.0939 51.7527 86.1131 51.7142 86.1131C51.6757 86.1324 51.6179 86.1517 51.5986 86.1902C51.5601 86.2287 51.5408 86.248 51.5216 86.2865C51.5023 86.325 51.5023 86.3635 51.5023 86.4213C51.5023 86.4984 51.5408 86.5561 51.6371 86.6139C51.7334 86.6717 51.849 86.7295 52.0223 86.7873C52.0609 86.8065 52.0801 86.8065 52.1186 86.8258C52.1379 86.845 52.1764 86.845 52.1957 86.845C52.1957 86.845 52.215 86.845 52.2342 86.8643C52.2535 86.8643 52.2727 86.8836 52.292 86.8836C52.4461 86.9413 52.5809 86.9799 52.6965 87.0376C52.812 87.0954 52.8891 87.1532 52.9661 87.2302C53.0046 87.2688 53.0431 87.3073 53.0817 87.3651C53.1009 87.4036 53.1394 87.4614 53.1587 87.5192C53.178 87.5769 53.1972 87.6155 53.2165 87.6732C53.2357 87.731 53.2357 87.7888 53.2357 87.8658C53.2357 88.0199 53.2165 88.174 53.1587 88.3088C53.1009 88.4437 53.0239 88.5592 52.9083 88.6748C52.7928 88.7711 52.6579 88.8674 52.5231 88.9059C52.369 88.9637 52.1957 88.9829 52.0031 89.0022C51.8297 89.0022 51.6564 88.9829 51.5216 88.9444C51.3868 88.9059 51.2519 88.8481 51.1364 88.7518C51.0208 88.6555 50.9438 88.5592 50.886 88.4244C50.8282 88.2896 50.7897 88.1547 50.7704 87.9814L51.5023 87.9429ZM40.5817 87.4228L41.3521 84.0908L42.5655 84.3797C42.7581 84.4182 42.9122 84.4953 43.047 84.5723C43.1818 84.6494 43.2974 84.7649 43.3744 84.8805C43.4707 84.996 43.5092 85.1309 43.5478 85.2849C43.567 85.4198 43.567 85.5739 43.5285 85.7472C43.49 85.882 43.4515 85.9783 43.3937 86.0746C43.3359 86.1709 43.2589 86.248 43.1818 86.325C43.1048 86.3828 43.0085 86.4406 42.9122 86.4598C42.8159 86.4791 42.7003 86.4791 42.5847 86.4791L43.124 88.0392L42.1225 87.8081L41.718 86.2287L41.3906 87.6347L40.5817 87.4228ZM42.2766 84.996L42.0455 84.9383L41.8336 85.8628L42.084 85.9205C42.161 85.9398 42.2381 85.9591 42.3151 85.9398C42.3921 85.9205 42.4499 85.9205 42.4884 85.882C42.5462 85.8435 42.5847 85.805 42.6233 85.7665C42.6618 85.7087 42.681 85.6509 42.7003 85.5739C42.7196 85.4968 42.7196 85.439 42.7196 85.362C42.7196 85.3042 42.681 85.2464 42.6618 85.1886C42.6233 85.1501 42.5847 85.0923 42.527 85.0731C42.4307 85.0538 42.3536 85.0153 42.2766 84.996ZM35.9784 81.9914L35.208 83.7249C35.1502 83.8597 35.1117 83.9752 35.0925 84.0908C35.0732 84.1871 35.0539 84.2834 35.0732 84.3604C35.0925 84.4375 35.1117 84.4953 35.1695 84.5531C35.2273 84.6108 35.2851 84.6494 35.3621 84.6879C35.4584 84.7264 35.5354 84.7457 35.6125 84.7457C35.6895 84.7457 35.7473 84.7264 35.8243 84.6686C35.8821 84.6301 35.9592 84.5531 36.017 84.476C36.0747 84.3797 36.1325 84.2834 36.2096 84.1486L36.98 82.4151L37.7696 82.7618L36.8837 84.7649C36.8066 84.9575 36.6911 85.1116 36.5755 85.2272C36.4599 85.3427 36.3059 85.439 36.1518 85.4968C35.9977 85.5546 35.8243 85.5739 35.651 85.5546C35.4777 85.5353 35.2851 85.4775 35.0925 85.4005C34.8998 85.3042 34.7265 85.2079 34.5917 85.0923C34.4569 84.9768 34.3606 84.842 34.2835 84.6879C34.2257 84.5338 34.1872 84.3604 34.2065 84.2064C34.2065 84.033 34.2643 83.8597 34.3413 83.6863L35.2273 81.6833L35.9784 81.9914ZM30.6433 78.6979C30.7396 78.7749 30.8359 78.852 30.9322 78.9483C31.0092 79.0253 31.0863 79.1216 31.1441 79.2179C31.2019 79.3142 31.2596 79.4105 31.2982 79.5261C31.3367 79.6416 31.3752 79.738 31.3945 79.8535C31.4137 79.9691 31.4137 80.0846 31.4137 80.2002C31.4137 80.3158 31.3945 80.4313 31.3752 80.5469C31.3367 80.6625 31.2982 80.778 31.2596 80.8743C31.2019 80.9899 31.1441 81.0862 31.067 81.1825C30.99 81.2788 30.9129 81.3751 30.8359 81.4521C30.7589 81.5292 30.6626 81.6062 30.5663 81.664C30.47 81.7218 30.3737 81.7796 30.2581 81.8181C30.1425 81.8566 30.0462 81.8951 29.9307 81.9144C29.8151 81.9336 29.6995 81.9336 29.584 81.9336C29.4684 81.9336 29.3529 81.9144 29.2373 81.8759C29.1217 81.8373 29.0254 81.7988 28.9099 81.7603C28.7943 81.7025 28.698 81.6447 28.6017 81.5677C28.5054 81.4906 28.4091 81.4136 28.3128 81.3366C28.2357 81.2595 28.1587 81.1632 28.0817 81.0669C28.0239 80.9706 27.9661 80.8743 27.9276 80.7587C27.8891 80.6432 27.8505 80.5469 27.8505 80.4313C27.8313 80.3158 27.8313 80.2002 27.8313 80.0846C27.8313 79.9691 27.8505 79.8535 27.8698 79.738C27.8891 79.6224 27.9468 79.5261 27.9854 79.4105C28.0431 79.295 28.1009 79.1987 28.178 79.1024C28.255 79.0061 28.3321 78.9098 28.4091 78.8327C28.4861 78.7557 28.5824 78.6786 28.6787 78.6209C28.775 78.5631 28.8713 78.5053 28.9869 78.4668C29.1025 78.4282 29.1988 78.3897 29.3143 78.3705C29.4299 78.3512 29.5455 78.3512 29.661 78.3512C29.7766 78.3512 29.8921 78.3705 30.0077 78.409C30.1233 78.4282 30.2388 78.486 30.3351 78.5245C30.4314 78.5631 30.547 78.6208 30.6433 78.6979ZM29.0254 80.9706C29.141 81.0477 29.2373 81.1054 29.3529 81.1247C29.4684 81.144 29.584 81.144 29.7188 81.1247C29.8536 81.1054 29.9692 81.0477 30.0655 80.9706C30.1618 80.8936 30.2581 80.7973 30.3544 80.6817C30.4314 80.5661 30.5085 80.4313 30.547 80.3158C30.5855 80.2002 30.5855 80.0654 30.5855 79.9498C30.5663 79.815 30.5277 79.7187 30.47 79.6031C30.4122 79.5068 30.3159 79.4105 30.2196 79.3335C30.104 79.2564 29.9884 79.1987 29.8729 79.1794C29.7573 79.1601 29.6418 79.1601 29.5069 79.1794C29.3914 79.1987 29.2758 79.2564 29.1602 79.3335C29.0447 79.4105 28.9484 79.5068 28.8713 79.6224C28.7943 79.738 28.7173 79.8535 28.698 79.9883C28.6595 80.1039 28.6595 80.2387 28.6595 80.3543C28.6787 80.4891 28.7173 80.6047 28.775 80.701C28.8328 80.7973 28.9099 80.8936 29.0254 80.9706ZM22.9777 76.5215L24.0948 75.4621L24.7304 73.382L25.3852 74.0947L25 75.0577C25 75.0769 24.9807 75.0962 24.9807 75.1155C24.9807 75.1347 24.9615 75.154 24.9422 75.1732C24.9422 75.1925 24.923 75.1925 24.923 75.2118C24.923 75.231 24.9037 75.231 24.9037 75.2503C24.9037 75.2695 24.8844 75.2695 24.8844 75.2888C24.8844 75.3081 24.8652 75.3081 24.8652 75.3273C24.8844 75.3273 24.923 75.3081 24.9422 75.2888C24.9615 75.2695 25 75.2695 25.0193 75.2503C25.0385 75.2503 25.0578 75.231 25.077 75.231C25.0963 75.231 25.1156 75.2118 25.1156 75.2118L26.0978 74.8843L26.7527 75.597L24.6341 76.0977L23.517 77.1571L22.9777 76.5215Z" fill="white"/>
<path fill-rule="evenodd" clip-rule="evenodd" d="M50.9245 24.4414C55.3929 24.3643 59.6109 25.4429 63.2704 27.4267C65.2735 28.5053 67.2766 29.9691 68.9137 31.5292C73.5555 36.0169 76.5023 42.2958 76.6179 49.268C76.7334 56.2403 74.0177 62.5962 69.53 67.2572C66.5447 70.3389 62.8082 72.6309 58.7057 73.8828C56.51 74.5377 54.1988 74.9229 51.8105 74.9614C44.8382 75.077 38.4823 72.3612 33.8213 67.8736C29.1795 63.3859 26.2327 57.107 26.1171 50.1347C26.0015 43.1625 28.7173 36.8065 33.2049 32.1455C37.6733 27.5038 43.9522 24.5569 50.9245 24.4414Z" fill="#BCBDC0"/>
<path fill-rule="evenodd" clip-rule="evenodd" d="M26.1556 48.1319C26.5408 41.9493 29.141 36.3445 33.2049 32.1457C37.2689 27.947 42.7581 25.1542 48.9214 24.5571C52.0224 24.769 54.9307 25.6357 57.5308 27.0417C59.2257 27.947 60.9207 29.1989 62.3074 30.5279C66.2558 34.3414 68.7404 39.638 68.8367 45.551C68.933 51.4639 66.641 56.8568 62.8274 60.7859C60.3043 63.4054 57.1456 65.3507 53.6595 66.41C51.8105 66.9685 49.8459 67.296 47.8043 67.3345C41.8914 67.4308 36.4985 65.1388 32.5694 61.3252C29.0447 57.8969 26.6757 53.2936 26.1556 48.1319Z" fill="white"/>
<path fill-rule="evenodd" clip-rule="evenodd" d="M47.3613 25.8088C48.4014 26.7141 49.4414 27.6578 50.3659 28.6786L56.2404 28.9868C57.0878 28.3705 58.0701 27.9468 59.1487 27.7349C59.8035 27.6001 60.4969 27.5615 61.2481 27.5808C58.1086 26.1748 54.6032 25.4236 50.9438 25.4814C49.7304 25.5007 48.5362 25.6162 47.3613 25.8088ZM68.0085 57.8196C67.0647 58.3589 66.1209 58.8597 65.1579 59.3412C63.0778 60.3813 60.7088 61.4791 58.5131 62.1917L53.8328 69.0484C54.3336 69.7803 54.9114 70.3967 55.547 70.936C56.5485 71.7642 57.6849 72.342 58.9946 72.6887C62.7504 71.4367 66.1017 69.2988 68.7789 66.5253C70.2042 65.0615 71.4368 63.4052 72.4384 61.6332C71.3405 60.5739 69.9345 59.4568 68.0085 57.8196ZM70.4931 45.8589C72.5539 45.4737 74.0562 44.9537 74.9807 44.3374C73.9214 39.6571 71.5139 35.4968 68.1818 32.2803C66.8914 31.0477 65.4854 29.9498 63.9445 29.0061C62.1918 28.5823 60.6703 28.5053 59.3413 28.7557C58.6864 28.8713 58.0894 29.0831 57.5501 29.372C58.879 31.2788 60.1117 34.2642 61.1903 38.3281C65.0038 40.7549 67.5077 42.4498 70.4931 45.8589ZM42.97 67.835C41.4676 68.721 39.8112 69.4144 38.0008 69.9152C41.9492 72.5346 46.6872 74.0176 51.772 73.9213C53.6595 73.8828 55.4892 73.6324 57.2612 73.2087C56.3944 72.8427 55.5855 72.342 54.8729 71.7449C54.0832 71.09 53.3898 70.3004 52.7928 69.3951C48.6325 69.53 45.3775 69.0099 42.97 67.835ZM36.8837 69.1255C38.8675 68.6825 40.6394 67.9891 42.2381 67.0646C41.2173 64.7726 40.5431 61.691 40.2157 57.8196C37.4615 56.3751 34.9576 54.1794 32.7042 51.2133L33.0894 50.9244L27.4461 53.5053C28.2935 58.8212 30.8552 63.5592 34.5339 67.1224C35.2658 67.835 36.0555 68.5092 36.8837 69.1255ZM52.9083 42.6424L60.5932 39.3297C62.943 39.8112 68.0855 44.6455 69.896 46.7256C70.0116 50.2696 69.453 53.5246 68.2396 56.4907C67.084 57.1648 65.9091 57.8004 64.6957 58.4167C63.0778 59.2256 60.131 60.6702 58.4361 61.1132L50.1348 54.1216C50.2311 53.6209 50.3274 53.0816 50.4622 52.4845C51.1364 49.268 52.369 45.7241 52.9083 42.6424ZM36.8066 39.6763L34.9576 40.7934C33.1857 43.4514 32.5693 46.8027 33.1279 50.8666L33.5131 50.5777C35.7088 53.4668 38.1356 55.6047 40.832 56.9722C44.1448 55.8358 46.8991 54.8343 49.0948 53.9483C49.1911 53.4283 49.2874 52.8697 49.4222 52.2919C50.077 49.1525 51.3482 45.57 51.849 42.6039C49.0948 39.58 46.5524 37.3266 44.2411 35.8628C43.6055 36.1324 42.9699 36.4213 42.3151 36.7295C40.4661 37.6155 38.6364 38.5978 36.8066 39.6763ZM35.2851 39.2526L36.0169 38.9444C37.9622 37.7696 39.9268 36.7295 41.9106 35.7857C42.7003 35.4198 43.49 35.0538 44.2989 34.7072L48.9214 28.6209C48.0162 27.7156 47.0532 26.8682 46.0901 26.04C41.3713 27.0993 37.1918 29.5068 33.9561 32.8582C33.1086 33.7441 32.319 34.6879 31.6063 35.6894L35.2851 39.2526ZM50.9245 24.4414C55.3929 24.3643 59.6109 25.4429 63.2704 27.4267C65.2735 28.5053 67.2766 29.9691 68.9137 31.5292C73.5555 36.0169 76.5023 42.2958 76.6179 49.268C76.7334 56.2403 74.0177 62.5962 69.53 67.2572C66.5447 70.3389 62.8082 72.6309 58.7057 73.8828C56.51 74.5377 54.1988 74.9229 51.8105 74.9614C44.8382 75.077 38.4823 72.3612 33.8213 67.8736C29.1795 63.3859 26.2327 57.107 26.1171 50.1347C26.0015 43.1625 28.7173 36.8065 33.2049 32.1455C37.6733 27.5038 43.9522 24.5569 50.9245 24.4414Z" fill="#404041"/>
<path fill-rule="evenodd" clip-rule="evenodd" d="M79.3914 31.7218L76.9453 29.1602L76.7334 26.0786L74.4222 23.6517L72.9969 25.0192L71.3213 23.2665L74.2103 20.5123L78.8906 25.4044C79.1795 25.7126 79.4492 25.9052 79.7381 26.0208C80.0848 26.1556 80.3737 26.1171 80.6048 25.8859C81.0478 25.4622 80.9129 24.8844 80.2196 24.1333L75.5008 19.2411L78.0624 18.9907L81.4908 22.5732C82.3382 23.4591 82.8583 24.3451 83.0509 25.2118C83.2627 26.1941 83.0123 27.0223 82.2997 27.6964C81.8952 28.0816 81.4137 28.2935 80.8552 28.3513C80.2966 28.4091 79.7188 28.3128 79.1217 28.0239L79.3914 31.7218ZM71.8413 21.2442L69.5301 22.342L63.3282 19.2026L66.8721 12.2111L74.4607 16.0631L72.1495 17.161L68.124 15.1194L67.7388 15.8705L72.8236 18.4514L70.5123 19.5493L66.8336 17.681L66.4099 18.5092L71.8413 21.2442ZM63.3667 16.9684L61.3829 18.5863L57.5501 17.7003C56.2211 17.3921 55.2003 16.7758 54.5069 15.832C53.8136 14.8883 53.5824 13.8675 53.8521 12.7504C54.1025 11.6332 54.7573 10.8243 55.7781 10.3428C56.7989 9.84203 57.9931 9.76499 59.3413 10.0732L64.6957 11.3251L62.7119 12.943L58.8791 12.057C58.2242 11.9029 57.6464 11.9607 57.1456 12.2111C56.6448 12.4614 56.3174 12.8659 56.2019 13.4052C56.0863 13.9445 56.1826 14.426 56.5293 14.869C56.876 15.312 57.3767 15.6009 58.0123 15.755L63.3667 16.9684ZM52.2535 14.7534L50.9438 16.9491L47.0339 17.4306C45.6857 17.604 44.5108 17.3536 43.5285 16.718C42.5462 16.0824 41.9877 15.1772 41.8529 14.0408C41.718 12.9044 42.0455 11.9222 42.8351 11.1132C43.6248 10.3043 44.7034 9.80351 46.0901 9.63017L51.5601 8.95605L50.2504 11.171L46.3405 11.6525C45.6857 11.7296 45.1464 11.9799 44.7612 12.3844C44.376 12.7889 44.2219 13.2704 44.2797 13.8289C44.3567 14.3682 44.6264 14.792 45.0886 15.1001C45.5701 15.389 46.1287 15.5046 46.7835 15.4275L52.2535 14.7534ZM34.6495 15.1194L32.5501 16.1787C31.953 16.4869 31.5293 16.8913 31.3174 17.4114C31.0863 17.9314 31.1056 18.4322 31.3559 18.9329C31.6063 19.4337 32.0108 19.7419 32.5501 19.8574C33.0894 19.973 33.6672 19.8767 34.2643 19.5685L36.3636 18.5092C36.9607 18.201 37.3844 17.7966 37.6156 17.2958C37.8467 16.795 37.8467 16.2943 37.577 15.7935C37.3267 15.2927 36.9222 14.9846 36.3636 14.8497C35.8244 14.7342 35.2465 14.8305 34.6495 15.1194ZM39.6957 14.6186C40.2157 15.6394 40.235 16.6987 39.7727 17.7773C39.3105 18.8559 38.4823 19.7034 37.2689 20.3197L35.1695 21.379C33.9368 21.9953 32.7619 22.1687 31.6256 21.899C30.4892 21.6294 29.661 20.9745 29.141 19.9537C28.621 18.9329 28.6017 17.8929 29.0832 16.8721C29.5647 15.832 30.4122 15.0038 31.6448 14.3875L33.7442 13.3282C34.9769 12.7118 36.1518 12.5192 37.2689 12.7504C38.3667 12.9815 39.1949 13.5978 39.6957 14.6186ZM24.3259 19.1063L24.8267 21.6101L21.1864 25.8089C20.9938 26.04 20.9746 26.2134 21.1287 26.3482C21.2828 26.483 21.4754 26.4445 21.668 26.2134L24.2874 23.1895C24.9037 22.4769 25.5971 22.0339 26.3675 21.8413C27.1764 21.6679 27.8698 21.8413 28.4669 22.342C29.0447 22.8428 29.3143 23.5169 29.2373 24.3259C29.1795 25.0963 28.8328 25.8474 28.1972 26.5601L23.4977 32.0108L22.9969 29.5069L26.6757 25.2696C26.849 25.077 26.9646 24.8844 27.0224 24.6725C27.1187 24.4029 27.0801 24.2103 26.9453 24.0755C26.7912 23.9406 26.5986 23.9406 26.3482 24.0755C26.1556 24.1718 25.9823 24.3259 25.8089 24.5185L23.2088 27.5423C22.631 28.2165 21.9954 28.6402 21.302 28.8135C20.5509 29.0061 19.9153 28.8713 19.376 28.4091C18.8367 27.9275 18.6056 27.3112 18.6826 26.5408C18.7596 25.8282 19.1063 25.1348 19.6841 24.4607L24.3259 19.1063Z" fill="white"/>
<path d="M100.578 59.0909C98.7095 69.2604 93.7789 78.3513 86.7488 85.3621C77.6964 94.4145 65.1964 100 51.3867 100C37.577 100 25.077 94.3952 16.0246 85.3621C9.01386 78.3513 4.06394 69.2604 2.19568 59.0909H4.54545C6.37519 68.6248 11.0555 77.1379 17.6425 83.7442C26.2712 92.3729 38.1934 97.708 51.3675 97.708C64.5416 97.708 76.4638 92.3729 85.0924 83.7442C91.6795 77.1572 96.3598 68.6248 98.1895 59.0909H100.578ZM51.406 0C65.2157 0 77.7157 5.60478 86.7681 14.6379C93.7789 21.6487 98.7095 30.7203 100.578 40.8706H98.228C96.379 31.3559 91.718 22.8621 85.131 16.275C76.5023 7.64638 64.5801 2.31125 51.406 2.31125C38.2319 2.31125 26.3097 7.64638 17.681 16.275C11.094 22.8621 6.43297 31.3559 4.58397 40.8706H2.2342C4.10246 30.7203 9.03312 21.6487 16.0439 14.6379C25.0963 5.60478 37.5963 0 51.406 0Z" fill="#24D1D1"/>
</g>
<defs>
<clipPath id="clip0_1_84">
<rect width="102.812" height="100" fill="white"/>
</clipPath>
</defs>
</svg>
