<svg width="50" height="50" viewBox="0 0 50 50" fill="none" xmlns="http://www.w3.org/2000/svg">
<g clip-path="url(#clip0_410_3849)">
<path d="M2.61206 8.5C3.10957 8.75 4.22898 9.5 5.09962 11.375C6.96529 15 5.97027 20 4.72649 23.375C2.86082 28.75 2.86082 33.375 4.85087 36.75C6.59216 39.75 9.70161 41.75 13.9305 42.625C18.4081 43.5 21.1444 44.75 22.7613 45.75C24.0051 46.5 24.7514 47.125 25.0001 47.5C25.2489 47.25 25.9951 46.5 27.2389 45.75C28.8558 44.875 31.5922 43.5 36.0698 42.625C40.2986 41.75 43.5325 39.75 45.1494 36.75C47.1394 33.375 47.1394 28.75 45.2738 23.5C44.03 20 43.0349 15.125 44.7762 11.375C45.6469 9.625 46.8907 8.75 47.3882 8.5L42.2887 1.75C41.418 1.875 35.0747 2.5 25.0001 2.5C14.9255 2.5 8.58221 1.875 7.71156 1.75L2.61206 8.5Z" fill="#292929"/>
<path d="M13.6816 16.25H8.45776V41.75H13.6816V16.25Z" fill="#E82344"/>
<path d="M23.01 16.25H17.7861V44.5H23.01V16.25Z" fill="#E82344"/>
<path d="M32.3384 16.25H27.1145V44.5H32.3384V16.25Z" fill="#E82344"/>
<path d="M41.6668 16.25H36.4429V41.75H41.6668V16.25Z" fill="#E82344"/>
<path d="M5.09962 11.625C6.96529 15.5 5.84589 20.5 4.60211 24.125C10.0747 21 17.1643 19.125 24.8757 19.125C32.5872 19.125 39.6767 21 45.1494 24.125C43.9056 20.5 42.9106 15.375 44.6519 11.625C45.5225 9.75 46.7663 9 47.2638 8.625L42.1643 1.625C41.418 1.875 35.0747 2.5 25.0001 2.5C14.9255 2.5 8.58221 1.875 7.71156 1.75L2.61206 8.75C3.10957 9 4.22898 9.875 5.09962 11.625Z" fill="#292929"/>
<path d="M25 50L23.8806 48.5C23.7562 48.375 21.1443 45.625 13.6816 44.125C8.95522 43.25 5.34826 40.875 3.48259 37.5C1.24378 33.75 1.24378 28.625 3.23383 22.875C6.8408 12.5 2.11443 10 1.74129 9.875L0 9.125L1.24378 7.625L6.96517 0L7.71144 0.125C7.83582 0.125 14.1791 0.875 25 0.875C35.8209 0.875 42.2886 0.125 42.2886 0.125L43.1592 0L50.1244 9.25L48.3831 9.875C48.01 10 43.2836 12.5 46.8905 22.875C48.8806 28.625 48.7562 33.75 46.6418 37.5C44.6517 40.875 41.1692 43.25 36.4428 44.125C28.8557 45.625 26.3682 48.375 26.2438 48.5L25 50ZM4.35323 8.25C6.34328 10 9.20398 14.25 5.84577 23.875C4.10448 28.875 4.10448 33.125 5.84577 36.125C7.33831 38.75 10.199 40.625 14.1791 41.375C20.2736 42.5 23.5075 44.5 25 45.75C26.4925 44.5 29.7264 42.625 35.8209 41.375C39.6766 40.625 42.5373 38.875 44.1542 36.125C45.8955 33.125 45.8955 28.875 44.1542 23.875C40.9204 14.25 43.7811 10 45.7711 8.25L41.791 3C39.801 3.25 33.9552 3.625 25 3.625C16.1692 3.625 10.3234 3.25 8.33333 3L4.35323 8.25Z" fill="#292929"/>
<path d="M12.6865 6.875C13.5572 6.875 14.0547 7.375 14.0547 8.5C14.0547 9 14.0547 9.25 14.0547 9.75C14.0547 9.875 14.0547 10 13.9303 10C13.5572 10 13.3084 10 12.9353 10C12.8109 10 12.8109 9.875 12.8109 9.75C12.8109 9.375 12.8109 9.125 12.8109 8.75C12.8109 8.375 12.6865 8.25 12.4378 8.25C12.189 8.25 12.189 8.25 11.9403 8.25C11.6915 8.25 11.5671 8.375 11.5671 8.75C11.5671 9.375 11.5671 9.75 11.5671 10.5C12.4378 10.875 12.9353 11 13.9303 11.25C14.0547 11.375 14.1791 11.375 14.1791 11.625C14.1791 12.75 14.1791 13.75 14.1791 15.25C14.1791 16.75 13.6816 17.375 12.8109 17.625C12.3134 17.75 12.189 17.75 11.6915 17.875C10.8209 18.125 10.3234 17.75 10.3234 16C10.3234 15.25 10.3234 14.75 10.3234 13.875C10.3234 13.625 10.3234 13.5 10.4477 13.5C10.8209 13.5 11.0696 13.375 11.4428 13.375C11.5671 13.375 11.5671 13.5 11.5671 13.625C11.5671 14.25 11.5671 14.5 11.5671 15.125C11.5671 15.625 11.6915 15.875 11.9403 15.75C12.189 15.75 12.189 15.75 12.4378 15.625C12.6865 15.625 12.8109 15.375 12.8109 14.875C12.8109 13.875 12.8109 13.375 12.8109 12.5C11.8159 12.375 11.3184 12.125 10.4477 11.875C10.199 11.75 10.199 11.625 10.199 11.5C10.199 10.375 10.199 9.75 10.199 8.625C10.199 7.5 10.6965 6.875 11.5671 6.875C11.9403 6.875 12.189 6.875 12.6865 6.875Z" fill="#E82344"/>
<path d="M15.2986 8.5C15.2986 7.375 15.7961 6.875 16.6667 6.875C17.1643 6.875 17.2886 6.875 17.7861 6.875C18.6568 6.875 19.1543 7.375 19.1543 8.5C19.1543 10.5 19.1543 12.625 19.1543 14.625C19.1543 15.875 18.6568 16.5 17.7861 16.625C17.2886 16.75 17.1643 16.75 16.6667 16.875C15.7961 17 15.2986 16.75 15.2986 15.25C15.2986 12.875 15.2986 10.75 15.2986 8.5ZM17.5374 15C17.7861 15 17.9105 14.75 17.9105 14.375C17.9105 11.75 17.9105 10.875 17.9105 8.75C17.9105 8.5 17.7861 8.25 17.5374 8.25C17.2886 8.25 17.1643 8.25 16.9155 8.25C16.6667 8.25 16.5424 8.375 16.5424 8.75C16.5424 10.875 16.5424 11.75 16.5424 14.625C16.5424 15 16.6667 15.25 16.9155 15.125C17.1643 15.125 17.2886 15 17.5374 15Z" fill="#E82344"/>
<path d="M24.378 9.625C24.378 9.75 24.378 9.75 24.2537 9.75C23.8805 9.75 23.6318 9.75 23.2586 9.75C23.1343 9.75 23.1343 9.625 23.1343 9.625C23.1343 9.25 23.1343 9.125 23.1343 8.75C23.1343 8.5 23.0099 8.25 22.7611 8.25C22.5124 8.25 22.5124 8.25 22.2636 8.25C22.0149 8.25 21.8905 8.375 21.8905 8.75C21.8905 10.75 21.8905 11.75 21.8905 14C21.8905 14.375 22.0149 14.5 22.2636 14.5C22.5124 14.5 22.5124 14.5 22.7611 14.5C23.0099 14.5 23.1343 14.375 23.1343 14C23.1343 13.625 23.1343 13.375 23.1343 13C23.1343 12.875 23.1343 12.75 23.2586 12.75C23.6318 12.75 23.8805 12.75 24.2537 12.75C24.378 12.75 24.378 12.875 24.378 13C24.378 13.5 24.378 13.75 24.378 14.25C24.378 15.375 23.8805 15.875 23.0099 16C22.5124 16 22.388 16 21.8905 16.125C21.0198 16.25 20.5223 15.75 20.3979 14.625C20.3979 12.625 20.3979 10.625 20.3979 8.625C20.3979 7.625 20.8955 7 21.8905 7C22.388 7 22.5124 7 23.0099 7C23.8805 7 24.378 7.5 24.378 8.625C24.378 8.875 24.378 9.125 24.378 9.625Z" fill="#E82344"/>
<path d="M29.6021 9.625C29.6021 9.75 29.6021 9.75 29.4777 9.75C29.1045 9.75 28.8558 9.75 28.4827 9.75C28.3583 9.75 28.3583 9.625 28.3583 9.625C28.3583 9.25 28.3583 9.125 28.3583 8.75C28.3583 8.5 28.2339 8.25 27.9851 8.25C27.7364 8.25 27.7364 8.25 27.4876 8.25C27.2389 8.25 27.1145 8.375 27.1145 8.75C27.1145 10.75 27.1145 11.75 27.1145 14C27.1145 14.375 27.2389 14.5 27.4876 14.5C27.7364 14.5 27.7364 14.5 27.9851 14.5C28.2339 14.5 28.3583 14.375 28.3583 14C28.3583 13.625 28.3583 13.375 28.3583 13C28.3583 12.875 28.3583 12.75 28.4827 12.75C28.8558 12.75 29.1045 12.75 29.4777 12.75C29.6021 12.75 29.6021 12.875 29.6021 13C29.6021 13.625 29.6021 13.875 29.6021 14.5C29.6021 15.75 29.1045 16.125 28.2339 16C27.7364 16 27.612 16 27.1145 15.875C26.2438 15.875 25.7463 15.25 25.7463 14.125C25.7463 11.625 25.7463 10.625 25.7463 8.25C25.7463 7.25 26.2438 6.625 27.1145 6.625C27.612 6.625 27.7364 6.625 28.2339 6.625C29.1045 6.625 29.6021 7.125 29.6021 8.25C29.6021 8.875 29.6021 9.125 29.6021 9.625Z" fill="#E82344"/>
<path d="M34.7014 8.125C34.7014 8.25 34.7014 8.375 34.577 8.375C33.582 8.375 33.0845 8.375 32.0895 8.375C32.0895 9.25 32.0895 9.75 32.0895 10.625C32.8358 10.625 33.2089 10.625 33.9552 10.625C34.0795 10.625 34.0795 10.75 34.0795 10.875C34.0795 11.375 34.0795 11.5 34.0795 12C34.0795 12.125 34.0795 12.25 33.9552 12.25C33.2089 12.25 32.8358 12.25 32.0895 12.125C32.0895 13.125 32.0895 13.875 32.0895 15C33.0845 15.125 33.582 15.25 34.577 15.375C34.7014 15.375 34.7014 15.5 34.7014 15.625C34.7014 16.25 34.7014 16.5 34.7014 17C34.7014 17.125 34.7014 17.125 34.577 17.125C33.0845 16.75 32.4626 16.625 30.9701 16.375C30.8457 16.375 30.8457 16.25 30.8457 16.125C30.8457 13 30.8457 10 30.8457 6.875C30.8457 6.75 30.8457 6.75 30.9701 6.75C32.4626 6.75 33.0845 6.75 34.577 6.75C34.7014 6.75 34.7014 6.875 34.7014 6.875C34.7014 7.375 34.7014 7.625 34.7014 8.125Z" fill="#E82344"/>
<path d="M39.9254 11.5C39.9254 12.25 39.6767 13.125 39.1791 13.375C39.4279 15.25 39.5523 16.75 39.9254 18.25C39.9254 18.375 39.9254 18.5 39.801 18.375C39.4279 18.25 39.1791 18.25 38.806 18.125C38.6816 18.125 38.6816 18 38.6816 17.875C38.4329 16.625 38.3085 15.25 37.9354 13.375C37.6866 13.375 37.5622 13.375 37.3135 13.25C37.3135 15 37.3135 16.25 37.3135 17.375C37.3135 17.5 37.3135 17.5 37.1891 17.5C36.6916 17.625 36.4428 17.5 36.0697 17.5C35.9453 17.5 35.9453 17.375 35.9453 17.25C35.9453 13.875 35.9453 10.375 35.9453 7C35.9453 6.875 35.9453 6.875 36.0697 6.875C37.0647 6.875 37.5622 6.875 38.5573 6.875C39.4279 6.875 39.9254 7.375 39.9254 8.625C39.9254 9.75 39.9254 10.5 39.9254 11.5ZM38.1841 11.625C38.4329 11.625 38.5573 11.5 38.5573 11.25C38.5573 10.375 38.5573 9.875 38.5573 9C38.5573 8.625 38.4329 8.5 38.1841 8.5C37.811 8.5 37.5622 8.5 37.1891 8.5C37.1891 9.75 37.1891 10.5 37.1891 11.625C37.5622 11.5 37.811 11.5 38.1841 11.625Z" fill="#E82344"/>
<path d="M12.6865 6.625C13.5572 6.625 14.0547 7.125 14.0547 8.25C14.0547 8.75 14.0547 9 14.0547 9.5C14.0547 9.625 14.0547 9.75 13.9303 9.75C13.5572 9.75 13.3084 9.75 12.9353 9.75C12.8109 9.75 12.8109 9.625 12.8109 9.5C12.8109 9.125 12.8109 8.875 12.8109 8.5C12.8109 8.125 12.6865 8 12.4378 8C12.189 8 12.189 8 11.9403 8C11.6915 8 11.5671 8.125 11.5671 8.5C11.5671 9.125 11.5671 9.5 11.5671 10.25C12.4378 10.625 12.9353 10.75 13.9303 11C13.9303 11.25 14.0547 11.25 14.0547 11.5C14.0547 12.625 14.0547 13.625 14.0547 15.125C14.0547 16.625 13.5572 17.25 12.6865 17.5C12.189 17.625 12.0646 17.625 11.5671 17.75C10.6965 18 10.199 17.625 10.199 15.875C10.199 15.125 10.199 14.625 10.199 13.75C10.199 13.5 10.199 13.375 10.3234 13.375C10.6965 13.375 10.9452 13.25 11.3184 13.25C11.4428 13.25 11.4428 13.375 11.4428 13.5C11.4428 14.125 11.4428 14.375 11.4428 15C11.4428 15.5 11.5671 15.75 11.8159 15.625C12.0646 15.625 12.0646 15.625 12.3134 15.5C12.5622 15.5 12.6865 15.25 12.6865 14.75C12.6865 13.75 12.6865 13.25 12.6865 12.375C11.8159 12.125 11.3184 12 10.4477 11.625C10.199 11.625 10.199 11.5 10.199 11.25C10.199 10.125 10.199 9.5 10.199 8.375C10.199 7.25 10.6965 6.625 11.5671 6.625C11.9403 6.625 12.189 6.625 12.6865 6.625Z" fill="#292929"/>
<path d="M15.2986 8.25C15.2986 7.125 15.7961 6.625 16.6667 6.625C17.1643 6.625 17.2886 6.625 17.7861 6.625C18.6568 6.625 19.1543 7.125 19.1543 8.25C19.1543 10.25 19.1543 12.375 19.1543 14.375C19.1543 15.625 18.6568 16.25 17.7861 16.375C17.2886 16.5 17.1643 16.5 16.6667 16.625C15.7961 16.75 15.2986 16.5 15.2986 15C15.2986 12.75 15.2986 10.5 15.2986 8.25ZM17.5374 14.875C17.7861 14.875 17.9105 14.625 17.9105 14.25C17.9105 11.625 17.9105 10.75 17.9105 8.625C17.9105 8.375 17.7861 8.125 17.5374 8.125C17.2886 8.125 17.1643 8.125 16.9155 8.125C16.6667 8.125 16.5424 8.25 16.5424 8.625C16.5424 10.75 16.5424 11.625 16.5424 14.5C16.5424 14.875 16.6667 15.125 16.9155 15C17.1643 14.875 17.2886 14.875 17.5374 14.875Z" fill="#292929"/>
<path d="M24.378 9.375C24.378 9.5 24.378 9.5 24.2537 9.5C23.8805 9.5 23.6318 9.5 23.2586 9.5C23.1343 9.5 23.1343 9.375 23.1343 9.375C23.1343 9 23.1343 8.875 23.1343 8.5C23.1343 8.25 23.0099 8 22.7611 8C22.5124 8 22.5124 8 22.2636 8C22.0149 8 21.8905 8.125 21.8905 8.5C21.8905 10.5 21.8905 11.5 21.8905 13.75C21.8905 14.125 22.0149 14.25 22.2636 14.25C22.5124 14.25 22.5124 14.25 22.7611 14.25C23.0099 14.25 23.1343 14.125 23.1343 13.75C23.1343 13.375 23.1343 13.125 23.1343 12.75C23.1343 12.625 23.1343 12.5 23.2586 12.5C23.6318 12.5 23.8805 12.5 24.2537 12.5C24.378 12.5 24.378 12.625 24.378 12.75C24.378 13.25 24.378 13.5 24.378 14C24.378 15.125 23.8805 15.625 23.0099 15.75C22.5124 15.75 22.388 15.75 21.8905 15.875C21.0198 16 20.5223 15.5 20.3979 14.375C20.3979 12.375 20.3979 10.375 20.3979 8.375C20.3979 7.375 20.8955 6.75 21.8905 6.75C22.388 6.75 22.5124 6.75 23.0099 6.75C23.8805 6.75 24.378 7.25 24.378 8.375C24.378 8.625 24.378 8.875 24.378 9.375Z" fill="#292929"/>
<path d="M29.6021 9.375C29.6021 9.5 29.6021 9.5 29.4777 9.5C29.1045 9.5 28.8558 9.5 28.4827 9.5C28.3583 9.5 28.3583 9.375 28.3583 9.375C28.3583 9 28.3583 8.875 28.3583 8.5C28.3583 8.25 28.2339 8 27.9851 8C27.7364 8 27.7364 8 27.4876 8C27.2389 8 27.1145 8.125 27.1145 8.5C27.1145 10.5 27.1145 11.5 27.1145 13.75C27.1145 14.125 27.2389 14.25 27.4876 14.25C27.7364 14.25 27.7364 14.25 27.9851 14.25C28.2339 14.25 28.3583 14.125 28.3583 13.75C28.3583 13.375 28.3583 13.125 28.3583 12.75C28.3583 12.625 28.3583 12.5 28.4827 12.5C28.8558 12.5 29.1045 12.5 29.4777 12.5C29.6021 12.5 29.6021 12.625 29.6021 12.75C29.6021 13.375 29.6021 13.625 29.6021 14.25C29.6021 15.5 29.1045 15.875 28.2339 15.75C27.7364 15.75 27.612 15.75 27.1145 15.625C26.2438 15.625 25.7463 15 25.7463 13.875C25.7463 11.375 25.7463 10.375 25.7463 8C25.7463 7 26.2438 6.375 27.1145 6.375C27.612 6.375 27.7364 6.375 28.2339 6.375C29.1045 6.375 29.6021 6.875 29.6021 8C29.6021 8.75 29.6021 9 29.6021 9.375Z" fill="#292929"/>
<path d="M34.7014 7.875C34.7014 8 34.7014 8.125 34.577 8.125C33.582 8.125 33.0845 8.125 32.0895 8.125C32.0895 9 32.0895 9.5 32.0895 10.375C32.8358 10.375 33.2089 10.375 33.9552 10.375C34.0795 10.375 34.0795 10.5 34.0795 10.625C34.0795 11.125 34.0795 11.25 34.0795 11.75C34.0795 11.875 34.0795 12 33.9552 12C33.2089 12 32.8358 12 32.0895 11.875C32.0895 12.875 32.0895 13.625 32.0895 14.75C33.0845 14.875 33.582 15 34.577 15.125C34.7014 15.125 34.7014 15.25 34.7014 15.375C34.7014 16 34.7014 16.25 34.7014 16.75C34.7014 16.875 34.7014 16.875 34.577 16.875C33.0845 16.5 32.4626 16.375 30.9701 16.125C30.8457 16.125 30.8457 16 30.8457 15.875C30.8457 12.75 30.8457 9.75 30.8457 6.625C30.8457 6.5 30.8457 6.5 30.9701 6.5C32.4626 6.5 33.0845 6.5 34.577 6.5C34.7014 6.5 34.7014 6.625 34.7014 6.625C34.7014 7.25 34.7014 7.5 34.7014 7.875Z" fill="#292929"/>
<path d="M39.9253 11.375C39.9253 12.125 39.6765 13 39.179 13.25C39.4278 15.125 39.5522 16.625 39.9253 18.125C39.9253 18.25 39.9253 18.375 39.8009 18.25C39.4278 18.125 39.179 18.125 38.8059 18C38.6815 18 38.6815 17.875 38.6815 17.75C38.4328 16.5 38.3084 15.125 37.9353 13.25C37.6865 13.25 37.5621 13.25 37.3134 13.125C37.3134 14.875 37.3134 16.125 37.3134 17.25C37.3134 17.375 37.3134 17.375 37.189 17.375C36.8158 17.25 36.5671 17.25 36.194 17.125C36.0696 17.125 36.0696 17 36.0696 16.875C36.0696 13.5 36.0696 10 36.0696 6.625C36.0696 6.5 36.0696 6.5 36.194 6.5C37.189 6.5 37.6865 6.5 38.6815 6.5C39.5522 6.5 40.0497 7 40.0497 8.25C39.9253 9.5 39.9253 10.25 39.9253 11.375ZM38.184 11.375C38.4328 11.375 38.5571 11.25 38.5571 10.875C38.5571 10 38.5571 9.5 38.5571 8.625C38.5571 8.25 38.4328 8.125 38.184 8.125C37.8109 8.125 37.5621 8.125 37.189 8.125C37.189 9.375 37.189 10.125 37.189 11.25C37.5621 11.375 37.8109 11.375 38.184 11.375Z" fill="#292929"/>
<path d="M12.6865 6.125C13.5572 6.125 14.0547 6.625 14.0547 7.75C14.0547 8.25 14.0547 8.5 14.0547 9C14.0547 9.125 14.0547 9.25 13.9303 9.25C13.5572 9.25 13.3084 9.25 12.9353 9.25C12.8109 9.25 12.8109 9.125 12.8109 9C12.8109 8.625 12.8109 8.375 12.8109 8C12.8109 7.625 12.6865 7.5 12.4378 7.5C12.189 7.5 12.189 7.5 11.9403 7.5C11.6915 7.5 11.5671 7.625 11.5671 8C11.5671 8.625 11.5671 9 11.5671 9.75C12.4378 10.125 12.9353 10.25 13.9303 10.5C14.0547 10.625 14.1791 10.625 14.1791 10.875C14.1791 12 14.1791 13 14.1791 14.5C14.1791 16 13.6816 16.625 12.8109 16.875C12.3134 17 12.189 17 11.6915 17.125C10.8209 17.375 10.3234 17 10.3234 15.25C10.3234 14.5 10.3234 14 10.3234 13.125C10.3234 12.875 10.3234 12.75 10.4477 12.75C10.8209 12.75 11.0696 12.625 11.4428 12.625C11.5671 12.625 11.5671 12.75 11.5671 12.875C11.5671 13.5 11.5671 13.75 11.5671 14.375C11.5671 14.875 11.6915 15.125 11.9403 15C12.189 15 12.189 15 12.4378 14.875C12.6865 14.875 12.8109 14.625 12.8109 14.125C12.8109 13.125 12.8109 12.625 12.8109 11.75C11.8159 11.75 11.3184 11.5 10.4477 11.25C10.199 11.125 10.199 11 10.199 10.75C10.199 9.625 10.199 9 10.199 7.875C10.199 6.75 10.6965 6.125 11.5671 6.125C11.9403 6.125 12.189 6.125 12.6865 6.125Z" fill="white"/>
<path d="M15.2986 7.75C15.2986 6.625 15.7961 6.125 16.6667 6.125C17.1643 6.125 17.2886 6.125 17.7861 6.125C18.6568 6.125 19.1543 6.625 19.1543 7.75C19.1543 9.75 19.1543 11.875 19.1543 13.875C19.1543 15.125 18.6568 15.75 17.7861 15.875C17.2886 16 17.1643 16 16.6667 16.125C15.7961 16.25 15.2986 16 15.2986 14.5C15.2986 12.25 15.2986 10 15.2986 7.75ZM17.5374 14.375C17.7861 14.375 17.9105 14.125 17.9105 13.75C17.9105 11.125 17.9105 10.25 17.9105 8.125C17.9105 7.875 17.7861 7.625 17.5374 7.625C17.2886 7.625 17.1643 7.625 16.9155 7.625C16.6667 7.625 16.5424 7.75 16.5424 8.125C16.5424 10.25 16.5424 11.125 16.5424 14C16.5424 14.375 16.6667 14.625 16.9155 14.5C17.1643 14.375 17.2886 14.375 17.5374 14.375Z" fill="white"/>
<path d="M24.378 9C24.378 9.125 24.378 9.125 24.2537 9.125C23.8805 9.125 23.6318 9.125 23.2586 9.125C23.1343 9.125 23.1343 9 23.1343 9C23.1343 8.625 23.1343 8.5 23.1343 8.125C23.1343 7.875 23.0099 7.625 22.7611 7.625C22.5124 7.625 22.5124 7.625 22.2636 7.625C22.0149 7.625 21.8905 7.75 21.8905 8.125C21.8905 10.125 21.8905 11.125 21.8905 13.375C21.8905 13.75 22.0149 13.875 22.2636 13.875C22.5124 13.875 22.5124 13.875 22.7611 13.875C23.0099 13.875 23.1343 13.75 23.1343 13.375C23.1343 13 23.1343 12.75 23.1343 12.375C23.1343 12.25 23.1343 12.125 23.2586 12.125C23.6318 12.125 23.8805 12.125 24.2537 12.125C24.378 12.125 24.378 12.25 24.378 12.375C24.378 12.875 24.378 13.125 24.378 13.625C24.378 14.75 23.8805 15.25 23.0099 15.375C22.5124 15.375 22.388 15.375 21.8905 15.5C21.0198 15.625 20.5223 15.125 20.3979 14C20.3979 12 20.3979 10 20.3979 8C20.3979 7 20.8955 6.375 21.8905 6.375C22.388 6.375 22.5124 6.375 23.0099 6.375C23.8805 6.375 24.378 6.875 24.378 8C24.378 8.25 24.378 8.5 24.378 9Z" fill="white"/>
<path d="M29.6021 9C29.6021 9.125 29.6021 9.125 29.4777 9.125C29.1045 9.125 28.8558 9.125 28.4827 9.125C28.3583 9.125 28.3583 9 28.3583 9C28.3583 8.625 28.3583 8.5 28.3583 8.125C28.3583 7.875 28.2339 7.625 27.9851 7.625C27.7364 7.625 27.7364 7.625 27.4876 7.625C27.2389 7.625 27.1145 7.75 27.1145 8.125C27.1145 10.125 27.1145 11.125 27.1145 13.375C27.1145 13.75 27.2389 13.875 27.4876 13.875C27.7364 13.875 27.7364 13.875 27.9851 13.875C28.2339 13.875 28.3583 13.75 28.3583 13.375C28.3583 13 28.3583 12.75 28.3583 12.375C28.3583 12.25 28.3583 12.125 28.4827 12.125C28.8558 12.125 29.1045 12.125 29.4777 12.125C29.6021 12.125 29.6021 12.25 29.6021 12.375C29.6021 13 29.6021 13.25 29.6021 13.875C29.6021 15.125 29.1045 15.5 28.2339 15.375C27.7364 15.375 27.612 15.375 27.1145 15.25C26.2438 15.25 25.7463 14.625 25.7463 13.5C25.7463 11 25.7463 10 25.7463 7.625C25.7463 6.625 26.2438 6 27.1145 6C27.612 6 27.7364 6 28.2339 6C29.1045 6 29.6021 6.5 29.6021 7.625C29.6021 8.25 29.6021 8.5 29.6021 9Z" fill="white"/>
<path d="M34.7014 7.5C34.7014 7.625 34.7014 7.75 34.577 7.75C33.582 7.75 33.0845 7.75 32.0895 7.75C32.0895 8.625 32.0895 9.125 32.0895 10C32.8358 10 33.2089 10 33.9552 10C34.0795 10 34.0795 10.125 34.0795 10.25C34.0795 10.75 34.0795 10.875 34.0795 11.375C34.0795 11.5 34.0795 11.625 33.9552 11.625C33.2089 11.625 32.8358 11.625 32.0895 11.5C32.0895 12.5 32.0895 13.25 32.0895 14.375C33.0845 14.5 33.582 14.625 34.577 14.75C34.7014 14.75 34.7014 14.875 34.7014 15C34.7014 15.625 34.7014 15.875 34.7014 16.375C34.7014 16.5 34.7014 16.5 34.577 16.5C33.0845 16.125 32.4626 16 30.9701 15.75C30.8457 15.75 30.8457 15.625 30.8457 15.5C30.8457 12.375 30.8457 9.375 30.8457 6.25C30.8457 6.125 30.8457 6.125 30.9701 6.125C32.4626 6.125 33.0845 6.125 34.577 6.125C34.7014 6.125 34.7014 6.25 34.7014 6.25C34.7014 6.75 34.7014 7 34.7014 7.5Z" fill="white"/>
<path d="M39.9253 10.875C39.9253 11.625 39.6765 12.5 39.179 12.75C39.4278 14.625 39.5522 16.125 39.9253 17.625C39.9253 17.75 39.9253 17.875 39.8009 17.75C39.4278 17.625 39.179 17.625 38.8059 17.5C38.6815 17.5 38.6815 17.375 38.6815 17.25C38.4328 16 38.3084 14.625 37.9353 12.75C37.6865 12.75 37.5621 12.75 37.3134 12.625C37.3134 14.375 37.3134 15.625 37.3134 16.75C37.3134 16.875 37.3134 16.875 37.189 16.875C36.8158 16.75 36.5671 16.75 36.194 16.625C36.0696 16.625 36.0696 16.5 36.0696 16.375C36.0696 13 36.0696 9.5 36.0696 6.125C36.0696 6 36.0696 6 36.194 6C37.189 6 37.6865 6 38.6815 6C39.5522 6 40.0497 6.5 40.0497 7.75C39.9253 9.125 39.9253 9.75 39.9253 10.875ZM38.184 10.875C38.4328 10.875 38.5571 10.75 38.5571 10.5C38.5571 9.625 38.5571 9.125 38.5571 8.25C38.5571 7.875 38.4328 7.75 38.184 7.75C37.8109 7.75 37.5621 7.75 37.189 7.75C37.189 9 37.189 9.75 37.189 10.875C37.5621 10.875 37.8109 10.875 38.184 10.875Z" fill="white"/>
<path d="M25.0001 46.125L24.7513 45.875C23.3832 44.75 20.2737 42.75 14.0548 41.625C10.0747 40.875 7.08965 39 5.47274 36.25C3.73145 33.125 3.73145 28.75 5.47274 23.75C8.70657 14.375 5.97025 10.25 4.10458 8.5L3.73145 8.25L8.08468 2.5H8.33344C10.4479 2.75 16.1693 3.25 25.0001 3.25C33.8309 3.25 39.6767 2.75 41.7911 2.625H42.0399L46.3931 8.375L46.02 8.5C44.1543 10.125 41.418 14.375 44.6518 23.625C46.3931 28.75 46.3931 33 44.5275 36.25C42.9105 39 39.9255 40.875 35.9454 41.625C29.8508 42.75 26.617 44.75 25.2489 45.875L25.0001 46.125ZM4.85085 8.125C6.8409 10.125 9.45284 14.625 6.21901 24C4.47771 28.875 4.60209 33 6.21901 35.875C7.71154 38.5 10.4479 40.125 14.3036 40.875C20.025 42 23.2588 43.75 25.0001 45.125C26.7414 43.75 30.0996 42 35.6966 40.875C39.428 40.125 42.2887 38.375 43.7812 35.875C45.5225 32.875 45.5225 28.75 43.7812 24C40.5474 14.625 43.1593 10.125 45.1494 8.25L41.5424 3.5C39.3036 3.625 33.5822 4.125 25.0001 4.125C16.418 4.125 10.6966 3.625 8.45781 3.5L4.85085 8.125Z" fill="#E82344"/>
<path d="M25 17.5L25.3731 18.625H26.3682L25.6219 19.25L25.8706 20.25L25 19.625L24.1293 20.25L24.5025 19.25L23.6318 18.625H24.7512L25 17.5Z" fill="white"/>
<path d="M15.5474 18.375L15.7961 19.375H16.9155L16.0449 20L16.418 21L15.5474 20.375L14.6767 21L14.9255 20L14.1792 19.375H15.1742L15.5474 18.375Z" fill="white"/>
<path d="M34.5771 18.375L34.8259 19.375H35.9453L35.0747 20L35.4478 21L34.5771 20.375L33.7065 21L33.9553 20L33.209 19.375H34.204L34.5771 18.375Z" fill="white"/>
</g>
<defs>
<clipPath id="clip0_410_3849">
<rect width="50" height="50" fill="white"/>
</clipPath>
</defs>
</svg>
