<svg width="27" height="30" viewBox="0 0 27 30" fill="none" xmlns="http://www.w3.org/2000/svg">
<path d="M26.8516 17.4C26.7775 17.325 26.0357 16.05 22.9945 13.95C23.217 13.35 23.3654 12.975 23.3654 12.975L23.5137 12.525L23.1429 12.225C23.0687 12.15 22.4011 11.7 20.9918 11.55C21.2885 11.1 21.3626 10.65 21.3626 10.425C21.4368 9.15 20.6209 7.875 18.989 7.05C16.0962 5.475 16.8379 2.25 16.8379 2.1L17.4313 0L15.7994 1.275C15.7994 1.275 14.9093 1.95 14.2418 3C12.9808 4.875 12.9066 6.9 13.9451 8.775C11.794 8.85 9.71703 9.45 8.53022 10.35H8.45604C7.41758 10.35 6.08242 10.425 5.34066 10.875C5.26648 10.95 5.19231 10.95 5.11813 11.025C5.04396 10.95 4.96978 10.65 4.8956 10.125C4.8956 9.975 4.8956 9.825 4.82143 9.675V9.6C4.74725 8.4 4.45055 5.025 1.33516 4.35L0 4.05L0.445055 5.325C0.445055 5.325 0.667582 6 0.667582 6.825C0.667582 6.975 0.667582 7.05 0.667582 7.125C0.667582 7.725 0.741758 8.1 0.296703 9.9C-0.0741758 11.7 0.296703 13.425 1.48352 14.7C2.22527 15.45 3.11538 15.825 4.00549 15.975C3.85714 16.425 3.78297 16.95 3.85714 17.325C3.93132 17.85 4.22802 18.3 4.45055 18.6V18.675V18.9L4.52472 18.975C4.37637 19.875 4.15385 20.775 4.00549 21C3.78297 21.3 3.04121 22.575 3.63462 23.775C4.07967 24.6 4.67308 25.275 4.8956 25.5C5.04396 25.8 5.41483 26.4 6.15659 26.925C6.75 27.375 7.41758 27.525 8.08516 27.525C8.38187 27.525 8.67857 27.525 9.04945 27.45C9.79121 27.3 10.3846 26.775 10.8297 26.175C11.0522 26.7 11.2005 27.525 10.6071 28.95L10.2363 30L11.4231 29.925C11.7198 29.925 18.6181 29.175 22.9203 23.55L22.9945 23.4V23.25C22.9945 23.25 22.9945 23.1 23.0687 22.95L23.1429 23.325L24.033 22.425C24.3297 22.125 26.6291 19.725 26.9258 17.925V17.7L26.8516 17.4Z" fill="#D91E41"/>
<path d="M5.34065 15.45C4.59889 15.45 3.11538 15.375 2.07692 14.25C1.03845 13.125 0.667575 11.625 1.03845 10.05C1.48351 7.80002 1.40933 7.57502 1.40933 6.75002C1.40933 5.70002 1.11263 5.02502 1.11263 5.02502C3.78296 5.62502 4.00549 8.62502 4.07966 9.60002C4.07966 9.82502 4.07966 9.97502 4.15384 10.125C4.37637 11.7 4.8956 11.7 5.26648 11.7C5.41483 11.7 5.56318 11.7 5.78571 11.625C6.08241 11.55 6.45329 11.55 6.82417 11.55C7.41757 11.55 7.93681 11.625 8.01098 11.625L8.75274 11.775V12.525C8.75274 14.325 8.23351 15.3 7.26922 15.3C6.89834 15.3 6.52746 15.375 6.15659 15.375C5.78571 15.45 5.34065 15.45 4.8956 15.45H5.34065Z" fill="#1B1464"/>
<path d="M7.86262 12.525C7.86262 12.525 6.82416 12.375 5.93405 12.525C4.52471 12.75 3.56042 12.375 3.26372 10.275C3.11537 9.37498 3.26372 7.79998 2.15108 6.59998C2.15108 6.59998 2.44778 7.79998 1.85438 10.275C1.55768 11.475 1.92855 12.975 2.67031 13.65C3.9313 14.85 5.56317 14.4 7.19504 14.4C7.86262 14.4 7.86262 12.525 7.86262 12.525Z" fill="#FAFDFF"/>
<path d="M5.93407 14.475C6.08242 13.95 5.78572 12.975 5.71154 12.6C4.45056 12.75 3.63462 12.3 3.33792 10.35C3.18957 9.45005 3.33792 7.87505 2.22528 6.67505C2.22528 6.67505 2.96704 7.42505 2.52198 10.35C2.07693 13.275 3.85715 14.4 4.74726 14.55C5.11814 14.475 5.48902 14.475 5.93407 14.475Z" fill="#AEB2C4"/>
<path d="M5.19231 15.225C5.19231 15.225 4.52473 16.65 4.59891 17.25C4.74726 17.85 5.26649 18.45 5.26649 18.45C5.26649 18.45 4.82144 20.85 4.59891 21.375C4.59891 21.375 3.78297 22.5 4.3022 23.4C4.82144 24.3 5.48902 25.05 5.48902 25.05C5.48902 25.05 5.78572 25.7249 6.52748 26.3249C7.26924 26.8499 8.08517 26.9249 8.90111 26.6999C9.71704 26.5499 10.4588 25.575 10.6813 24.9C10.6813 24.9 12.6099 25.95 11.2747 29.175C11.2747 29.175 18.0989 28.575 22.2528 23.025C22.2528 23.025 22.9203 20.175 21.5852 18.825C21.5852 18.825 22.9945 19.725 23.5137 21.825C23.5137 21.825 25.9615 19.35 26.1841 17.7C26.1841 17.7 24.9231 15.6 18.989 12.225C18.989 12.225 16.6896 9.44995 14.6126 9.44995C11.8681 9.44995 9.71704 10.2 8.75275 11.025C8.75275 11.025 6.52748 10.95 5.63737 11.4C4.67308 12 4.96979 14.85 5.19231 15.225Z" fill="#1B1464"/>
<path d="M17.0605 19.125C17.0605 19.125 19.8791 20.025 21.2143 22.8C21.2143 22.8 22.3269 18.525 16.9121 15.6C16.9863 15.6 18.0247 17.1 17.0605 19.125Z" fill="#4B5370"/>
<path d="M15.2802 17.475C15.2802 17.475 21.5852 15.225 24.033 19.875C24.033 19.875 25.0714 18.525 25.0714 18C25.0714 18 23.5137 15.375 19.6566 14.475C19.6566 14.475 15.8736 15.225 15.2802 17.475Z" fill="#4B5370"/>
<path d="M14.6126 14.7749C14.6126 14.7749 14.6868 13.1249 17.6538 12.4499C21.2884 11.6999 22.6978 12.6749 22.6978 12.6749C22.6978 12.6749 20.9917 18.8999 14.9835 17.1749C14.9835 17.2499 15.5769 15.5999 14.6126 14.7749Z" fill="#1B1464"/>
<path d="M15.3544 14.025L15.2061 15.6C15.2061 15.6 15.9478 15.15 17.4313 15.3C17.4313 15.3 17.3572 14.775 16.7637 14.775C16.7637 14.775 17.9506 14.325 19.6566 14.85C19.6566 14.85 19.0632 14.325 17.4313 14.325C17.4313 14.325 19.3599 13.35 20.6951 13.575C20.6951 13.575 20.9176 13.875 20.5467 14.55C21.0659 14.1 21.511 13.2 21.511 13.2C21.511 13.2 19.5083 12.375 15.3544 14.025Z" fill="#4B5370"/>
<path d="M12.9808 10.575C12.9808 10.575 12.9066 12.6 14.5385 13.5C14.5385 13.5 15.2061 12.525 16.9863 12.825C16.9863 12.825 15.9478 13.275 15.5769 14.4C15.5769 14.4 18.0247 18.15 14.761 19.65C14.761 19.65 15.9478 20.4 16.3929 21.375C16.3929 21.375 14.1676 19.65 13.055 20.4C12.0165 21.075 10.8297 22.2 10.8297 22.2C10.8297 22.2 10.7555 22.8 10.3846 23.1C10.3846 23.1 10.533 21.675 9.34617 21.525C9.34617 21.525 10.1621 23.1 8.75276 23.775C7.34342 24.45 7.41759 23.625 6.30496 24.375C6.30496 24.375 5.11814 23.4 5.2665 22.725C5.41485 22.05 5.71155 21.825 5.71155 21.825C5.71155 21.825 6.45331 18.6 6.37913 17.85C6.37913 17.85 5.71155 17.325 5.78573 16.875C5.63737 16.425 5.93408 15.3 5.93408 15.3C5.93408 15.3 5.71155 13.875 5.93408 12.9C6.15661 11.925 6.89836 12.075 8.011 12C8.011 12 7.93683 12.6 8.23353 13.65C8.23353 13.65 8.67858 12.375 9.27199 11.775C9.93957 11.1 11.1264 10.575 12.9808 10.575Z" fill="#818AA0"/>
<path d="M7.49177 22.35C7.19507 22.425 6.82419 22.8 6.23078 22.875C5.8599 22.95 5.48902 22.65 5.26649 22.65C4.96979 22.65 5.11814 23.025 5.11814 23.025C5.34067 23.625 6.1566 24.375 6.1566 24.375C7.26924 23.625 7.19507 24.45 8.60441 23.775C10.0137 23.1 9.19781 21.525 9.19781 21.525C9.04946 22.575 8.3077 22.05 7.49177 22.35Z" fill="#4B5370"/>
<path d="M14.6868 19.725C17.4313 18.45 16.0962 15.6 15.6511 14.7C14.4643 15.6 13.4258 15.675 13.4258 15.675C13.4258 15.675 12.3874 16.5 11.4973 17.55C10.6072 18.6 9.42034 19.125 9.42034 19.125C10.2363 19.425 11.2006 19.575 11.7198 19.425C11.2006 20.475 10.2363 20.775 9.71705 21.075C9.49452 21.225 9.19781 21.525 9.19781 21.525C10.3105 21.75 10.2363 23.1 10.2363 23.1C10.6813 22.8 10.6813 22.2 10.6813 22.2C10.6813 22.2 11.8681 21.15 12.9066 20.4C13.9451 19.725 16.2445 21.375 16.2445 21.375C15.7995 20.475 14.6868 19.725 14.6868 19.725Z" fill="#4B5370"/>
<path d="M6.52747 25.05C6.52747 25.05 6.89834 25.05 7.93681 24.975C8.82692 24.975 8.75274 24.825 10.0879 24.375C10.0879 24.375 9.27197 25.875 8.23351 25.95C7.41758 25.95 6.67582 25.65 6.52747 25.05Z" fill="#4B5370"/>
<path d="M9.42035 19.05C9.42035 19.05 10.6072 19.2 11.794 18.675C12.9066 18.15 12.7583 16.2 12.7583 16.2C12.7583 16.2 13.2775 15.675 13.4258 15.6C13.4258 15.6 12.239 15.525 11.0522 16.725C11.0522 16.725 10.8297 16.35 10.3105 16.425C10.3105 16.5 10.6813 17.4 9.42035 19.05Z" fill="#1B1464"/>
<path d="M11.0522 18.075C11.0522 18.075 11.1264 17.4 12.3874 16.5C12.3874 16.5 12.3132 16.725 12.2391 16.875C12.2391 16.875 12.3132 18.375 11.0522 18.075Z" fill="#D91E41"/>
<path d="M11.1264 17.55C11.1264 17.55 11.5715 17.475 11.794 17.775C11.794 17.775 12.1649 17.25 11.794 16.8L11.1264 17.55Z" fill="#1B1464"/>
<path d="M10.533 18.375L9.42035 19.05C9.42035 19.05 12.0165 19.575 13.2775 18.075C13.2775 18.075 12.0165 18.75 10.533 18.375Z" fill="#1B1464"/>
<path d="M5.56317 18.6L6.15658 17.85C6.15658 17.85 6.52746 18.225 6.52746 19.05L5.56317 18.6Z" fill="#1B1464"/>
<path d="M3.26373 10.275C3.26373 10.275 3.41208 12.975 4.67307 12.975C4.67307 12.975 4.30219 12.45 4.15384 10.95L3.26373 10.275Z" fill="#1B1464"/>
<path d="M7.41758 23.475C7.78846 23.55 8.30769 23.325 8.30769 23.325C8.30769 23.325 7.71428 23.4 7.78846 23.1C7.86263 22.725 8.38186 23.4 8.82692 23.175C9.27197 22.95 8.97527 22.2 7.93681 22.425C6.89835 22.65 7.12087 23.4 7.41758 23.475Z" fill="#1B1464"/>
<path d="M5.41486 23.7C5.19233 23.775 4.89563 23.55 4.89563 23.55C4.89563 23.55 4.82145 23.55 4.59893 23.4C4.3764 23.175 4.59893 22.425 5.19233 22.725C5.85992 22.95 5.63739 23.625 5.41486 23.7Z" fill="#1B1464"/>
<path d="M13.4258 21.525C13.4258 21.525 15.5028 24.225 15.1319 26.85C15.1319 26.85 17.1346 26.25 18.0247 25.35C18.0247 25.425 16.022 21.75 13.4258 21.525Z" fill="#4B5370"/>
<path d="M13.4258 14.7C14.6126 14.775 15.7252 14.85 15.7252 14.85H16.3928C16.1703 14.25 15.7252 14.325 15.7252 14.325C15.9478 13.275 16.9121 12.825 16.9121 12.825C15.1318 12.525 14.4643 13.5 14.4643 13.5C14.2417 13.35 14.0934 13.275 13.945 13.125L11.1263 14.175C11.1263 14.175 11.9423 14.625 13.4258 14.7Z" fill="#4B5370"/>
<path d="M14.1676 13.2001C13.1291 12.225 13.055 10.875 13.2033 10.275L13.2775 9.82505L13.7225 9.67505C14.0192 9.52505 14.6868 9.45005 15.2061 9.37505C13.055 6.67505 14.0934 4.42505 14.8352 3.37505C15.4286 2.47505 16.2445 1.80005 16.2445 1.80005C16.2445 1.80005 15.2802 5.70005 18.7665 7.57505C20.1017 8.25005 20.8434 9.30005 20.6951 10.275C20.6209 10.8 20.3242 11.7 18.8407 12.225C16.6896 12.975 15.0577 13.425 14.9835 13.425L14.4643 13.5L14.1676 13.2001Z" fill="#1B1464"/>
<path d="M14.0192 10.425C14.0192 10.425 13.7225 11.4 14.4643 12.75C14.4643 12.75 16.3187 12.15 18.544 11.4C20.4725 10.725 20.0275 9.37498 18.3214 8.39998C15.8736 7.04998 15.3544 5.24998 15.5028 3.97498C15.5028 3.97498 13.3517 6.29998 16.5412 9.44998C16.5412 9.44998 16.9121 9.89998 17.8022 10.5C17.8022 10.5 16.7637 10.8 16.022 10.125C16.022 10.125 14.4643 10.2 14.0192 10.425Z" fill="#FAFDFF"/>
<path d="M11.7198 23.25C11.7198 23.25 13.9451 25.5 14.1676 27.225C14.1676 27.225 14.4643 24.9 12.3874 22.35C12.3874 22.425 11.9423 22.725 11.7198 23.25Z" fill="#4B5370"/>
<path d="M13.7967 12.975C13.7967 12.975 12.3132 13.65 11.2006 14.25C11.2006 14.25 12.8324 14.025 14.5385 13.575L13.7967 12.975Z" fill="#1B1464"/>
<path d="M15.9478 7.72498C16.7637 9.44998 17.8022 10.5 17.8022 10.5L14.0934 11.85C14.1676 12.15 14.3159 12.45 14.4643 12.75C14.4643 12.75 16.3187 12.15 18.5439 11.4C20.4725 10.725 20.0275 9.37498 18.3214 8.39998C15.8736 7.04998 15.3544 5.24998 15.5027 3.97498C15.4285 3.97498 14.9835 5.62498 15.9478 7.72498Z" fill="#AEB2C4"/>
<path d="M7.12089 20.7C7.12089 20.7 8.67858 17.7 8.60441 16.725C8.60441 16.725 8.45606 17.025 8.23353 17.1C8.23353 17.1 8.45606 16.125 8.15935 14.925C8.15935 14.925 7.86265 15.825 7.56595 17.025C7.56595 17.025 7.49177 16.95 7.4176 16.575C7.4176 16.575 7.04672 19.275 7.12089 20.7Z" fill="#4B5370"/>
<path d="M8.08516 12C6.97252 12.075 6.23077 11.925 6.00824 12.9C6.75 12.45 7.93681 12.525 7.93681 12.525C8.01099 13.05 8.38187 13.575 8.38187 13.575C8.01099 12.525 8.08516 12 8.08516 12Z" fill="white"/>
<path d="M12.3873 11.1C12.6099 11.85 13.7967 12.9 13.7967 12.9C12.9066 11.925 12.9808 10.5 12.9808 10.5C11.1264 10.5 9.93955 11.1 9.34614 11.625C8.75273 12.225 8.30768 13.5 8.30768 13.5C9.42032 11.25 12.3873 11.1 12.3873 11.1Z" fill="white"/>
<path d="M15.4286 3.97498C15.4286 3.97498 14.9094 6.14998 16.3187 8.54998C16.3187 8.54998 13.8709 6.07498 14.6868 3.97498H15.4286Z" fill="#1B1464"/>
<path d="M2.22528 6.59998C2.22528 6.59998 2.89286 8.17498 2.52198 10.05C2.52198 10.05 3.48627 8.32498 2.81869 7.04998C2.81869 7.04998 2.44781 6.59998 2.22528 6.59998Z" fill="#1B1464"/>
</svg>
