<svg width="28" height="28" viewBox="0 0 28 28" fill="none" xmlns="http://www.w3.org/2000/svg">
<g clip-path="url(#clip0_230_729)">
<path d="M1.46269 4.75998C1.7413 4.89998 2.36816 5.31998 2.85573 6.36998C3.9005 8.39998 3.34329 11.2 2.64677 13.09C1.602 16.1 1.602 18.69 2.71642 20.58C3.69155 22.26 5.43284 23.38 7.801 23.87C10.3085 24.36 11.8408 25.06 12.7463 25.62C13.4428 26.04 13.8607 26.39 14 26.6C14.1393 26.46 14.5572 26.04 15.2537 25.62C16.1592 25.13 17.6915 24.36 20.199 23.87C22.5672 23.38 24.3781 22.26 25.2836 20.58C26.398 18.69 26.398 16.1 25.3532 13.16C24.6567 11.2 24.0995 8.46998 25.0746 6.36998C25.5622 5.38998 26.2587 4.89998 26.5373 4.75998L23.6816 0.97998C23.194 1.04998 19.6418 1.39998 14 1.39998C8.35821 1.39998 4.80598 1.04998 4.31841 0.97998L1.46269 4.75998Z" fill="#292929"/>
<path d="M7.66169 9.09998H4.73631V23.38H7.66169V9.09998Z" fill="#24D17E"/>
<path d="M12.8856 9.09998H9.96019V24.92H12.8856V9.09998Z" fill="#24D17E"/>
<path d="M18.1094 9.09998H15.1841V24.92H18.1094V9.09998Z" fill="#24D17E"/>
<path d="M23.3333 9.09998H20.408V23.38H23.3333V9.09998Z" fill="#24D17E"/>
<path d="M2.85573 6.51003C3.9005 8.68003 3.27364 11.48 2.57712 13.51C5.6418 11.76 9.61195 10.71 13.9304 10.71C18.2488 10.71 22.2189 11.76 25.2836 13.51C24.5871 11.48 24.0299 8.61003 25.005 6.51003C25.4925 5.46003 26.1891 5.04003 26.4677 4.83003L23.6119 0.910034C23.194 1.05003 19.6418 1.40003 14 1.40003C8.35821 1.40003 4.80598 1.05003 4.31841 0.980034L1.46269 4.90003C1.7413 5.04003 2.36816 5.53003 2.85573 6.51003Z" fill="#292929"/>
<path d="M14 28L13.3731 27.16C13.3035 27.09 11.8408 25.55 7.66169 24.71C5.01493 24.22 2.99503 22.89 1.95025 21C0.696517 18.9 0.696517 16.03 1.81095 12.81C3.83085 7 1.18408 5.6 0.975124 5.53L0 5.11L0.696517 4.27L3.9005 0L4.31841 0.07C4.38806 0.07 7.9403 0.49 14 0.49C20.0597 0.49 23.6816 0.07 23.6816 0.07L24.1692 0L28.0697 5.18L27.0945 5.53C26.8856 5.6 24.2388 7 26.2587 12.81C27.3731 16.03 27.3035 18.9 26.1194 21C25.005 22.89 23.0547 24.22 20.408 24.71C16.1592 25.55 14.7662 27.09 14.6965 27.16L14 28ZM2.43781 4.62C3.55224 5.6 5.15423 7.98 3.27363 13.37C2.29851 16.17 2.29851 18.55 3.27363 20.23C4.10945 21.7 5.71144 22.75 7.9403 23.17C11.3532 23.8 13.1642 24.92 14 25.62C14.8358 24.92 16.6468 23.87 20.0597 23.17C22.2189 22.75 23.8209 21.77 24.7264 20.23C25.7015 18.55 25.7015 16.17 24.7264 13.37C22.9154 7.98 24.5174 5.6 25.6318 4.62L23.403 1.68C22.2886 1.82 19.0149 2.03 14 2.03C9.05473 2.03 5.7811 1.82 4.66667 1.68L2.43781 4.62Z" fill="#292929"/>
<path d="M7.10448 3.84998C7.59204 3.84998 7.87065 4.12998 7.87065 4.75998C7.87065 5.03998 7.87065 5.17998 7.87065 5.45998C7.87065 5.52998 7.87065 5.59998 7.80099 5.59998C7.59204 5.59998 7.45273 5.59998 7.24378 5.59998C7.17413 5.59998 7.17413 5.52998 7.17413 5.45998C7.17413 5.24998 7.17413 5.10998 7.17413 4.89998C7.17413 4.68998 7.10448 4.61998 6.96517 4.61998C6.82587 4.61998 6.82587 4.61998 6.68657 4.61998C6.54726 4.61998 6.47761 4.68998 6.47761 4.89998C6.47761 5.24998 6.47761 5.45998 6.47761 5.87998C6.96517 6.08998 7.24378 6.15998 7.80099 6.29998C7.87065 6.36998 7.9403 6.36998 7.9403 6.50998C7.9403 7.13998 7.9403 7.69998 7.9403 8.53998C7.9403 9.37998 7.66169 9.72998 7.17413 9.86998C6.89552 9.93998 6.82587 9.93998 6.54726 10.01C6.0597 10.15 5.78109 9.93998 5.78109 8.95998C5.78109 8.53998 5.78109 8.25998 5.78109 7.76998C5.78109 7.62998 5.78109 7.55998 5.85074 7.55998C6.0597 7.55998 6.199 7.48998 6.40796 7.48998C6.47761 7.48998 6.47761 7.55998 6.47761 7.62998C6.47761 7.97998 6.47761 8.11998 6.47761 8.46998C6.47761 8.74998 6.54726 8.88998 6.68657 8.81998C6.82587 8.81998 6.82587 8.81998 6.96517 8.74998C7.10448 8.74998 7.17413 8.60998 7.17413 8.32998C7.17413 7.76998 7.17413 7.48998 7.17413 6.99998C6.61691 6.92998 6.33831 6.78998 5.85074 6.64998C5.71144 6.57998 5.71144 6.50998 5.71144 6.43998C5.71144 5.80998 5.71144 5.45998 5.71144 4.82998C5.71144 4.19998 5.99005 3.84998 6.47761 3.84998C6.68657 3.84998 6.82587 3.84998 7.10448 3.84998Z" fill="#E82344"/>
<path d="M8.56717 4.75998C8.56717 4.12998 8.84578 3.84998 9.33334 3.84998C9.61194 3.84998 9.6816 3.84998 9.9602 3.84998C10.4478 3.84998 10.7264 4.12998 10.7264 4.75998C10.7264 5.87998 10.7264 7.06998 10.7264 8.18998C10.7264 8.88998 10.4478 9.23998 9.9602 9.30998C9.6816 9.37998 9.61194 9.37998 9.33334 9.44998C8.84578 9.51998 8.56717 9.37998 8.56717 8.53998C8.56717 7.20998 8.56717 6.01998 8.56717 4.75998ZM9.8209 8.39998C9.9602 8.39998 10.0299 8.25998 10.0299 8.04998C10.0299 6.57998 10.0299 6.08998 10.0299 4.89998C10.0299 4.75998 9.9602 4.61998 9.8209 4.61998C9.6816 4.61998 9.61195 4.61998 9.47264 4.61998C9.33334 4.61998 9.26369 4.68998 9.26369 4.89998C9.26369 6.08998 9.26369 6.57998 9.26369 8.18998C9.26369 8.39998 9.33334 8.53998 9.47264 8.46998C9.61195 8.46998 9.6816 8.39998 9.8209 8.39998Z" fill="#E82344"/>
<path d="M13.6517 5.38992C13.6517 5.45992 13.6517 5.45992 13.5821 5.45992C13.3731 5.45992 13.2338 5.45992 13.0249 5.45992C12.9552 5.45992 12.9552 5.38992 12.9552 5.38992C12.9552 5.17992 12.9552 5.10992 12.9552 4.89992C12.9552 4.75992 12.8856 4.61992 12.7463 4.61992C12.607 4.61992 12.607 4.61992 12.4677 4.61992C12.3284 4.61992 12.2587 4.68992 12.2587 4.89992C12.2587 6.01992 12.2587 6.57992 12.2587 7.83992C12.2587 8.04992 12.3284 8.11992 12.4677 8.11992C12.607 8.11992 12.607 8.11992 12.7463 8.11992C12.8856 8.11992 12.9552 8.04992 12.9552 7.83992C12.9552 7.62992 12.9552 7.48992 12.9552 7.27992C12.9552 7.20992 12.9552 7.13992 13.0249 7.13992C13.2338 7.13992 13.3731 7.13992 13.5821 7.13992C13.6517 7.13992 13.6517 7.20992 13.6517 7.27992C13.6517 7.55992 13.6517 7.69992 13.6517 7.97992C13.6517 8.60992 13.3731 8.88992 12.8856 8.95992C12.607 8.95992 12.5373 8.95992 12.2587 9.02992C11.7711 9.09992 11.4925 8.81992 11.4229 8.18992C11.4229 7.06992 11.4229 5.94992 11.4229 4.82992C11.4229 4.26992 11.7015 3.91992 12.2587 3.91992C12.5373 3.91992 12.607 3.91992 12.8856 3.91992C13.3731 3.91992 13.6517 4.19992 13.6517 4.82992C13.6517 4.96992 13.6517 5.10992 13.6517 5.38992Z" fill="#E82344"/>
<path d="M16.5771 5.38996C16.5771 5.45996 16.5771 5.45996 16.5075 5.45996C16.2985 5.45996 16.1592 5.45996 15.9502 5.45996C15.8806 5.45996 15.8806 5.38996 15.8806 5.38996C15.8806 5.17996 15.8806 5.10996 15.8806 4.89996C15.8806 4.75996 15.8109 4.61996 15.6716 4.61996C15.5323 4.61996 15.5323 4.61996 15.393 4.61996C15.2537 4.61996 15.1841 4.68996 15.1841 4.89996C15.1841 6.01996 15.1841 6.57996 15.1841 7.83996C15.1841 8.04996 15.2537 8.11996 15.393 8.11996C15.5323 8.11996 15.5323 8.11996 15.6716 8.11996C15.8109 8.11996 15.8806 8.04996 15.8806 7.83996C15.8806 7.62996 15.8806 7.48996 15.8806 7.27996C15.8806 7.20996 15.8806 7.13996 15.9502 7.13996C16.1592 7.13996 16.2985 7.13996 16.5075 7.13996C16.5771 7.13996 16.5771 7.20996 16.5771 7.27996C16.5771 7.62996 16.5771 7.76996 16.5771 8.11996C16.5771 8.81996 16.2985 9.02996 15.8109 8.95996C15.5323 8.95996 15.4627 8.95996 15.1841 8.88996C14.6965 8.88996 14.4179 8.53996 14.4179 7.90996C14.4179 6.50996 14.4179 5.94996 14.4179 4.61996C14.4179 4.05996 14.6965 3.70996 15.1841 3.70996C15.4627 3.70996 15.5323 3.70996 15.8109 3.70996C16.2985 3.70996 16.5771 3.98996 16.5771 4.61996C16.5771 4.96996 16.5771 5.10996 16.5771 5.38996Z" fill="#E82344"/>
<path d="M19.4328 4.54991C19.4328 4.61991 19.4328 4.68991 19.3632 4.68991C18.806 4.68991 18.5274 4.68991 17.9701 4.68991C17.9701 5.17991 17.9701 5.45991 17.9701 5.94991C18.388 5.94991 18.597 5.94991 19.0149 5.94991C19.0846 5.94991 19.0846 6.01991 19.0846 6.08991C19.0846 6.36991 19.0846 6.43991 19.0846 6.71991C19.0846 6.78991 19.0846 6.85991 19.0149 6.85991C18.597 6.85991 18.388 6.85991 17.9701 6.78991C17.9701 7.34991 17.9701 7.76991 17.9701 8.39991C18.5274 8.46991 18.806 8.53991 19.3632 8.60991C19.4328 8.60991 19.4328 8.67991 19.4328 8.74991C19.4328 9.09991 19.4328 9.23991 19.4328 9.51991C19.4328 9.58991 19.4328 9.58991 19.3632 9.58991C18.5274 9.37991 18.1791 9.30991 17.3433 9.16991C17.2736 9.16991 17.2736 9.09991 17.2736 9.02991C17.2736 7.27991 17.2736 5.59991 17.2736 3.84991C17.2736 3.77991 17.2736 3.77991 17.3433 3.77991C18.1791 3.77991 18.5274 3.77991 19.3632 3.77991C19.4328 3.77991 19.4328 3.84991 19.4328 3.84991C19.4328 4.12991 19.4328 4.26991 19.4328 4.54991Z" fill="#E82344"/>
<path d="M22.3582 6.43998C22.3582 6.85998 22.2189 7.34998 21.9403 7.48998C22.0796 8.53998 22.1493 9.37998 22.3582 10.22C22.3582 10.29 22.3582 10.36 22.2886 10.29C22.0796 10.22 21.9403 10.22 21.7314 10.15C21.6617 10.15 21.6617 10.08 21.6617 10.01C21.5224 9.30998 21.4527 8.53998 21.2438 7.48998C21.1045 7.48998 21.0348 7.48998 20.8955 7.41998C20.8955 8.39998 20.8955 9.09998 20.8955 9.72998C20.8955 9.79998 20.8955 9.79998 20.8259 9.79998C20.5473 9.86998 20.408 9.79998 20.199 9.79998C20.1294 9.79998 20.1294 9.72998 20.1294 9.65998C20.1294 7.76998 20.1294 5.80998 20.1294 3.91998C20.1294 3.84998 20.1294 3.84998 20.199 3.84998C20.7562 3.84998 21.0348 3.84998 21.5921 3.84998C22.0796 3.84998 22.3582 4.12998 22.3582 4.82998C22.3582 5.45998 22.3582 5.87998 22.3582 6.43998ZM21.3831 6.50998C21.5224 6.50998 21.5921 6.43998 21.5921 6.29998C21.5921 5.80998 21.5921 5.52998 21.5921 5.03998C21.5921 4.82998 21.5224 4.75998 21.3831 4.75998C21.1741 4.75998 21.0348 4.75998 20.8259 4.75998C20.8259 5.45998 20.8259 5.87998 20.8259 6.50998C21.0348 6.43998 21.1741 6.43998 21.3831 6.50998Z" fill="#E82344"/>
<path d="M7.10448 3.70996C7.59204 3.70996 7.87065 3.98996 7.87065 4.61996C7.87065 4.89996 7.87065 5.03996 7.87065 5.31996C7.87065 5.38996 7.87064 5.45996 7.80099 5.45996C7.59204 5.45996 7.45273 5.45996 7.24378 5.45996C7.17413 5.45996 7.17413 5.38996 7.17413 5.31996C7.17413 5.10996 7.17413 4.96996 7.17413 4.75996C7.17413 4.54996 7.10448 4.47996 6.96517 4.47996C6.82587 4.47996 6.82587 4.47996 6.68657 4.47996C6.54726 4.47996 6.47761 4.54996 6.47761 4.75996C6.47761 5.10996 6.47761 5.31996 6.47761 5.73996C6.96517 5.94996 7.24378 6.01996 7.80099 6.15996C7.80099 6.29996 7.87065 6.29996 7.87065 6.43996C7.87065 7.06996 7.87065 7.62996 7.87065 8.46996C7.87065 9.30996 7.59204 9.65996 7.10448 9.79996C6.82587 9.86996 6.75622 9.86996 6.47761 9.93996C5.99005 10.08 5.71144 9.86996 5.71144 8.88996C5.71144 8.46996 5.71144 8.18996 5.71144 7.69996C5.71144 7.55996 5.71144 7.48996 5.78109 7.48996C5.99005 7.48996 6.12935 7.41996 6.33831 7.41996C6.40796 7.41996 6.40796 7.48996 6.40796 7.55996C6.40796 7.90996 6.40796 8.04996 6.40796 8.39996C6.40796 8.67996 6.47761 8.81996 6.61691 8.74996C6.75622 8.74996 6.75622 8.74996 6.89552 8.67996C7.03482 8.67996 7.10448 8.53996 7.10448 8.25996C7.10448 7.69996 7.10448 7.41996 7.10448 6.92996C6.61691 6.78996 6.33831 6.71996 5.85074 6.50996C5.71144 6.50996 5.71144 6.43996 5.71144 6.29996C5.71144 5.66996 5.71144 5.31996 5.71144 4.68996C5.71144 4.05996 5.99005 3.70996 6.47761 3.70996C6.68657 3.70996 6.82587 3.70996 7.10448 3.70996Z" fill="#292929"/>
<path d="M8.56717 4.61996C8.56717 3.98996 8.84578 3.70996 9.33334 3.70996C9.61194 3.70996 9.6816 3.70996 9.9602 3.70996C10.4478 3.70996 10.7264 3.98996 10.7264 4.61996C10.7264 5.73996 10.7264 6.92996 10.7264 8.04996C10.7264 8.74996 10.4478 9.09996 9.9602 9.16996C9.6816 9.23996 9.61194 9.23996 9.33334 9.30996C8.84578 9.37996 8.56717 9.23996 8.56717 8.39996C8.56717 7.13996 8.56717 5.87996 8.56717 4.61996ZM9.8209 8.32996C9.9602 8.32996 10.0299 8.18996 10.0299 7.97996C10.0299 6.50996 10.0299 6.01996 10.0299 4.82996C10.0299 4.68996 9.9602 4.54996 9.8209 4.54996C9.6816 4.54996 9.61195 4.54996 9.47264 4.54996C9.33334 4.54996 9.26369 4.61996 9.26369 4.82996C9.26369 6.01996 9.26369 6.50996 9.26369 8.11996C9.26369 8.32996 9.33334 8.46996 9.47264 8.39996C9.61195 8.32996 9.6816 8.32996 9.8209 8.32996Z" fill="#292929"/>
<path d="M13.6517 5.24991C13.6517 5.31991 13.6517 5.31991 13.5821 5.31991C13.3731 5.31991 13.2338 5.31991 13.0249 5.31991C12.9552 5.31991 12.9552 5.24991 12.9552 5.24991C12.9552 5.03991 12.9552 4.96991 12.9552 4.75991C12.9552 4.61991 12.8856 4.47991 12.7463 4.47991C12.607 4.47991 12.607 4.47991 12.4677 4.47991C12.3284 4.47991 12.2587 4.54991 12.2587 4.75991C12.2587 5.87991 12.2587 6.43991 12.2587 7.69991C12.2587 7.90991 12.3284 7.97991 12.4677 7.97991C12.607 7.97991 12.607 7.97991 12.7463 7.97991C12.8856 7.97991 12.9552 7.90991 12.9552 7.69991C12.9552 7.48991 12.9552 7.34991 12.9552 7.13991C12.9552 7.06991 12.9552 6.99991 13.0249 6.99991C13.2338 6.99991 13.3731 6.99991 13.5821 6.99991C13.6517 6.99991 13.6517 7.06991 13.6517 7.13991C13.6517 7.41991 13.6517 7.55991 13.6517 7.83991C13.6517 8.46991 13.3731 8.74991 12.8856 8.81991C12.607 8.81991 12.5373 8.81991 12.2587 8.88991C11.7711 8.95991 11.4925 8.67991 11.4229 8.04991C11.4229 6.92991 11.4229 5.80991 11.4229 4.68991C11.4229 4.12991 11.7015 3.77991 12.2587 3.77991C12.5373 3.77991 12.607 3.77991 12.8856 3.77991C13.3731 3.77991 13.6517 4.05991 13.6517 4.68991C13.6517 4.82991 13.6517 4.96991 13.6517 5.24991Z" fill="#292929"/>
<path d="M16.5771 5.24995C16.5771 5.31995 16.5771 5.31995 16.5075 5.31995C16.2985 5.31995 16.1592 5.31995 15.9502 5.31995C15.8806 5.31995 15.8806 5.24995 15.8806 5.24995C15.8806 5.03995 15.8806 4.96995 15.8806 4.75995C15.8806 4.61995 15.8109 4.47995 15.6716 4.47995C15.5323 4.47995 15.5323 4.47995 15.393 4.47995C15.2537 4.47995 15.1841 4.54995 15.1841 4.75995C15.1841 5.87995 15.1841 6.43995 15.1841 7.69995C15.1841 7.90995 15.2537 7.97995 15.393 7.97995C15.5323 7.97995 15.5323 7.97995 15.6716 7.97995C15.8109 7.97995 15.8806 7.90995 15.8806 7.69995C15.8806 7.48995 15.8806 7.34995 15.8806 7.13995C15.8806 7.06995 15.8806 6.99995 15.9502 6.99995C16.1592 6.99995 16.2985 6.99995 16.5075 6.99995C16.5771 6.99995 16.5771 7.06995 16.5771 7.13995C16.5771 7.48995 16.5771 7.62995 16.5771 7.97995C16.5771 8.67995 16.2985 8.88995 15.8109 8.81995C15.5323 8.81995 15.4627 8.81995 15.1841 8.74995C14.6965 8.74995 14.4179 8.39995 14.4179 7.76995C14.4179 6.36995 14.4179 5.80995 14.4179 4.47995C14.4179 3.91995 14.6965 3.56995 15.1841 3.56995C15.4627 3.56995 15.5323 3.56995 15.8109 3.56995C16.2985 3.56995 16.5771 3.84995 16.5771 4.47995C16.5771 4.89995 16.5771 5.03995 16.5771 5.24995Z" fill="#292929"/>
<path d="M19.4328 4.40989C19.4328 4.47989 19.4328 4.54989 19.3632 4.54989C18.806 4.54989 18.5274 4.54989 17.9701 4.54989C17.9701 5.03989 17.9701 5.31989 17.9701 5.80989C18.388 5.80989 18.597 5.80989 19.0149 5.80989C19.0846 5.80989 19.0846 5.87989 19.0846 5.94989C19.0846 6.22989 19.0846 6.29989 19.0846 6.57989C19.0846 6.64989 19.0846 6.71989 19.0149 6.71989C18.597 6.71989 18.388 6.71989 17.9701 6.64989C17.9701 7.20989 17.9701 7.62989 17.9701 8.25989C18.5274 8.32989 18.806 8.39989 19.3632 8.46989C19.4328 8.46989 19.4328 8.53989 19.4328 8.60989C19.4328 8.95989 19.4328 9.09989 19.4328 9.37989C19.4328 9.44989 19.4328 9.44989 19.3632 9.44989C18.5274 9.23989 18.1791 9.16989 17.3433 9.02989C17.2736 9.02989 17.2736 8.95989 17.2736 8.88989C17.2736 7.13989 17.2736 5.45989 17.2736 3.70989C17.2736 3.63989 17.2736 3.63989 17.3433 3.63989C18.1791 3.63989 18.5274 3.63989 19.3632 3.63989C19.4328 3.63989 19.4328 3.70989 19.4328 3.70989C19.4328 4.05989 19.4328 4.19989 19.4328 4.40989Z" fill="#292929"/>
<path d="M22.3582 6.36989C22.3582 6.78989 22.2189 7.27989 21.9403 7.41989C22.0796 8.46989 22.1493 9.30989 22.3582 10.1499C22.3582 10.2199 22.3582 10.2899 22.2886 10.2199C22.0796 10.1499 21.9403 10.1499 21.7313 10.0799C21.6617 10.0799 21.6617 10.0099 21.6617 9.93989C21.5224 9.23989 21.4527 8.46989 21.2438 7.41989C21.1045 7.41989 21.0348 7.41989 20.8955 7.34989C20.8955 8.32989 20.8955 9.02989 20.8955 9.65989C20.8955 9.72989 20.8955 9.72989 20.8259 9.72989C20.6169 9.65989 20.4776 9.65989 20.2687 9.58989C20.199 9.58989 20.199 9.51989 20.199 9.44989C20.199 7.55989 20.199 5.59989 20.199 3.70989C20.199 3.63989 20.199 3.63989 20.2687 3.63989C20.8259 3.63989 21.1045 3.63989 21.6617 3.63989C22.1493 3.63989 22.4279 3.91989 22.4279 4.61989C22.3582 5.31989 22.3582 5.73989 22.3582 6.36989ZM21.3831 6.36989C21.5224 6.36989 21.592 6.29989 21.592 6.08989C21.592 5.59989 21.592 5.31989 21.592 4.82989C21.592 4.61989 21.5224 4.54989 21.3831 4.54989C21.1741 4.54989 21.0348 4.54989 20.8259 4.54989C20.8259 5.24989 20.8259 5.66989 20.8259 6.29989C21.0348 6.36989 21.1741 6.36989 21.3831 6.36989Z" fill="#292929"/>
<path d="M7.10448 3.42993C7.59204 3.42993 7.87065 3.70993 7.87065 4.33993C7.87065 4.61993 7.87065 4.75993 7.87065 5.03993C7.87065 5.10993 7.87065 5.17993 7.80099 5.17993C7.59204 5.17993 7.45273 5.17993 7.24378 5.17993C7.17413 5.17993 7.17413 5.10993 7.17413 5.03993C7.17413 4.82993 7.17413 4.68993 7.17413 4.47993C7.17413 4.26993 7.10448 4.19993 6.96517 4.19993C6.82587 4.19993 6.82587 4.19993 6.68657 4.19993C6.54726 4.19993 6.47761 4.26993 6.47761 4.47993C6.47761 4.82993 6.47761 5.03993 6.47761 5.45993C6.96517 5.66993 7.24378 5.73993 7.80099 5.87993C7.87065 5.94993 7.9403 5.94993 7.9403 6.08993C7.9403 6.71993 7.9403 7.27993 7.9403 8.11993C7.9403 8.95993 7.66169 9.30993 7.17413 9.44993C6.89552 9.51993 6.82587 9.51993 6.54726 9.58993C6.0597 9.72993 5.78109 9.51993 5.78109 8.53993C5.78109 8.11993 5.78109 7.83993 5.78109 7.34993C5.78109 7.20993 5.78109 7.13993 5.85074 7.13993C6.0597 7.13993 6.199 7.06993 6.40796 7.06993C6.47761 7.06993 6.47761 7.13993 6.47761 7.20993C6.47761 7.55993 6.47761 7.69993 6.47761 8.04993C6.47761 8.32993 6.54726 8.46993 6.68657 8.39993C6.82587 8.39993 6.82587 8.39993 6.96517 8.32993C7.10448 8.32993 7.17413 8.18993 7.17413 7.90993C7.17413 7.34993 7.17413 7.06993 7.17413 6.57993C6.61691 6.57993 6.33831 6.43993 5.85074 6.29993C5.71144 6.22993 5.71144 6.15993 5.71144 6.01993C5.71144 5.38993 5.71144 5.03993 5.71144 4.40993C5.71144 3.77993 5.99005 3.42993 6.47761 3.42993C6.68657 3.42993 6.82587 3.42993 7.10448 3.42993Z" fill="white"/>
<path d="M8.56717 4.33993C8.56717 3.70993 8.84578 3.42993 9.33334 3.42993C9.61194 3.42993 9.6816 3.42993 9.9602 3.42993C10.4478 3.42993 10.7264 3.70993 10.7264 4.33993C10.7264 5.45993 10.7264 6.64993 10.7264 7.76993C10.7264 8.46993 10.4478 8.81993 9.9602 8.88993C9.6816 8.95993 9.61194 8.95993 9.33334 9.02993C8.84578 9.09993 8.56717 8.95993 8.56717 8.11993C8.56717 6.85993 8.56717 5.59993 8.56717 4.33993ZM9.8209 8.04993C9.9602 8.04993 10.0299 7.90993 10.0299 7.69993C10.0299 6.22993 10.0299 5.73993 10.0299 4.54993C10.0299 4.40993 9.9602 4.26993 9.8209 4.26993C9.6816 4.26993 9.61195 4.26993 9.47264 4.26993C9.33334 4.26993 9.26369 4.33993 9.26369 4.54993C9.26369 5.73993 9.26369 6.22993 9.26369 7.83993C9.26369 8.04993 9.33334 8.18993 9.47264 8.11993C9.61195 8.04993 9.6816 8.04993 9.8209 8.04993Z" fill="white"/>
<path d="M13.6517 5.03995C13.6517 5.10995 13.6517 5.10995 13.5821 5.10995C13.3731 5.10995 13.2338 5.10995 13.0249 5.10995C12.9552 5.10995 12.9552 5.03995 12.9552 5.03995C12.9552 4.82995 12.9552 4.75995 12.9552 4.54995C12.9552 4.40995 12.8856 4.26995 12.7463 4.26995C12.607 4.26995 12.607 4.26995 12.4677 4.26995C12.3284 4.26995 12.2587 4.33995 12.2587 4.54995C12.2587 5.66995 12.2587 6.22995 12.2587 7.48995C12.2587 7.69995 12.3284 7.76995 12.4677 7.76995C12.607 7.76995 12.607 7.76995 12.7463 7.76995C12.8856 7.76995 12.9552 7.69995 12.9552 7.48995C12.9552 7.27995 12.9552 7.13995 12.9552 6.92995C12.9552 6.85995 12.9552 6.78995 13.0249 6.78995C13.2338 6.78995 13.3731 6.78995 13.5821 6.78995C13.6517 6.78995 13.6517 6.85995 13.6517 6.92995C13.6517 7.20995 13.6517 7.34995 13.6517 7.62995C13.6517 8.25995 13.3731 8.53995 12.8856 8.60995C12.607 8.60995 12.5373 8.60995 12.2587 8.67995C11.7711 8.74995 11.4925 8.46995 11.4229 7.83995C11.4229 6.71995 11.4229 5.59995 11.4229 4.47995C11.4229 3.91995 11.7015 3.56995 12.2587 3.56995C12.5373 3.56995 12.607 3.56995 12.8856 3.56995C13.3731 3.56995 13.6517 3.84995 13.6517 4.47995C13.6517 4.61995 13.6517 4.75995 13.6517 5.03995Z" fill="white"/>
<path d="M16.5771 5.03999C16.5771 5.10999 16.5771 5.10999 16.5075 5.10999C16.2985 5.10999 16.1592 5.10999 15.9502 5.10999C15.8806 5.10999 15.8806 5.03999 15.8806 5.03999C15.8806 4.82999 15.8806 4.75999 15.8806 4.54999C15.8806 4.40999 15.8109 4.26999 15.6716 4.26999C15.5323 4.26999 15.5323 4.26999 15.393 4.26999C15.2537 4.26999 15.1841 4.33999 15.1841 4.54999C15.1841 5.66999 15.1841 6.22998 15.1841 7.48998C15.1841 7.69999 15.2537 7.76999 15.393 7.76999C15.5323 7.76999 15.5323 7.76999 15.6716 7.76999C15.8109 7.76999 15.8806 7.69999 15.8806 7.48998C15.8806 7.27998 15.8806 7.13998 15.8806 6.92998C15.8806 6.85998 15.8806 6.78998 15.9502 6.78998C16.1592 6.78998 16.2985 6.78998 16.5075 6.78998C16.5771 6.78998 16.5771 6.85998 16.5771 6.92998C16.5771 7.27998 16.5771 7.41999 16.5771 7.76999C16.5771 8.46999 16.2985 8.67999 15.8109 8.60999C15.5323 8.60999 15.4627 8.60998 15.1841 8.53999C14.6965 8.53999 14.4179 8.18999 14.4179 7.55999C14.4179 6.15999 14.4179 5.59999 14.4179 4.26999C14.4179 3.70999 14.6965 3.35999 15.1841 3.35999C15.4627 3.35999 15.5323 3.35999 15.8109 3.35999C16.2985 3.35999 16.5771 3.63999 16.5771 4.26999C16.5771 4.61999 16.5771 4.75999 16.5771 5.03999Z" fill="white"/>
<path d="M19.4328 4.19993C19.4328 4.26993 19.4328 4.33993 19.3632 4.33993C18.806 4.33993 18.5274 4.33993 17.9701 4.33993C17.9701 4.82993 17.9701 5.10993 17.9701 5.59993C18.388 5.59993 18.597 5.59993 19.0149 5.59993C19.0846 5.59993 19.0846 5.66993 19.0846 5.73993C19.0846 6.01993 19.0846 6.08993 19.0846 6.36993C19.0846 6.43993 19.0846 6.50993 19.0149 6.50993C18.597 6.50993 18.388 6.50993 17.9701 6.43993C17.9701 6.99993 17.9701 7.41993 17.9701 8.04993C18.5274 8.11993 18.806 8.18993 19.3632 8.25993C19.4328 8.25993 19.4328 8.32993 19.4328 8.39993C19.4328 8.74993 19.4328 8.88993 19.4328 9.16993C19.4328 9.23993 19.4328 9.23993 19.3632 9.23993C18.5274 9.02993 18.1791 8.95993 17.3433 8.81993C17.2736 8.81993 17.2736 8.74993 17.2736 8.67993C17.2736 6.92993 17.2736 5.24993 17.2736 3.49993C17.2736 3.42993 17.2736 3.42993 17.3433 3.42993C18.1791 3.42993 18.5274 3.42993 19.3632 3.42993C19.4328 3.42993 19.4328 3.49993 19.4328 3.49993C19.4328 3.77993 19.4328 3.91993 19.4328 4.19993Z" fill="white"/>
<path d="M22.3582 6.08999C22.3582 6.50998 22.2189 6.99998 21.9403 7.13999C22.0796 8.18998 22.1493 9.02999 22.3582 9.86999C22.3582 9.93999 22.3582 10.01 22.2886 9.93998C22.0796 9.86999 21.9403 9.86999 21.7313 9.79998C21.6617 9.79998 21.6617 9.72999 21.6617 9.65999C21.5224 8.95999 21.4527 8.18998 21.2438 7.13999C21.1045 7.13999 21.0348 7.13999 20.8955 7.06999C20.8955 8.04999 20.8955 8.74998 20.8955 9.37998C20.8955 9.44999 20.8955 9.44999 20.8259 9.44999C20.6169 9.37999 20.4776 9.37999 20.2687 9.30999C20.199 9.30999 20.199 9.23999 20.199 9.16999C20.199 7.27999 20.199 5.31999 20.199 3.42999C20.199 3.35999 20.199 3.35999 20.2687 3.35999C20.8259 3.35999 21.1045 3.35999 21.6617 3.35999C22.1493 3.35999 22.4279 3.63999 22.4279 4.33999C22.3582 5.10999 22.3582 5.45999 22.3582 6.08999ZM21.3831 6.08999C21.5224 6.08999 21.592 6.01998 21.592 5.87998C21.592 5.38998 21.592 5.10999 21.592 4.61999C21.592 4.40999 21.5224 4.33999 21.3831 4.33999C21.1741 4.33999 21.0348 4.33999 20.8259 4.33999C20.8259 5.03999 20.8259 5.45999 20.8259 6.08999C21.0348 6.08999 21.1741 6.08999 21.3831 6.08999Z" fill="white"/>
<path d="M14 25.83L13.8607 25.69C13.0945 25.06 11.3532 23.94 7.87065 23.31C5.64179 22.89 3.97015 21.84 3.06468 20.3C2.08955 18.55 2.08955 16.1 3.06468 13.3C4.87562 8.05002 3.34329 5.74002 2.29851 4.76002L2.08955 4.62002L4.52736 1.40002H4.66667C5.85075 1.54002 9.05473 1.82002 14 1.82002C18.9453 1.82002 22.2189 1.54002 23.403 1.47002H23.5423L25.9801 4.69002L25.7711 4.76002C24.7264 5.67002 23.194 8.05002 25.005 13.23C25.9801 16.1 25.9801 18.48 24.9353 20.3C24.0299 21.84 22.3582 22.89 20.1294 23.31C16.7164 23.94 14.9055 25.06 14.1393 25.69L14 25.83ZM2.71642 4.55002C3.83085 5.67002 5.29353 8.19002 3.48259 13.44C2.50746 16.17 2.57712 18.48 3.48259 20.09C4.31841 21.56 5.85075 22.47 8.00995 22.89C11.2139 23.52 13.0249 24.5 14 25.27C14.9751 24.5 16.8557 23.52 19.9901 22.89C22.0796 22.47 23.6816 21.49 24.5174 20.09C25.4925 18.41 25.4925 16.1 24.5174 13.44C22.7065 8.19002 24.1692 5.67002 25.2836 4.62002L23.2637 1.96002C22.01 2.03002 18.806 2.31002 14 2.31002C9.19403 2.31002 5.99005 2.03002 4.73632 1.96002L2.71642 4.55002Z" fill="#24D17E"/>
<path d="M14 9.80005L14.2089 10.43H14.7662L14.3483 10.78L14.4876 11.34L14 10.99L13.5124 11.34L13.7214 10.78L13.2338 10.43H13.8607L14 9.80005Z" fill="white"/>
<path d="M8.70646 10.29L8.84577 10.85H9.47263L8.98507 11.2L9.19402 11.76L8.70646 11.41L8.2189 11.76L8.3582 11.2L7.94029 10.85H8.49751L8.70646 10.29Z" fill="white"/>
<path d="M19.3632 10.29L19.5025 10.85H20.1294L19.6418 11.2L19.8507 11.76L19.3632 11.41L18.8756 11.76L19.0149 11.2L18.597 10.85H19.1542L19.3632 10.29Z" fill="white"/>
</g>
<defs>
<clipPath id="clip0_230_729">
<rect width="28" height="28" fill="white"/>
</clipPath>
</defs>
</svg>
