<svg width="25" height="30" viewBox="0 0 25 30" fill="none" xmlns="http://www.w3.org/2000/svg">
<path d="M12.5 4.2C14.2056 4.2 15.5882 3.2598 15.5882 2.1C15.5882 0.940202 14.2056 0 12.5 0C10.7944 0 9.41174 0.940202 9.41174 2.1C9.41174 3.2598 10.7944 4.2 12.5 4.2Z" fill="#292929"/>
<path d="M12.5 30L0 22.65V2.47505L0.441176 2.40005C0.661765 2.32505 5.07353 1.42505 12.2059 1.42505C19.3382 1.42505 24.2647 2.40005 24.4853 2.40005L25 2.47505V22.65L12.5 30ZM1.25 22.2001L12.5 28.8L23.75 22.2001V3.22505C22.3529 3.00005 18.0147 2.40005 12.2794 2.40005C6.54412 2.40005 2.57353 3.00005 1.25 3.22505V22.2001Z" fill="#292929"/>
<path d="M1.25 22.2L12.5 28.725L23.75 22.125V3.30002C22.3529 3.07502 18.0147 2.40002 12.2794 2.40002C6.61765 2.40002 2.57353 3.07502 1.25 3.30002V22.2Z" fill="#292929"/>
<path d="M12.5 28.875L1.17645 22.2V3.22495H1.24998C2.72057 2.92495 6.61763 2.32495 12.2794 2.32495C17.9412 2.32495 22.2059 2.92495 23.75 3.22495H23.8235V22.2L12.5 28.875ZM1.39704 22.125L12.5 28.575L23.6029 22.0499V3.29995C21.9853 2.99995 17.7941 2.39995 12.2794 2.39995C6.76469 2.54995 2.94116 3.07495 1.39704 3.37495V22.125Z" fill="#E5C025"/>
<path d="M2.57355 11.025V21.375L9.63237 25.5V10.275C7.05884 10.35 4.7059 10.65 2.57355 11.025Z" fill="#E5C025"/>
<path d="M15.3677 10.275V25.5L22.4265 21.375V11.025C20.2941 10.65 17.9412 10.35 15.3677 10.275Z" fill="#E5C025"/>
<path d="M12.5 23.1C15.9924 23.1 18.8235 20.8503 18.8235 18.075C18.8235 15.2998 15.9924 13.05 12.5 13.05C9.00759 13.05 6.17645 15.2998 6.17645 18.075C6.17645 20.8503 9.00759 23.1 12.5 23.1Z" fill="#292929"/>
<path d="M12.5 3.59995C13.7589 3.59995 14.7794 2.8948 14.7794 2.02495C14.7794 1.1551 13.7589 0.449951 12.5 0.449951C11.2411 0.449951 10.2206 1.1551 10.2206 2.02495C10.2206 2.8948 11.2411 3.59995 12.5 3.59995Z" fill="#292929"/>
<path d="M12.5 3.89995C11.1029 3.89995 10 3.14995 10 2.17495C10 1.19995 11.1029 0.449951 12.5 0.449951C13.8971 0.449951 15 1.19995 15 2.17495C15 3.07495 13.8971 3.89995 12.5 3.89995ZM12.5 0.599951C11.25 0.599951 10.2941 1.27495 10.2941 2.09995C10.2941 2.92495 11.3235 3.59995 12.5 3.59995C13.75 3.59995 14.7059 2.92495 14.7059 2.09995C14.7059 1.27495 13.75 0.599951 12.5 0.599951Z" fill="#E5C025"/>
<path d="M10.8824 25.875L11.0294 26.175H11.4706L11.103 26.4L11.25 26.7L10.8824 26.55L10.5147 26.7L10.6618 26.4L10.2941 26.175H10.7353L10.8824 25.875Z" fill="#E5C025"/>
<path d="M14.1177 25.875L14.2647 26.175H14.7059L14.3382 26.4L14.4853 26.7L14.1177 26.55L13.75 26.7L13.8971 26.4L13.5294 26.175H13.9706L14.1177 25.875Z" fill="#E5C025"/>
<path d="M12.5 1.27498C12.5812 1.27498 12.647 1.20782 12.647 1.12498C12.647 1.04213 12.5812 0.974976 12.5 0.974976C12.4187 0.974976 12.3529 1.04213 12.3529 1.12498C12.3529 1.20782 12.4187 1.27498 12.5 1.27498Z" fill="white"/>
<path d="M12.7206 1.87498C12.7206 1.87498 12.5735 1.79998 12.5 1.72498C12.4265 1.79998 12.2794 1.87498 12.2794 1.87498C12.4265 1.94998 12.5 2.09998 12.5 2.09998C12.5 2.09998 12.5735 1.94998 12.7206 1.87498Z" fill="white"/>
<path d="M13.3088 1.875C12.647 1.875 12.5 2.25 12.5 2.325C12.5 2.325 12.3529 1.875 11.6912 1.875C11.3235 1.875 11.1029 2.1 11.25 2.325C11.397 2.475 11.7647 2.85 11.6912 3.075C11.6912 3.075 11.9853 2.925 12.4265 2.925C12.8676 2.925 13.1617 3.075 13.1617 3.075C13.0882 2.85 13.5294 2.475 13.6029 2.325C13.897 2.1 13.6765 1.875 13.3088 1.875ZM13.5294 2.4C13.3823 2.625 13.0882 2.85 13.0882 2.85V2.925C13.0882 2.925 12.7941 2.85 12.5 2.85C12.2059 2.85 11.9117 2.925 11.9117 2.925V2.85C11.9117 2.85 11.6176 2.625 11.4706 2.4C11.3235 2.25 11.4706 1.95 11.7647 1.95C12.2794 1.95 12.4265 2.325 12.4265 2.325C12.1323 2.325 11.9117 2.175 11.9117 2.175C11.9853 2.325 11.9853 2.475 11.9853 2.475C12.1323 2.4 12.3529 2.4 12.3529 2.4C12.3529 2.55 12.2059 2.7 12.2059 2.7C12.3529 2.625 12.647 2.625 12.7941 2.7C12.7941 2.7 12.5735 2.55 12.647 2.4C12.647 2.4 12.8676 2.325 13.0147 2.475C13.0147 2.475 13.0882 2.325 13.0882 2.175C13.0882 2.175 12.8676 2.325 12.5735 2.325C12.5735 2.325 12.7206 2.025 13.2353 1.95C13.5294 1.95 13.6765 2.175 13.5294 2.4Z" fill="white"/>
<path d="M12.2058 1.725C12.2058 1.725 12.5 1.65 12.5 1.5C12.5 1.65 12.7941 1.725 12.7941 1.725C12.9411 1.65 13.2353 1.65 13.2353 1.65C13.3823 1.5 13.1617 1.35 13.1617 1.35C12.9411 1.65 12.7205 1.5 12.7205 1.5C12.647 1.425 12.5 1.125 12.5 1.125C12.5 1.125 12.3529 1.425 12.2794 1.5C12.2794 1.5 12.1323 1.65 11.8382 1.35C11.8382 1.35 11.6176 1.5 11.7647 1.65C11.7647 1.65 12.0588 1.65 12.2058 1.725Z" fill="white"/>
<path d="M13.2353 1.27495C13.2353 1.34995 13.1617 1.34995 13.0882 1.34995C13.0147 1.34995 12.9412 1.27495 12.9412 1.27495C12.9412 1.27495 13.0147 1.19995 13.0882 1.19995C13.2353 1.19995 13.2353 1.27495 13.2353 1.27495Z" fill="white"/>
<path d="M11.7647 1.27495C11.7647 1.34995 11.8382 1.34995 11.9118 1.34995C11.9853 1.34995 12.0588 1.27495 12.0588 1.27495C12.0588 1.27495 11.9853 1.19995 11.9118 1.19995C11.8382 1.19995 11.7647 1.27495 11.7647 1.27495Z" fill="white"/>
<path d="M16.103 9.90002H8.82355V25.575H16.103V9.90002Z" fill="#292929"/>
<path d="M12.5 22.8C15.8299 22.8 18.5294 20.6845 18.5294 18.075C18.5294 15.4654 15.8299 13.35 12.5 13.35C9.17004 13.35 6.47058 15.4654 6.47058 18.075C6.47058 20.6845 9.17004 22.8 12.5 22.8Z" fill="#292929"/>
<path d="M12.5 22.3499C15.4644 22.3499 17.8676 20.4359 17.8676 18.0749C17.8676 15.7139 15.4644 13.7999 12.5 13.7999C9.5355 13.7999 7.13232 15.7139 7.13232 18.0749C7.13232 20.4359 9.5355 22.3499 12.5 22.3499Z" fill="white"/>
<path d="M13.4558 17.6249L11.1764 18.7499L11.1029 18.6749L13.4558 17.5499V17.6249Z" fill="#292929"/>
<path d="M13.603 15.975C13.603 15.975 13.3088 15.825 12.8677 15.6C12.4265 15.375 11.9118 15.225 11.3235 15.075V15C12.4265 15.225 13.603 15.975 13.603 15.975Z" fill="#292929"/>
<path d="M9.55881 15.825C9.33823 16.425 9.33823 16.95 9.33823 17.325C9.33823 17.7 9.41176 17.925 9.41176 17.925H9.33823C9.41175 18 9.11764 17.025 9.55881 15.825Z" fill="#292929"/>
<path d="M15.3676 18.4499C15.5882 19.2749 15.2941 20.3249 15.2941 20.3249H15.2206C15.2206 20.3249 15.2941 20.0999 15.3676 19.7249C15.4412 19.3499 15.4412 18.8999 15.3676 18.4499C15.2941 18.3749 15.2941 18.3749 15.2941 18.2999H15.3676C15.3676 18.3749 15.3676 18.3749 15.3676 18.4499Z" fill="#292929"/>
<path d="M12.5735 20.9249C13.0147 21.0749 13.3823 21.1499 13.4559 21.1499C13.4559 21.1499 11.9853 20.8499 11.1765 20.1749C11.5441 20.5499 12.1323 20.7749 12.5735 20.9249Z" fill="#292929"/>
<path d="M15.4412 14.6999C15.5882 15.2999 15.3677 15.8249 15.3677 15.8249H15.2941C15.2941 15.8249 15.3677 15.6749 15.3677 15.5249C15.4412 15.2999 15.4412 14.9999 15.4412 14.6999C15.3677 14.6999 15.3677 14.6249 15.3677 14.5499H15.4412C15.3677 14.6249 15.4412 14.6999 15.4412 14.6999Z" fill="#292929"/>
<path d="M8.08822 18.8999C8.30881 18.9749 8.45587 18.9749 8.45587 18.9749V19.0499C8.45587 19.0499 7.86764 18.9749 7.20587 18.5249C7.57352 18.7499 7.86764 18.8249 8.08822 18.8999Z" fill="#292929"/>
<path d="M9.41175 20.3999C9.41175 20.3999 9.33822 20.8499 9.48528 21.3749C9.48528 21.4499 9.55881 21.5249 9.55881 21.5249C9.55881 21.4499 9.48528 21.3749 9.48528 21.3749C9.33822 20.8499 9.41175 20.3999 9.41175 20.3999Z" fill="#292929"/>
<path d="M17.7206 17.775C17.5735 17.7 17.2794 17.55 16.9853 17.475C16.6912 17.4 16.4706 17.325 16.4706 17.325C16.4706 17.25 17.5 17.55 17.7206 17.775Z" fill="#292929"/>
<path d="M17.7941 18.975C17.2794 20.25 16.25 20.7 16.25 20.7C16.25 20.7 16.4706 20.55 16.8382 20.325C17.1324 20.025 17.5 19.575 17.7941 18.975Z" fill="#292929"/>
<path d="M13.3823 21.975C13.3823 21.975 12.1323 22.275 10.8823 22.125C10.8823 22.125 12.2794 22.35 13.3823 21.975Z" fill="white"/>
<path d="M8.60295 15.5999C8.60295 15.5999 8.16178 15.6749 7.79413 16.1249C7.79413 16.1249 8.01472 15.8249 8.60295 15.5249V15.5999Z" fill="#292929"/>
<path d="M11.3235 14.4C11.3235 14.4 11.7647 14.175 12.6471 13.95C12.7206 13.95 11.8383 14.025 11.3235 14.4Z" fill="#292929"/>
<path d="M16.4706 20.625C16.103 21.3 15.0735 21.825 15.0735 21.825C14.1177 22.125 13.3088 22.05 13.3088 22.05V21.15C14.1912 20.925 15.2941 20.175 15.2941 20.175L16.4706 20.625Z" fill="#292929"/>
<path d="M15.3676 18.525C15.3676 18.525 13.8235 17.775 13.3823 17.7C13.3823 17.7 13.5294 16.425 13.4559 15.975C13.4559 15.975 14.5588 15.6 15.4411 15.75C15.4411 15.75 16.25 16.35 16.6176 17.4C16.6176 17.325 15.9559 18.15 15.3676 18.525Z" fill="#292929"/>
<path d="M11.4706 15.15C11.4706 15.15 10.1471 15.525 9.4853 16.125C9.4853 16.125 8.9706 15.825 8.52942 15.675C8.52942 15.675 9.11765 14.775 9.70589 14.55C9.70589 14.55 10.5147 14.25 11.5441 14.325C11.5441 14.25 11.3971 14.625 11.4706 15.15Z" fill="#292929"/>
<path d="M11.3235 20.325C11.3235 20.325 11.3235 19.125 11.3235 18.6C11.3235 18.6 10 18.075 9.41178 17.775C9.41178 17.775 8.38237 18.525 8.30884 18.975C8.30884 18.975 8.52943 19.875 9.41178 20.55C9.41178 20.55 10.2941 20.775 11.3235 20.325Z" fill="#292929"/>
<path d="M11.1765 20.325C11.1765 20.325 11.1765 19.2 11.1765 18.675C11.1765 18.675 9.92648 18.15 9.33825 17.925C9.33825 17.925 8.38237 18.675 8.30884 19.05C8.30884 19.05 8.52943 19.95 9.33825 20.55C9.41178 20.55 10.2206 20.7 11.1765 20.325Z" fill="#292929"/>
<path d="M17.7206 19.125C17.9412 18.45 17.9412 17.775 17.7206 17.1C17.7206 17.325 17.6471 17.55 17.5735 17.7C17.5735 17.7 17.8677 18.525 17.7206 19.125Z" fill="#292929"/>
<path d="M15.3676 14.775C15.3676 14.775 15.7353 14.85 16.1029 14.925C15.2941 14.325 14.2647 13.95 13.0882 13.875C13.75 13.95 14.7794 14.25 15.3676 14.775Z" fill="#292929"/>
<path d="M7.13234 17.4C7.05881 17.925 7.05881 18.45 7.20587 18.975C7.20587 18.825 7.20587 18.675 7.35293 18.525C7.35293 18.525 7.20587 18 7.13234 17.4Z" fill="#292929"/>
<path d="M9.5588 21.45C9.19115 21.375 8.67644 21.075 8.38232 20.775C9.11762 21.45 9.99997 21.9 11.1029 22.125C10.2941 21.975 9.5588 21.45 9.5588 21.45Z" fill="#292929"/>
<g opacity="0.2">
<path d="M13.0883 17.6999L11.4706 18.4499C11.3236 18.5249 11.1765 18.5249 11.0294 18.4499L9.63239 17.8499C9.48533 17.7749 9.48533 17.7749 9.63239 17.8499L11.0294 18.2999C11.1765 18.3749 11.3236 18.2999 11.4706 18.2999L13.0883 17.6999C13.1618 17.6249 13.1618 17.6249 13.0883 17.6999Z" fill="#292929"/>
<path d="M15.4412 18.5249C15.4412 18.5249 15.6618 19.6499 15.3677 20.2499L16.3971 20.6249L15.4412 20.1749C15.4412 20.1749 15.6618 19.4249 15.4412 18.5249Z" fill="#292929"/>
<path d="M16.4706 20.625C16.4706 20.625 16.25 21.15 15.3677 21.675C15.2941 21.75 16.1765 21.375 16.4706 20.625Z" fill="#292929"/>
<path d="M13.4559 15.9C13.4559 15.9 12.4265 15.225 11.4706 15.075C11.4706 15.075 11.3971 14.775 11.5441 14.325C11.5441 14.325 11.4706 14.775 11.5441 15.075C11.5441 15 12.5 15.15 13.4559 15.9Z" fill="#292929"/>
<path d="M9.48529 16.1249C9.48529 16.1249 9.2647 16.8749 9.41176 17.7749C9.41176 17.7749 9.41176 16.7249 9.55882 16.2749C9.55882 16.1999 9.63235 16.1249 9.70587 16.0499C9.92646 15.8999 10.5147 15.4499 11.4706 15.1499C11.3971 15.1499 10.3676 15.3749 9.48529 16.1249Z" fill="#292929"/>
<path d="M9.33825 17.85C9.33825 17.85 8.4559 18.525 8.30884 18.975C8.30884 18.975 8.30884 18.375 9.33825 17.85Z" fill="#292929"/>
</g>
<g opacity="0.1">
<path d="M17.7206 17.175C17.2794 15.675 15.8824 14.55 14.1177 14.1C14.5588 14.55 14.8529 15.15 15 15.75C15.7353 18.3 13.75 20.85 10.4412 21.45C10.0735 21.525 9.63236 21.525 9.26471 21.6C10.5147 22.275 12.0588 22.575 13.6029 22.275C16.6176 21.675 18.4559 19.425 17.7206 17.175Z" fill="#292929"/>
</g>
<path d="M12.5 26.25L12.647 26.7H13.3088L12.7941 27L12.9412 27.45L12.5 27.15L12.0588 27.45L12.2059 27L11.6912 26.7H12.3529L12.5 26.25Z" fill="#E5C025"/>
<path d="M12.5 10.2L12.9412 11.175H14.1912L13.1618 11.775L13.603 12.75L12.5 12.15L11.3971 12.75L11.8383 11.775L10.8088 11.175H12.0588L12.5 10.2Z" fill="#E5C025"/>
<path d="M4.33825 4.27504C4.92649 4.35004 5.29414 4.57504 5.29414 5.25004C5.29414 5.55004 5.29414 5.70004 5.29414 6.00004C5.29414 6.07504 5.29414 6.07504 5.22061 6.07504C4.92649 6.07504 4.77943 6.07504 4.48531 6.07504C4.41178 6.00004 4.33825 6.00004 4.33825 5.92504C4.33825 5.70004 4.33825 5.62504 4.33825 5.40004C4.33825 5.25004 4.26472 5.10004 4.04414 5.10004C3.89708 5.10004 3.82355 5.10004 3.75002 5.10004C3.60296 5.02504 3.52943 5.10004 3.52943 5.25004C3.52943 5.70004 3.52943 5.92504 3.52943 6.30004C4.11767 6.52504 4.48531 6.60004 5.14708 6.75004C5.29414 6.75004 5.29414 6.82504 5.29414 6.97504C5.29414 7.50004 5.29414 7.87504 5.29414 8.55004C5.29414 9.22504 4.92649 9.45004 4.33825 9.60004C4.04414 9.67504 3.89708 9.67504 3.60296 9.67504C2.94119 9.75004 2.57355 9.52504 2.57355 8.77504C2.57355 8.40004 2.57355 8.25004 2.57355 7.87504C2.57355 7.80004 2.64708 7.72504 2.64708 7.72504C2.94119 7.72504 3.08825 7.72504 3.38237 7.72504C3.4559 7.72504 3.4559 7.72504 3.4559 7.87504C3.4559 8.10004 3.4559 8.25004 3.4559 8.47504C3.4559 8.70004 3.52943 8.77504 3.75002 8.77504C3.89708 8.77504 3.97061 8.77504 4.04414 8.77504C4.19119 8.77504 4.33825 8.62504 4.33825 8.47504C4.33825 8.10004 4.33825 7.87504 4.33825 7.50004C3.75002 7.20004 3.38237 7.12504 2.72061 6.97504C2.64708 6.90004 2.57355 6.82504 2.57355 6.75004C2.57355 6.22504 2.57355 5.70004 2.57355 5.02504C2.57355 4.27504 2.94119 4.12504 3.52943 4.20004C3.82355 4.20004 4.04414 4.20004 4.33825 4.27504Z" fill="white"/>
<path d="M5.95587 5.25C5.95587 4.65 6.32352 4.425 6.91175 4.5C7.20587 4.5 7.35293 4.575 7.64705 4.575C8.30881 4.65 8.60293 4.875 8.60293 5.4C8.60293 6.375 8.60293 7.275 8.60293 8.25C8.60293 8.775 8.23528 9.075 7.64705 9.15C7.35293 9.15 7.20587 9.225 6.91175 9.225C6.24999 9.3 5.95587 9.075 5.95587 8.475C5.95587 7.425 5.95587 6.375 5.95587 5.25ZM7.57352 8.475C7.72058 8.475 7.86764 8.4 7.86764 8.175C7.86764 7.05 7.86764 6.6 7.86764 5.55C7.86764 5.4 7.79411 5.325 7.57352 5.325C7.42646 5.325 7.35293 5.325 7.20587 5.325C6.98528 5.25 6.91175 5.325 6.91175 5.475C6.91175 6.6 6.91175 7.05 6.91175 8.25C6.91175 8.4 6.98528 8.475 7.20587 8.475C7.35293 8.475 7.42646 8.475 7.57352 8.475Z" fill="white"/>
<path d="M12.1324 6.07495C12.1324 6.14995 12.0589 6.14995 12.0589 6.14995C11.7647 6.14995 11.6177 6.14995 11.3971 6.14995C11.3236 6.14995 11.3236 6.14995 11.3236 6.07495C11.3236 5.92495 11.3236 5.84995 11.3236 5.69995C11.3236 5.54995 11.25 5.47495 11.0295 5.47495C10.8824 5.47495 10.8089 5.47495 10.6618 5.47495C10.4412 5.47495 10.3677 5.54995 10.3677 5.69995C10.3677 6.67495 10.3677 7.04995 10.3677 8.09995C10.3677 8.24995 10.4412 8.32495 10.6618 8.32495C10.8089 8.32495 10.8824 8.32495 11.0295 8.32495C11.1765 8.32495 11.3236 8.24995 11.3236 8.09995C11.3236 7.94995 11.3236 7.87495 11.3236 7.64995C11.3236 7.57495 11.3236 7.57495 11.3971 7.57495C11.6912 7.57495 11.8383 7.57495 12.0589 7.57495C12.1324 7.57495 12.1324 7.57495 12.1324 7.64995C12.1324 7.87495 12.1324 8.02495 12.1324 8.24995C12.1324 8.77495 11.7647 8.99995 11.1765 8.99995C10.8824 8.99995 10.7353 8.99995 10.4412 8.99995C9.77945 8.99995 9.4118 8.84995 9.4118 8.24995C9.4118 7.04995 9.4118 6.59995 9.4118 5.47495C9.4118 4.94995 9.77945 4.72495 10.4412 4.79995C10.7353 4.79995 10.8824 4.79995 11.1765 4.79995C11.8383 4.79995 12.1324 5.09995 12.1324 5.54995C12.1324 5.77495 12.1324 5.92495 12.1324 6.07495Z" fill="white"/>
<path d="M15.5883 6.07498C15.5883 6.14998 15.5147 6.14998 15.5147 6.14998C15.2206 6.14998 15.0736 6.14998 14.853 6.14998C14.7794 6.14998 14.7794 6.14998 14.7794 6.07498C14.7794 5.92498 14.7794 5.84998 14.7794 5.62498C14.7794 5.47498 14.7059 5.39998 14.4853 5.39998C14.3383 5.39998 14.2647 5.39998 14.1177 5.39998C13.8971 5.39998 13.8236 5.47498 13.8236 5.62498C13.8236 6.52498 13.8236 6.97498 13.8236 7.94998C13.8236 8.09998 13.8971 8.17498 14.1177 8.17498C14.2647 8.17498 14.3383 8.17498 14.4853 8.17498C14.6324 8.17498 14.7794 8.09998 14.7794 7.94998C14.7794 7.79998 14.7794 7.64998 14.7794 7.49998C14.7794 7.42498 14.7794 7.42498 14.853 7.42498C15.1471 7.42498 15.2941 7.42498 15.5147 7.42498C15.5883 7.42498 15.5883 7.42498 15.5883 7.49998C15.5883 7.72498 15.5883 7.87498 15.5883 8.09998C15.5883 8.62498 15.2206 8.84998 14.6324 8.84998C14.3383 8.84998 14.1912 8.84998 13.8971 8.84998C13.2353 8.84998 12.8677 8.54998 12.8677 8.09998C12.8677 7.04998 12.8677 6.52498 12.8677 5.47498C12.8677 5.02498 13.2353 4.72498 13.8236 4.72498C14.1177 4.72498 14.2647 4.72498 14.5589 4.72498C15.2206 4.72498 15.5147 4.87498 15.5147 5.39998C15.5883 5.69998 15.5883 5.84998 15.5883 6.07498Z" fill="white"/>
<path d="M18.9706 5.09995C18.9706 5.17495 18.9706 5.17495 18.8971 5.24995C18.2353 5.24995 17.8677 5.24995 17.2059 5.32495C17.2059 5.77495 17.2059 6.07495 17.2059 6.52495C17.7206 6.52495 18.0147 6.52495 18.5294 6.52495C18.603 6.52495 18.603 6.52495 18.603 6.59995C18.603 6.82495 18.603 6.89995 18.603 7.12495C18.603 7.19995 18.5294 7.19995 18.5294 7.19995C18.0147 7.19995 17.7206 7.19995 17.2059 7.19995C17.2059 7.64995 17.2059 7.94995 17.2059 8.47495C17.8677 8.54995 18.2353 8.54995 18.8971 8.62495C18.9706 8.62495 18.9706 8.69995 18.9706 8.77495C18.9706 9.07495 18.9706 9.14995 18.9706 9.37495C18.9706 9.44995 18.9706 9.44995 18.8971 9.44995C17.8677 9.29995 17.353 9.29995 16.3971 9.22495C16.3235 9.22495 16.3235 9.22495 16.3235 9.14995C16.3235 7.72495 16.3235 6.29995 16.3235 4.87495C16.3235 4.79995 16.3971 4.79995 16.3971 4.79995C17.4265 4.72495 17.9412 4.64995 18.8971 4.57495C18.9706 4.57495 18.9706 4.57495 18.9706 4.64995C18.9706 4.72495 18.9706 4.79995 18.9706 5.09995Z" fill="white"/>
<path d="M22.4265 6.74999C22.4265 7.12499 22.2794 7.42499 21.9118 7.57499C22.1324 8.39999 22.2059 8.99999 22.353 9.59999C22.353 9.67499 22.353 9.67499 22.2794 9.67499C21.9853 9.67499 21.8383 9.59999 21.5441 9.59999C21.4706 9.59999 21.4706 9.52499 21.3971 9.52499C21.25 8.92499 21.103 8.39999 20.9559 7.64999C20.7353 7.64999 20.6618 7.64999 20.5147 7.64999C20.5147 8.39999 20.5147 8.84999 20.5147 9.44999C20.5147 9.52499 20.4412 9.52499 20.4412 9.52499C20.1471 9.52499 20 9.44999 19.7059 9.44999C19.6324 9.44999 19.6324 9.37499 19.6324 9.37499C19.6324 7.72499 19.6324 6.07499 19.6324 4.42499C19.6324 4.34999 19.7059 4.34999 19.7059 4.34999C20.3677 4.27499 20.7353 4.19999 21.3971 4.12499C22.0589 4.04999 22.353 4.27499 22.353 4.94999C22.4265 5.77499 22.4265 6.22499 22.4265 6.74999ZM21.25 6.82499C21.3971 6.82499 21.5441 6.74999 21.5441 6.59999C21.5441 6.14999 21.5441 5.84999 21.5441 5.24999C21.5441 5.02499 21.4706 4.94999 21.25 4.94999C20.9559 4.94999 20.8089 4.94999 20.5883 5.02499C20.5883 5.77499 20.5883 6.29999 20.5883 6.82499C20.8089 6.82499 20.9559 6.82499 21.25 6.82499Z" fill="white"/>
<path d="M11.1029 24.075L10.8088 24.15L10.7353 24L11.0294 23.85H11.1765V24.975H10.9559V24.075H11.1029Z" fill="white"/>
<path d="M11.9118 24.975C11.9853 24.975 11.9853 24.975 12.0588 24.975C12.2059 24.975 12.2794 24.9 12.3529 24.9C12.4265 24.825 12.5 24.75 12.5735 24.6C12.5 24.675 12.3529 24.75 12.2059 24.75C11.9118 24.75 11.7647 24.6 11.7647 24.375C11.7647 24.15 11.9853 24 12.2794 24C12.5735 24 12.7941 24.225 12.7941 24.525C12.7941 24.75 12.7206 24.9751 12.5735 25.0501C12.4265 25.1251 12.2794 25.2 12.1324 25.2C12.0588 25.2 11.9853 25.2 11.9118 25.2V24.975ZM11.9853 24.3001C11.9853 24.4501 12.1324 24.525 12.2794 24.525C12.4265 24.525 12.5 24.45 12.5735 24.375C12.5735 24.375 12.5735 24.3751 12.5735 24.3001C12.5735 24.0751 12.5 23.925 12.2794 23.925C12.1324 24 11.9853 24.1501 11.9853 24.3001Z" fill="white"/>
<path d="M13.9706 23.925V24L13.3088 25.05H13.0882L13.75 24H13.0147V23.85H13.9706V23.925Z" fill="white"/>
<path d="M15 24C14.9264 24 14.9264 24 14.8529 24C14.5588 24.075 14.3382 24.225 14.3382 24.375C14.4117 24.3 14.5588 24.225 14.7058 24.225C15 24.225 15.147 24.375 15.147 24.6C15.147 24.825 14.9264 24.975 14.6323 24.975C14.3382 24.975 14.1176 24.75 14.1176 24.45C14.1176 24.225 14.1911 24.075 14.3382 23.925C14.4853 23.85 14.6323 23.775 14.7794 23.775C14.8529 23.775 14.8529 23.775 14.9264 23.775V24H15ZM15 24.675C15 24.525 14.8529 24.375 14.7058 24.375C14.5588 24.375 14.4853 24.45 14.4117 24.525V24.6C14.4117 24.825 14.5588 24.9 14.7058 24.9C14.8529 24.975 15 24.825 15 24.675Z" fill="white"/>
</svg>
