<svg width="20" height="20" viewBox="0 0 20 20" fill="none" xmlns="http://www.w3.org/2000/svg">
<g clip-path="url(#clip0_233_1337)">
<path d="M9.75001 20C9.00001 20 6.85001 18.3 5.65001 17.2C2.80001 14.6 2.35001 13.15 2.35001 12.5V1.7L2.50001 1.6C2.60001 1.55 4.85001 0 9.75001 0C14.65 0 16.85 1.55 16.95 1.6L17.1 1.7V12.5C17.1 13.15 16.65 14.6 13.8 17.2C12.6 18.3 10.45 20 9.75001 20Z" fill="#292929"/>
<path d="M3.14999 2.29995V12.5C3.14999 13.3 4.24999 14.8 6.09999 16.5C7.89999 18.1 9.39999 19.05 9.69999 19.1C9.99999 19.05 11.55 18.1 13.3 16.5C15.15 14.8 16.25 13.3 16.25 12.5V2.29995C15.65 1.99995 13.55 0.949951 9.69999 0.949951C5.84999 0.949951 3.74999 1.94995 3.14999 2.29995Z" fill="white"/>
<path d="M3.60001 2.80005V12.25C3.60001 13 4.65001 14.4 6.35001 15.95C8.00001 17.45 9.45001 18.35 9.70001 18.4C10 18.35 11.4 17.45 13.05 15.95C14.8 14.4 15.8 13 15.8 12.25V2.80005C15.25 2.50005 13.3 1.55005 9.70001 1.55005C6.10001 1.55005 4.15001 2.50005 3.60001 2.80005Z" fill="#292929"/>
<path d="M3.95001 3.10002V12.15C3.95001 12.85 4.90001 14.2 6.55001 15.7C8.10001 17.15 9.45001 17.95 9.70001 18C9.95001 17.95 11.3 17.1 12.85 15.7C14.5 14.2 15.45 12.9 15.45 12.15V3.10002C14.95 2.80002 13.1 1.90002 9.70001 1.90002C6.30001 1.95002 4.50001 2.85002 3.95001 3.10002Z" fill="#E82344"/>
<path d="M9.75001 15.85L9.85001 16.3H10.35L9.95001 16.55L10.1 17L9.75001 16.75L9.35001 17L9.50001 16.55L9.10001 16.3H9.60001L9.75001 15.85Z" fill="white"/>
<path d="M8.29999 15.5L8.39999 15.8H8.74999L8.49999 16L8.59999 16.35L8.29999 16.15L8.04999 16.35L8.14999 16L7.89999 15.8H8.19999L8.29999 15.5Z" fill="white"/>
<path d="M11.15 15.5L11.25 15.8H11.6L11.3 16L11.4 16.35L11.15 16.15L10.85 16.35L10.95 16L10.7 15.8H11.05L11.15 15.5Z" fill="white"/>
<path d="M9.74999 7.44998L3.89999 3.59998V4.49998L9.74999 8.39998L15.55 4.49998V3.59998L9.74999 7.44998Z" fill="#292929"/>
<path d="M3.89999 5.09998V6.04998L9.74999 9.89998L15.55 6.04998V5.09998L9.74999 8.94998L3.89999 5.09998Z" fill="#292929"/>
<path d="M3.89999 6.59998V7.54998L9.74999 11.4L15.55 7.54998V6.59998L9.74999 10.5L3.89999 6.59998Z" fill="#292929"/>
<path d="M3.89999 8.15002V9.05002L9.74999 12.95L15.55 9.05002V8.15002L9.74999 12L3.89999 8.15002Z" fill="#292929"/>
<path d="M9.75001 13.85C12.2629 13.85 14.3 11.8129 14.3 9.3C14.3 6.7871 12.2629 4.75 9.75001 4.75C7.23712 4.75 5.20001 6.7871 5.20001 9.3C5.20001 11.8129 7.23712 13.85 9.75001 13.85Z" fill="#E82344"/>
<path d="M9.75001 13.35C11.9868 13.35 13.8 11.5368 13.8 9.3C13.8 7.06325 11.9868 5.25 9.75001 5.25C7.51326 5.25 5.70001 7.06325 5.70001 9.3C5.70001 11.5368 7.51326 13.35 9.75001 13.35Z" fill="#292929"/>
<path d="M11.3704 12.6142C13.2054 11.7151 13.9641 9.49867 13.065 7.66365C12.1659 5.82862 9.94943 5.06993 8.11441 5.96905C6.27939 6.86817 5.52069 9.08462 6.41981 10.9196C7.31893 12.7547 9.53539 13.5134 11.3704 12.6142Z" fill="white"/>
<path d="M10.4 8.84998L8.80002 9.84998V9.79998L10.35 8.84998H10.4Z" fill="#292929"/>
<path d="M10.45 7.45002C10.45 7.50002 10.25 7.30002 9.94999 7.15002C9.64999 6.95002 9.24999 6.80002 8.89999 6.70002V6.65002C9.69999 6.80002 10.45 7.45002 10.45 7.45002Z" fill="#292929"/>
<path d="M7.70001 7.34998C7.55001 7.84998 7.55001 8.29998 7.55001 8.64998C7.55001 8.99998 7.60001 9.19998 7.60001 9.19998H7.55001C7.60001 9.24998 7.40001 8.34998 7.70001 7.34998Z" fill="#292929"/>
<path d="M11.7 9.65C11.85 10.4 11.65 11.25 11.65 11.25H11.6C11.6 11.25 11.65 11.05 11.7 10.75C11.75 10.4 11.75 10 11.7 9.65C11.65 9.6 11.65 9.55 11.6 9.5H11.65C11.65 9.5 11.7 9.6 11.7 9.65Z" fill="#292929"/>
<path d="M9.80002 11.8001C10.1 11.9501 10.4 12.0001 10.4 12.0001V12.0501C10.4 12.0501 9.35002 11.8001 8.80002 11.2001C9.05002 11.4501 9.45002 11.6501 9.80002 11.8001Z" fill="#292929"/>
<path d="M11.75 6.35C11.85 6.85 11.7 7.3 11.7 7.3H11.65C11.65 7.3 11.7 7.2 11.7 7C11.75 6.85 11.75 6.6 11.75 6.35C11.7 6.3 11.7 6.3 11.7 6.25H11.75C11.7 6.3 11.75 6.35 11.75 6.35Z" fill="#292929"/>
<path d="M6.70001 10.0501C6.85001 10.1001 6.95001 10.1501 6.95001 10.1501V10.2001C6.95001 10.2001 6.50001 10.1501 6.10001 9.70007C6.35001 9.85007 6.55001 9.95007 6.70001 10.0501Z" fill="#292929"/>
<path d="M7.59999 11.35C7.59999 11.35 7.54999 11.7 7.64999 12.2C7.64999 12.25 7.69999 12.3 7.69999 12.35C7.69999 12.3 7.64999 12.25 7.64999 12.2C7.54999 11.7 7.59999 11.35 7.59999 11.35Z" fill="#292929"/>
<path d="M13.3 9.00005C13.2 8.95005 13 8.85005 12.8 8.75005C12.6 8.65005 12.45 8.60005 12.45 8.60005V8.55005C12.45 8.55005 13.15 8.85005 13.3 9.00005Z" fill="#292929"/>
<path d="M13.35 10.05C13 11.15 12.3 11.6 12.3 11.6C12.3 11.6 12.45 11.5 12.7 11.25C12.9 10.95 13.2 10.6 13.35 10.05Z" fill="#292929"/>
<path d="M10.35 12.7001C10.35 12.7001 9.50001 12.9501 8.60001 12.8501C8.60001 12.8501 9.60001 13.0501 10.35 12.7001Z" fill="white"/>
<path d="M7.05 7.14998C7.05 7.14998 6.75 7.24998 6.5 7.59998C6.5 7.59998 6.65 7.29998 7.05 7.09998V7.14998Z" fill="#292929"/>
<path d="M8.95001 6.05002C8.95001 6.05002 9.25001 5.85002 9.90001 5.65002C9.90001 5.65002 9.30001 5.75002 8.95001 6.00002V6.05002Z" fill="#292929"/>
<path d="M12.45 11.5C12.2 12.1 11.5 12.6 11.5 12.6C10.85 12.85 10.3 12.8 10.3 12.8V12C10.9 11.8 11.7 11.2 11.7 11.2L12.45 11.5Z" fill="#292929"/>
<path d="M11.7 9.64997C11.7 9.64997 10.6 8.99997 10.3 8.89997C10.3 8.89997 10.4 7.74997 10.35 7.39997C10.35 7.39997 11.1 7.09997 11.7 7.19997C11.7 7.19997 12.25 7.74997 12.5 8.59997C12.55 8.59997 12.1 9.39997 11.7 9.64997Z" fill="#292929"/>
<path d="M9.00003 6.69997C9.00003 6.69997 8.05003 6.99997 7.65003 7.54997C7.65003 7.54997 7.30003 7.24997 7.00003 7.14997C7.00003 7.14997 7.40003 6.34997 7.80003 6.14997C7.80003 6.14997 8.35003 5.89997 9.05003 5.94997C9.10003 5.94997 9.00003 6.24997 9.00003 6.69997Z" fill="#292929"/>
<path d="M8.90002 11.3C8.90002 11.3 8.90002 10.25 8.90002 9.79998C8.90002 9.79998 8.00002 9.34998 7.55002 9.09998C7.55002 9.09998 6.85002 9.79997 6.80002 10.15C6.80002 10.15 6.95002 10.95 7.55002 11.5C7.60002 11.45 8.20002 11.65 8.90002 11.3Z" fill="#292929"/>
<path d="M8.85002 11.25C8.85002 11.25 8.85002 10.25 8.85002 9.85003C8.85002 9.85003 8.00002 9.40002 7.60002 9.15002C7.60002 9.15002 6.95002 9.80002 6.90002 10.15C6.90002 10.15 7.05002 10.9 7.60002 11.45C7.60002 11.4 8.15002 11.6 8.85002 11.25Z" fill="#292929"/>
<path d="M13.3 10.2C13.45 9.64995 13.45 9.04995 13.3 8.44995C13.3 8.59995 13.25 8.84995 13.2 8.99995C13.25 8.99995 13.4 9.69995 13.3 10.2Z" fill="#292929"/>
<path d="M11.7 6.39998C11.7 6.39998 11.95 6.44998 12.2 6.54998C11.65 6.04998 10.9 5.69998 10.15 5.59998C10.55 5.69998 11.3 5.94998 11.7 6.39998Z" fill="#292929"/>
<path d="M6.05002 8.75C6.00002 9.2 6.00002 9.65 6.10002 10.1C6.10002 9.95 6.10002 9.8 6.20002 9.7C6.15002 9.7 6.10002 9.25 6.05002 8.75Z" fill="#292929"/>
<path d="M7.70002 12.25C7.45002 12.2 7.10002 11.9 6.90002 11.7C7.40002 12.3 8.05002 12.7 8.75002 12.9C8.20002 12.65 7.70002 12.25 7.70002 12.25Z" fill="#292929"/>
<g opacity="0.2">
<path d="M10.1 8.94998L9.00002 9.64998C8.90002 9.69998 8.80002 9.69998 8.70002 9.64998L7.75002 9.14998C7.65002 9.09998 7.65002 9.09998 7.75002 9.14998L8.70002 9.54998C8.80002 9.59998 8.90002 9.59998 9.00002 9.54998L10.1 8.94998C10.2 8.89998 10.2 8.89998 10.1 8.94998Z" fill="#292929"/>
<path d="M11.75 9.65002C11.75 9.65002 11.9 10.6 11.7 11.15L12.4 11.45L11.75 11.1C11.75 11.15 11.9 10.5 11.75 9.65002Z" fill="#292929"/>
<path d="M12.45 11.5C12.45 11.5 12.3 12 11.65 12.45C11.65 12.45 12.25 12.15 12.45 11.5Z" fill="#292929"/>
<path d="M10.4 7.35C10.4 7.35 9.70001 6.8 9.05001 6.65C9.05001 6.65 9.00001 6.4 9.10001 6C9.10001 6 9.05001 6.4 9.10001 6.65C9.05001 6.6 9.75001 6.75 10.4 7.35Z" fill="#292929"/>
<path d="M7.65002 7.54995C7.65002 7.54995 7.50002 8.19995 7.60002 8.99995C7.60002 8.99995 7.60002 8.04995 7.70002 7.64995C7.70002 7.59995 7.75002 7.49995 7.80002 7.44995C7.95002 7.29995 8.35002 6.94995 9.00002 6.69995C9.00002 6.74995 8.25002 6.94995 7.65002 7.54995Z" fill="#292929"/>
<path d="M7.55001 9.05005C7.55001 9.05005 6.90001 9.65005 6.85001 10.05C6.85001 10.05 6.85001 9.55005 7.55001 9.05005Z" fill="#292929"/>
</g>
<path d="M7.35001 3.89995V3.99995C7.30001 3.99995 7.30001 3.99995 7.25001 3.99995C7.20001 3.99995 7.20001 3.99995 7.15001 3.99995C7.10001 3.99995 7.05001 3.99995 7.00001 3.99995C6.95001 3.99995 6.90001 3.99995 6.90001 3.99995C6.90001 3.99995 6.85001 3.94995 6.85001 3.89995C6.85001 3.84995 6.85001 3.79995 6.85001 3.74995C6.85001 3.69995 6.85001 3.64995 6.85001 3.59995C6.85001 3.54995 6.90001 3.49995 6.90001 3.49995C6.90001 3.49995 6.95001 3.44995 7.00001 3.44995C7.05001 3.44995 7.10001 3.44995 7.15001 3.44995C7.20001 3.44995 7.25001 3.44995 7.25001 3.44995C7.30001 3.44995 7.30001 3.44995 7.35001 3.44995V3.59995C7.30001 3.59995 7.30001 3.59995 7.25001 3.59995C7.20001 3.59995 7.20001 3.59995 7.15001 3.59995C7.10001 3.59995 7.10001 3.59995 7.05001 3.59995C7.05001 3.59995 7.00001 3.59995 7.00001 3.64995V3.69995C7.00001 3.74995 7.00001 3.74995 7.00001 3.79995C7.00001 3.84995 7.00001 3.89995 7.00001 3.89995C7.00001 3.94995 7.00001 3.94995 7.00001 3.94995C7.00001 3.94995 7.05001 3.94995 7.05001 3.99995C7.05001 3.99995 7.10001 3.99995 7.15001 3.99995C7.20001 3.99995 7.20001 3.99995 7.25001 3.99995C7.25001 3.89995 7.30001 3.89995 7.35001 3.89995Z" fill="#292929"/>
<path d="M7.54999 4.05002H7.39999V3.40002H7.54999V3.65002H7.79999V3.40002H7.99999V4.05002H7.84999V3.75002H7.59999V4.05002H7.54999Z" fill="#292929"/>
<path d="M8.70001 4.05002H8.55001C8.50001 4.00002 8.50001 4.00002 8.50001 4.00002V3.95002H8.30001C8.30001 4.00002 8.25001 4.05002 8.25001 4.05002H8.10001L8.30001 3.40002H8.55001L8.70001 4.05002ZM8.35001 3.50002C8.35001 3.55002 8.35001 3.60002 8.30001 3.65002C8.30001 3.70002 8.25001 3.75002 8.25001 3.80002H8.40001C8.40001 3.75002 8.35001 3.70002 8.35001 3.65002C8.40001 3.60002 8.35001 3.55002 8.35001 3.50002Z" fill="#292929"/>
<path d="M9.05 4.00002C9.05 3.95002 9.05 3.90002 9 3.90002C9 3.85002 9 3.80002 8.95 3.80002C8.9 3.80002 8.95 3.70002 8.9 3.70002C8.9 3.65002 8.9 3.65002 8.9 3.60002C8.9 3.55002 8.9 3.55002 8.9 3.55002V3.60002V3.65002V3.70002V4.05002H8.75V3.40002H9C9 3.45002 9 3.45002 9.05 3.50002C9.1 3.55002 9.05 3.60002 9.1 3.60002C9.1 3.65002 9.1 3.70002 9.15 3.70002C9.15 3.75002 9.15 3.75002 9.15 3.80002C9.15 3.75002 9.15 3.75002 9.15 3.70002C9.15 3.65002 9.15 3.65002 9.2 3.60002C9.25 3.55002 9.2 3.50002 9.25 3.50002C9.3 3.50002 9.25 3.40002 9.3 3.40002H9.5V4.05002H9.35V3.65002V3.60002V3.55002V3.50002V3.55002C9.35 3.60002 9.35 3.60002 9.35 3.65002C9.35 3.70002 9.35 3.70002 9.3 3.75002C9.3 3.80002 9.3 3.85002 9.25 3.85002C9.25 3.90002 9.25 3.95002 9.2 3.95002H9.05V4.00002Z" fill="#292929"/>
<path d="M9.79999 4.05002H9.64999V3.40002H9.94999C9.99999 3.40002 10.05 3.40002 10.1 3.40002C10.15 3.40002 10.15 3.45002 10.2 3.50002C10.25 3.55002 10.25 3.60002 10.25 3.65002C10.25 3.70002 10.25 3.75002 10.2 3.80002C10.2 3.85002 10.15 3.85002 10.1 3.90002C10.05 3.95002 9.99999 3.85002 9.89999 3.85002H9.79999V4.05002ZM9.89999 3.50002H9.79999V3.70002H9.89999C9.94999 3.70002 9.99999 3.70002 9.99999 3.70002C9.99999 3.70002 9.99999 3.65002 9.99999 3.60002C9.99999 3.55002 9.99999 3.55002 9.99999 3.50002C9.94999 3.55002 9.94999 3.50002 9.89999 3.50002Z" fill="#292929"/>
<path d="M10.4 4.05002H10.25V3.40002H10.4V4.05002Z" fill="#292929"/>
<path d="M10.5 3.69998C10.5 3.59998 10.5 3.54998 10.55 3.49998C10.55 3.44998 10.6 3.39998 10.65 3.39998C10.7 3.39998 10.75 3.34998 10.85 3.34998C10.9 3.34998 10.95 3.34998 11 3.34998C11.05 3.34998 11.05 3.39998 11.1 3.39998C11.1 3.44998 11.15 3.44998 11.15 3.49998C11.15 3.54998 11.15 3.59998 11.15 3.64998C11.15 3.69998 11.15 3.74998 11.15 3.79998C11.15 3.84998 11.1 3.89998 11.1 3.89998C11.1 3.89998 11.05 3.99998 11 4.04998C10.95 4.04998 10.9 4.04998 10.85 4.04998C10.8 4.04998 10.75 4.04998 10.7 4.04998C10.65 4.04998 10.65 3.99998 10.6 3.99998C10.55 3.99998 10.55 3.94998 10.55 3.89998C10.5 3.79998 10.5 3.74998 10.5 3.69998ZM10.85 3.89998C10.9 3.89998 10.95 3.89998 10.95 3.89998L11 3.84998C11 3.79998 11 3.79998 11 3.74998C11 3.69998 11 3.64998 11 3.64998C11 3.59998 11 3.59998 10.95 3.59998C10.95 3.59998 10.9 3.59998 10.85 3.59998C10.8 3.59998 10.75 3.59998 10.75 3.59998L10.7 3.64998C10.7 3.64998 10.7 3.69998 10.7 3.74998C10.7 3.79998 10.7 3.84998 10.7 3.84998C10.7 3.84998 10.7 3.89998 10.75 3.89998C10.75 3.89998 10.8 3.89998 10.85 3.89998Z" fill="#292929"/>
<path d="M11.65 3.40002H11.8V4.05002H11.65L11.5 3.75002L11.45 3.70002C11.45 3.70002 11.45 3.65002 11.4 3.65002C11.4 3.65002 11.4 3.60002 11.35 3.60002C11.35 3.65002 11.35 3.65002 11.35 3.70002C11.35 3.75002 11.35 3.75002 11.35 3.80002V4.05002H11.2V3.40002H11.35L11.55 3.65002L11.6 3.70002C11.6 3.70002 11.6 3.75002 11.65 3.75002C11.65 3.75002 11.65 3.80002 11.7 3.80002C11.7 3.75002 11.7 3.75002 11.7 3.70002C11.7 3.65002 11.7 3.65002 11.7 3.60002V3.40002H11.65Z" fill="#292929"/>
<path d="M11.9 3.85002C11.95 3.85002 11.95 3.85002 12 3.85002C12.05 3.85002 12.05 3.85002 12.1 3.85002C12.15 3.85002 12.2 3.85002 12.2 3.85002H12.25C12.25 3.85002 12.25 3.85002 12.25 3.80002C12.25 3.80002 12.25 3.80002 12.25 3.75002C12.25 3.75002 12.25 3.75002 12.2 3.75002H12.15H12.1C12.05 3.75002 12 3.75002 12 3.70002C11.95 3.70002 11.95 3.65002 11.95 3.65002C11.95 3.60002 11.95 3.60002 11.95 3.55002C11.95 3.50002 11.95 3.45002 12 3.45002C12 3.40002 12.05 3.40002 12.1 3.40002C12.15 3.40002 12.2 3.40002 12.25 3.40002C12.35 3.40002 12.4 3.40002 12.5 3.45002V3.60002C12.45 3.60002 12.35 3.55002 12.3 3.55002C12.25 3.55002 12.25 3.55002 12.2 3.55002H12.15C12.15 3.55002 12.15 3.55002 12.15 3.60002C12.15 3.65002 12.15 3.65002 12.15 3.65002C12.15 3.65002 12.15 3.65002 12.2 3.65002H12.25H12.3C12.35 3.65002 12.4 3.65002 12.45 3.70002C12.5 3.70002 12.5 3.75002 12.5 3.75002C12.5 3.75002 12.5 3.80002 12.5 3.85002C12.5 3.90002 12.5 3.95002 12.45 3.95002C12.4 4.00002 12.4 4.00002 12.35 4.00002C12.3 4.00002 12.25 4.00002 12.15 4.00002C12.1 4.00002 12.05 4.00002 12 4.00002C11.95 4.00002 11.9 4.00002 11.9 4.00002V3.85002Z" fill="#292929"/>
<path d="M6.14999 3.25L6.24999 3.55H6.54999L6.29999 3.7L6.39999 3.95L6.14999 3.8L5.94999 3.95L5.99999 3.7L5.79999 3.55H6.04999L6.14999 3.25Z" fill="white"/>
<path d="M13.3 3.25L13.4 3.55H13.65L13.45 3.7L13.55 3.95L13.3 3.8L13.05 3.95L13.15 3.7L12.9 3.55H13.2L13.3 3.25Z" fill="white"/>
<path d="M9.74999 10.4C3.69999 10.4 0.149994 8.94995 0.149994 8.94995V13.55C0.149994 13.55 4.39999 14.9 9.74999 14.9C15.1 14.9 19.35 13.55 19.35 13.55V8.94995C19.3 8.94995 15.8 10.4 9.74999 10.4Z" fill="#E82344"/>
<path d="M9.74999 15C4.39999 15 0.149988 13.65 0.0999878 13.6H0.0499878V8.8L0.199988 8.85C0.249988 8.85 3.74999 10.3 9.74999 10.3C12.85 10.3 15.3 9.9 16.8 9.55C18.4 9.2 19.3 8.85 19.3 8.8L19.45 8.75V13.55H19.4C19.3 13.65 15.05 15 9.74999 15ZM0.249988 13.5C0.799988 13.65 4.79999 14.85 9.74999 14.85C14.7 14.85 18.7 13.65 19.25 13.5V9.05C18.55 9.3 15.1 10.45 9.74999 10.45C6.59999 10.45 4.14999 10.05 2.64999 9.7C1.39999 9.4 0.549988 9.15 0.249988 9V13.5Z" fill="#292929"/>
<path d="M9.75 15.05C4.45 15.05 0.15 13.7 0.1 13.65H0V8.75L0.2 8.85C0.25 8.85 3.8 10.3 9.7 10.3C12.8 10.3 15.25 9.9 16.7 9.6C18.3 9.25 19.15 8.9 19.2 8.9L19.4 8.8V13.7L19.3 13.75C19.3 13.7 15.05 15.05 9.75 15.05ZM0.1 13.55C0.15 13.55 4.45 14.95 9.75 14.95C15.05 14.95 19.3 13.6 19.35 13.6H19.4V8.9L19.35 8.95C19.3 8.95 18.4 9.35 16.85 9.7C15.35 10.05 12.95 10.45 9.8 10.45C3.85 10.45 0.3 9 0.25 9L0.2 8.95V13.55H0.1ZM9.75 14.9C4.8 14.9 0.7 13.7 0.25 13.55H0.2V9H0.25C0.55 9.1 1.35 9.4 2.65 9.7C4.15 10.05 6.6 10.45 9.75 10.45C15.15 10.45 18.6 9.25 19.2 9.05H19.25V13.6H19.2C18.8 13.65 14.7 14.9 9.75 14.9ZM0.3 13.45C0.9 13.65 4.9 14.8 9.75 14.8C14.6 14.8 18.6 13.65 19.2 13.45V9.15C18.4 9.45 15 10.55 9.75 10.55C6.6 10.55 4.15 10.15 2.65 9.8C1.45 9.55 0.65 9.25 0.3 9.15V13.45Z" fill="#292929"/>
<path d="M3.45001 13.35C3.30001 13.35 3.25001 13.3 3.10001 13.3C3.10001 12.45 3.10001 11.65 3.10001 10.8C3.50001 10.85 3.70001 10.9 4.10001 10.95C4.10001 11.1 4.10001 11.15 4.10001 11.3C3.85001 11.25 3.70001 11.25 3.45001 11.2C3.45001 11.45 3.45001 11.6 3.45001 11.9C3.65001 11.95 3.75001 11.95 3.90001 11.95C3.90001 12.1 3.90001 12.2 3.90001 12.35C3.70001 12.3 3.60001 12.3 3.45001 12.3C3.45001 12.7 3.45001 12.9 3.45001 13.35Z" fill="white"/>
<path d="M4.90001 11.05C5.05001 11.05 5.20001 11.15 5.30001 11.3C5.40001 11.45 5.45001 11.6 5.45001 11.75C5.45001 12.3 5.45001 12.55 5.45001 13.1C5.45001 13.25 5.40001 13.4 5.30001 13.5C5.20001 13.6 5.05001 13.65 4.90001 13.6C4.75001 13.6 4.60001 13.5 4.50001 13.35C4.40001 13.2 4.35001 13.05 4.35001 12.9C4.35001 12.35 4.35001 12.1 4.35001 11.55C4.35001 11.4 4.40001 11.25 4.50001 11.15C4.60001 11.05 4.75001 11 4.90001 11.05ZM5.10001 11.65C5.10001 11.6 5.10001 11.55 5.05001 11.5C5.00001 11.45 4.95001 11.45 4.90001 11.4C4.85001 11.4 4.80001 11.4 4.75001 11.45C4.70001 11.5 4.70001 11.55 4.70001 11.6C4.70001 12.15 4.70001 12.4 4.70001 12.95C4.70001 13 4.70001 13.05 4.75001 13.1C4.80001 13.15 4.85001 13.2 4.90001 13.2C4.95001 13.2 5.00001 13.2 5.05001 13.15C5.10001 13.1 5.10001 13.05 5.10001 13C5.10001 12.45 5.10001 12.2 5.10001 11.65Z" fill="white"/>
<path d="M6.3 11.2001C6.45 11.2001 6.6 11.3001 6.7 11.4001C6.8 11.5501 6.85 11.6501 6.85 11.8501C6.85 12.4001 6.85 12.6501 6.85 13.2001C6.85 13.3501 6.8 13.5001 6.7 13.6001C6.6 13.7001 6.45 13.7501 6.3 13.7501C6.15 13.7501 6 13.6501 5.9 13.5001C5.8 13.3501 5.75 13.2001 5.75 13.0501C5.75 12.5001 5.75 12.2501 5.75 11.7001C5.75 11.5501 5.8 11.4001 5.9 11.3001C6 11.2501 6.15 11.2001 6.3 11.2001ZM6.5 11.8501C6.5 11.8001 6.5 11.7501 6.45 11.7001C6.4 11.6501 6.35 11.6501 6.3 11.6001C6.25 11.6001 6.2 11.6001 6.15 11.6501C6.1 11.7001 6.1 11.7501 6.1 11.8001C6.1 12.3501 6.1 12.6001 6.1 13.1501C6.1 13.2001 6.1 13.2501 6.15 13.3001C6.2 13.3501 6.25 13.3501 6.3 13.4001C6.35 13.4001 6.4 13.4001 6.45 13.3501C6.5 13.3001 6.5 13.2501 6.5 13.2001C6.5 12.6501 6.5 12.3501 6.5 11.8501Z" fill="white"/>
<path d="M7.45002 11.7501C7.30002 11.7501 7.20002 11.7501 7.05002 11.7001C7.05002 11.5501 7.05002 11.5001 7.05002 11.3501C7.50002 11.4001 7.70002 11.4001 8.15002 11.4501C8.15002 11.6001 8.15002 11.7001 8.15002 11.8501C8.00002 11.8501 7.90002 11.8501 7.75002 11.8001C7.75002 12.6501 7.75002 13.0501 7.75002 13.9001C7.60002 13.9001 7.55002 13.9001 7.40002 13.8501C7.45002 13.0001 7.45002 12.6001 7.45002 11.7501Z" fill="white"/>
<path d="M8.45001 13.9501C8.45001 13.1001 8.45001 12.3001 8.45001 11.4501C8.65001 11.4501 8.75001 11.4501 9.00001 11.4501C9.15001 11.4501 9.25001 11.5001 9.40001 11.6001C9.50001 11.6501 9.55001 11.7501 9.60001 11.9001C9.60001 11.9501 9.65001 12.0501 9.65001 12.1501C9.65001 12.3001 9.60001 12.4501 9.50001 12.5501C9.45001 12.6001 9.40001 12.6501 9.40001 12.6501C9.40001 12.6501 9.55001 12.7501 9.60001 12.8501C9.65001 12.9001 9.65001 13.0001 9.70001 13.1001C9.70001 13.1501 9.70001 13.2001 9.70001 13.2501C9.70001 13.4001 9.65001 13.5501 9.60001 13.6501C9.55001 13.7501 9.50001 13.8001 9.40001 13.8501C9.30001 13.9001 9.20001 13.9501 9.15001 13.9501C8.85001 13.9501 8.70001 13.9501 8.45001 13.9501ZM8.85001 12.5001C8.90001 12.5001 8.95001 12.5001 9.00001 12.5001C9.10001 12.5001 9.20001 12.4501 9.20001 12.3501C9.20001 12.3001 9.20001 12.2501 9.20001 12.2001C9.20001 12.1001 9.20001 12.0001 9.15001 11.9501C9.10001 11.9001 9.05001 11.8501 9.00001 11.8501C8.95001 11.8501 8.90001 11.8501 8.85001 11.8501C8.85001 12.1001 8.85001 12.2501 8.85001 12.5001ZM8.85001 13.6001C8.90001 13.6001 8.95001 13.6001 9.00001 13.6001C9.10001 13.6001 9.20001 13.5501 9.25001 13.4001C9.25001 13.3501 9.25001 13.3001 9.25001 13.2501C9.25001 13.1001 9.20001 13.0001 9.15001 12.9501C9.10001 12.9001 9.05001 12.8501 8.95001 12.8501C8.90001 12.8501 8.85001 12.8501 8.80001 12.8501C8.85001 13.1501 8.85001 13.3001 8.85001 13.6001Z" fill="white"/>
<path d="M10.3 13.4001C10.25 13.6501 10.25 13.7501 10.2 13.9501C10.05 13.9501 10 13.9501 9.85001 13.9501C10 13.1001 10.1 12.3001 10.25 11.4501C10.45 11.4501 10.55 11.4501 10.75 11.4501C10.9 12.2501 11 13.1001 11.15 13.9001C11 13.9001 10.95 13.9001 10.8 13.9001C10.75 13.6501 10.75 13.5501 10.7 13.3501C10.55 13.4001 10.45 13.4001 10.3 13.4001ZM10.5 12.0501C10.45 12.4501 10.4 12.6501 10.35 13.0501C10.45 13.0501 10.5 13.0501 10.6 13.0501C10.6 12.6501 10.55 12.4501 10.5 12.0501Z" fill="white"/>
<path d="M12.35 13.85C11.95 13.9 11.75 13.9 11.4 13.95C11.4 13.1 11.4 12.3 11.4 11.45C11.55 11.45 11.6 11.45 11.75 11.4C11.75 12.25 11.75 12.65 11.75 13.5C12 13.5 12.1 13.45 12.35 13.45C12.35 13.6 12.35 13.7 12.35 13.85Z" fill="white"/>
<path d="M13.55 13.7C13.15 13.75 12.95 13.75 12.6 13.8C12.6 12.95 12.6 12.15 12.6 11.3C12.75 11.3 12.8 11.3 12.95 11.25C12.95 12.1 12.95 12.5 12.95 13.35C13.2 13.3 13.3 13.3 13.55 13.3C13.55 13.45 13.55 13.55 13.55 13.7Z" fill="white"/>
<path d="M14.35 13.6C14.2 13.6 14.15 13.65 14 13.65C14 12.8 14 12 14 11.15C14.4 11.1 14.6 11.05 15 11C15 11.15 15 11.25 15 11.4C14.75 11.45 14.6 11.45 14.35 11.5C14.35 11.75 14.35 11.9 14.35 12.2C14.55 12.15 14.65 12.15 14.85 12.15C14.85 12.3 14.85 12.4 14.85 12.55C14.65 12.6 14.55 12.6 14.35 12.6C14.35 12.95 14.35 13.15 14.35 13.6Z" fill="white"/>
<path d="M15.75 13.4001C15.6 13.4001 15.45 13.4001 15.35 13.3001C15.25 13.2001 15.2 13.0501 15.2 12.9001C15.2 12.3501 15.2 12.1001 15.2 11.5501C15.2 11.4001 15.25 11.2501 15.35 11.1001C15.45 10.9501 15.6 10.9001 15.75 10.8501C15.9 10.8501 16.05 10.8501 16.15 10.9501C16.25 11.0501 16.3 11.2001 16.3 11.3501C16.3 11.4501 16.3 11.5001 16.3 11.6501C16.15 11.6501 16.1 11.7001 15.95 11.7001C15.95 11.6001 15.95 11.5501 15.95 11.4001C15.95 11.3501 15.95 11.3001 15.9 11.2501C15.85 11.2001 15.8 11.2001 15.75 11.2001C15.7 11.2001 15.65 11.2501 15.6 11.3001C15.55 11.3501 15.55 11.4001 15.55 11.4501C15.55 12.0001 15.55 12.2501 15.55 12.8001C15.55 12.8501 15.55 12.9001 15.6 12.9501C15.65 13.0001 15.7 13.0001 15.75 13.0001C15.8 13.0001 15.85 12.9501 15.9 12.9001C15.95 12.8501 15.95 12.8001 15.95 12.7501C15.95 12.6001 15.95 12.5501 15.95 12.4001C16.1 12.4001 16.15 12.3501 16.3 12.3501C16.3 12.5001 16.3 12.5501 16.3 12.7001C16.3 12.8501 16.25 13.0001 16.15 13.1501C16.05 13.3001 15.95 13.4001 15.75 13.4001Z" fill="white"/>
</g>
<defs>
<clipPath id="clip0_233_1337">
<rect width="19.45" height="20" fill="white"/>
</clipPath>
</defs>
</svg>
