<svg width="30" height="30" viewBox="0 0 30 30" fill="none" xmlns="http://www.w3.org/2000/svg">
<g clip-path="url(#clip0_232_977)">
<path d="M0.0723099 10.35C0.144599 8.475 0.361467 7.275 0.433756 7.2L0.578334 6.45L1.15665 6C3.10845 4.8 6.36147 4.275 6.65062 4.275L7.37352 4.2C7.66267 4.05 7.95183 3.9 8.1687 3.75C8.24098 2.175 8.67472 0.9 8.67472 0.9L9.03617 0L9.83135 0.375C9.90364 0.45 11.9277 1.35 13.5181 2.775C13.5904 2.85 13.5904 2.85 13.6627 2.925C14.3133 2.85 14.8916 2.85 14.8916 2.85C15.7591 2.85 16.8434 3.225 17.8554 3.75C18 2.775 18.2169 1.875 18.2169 1.875L18.506 0.75L19.4458 1.35C19.5181 1.425 21.253 2.55 22.0482 4.05C22.7711 5.55 22.7711 7.425 22.2651 8.325C22.1928 8.475 22.0482 8.625 21.9036 8.775C22.1205 9.15 22.2651 9.525 22.4097 9.825C23.0603 9.225 23.7109 8.55 24.0723 8.175L25.0121 7.2L25.4458 8.55C25.5181 8.7 25.735 9.45 25.8795 10.125C26.9639 7.95 28.1205 3.75 28.1205 3.75L29.0603 5.85C29.1326 5.925 29.9277 7.875 30 10.65C30.0723 13.125 29.494 16.65 26.6024 20.025L26.3133 20.775V20.85C26.3133 22.875 25.735 25.35 24.4338 26.475C23.8554 27 23.2048 27.45 22.3374 27.825C22.1928 27.75 22.0482 27.75 21.9036 27.75C21.6868 27.75 21.4699 27.675 21.253 27.6C21.1807 27.9 20.9639 28.125 20.6024 28.275C20.0241 28.5 19.8073 28.575 19.4458 28.725C19.2289 28.8 19.0121 28.875 18.7952 28.875C18.7952 28.875 18.7952 28.875 18.7229 28.875C18.6506 28.875 18.5783 28.95 18.506 28.95C18.2169 29.175 18 29.325 17.7832 29.475L17.0603 30L16.2651 29.625C15.1807 29.175 12.8675 27.675 12.3615 26.025C12.2892 25.875 12.2169 25.8 12 25.65C11.9277 26.025 11.8554 26.475 11.8554 27V30C11.8554 30 7.87954 27.9 6.28918 26.4C5.92773 26.85 5.63858 27.75 5.63858 27.75C5.56629 27.675 3.25303 25.425 1.95183 22.35C0.795202 19.575 -0.216847 15.45 0.0723099 10.35Z" fill="#EE2840"/>
<path d="M17.4217 28.7249C17.6386 28.5749 17.9277 28.3499 18.2169 28.0499C18.3615 28.1249 18.5783 27.9749 18.7952 27.9749C18.9398 27.9749 19.0844 27.9749 19.1566 27.8999C19.5181 27.7499 19.735 27.6749 20.3133 27.4499C20.5301 27.3749 20.5301 26.5499 20.747 26.4749C20.747 26.4749 21.7591 26.9249 21.9759 26.8499C22.6265 26.5499 23.2771 26.1749 23.8554 25.6499C24.9398 24.6749 25.5181 22.4249 25.3735 20.3249C25.3012 18.5999 24.7229 16.8749 23.7109 15.8249C24.2892 14.6249 25.1567 12.4499 25.0121 10.7999C24.9398 10.1999 24.5061 8.77493 24.5061 8.77493C24.5061 8.77493 22.5542 10.8749 21.7591 11.3999C21.6868 10.8749 21.4699 9.67493 20.3856 8.32493C20.747 8.02493 20.8916 7.94993 20.8916 7.34993C20.8916 6.89993 20.3856 6.29993 19.4458 5.69993C18.2169 4.94993 15.9759 3.67493 14.6747 3.67493C14.3856 3.67493 12.2169 3.82493 11.8554 4.12493C11.4217 4.49993 11.8554 4.12493 11.9277 6.22493L11.2048 6.37493L10.1928 4.57493L10.1205 4.49993C10.0482 4.49993 9.90364 4.12493 9.75906 4.12493C9.18075 4.12493 8.45786 4.42493 7.66267 5.09993L6.65063 5.17493C6.50605 5.17493 3.39761 5.69993 1.59038 6.82493L1.30123 6.97493L1.22894 7.34993C1.22894 7.49993 0.506047 10.7999 1.22894 14.9999C1.87954 18.8999 3.90364 24.2249 9.83135 27.7499L11.0603 28.4999V26.9999C11.1326 25.2749 11.6386 24.2999 11.6386 24.2999C11.8554 24.6749 12.9398 24.8999 13.2289 25.7999C13.5904 27.0749 15.6868 28.4249 16.6265 28.7999L17.0603 28.9499L17.4217 28.7249Z" fill="#140317"/>
<path d="M9.9036 5.325C9.9036 5.325 9.46987 5.175 8.24095 6.15C8.24095 6.15 6.72288 8.625 7.01203 10.5C7.01203 10.5 6.21685 7.95 6.79517 6.375C6.79517 6.375 4.48191 6.525 2.81926 7.575C2.81926 7.575 -0.650616 20.55 10.265 27C10.265 27 10.3373 22.35 11.4217 20.625C11.4217 20.625 11.2048 18.525 10.4819 16.425C10.4819 16.425 12.2891 18.3 13.7349 22.35C13.7349 22.35 14.0241 24.6 14.3132 25.5C14.5301 26.25 15.759 27.075 16.9156 27.525C16.9156 27.525 18.1446 27.075 18.2891 26.625C18.3614 26.4 18.6506 27.15 18.9397 27.075C19.5181 26.85 19.8072 25.05 20.6024 25.275C21.6144 25.65 23.4217 25.2 23.7831 23.7C24.0723 22.5 25.2289 22.125 25.1566 20.325C25.0843 18.525 23.4217 16.575 22.4819 15.825C22.4819 15.825 24.6506 13.575 24.2169 10.8C24.2169 10.8 22.1928 13.5 20.6747 14.025C20.6747 13.8 21.1084 12.975 21.1807 12.6C21.1807 12.6 20.8193 9 17.8554 7.275C17.8554 7.275 19.3735 7.275 19.8072 7.65C19.8072 7.65 20.241 7.2 19.2289 6.525C17.8554 5.625 15.0361 4.275 14.6024 4.725C14.1687 5.1 12.8675 7.05 12.8675 7.05L11.2048 7.425L9.9036 5.325Z" fill="#838A94"/>
<path d="M6.57832 6.9749C6.36146 8.5499 6.93977 10.4999 6.93977 10.4999C6.7229 9.2249 7.3735 7.7249 7.80724 6.8249C8.53013 6.7499 9.54218 6.6749 10.3374 6.9749C10.3374 6.9749 10.1205 6.2999 9.97591 5.3999L11.0603 7.3499L12.4337 7.0499C12.7952 8.2499 12.9398 11.1749 12.9398 11.1749C12.9398 11.1749 14.6747 10.7999 15.253 11.7749C15.8313 12.7499 17.494 13.9499 17.494 13.9499L17.5663 14.3999C17.5663 14.3999 15.5422 16.0499 14.0241 15.8249C14.0241 15.8249 14.241 16.0499 15.253 16.1249C16.3374 16.1999 18.3615 16.3499 19.4458 17.6999C19.4458 17.6999 18.8675 17.3999 17.7109 17.6999C17.7109 17.6999 18.9398 18.5999 19.6627 19.2749C20.3856 19.9499 19.7349 21.2249 20.8193 23.7749C21.0362 24.2999 21.1084 24.8249 21.1807 25.3499C20.9639 25.3499 20.747 25.2749 20.5301 25.1999C19.735 24.8999 19.4458 26.6999 18.8675 26.9999C18.5783 27.1499 18.2892 26.3999 18.2169 26.5499C18 26.9999 16.8434 27.4499 16.8434 27.4499C15.6868 26.9999 14.5301 26.1749 14.241 25.4249C13.9518 24.5249 13.6627 22.2749 13.6627 22.2749C12.2169 18.2249 10.4096 16.3499 10.4096 16.3499C11.1325 18.4499 11.3494 20.5499 11.3494 20.5499C10.3374 22.2749 10.1928 26.9249 10.1928 26.9249C-0.722882 20.5499 2.747 7.5749 2.747 7.5749C2.81929 7.4999 2.81929 7.4999 2.89158 7.4999C2.96387 7.4999 2.96387 7.4999 2.96387 7.4999C2.96387 7.4999 4.69881 6.8249 6.57832 6.9749Z" fill="#4D525A"/>
<path d="M17.4217 12.6C17.4217 12.6 17.494 13.275 16.8434 13.2C16.1928 13.125 15.9759 10.95 14.6747 10.8C13.3735 10.65 12.8675 11.25 12.8675 11.25C12.8675 11.25 14.1687 10.95 14.8916 12.15C14.8916 12.15 14.241 11.925 13.8795 11.925C13.8795 11.925 14.0964 14.025 15.3976 14.325C15.3976 14.325 14.5301 14.7 14.0241 14.55C14.0241 14.55 15.253 15.3 17.1326 14.7C17.5663 14.55 18.2892 13.575 17.4217 12.6Z" fill="#140317"/>
<path d="M16.1205 13.725C16.1205 13.725 15.5422 13.5 15.1808 12.75L14.8916 13.5C14.8916 13.5 15.0362 13.725 15.5422 13.8C15.9036 13.875 16.1205 13.725 16.1205 13.725Z" fill="#EE2840"/>
<path d="M16.6265 13.725C16.0482 13.95 15.3253 13.425 15.3253 13.425L15.4699 12.975L16.6265 13.725Z" fill="#140317"/>
<path d="M13.0844 8.32495C14.0241 7.34995 14.3856 4.72495 13.0121 3.44995C11.494 2.09995 9.54221 1.19995 9.54221 1.19995C9.54221 1.19995 7.66269 6.22495 11.494 8.32495C11.4217 8.24995 12.5784 8.77495 13.0844 8.32495Z" fill="#140317"/>
<path d="M12.8675 11.25C12.8675 11.25 13.4458 5.85 12.0723 4.125C11.4217 3.3 10.1205 2.625 10.1205 2.625C10.1205 2.625 9.97593 4.8 10.6988 6.6C11.2048 7.725 11.2771 8.325 11.2771 8.325L12.8675 11.25Z" fill="#838A94"/>
<path d="M11.1326 9.075C11.1326 9.075 11.2048 7.725 10.6988 6.6C9.97593 4.875 10.1205 2.625 10.1205 2.625C10.1205 2.625 12.3615 4.125 12 6.675C11.8554 7.575 11.6386 8.85 12.9398 11.175L11.1326 9.075Z" fill="#4D525A"/>
<path d="M11.0603 8.09998C11.0603 8.09998 13.229 5.39998 10.7711 3.97498C10.7711 3.97498 11.1326 5.02498 11.1326 5.77498C11.1326 5.77498 10.988 5.32498 10.5543 5.02498C10.5543 5.02498 10.5543 7.34998 11.0603 8.09998Z" fill="#140317"/>
<path d="M23.7109 21.45L24.1446 22.725C23.9277 23.025 23.7109 23.325 23.6386 23.775C23.3494 24.825 22.3374 25.35 21.3976 25.425C20.4579 24.9 20.8193 24.525 20.8193 24.525C23.7832 24.675 23.7109 21.45 23.7109 21.45Z" fill="white"/>
<path d="M23.4217 16.05L22.7711 15.975L21.6867 16.425C21.6867 16.425 20.747 19.8 23.7108 21.45C23.7108 21.45 24.2169 23.625 23.1325 24.9C23.1325 24.9 25.5181 22.575 25.5904 19.725L23.4217 16.05Z" fill="#140317"/>
<path d="M24.2892 13.875C24.2892 13.875 26.6747 11.625 28.2651 6.07495C28.2651 6.07495 31.5181 13.425 25.5181 19.725C25.5181 19.725 24.6506 19.95 23.7832 17.55C22.9157 15.225 24.2892 13.875 24.2892 13.875Z" fill="#140317"/>
<path d="M22.4096 17.025C22.4096 17.025 26.6747 14.4 28.1928 9.22498C28.1928 9.22498 29.4217 15.75 23.6386 20.025C23.6386 19.95 22.0482 19.275 22.4096 17.025Z" fill="white"/>
<path d="M22.3374 25.6499C21.5422 25.6499 19.5904 26.0249 19.3012 22.6499C19.0844 20.4749 18 18.2249 16.5543 18.6749C16.1928 18.8249 14.3856 19.4999 13.9518 19.7249C13.9518 19.7249 16.4097 21.2999 17.7109 23.1749C18.8675 24.8999 19.735 26.3999 20.6747 26.3999L22.3374 25.6499Z" fill="#140317"/>
<path d="M15.3253 19.9499L13.9518 19.6499C13.9518 19.6499 15.3253 21.6749 15.3976 22.6499C15.3976 22.7249 15.9759 21.5249 15.3253 19.9499Z" fill="#140317"/>
<path d="M18.5061 22.7249C18.5061 22.7249 18.3615 21.1499 17.7109 20.3249C17.0603 19.4999 16.9157 19.5749 16.9157 19.5749L16.5543 19.7249C16.5543 19.7249 17.1326 20.3249 17.2772 20.6999C17.2772 20.6999 16.3374 20.0999 15.976 19.8749L15.7591 20.0249C15.7591 20.0999 17.7832 21.2999 18.5061 22.7249Z" fill="white"/>
<path d="M22.5542 23.325C21.8314 22.8 21.9036 22.05 21.9759 21.45C22.0482 20.85 22.1928 20.4 21.6145 20.1C21.0362 19.875 20.4579 19.95 20.241 19.95C20.0241 20.025 19.8795 21.3 20.1687 21.75C20.1687 21.75 20.4579 21.375 20.6024 21.3C20.747 21.225 21.1085 21.225 21.1085 21.225C21.1085 21.225 21.1085 21.675 21.3253 22.2C21.9036 23.25 22.5542 23.325 22.5542 23.325Z" fill="#140317"/>
<path d="M25.1566 19.7999C25.1566 19.7999 23.4217 19.1249 22.8434 17.7749C22.8434 17.7749 22.8434 19.2749 23.6386 19.9499L25.1566 19.7999Z" fill="#140317"/>
<path d="M23.3494 15.825L21.6868 16.425C21.6868 16.425 21.0362 15.675 21.1808 14.85C21.1808 14.85 22.8434 16.05 23.3494 15.825Z" fill="#140317"/>
<path d="M19.4458 17.775C18.1446 16.725 15.2531 16.2 15.2531 16.2C15.2531 16.2 16.8434 15.45 18.0723 16.275C19.229 17.1 19.4458 17.775 19.4458 17.775Z" fill="#140317"/>
<path d="M19.8072 27.0749C19.8072 27.0749 18.2892 25.3499 16.4819 24.5249C16.4819 24.5249 18.0723 26.1749 18.7229 27.5999L19.8072 27.0749Z" fill="#140317"/>
<path d="M19.5181 6.2249C19.5181 6.2249 18.7229 5.9249 18.6506 4.9499C18.506 3.5999 19.0121 2.0249 19.0121 2.0249C19.0121 2.0249 20.6024 3.0749 21.253 4.3499C21.9036 5.6249 21.8313 7.1249 21.4699 7.7249C21.1084 8.2499 20.5301 8.2499 20.5301 8.2499C20.5301 8.2499 19.8072 6.8249 19.5181 6.2249Z" fill="#140317"/>
<path d="M28.1205 9.22498C28.1205 9.22498 28.5542 14.1 24.6506 17.325C24.6506 17.325 28.0482 16.05 28.6988 11.175C28.7711 11.175 28.5543 9.74998 28.1205 9.22498Z" fill="#140317"/>
<path d="M11.3494 20.625C11.3494 20.625 8.74699 17.85 7.95181 13.5C7.95181 13.5 7.08434 20.025 7.73494 23.775C7.73494 23.775 4.19277 18.975 5.42169 12.45C5.42169 12.45 4.19277 13.725 3.83133 14.85C3.83133 14.85 2.31326 11.1 2.74699 7.57495L1.66265 8.32495C1.66265 8.32495 -0.939756 21.4499 10.4096 27.4499L11.3494 20.625Z" fill="#140317"/>
<path d="M11.0603 28.5C11.0603 28.5 7.80724 27.225 6.21688 24.9C6.21688 24.9 5.49399 25.725 5.27712 26.25C5.27712 26.25 -0.939744 19.575 1.30122 6.97498C1.30122 6.97498 4.26508 21.975 11.0603 28.5Z" fill="#140317"/>
<path d="M24.0723 10.875C24.1446 11.475 24.1446 12 24.0723 12.525C23.7109 13.35 23.1326 14.175 22.1928 15C22.1928 15 23.1326 13.575 23.3494 11.775C23.7832 11.25 24.0723 10.875 24.0723 10.875Z" fill="white"/>
<path d="M24.5784 11.4749C24.2892 13.7999 22.1928 14.9999 22.1928 14.9999C24.0723 12.7499 24.0723 10.8749 24.0723 10.8749L24.4338 10.4249L24.5784 11.4749Z" fill="#140317"/>
<path d="M23.4217 24.375C22.5542 25.65 20.747 24.975 20.747 23.85C20.747 23.85 19.8073 25.425 20.747 25.875C22.7711 26.775 23.4217 24.375 23.4217 24.375Z" fill="#140317"/>
<path d="M21.0362 12.675C20.9639 13.05 20.5301 13.875 20.5301 14.1C20.5301 14.1 20.5301 10.125 17.7831 7.34998C20.6024 9.07498 21.0362 12.675 21.0362 12.675Z" fill="white"/>
<path d="M14.5302 4.65002C15.253 4.50002 17.7832 5.70002 19.0121 6.52502C20.0241 7.20002 19.5904 7.65002 19.5904 7.65002C19.4458 7.50002 19.0121 7.42502 18.5783 7.35002C17.7832 6.07502 15.4699 4.72502 14.5302 4.65002Z" fill="white"/>
<path d="M10.1927 2.69995C10.4819 2.84995 11.494 3.44995 12.0723 4.12495C12.7229 4.87495 12.9397 6.52495 13.012 8.02495C12.7952 7.04995 12 3.74995 10.1927 2.69995Z" fill="white"/>
<path d="M10.1928 2.7C10.1928 2.7 10.1205 2.7 10.1205 2.625C10.1205 2.625 10.1205 2.7 10.1928 2.7Z" fill="white"/>
</g>
<defs>
<clipPath id="clip0_232_977">
<rect width="30" height="30" fill="white"/>
</clipPath>
</defs>
</svg>
