<svg width="25" height="30" viewBox="0 0 25 30" fill="none" xmlns="http://www.w3.org/2000/svg">
<path d="M12.1528 29.935C11.8969 29.8886 9.63085 29.4524 7.24598 28.3756C4.1758 26.9833 2.26608 25.1825 1.5625 23.0012C1.22442 22.8249 0.895468 22.5835 0.593933 22.2865L0 21.6924V16.513L0.0730994 16.5223C0.109649 15.9561 0.274123 15.4455 0.56652 15C0.758406 14.7123 0.986842 14.4616 1.26096 14.2667V5.97772L12.5 0L23.739 5.97772V14.4616C23.9949 14.6751 24.2233 14.9443 24.3969 15.2413C24.6893 15.7519 24.8355 16.3645 24.8355 17.0514C24.8355 17.172 24.8264 17.2834 24.8173 17.4041C24.8264 17.5248 24.8355 17.6454 24.8355 17.7754C24.8355 17.9703 24.8264 18.1652 24.799 18.3509L25 18.4158V23.3447L23.3096 23.354C22.5146 25.3868 20.6323 27.0761 17.7083 28.3942C15.3417 29.4616 13.0939 29.8886 12.8472 29.935L12.5 30L12.1528 29.935Z" fill="#DEB28D"/>
<path d="M4.38596 8.28906L12.5 15.13L20.6049 8.28906L22.5512 6.64612V12.4289L21.08 13.6727L12.5 20.9128L3.91995 13.6727L2.44882 12.4289V6.64612L4.38596 8.28906Z" fill="#DEB28D"/>
<path d="M12.5 17.3298L2.32091 8.73454L2.58589 8.41895L12.5091 16.7915L22.4324 8.41895L22.6974 8.73454L12.5 17.3298ZM22.6791 10.6652L22.4141 10.3496L12.4909 18.7222L2.57675 10.3404L2.31177 10.656L12.4909 19.2512L22.6791 10.6652Z" fill="#FF893B"/>
<path d="M21.08 13.6727V21.0335C21.08 23.3169 18.7957 24.867 16.8768 25.7581C14.9671 26.6492 13.0208 27.0948 12.5 27.1969C11.9883 27.0948 10.0603 26.6585 8.15058 25.7674C6.22258 24.8763 3.91995 23.3262 3.91995 21.0335V13.6727L12.5 20.9128L21.08 13.6727Z" fill="#232D59"/>
<path d="M22.5512 12.4288V21.0334C22.5512 26.7976 13.0391 28.617 12.6279 28.6912L12.5 28.7191L12.3721 28.6912C11.97 28.617 2.44882 26.7976 2.44882 21.0334V12.4288L3.91995 13.6726V21.0334C3.91995 23.3261 6.22258 24.8762 8.15058 25.7673C10.0603 26.6584 11.9883 27.0854 12.5 27.1968C13.0117 27.0854 14.958 26.6491 16.8768 25.758C18.7957 24.867 21.08 23.3168 21.08 21.0334V13.6726L22.5512 12.4288Z" fill="#FFC299"/>
<path d="M22.5512 6.6461L20.6049 8.28904L12.5 3.97283L4.38596 8.28904L2.44882 6.6461L12.5 1.29956L22.5512 6.6461Z" fill="#FFC299"/>
<path d="M19.7368 7.82495L20.6049 8.28906L22.5512 6.64612L21.6831 6.18201L19.7368 7.82495Z" fill="#FF893B"/>
<path d="M5.25401 7.82495L4.38596 8.28906L2.44882 6.64612L3.31688 6.18201L5.25401 7.82495Z" fill="#FF893B"/>
<path d="M20.6049 8.28899L12.5 15.13L4.38596 8.28899L12.5 3.97278L20.6049 8.28899Z" fill="#232D59"/>
<path d="M12.5 1.0675L2.23866 6.52543V21.0335C2.23866 26.9648 11.9152 28.8212 12.3264 28.8955L12.4909 28.9233L12.6553 28.8955C13.0665 28.8212 22.743 26.9648 22.743 21.0335V6.52543L12.5 1.0675ZM22.341 12.3361L12.4909 20.6529L2.64985 12.3361V7.09164L12.5 15.4085L22.3501 7.09164V12.3361H22.341ZM4.12097 14.1182L12.4909 21.1913L20.8607 14.1182V21.0335C20.8607 23.2055 18.6403 24.6999 16.7763 25.5632C14.9397 26.4171 13.0756 26.8534 12.4909 26.9833C11.9061 26.8627 10.0603 26.4264 8.22368 25.5817C6.3505 24.7092 4.11184 23.2148 4.11184 21.0335V14.1182H4.12097ZM4.75145 8.32617L12.4909 4.21416L20.2303 8.32617L12.4909 14.8608L4.75145 8.32617ZM22.1857 6.68322L20.5866 8.03842L12.5 3.74077L4.41337 8.03842L2.81432 6.68322L12.5 1.53161L22.1857 6.68322ZM17.6535 26.807C15.2229 27.9951 12.701 28.4685 12.5914 28.4871L12.5 28.5056L12.4086 28.4871C12.299 28.4685 9.77704 27.9951 7.34648 26.807C4.23062 25.2847 2.64985 23.3447 2.64985 21.0335V12.8744L3.70979 13.7748V21.0335C3.70979 23.4376 6.07638 25.0341 8.0592 25.953C9.97806 26.8441 11.9061 27.2804 12.4543 27.3918L12.4909 27.401L12.5274 27.3918C13.0757 27.2804 15.0219 26.8348 16.9499 25.9345C18.9236 25.0155 21.2719 23.419 21.2719 21.0242V13.7655L22.3319 12.8652V21.0242C22.341 23.3447 20.7694 25.2847 17.6535 26.807Z" fill="#12172E"/>
<path d="M12.5 17.766C15.4976 17.766 17.9276 15.2975 17.9276 12.2524C17.9276 9.2073 15.4976 6.73877 12.5 6.73877C9.50241 6.73877 7.07237 9.2073 7.07237 12.2524C7.07237 15.2975 9.50241 17.766 12.5 17.766Z" fill="#6585C9"/>
<path d="M17.4146 12.6443C17.8693 9.88361 16.0347 7.27125 13.3171 6.80942C10.5995 6.34758 8.02789 8.21115 7.57325 10.9718C7.11862 13.7325 8.95313 16.3449 11.6707 16.8067C14.3884 17.2685 16.96 15.405 17.4146 12.6443Z" fill="#B7C7EB"/>
<path d="M7.27339 12.1225L7.99525 14.1274C7.99525 14.1274 8.15972 14.9164 8.36988 15.232C8.58004 15.5476 8.21455 13.7283 8.21455 13.7283L7.48355 12.0111L7.27339 12.1225Z" fill="#DEB28D"/>
<path d="M10.7091 16.4944C10.7091 16.4944 10.8735 16.4016 10.974 16.2067C11.0197 16.1231 11.102 16.0675 11.1933 16.0582L13.1579 15.7983C13.231 15.789 13.3041 15.8076 13.3681 15.854C13.5143 15.9653 13.7975 16.1696 14.0168 16.2531L13.3406 15.4641L10.8278 15.8168L10.7091 16.4944Z" fill="#DEB28D"/>
<path d="M17.3702 10.8416L17.1327 10.9808C17.0139 11.0458 16.9225 11.1665 16.8768 11.3057L16.3286 13.1993C16.3103 13.255 16.3103 13.3199 16.3194 13.3756C16.3651 13.5891 16.4748 14.1182 16.4656 14.4245L15.9905 13.2086L16.8311 10.7581L17.3702 10.8416Z" fill="#DEB28D"/>
<path d="M13.9877 13.8023C15.8201 12.967 16.6389 10.7809 15.8166 8.91951C14.9943 7.05814 12.8423 6.22634 11.01 7.06165C9.17764 7.89695 8.35882 10.083 9.18109 11.9444C10.0034 13.8058 12.1554 14.6376 13.9877 13.8023Z" fill="#DEB28D"/>
<path d="M18.1012 11.714C17.9276 10.1917 17.1875 8.82725 15.9996 7.88047C14.8209 6.92441 13.3406 6.49743 11.8421 6.67379C8.75365 7.03579 6.52412 9.88542 6.88048 13.0228C7.20943 15.9467 9.65826 18.1001 12.4817 18.1001C12.6919 18.1001 12.9112 18.0909 13.1305 18.063C14.629 17.8867 15.9722 17.1348 16.9042 15.9281C17.8545 14.7307 18.2749 13.2363 18.1012 11.714ZM16.4839 10.8972C16.5387 10.9529 16.5662 11.0457 16.5387 11.1199L15.9539 12.9857C15.9265 13.0599 15.8626 13.1156 15.7803 13.1156C15.2595 13.1249 14.7478 13.2177 14.2361 13.3755C14.163 13.3941 14.0808 13.3755 14.0351 13.3105L12.7467 11.7047C12.6919 11.6305 12.6736 11.5284 12.701 11.4448C12.8929 10.8786 13.0391 10.2846 13.167 9.69049C13.1853 9.60695 13.2493 9.54198 13.3315 9.5327L15.1499 9.25423C15.2138 9.24495 15.2869 9.28208 15.3235 9.33777C15.6524 9.93183 16.0362 10.4424 16.4839 10.8972ZM11.5132 8.37242L11.705 7.16574C11.7142 7.10077 11.769 7.04507 11.8421 7.03579C11.8695 7.03579 11.8878 7.02651 11.9152 7.02651C13.1031 6.88728 14.2727 7.16574 15.2686 7.81549C15.3235 7.85262 15.3509 7.92688 15.3326 7.99186C15.2504 8.2796 15.1955 8.57663 15.1955 8.88294C15.1955 8.9572 15.1407 9.02218 15.0676 9.03146L13.1488 9.31921C13.0848 9.32849 13.0208 9.30992 12.9751 9.28208C12.5274 8.97577 12.0797 8.72515 11.6228 8.5395C11.5406 8.51166 11.504 8.44668 11.5132 8.37242ZM8.34247 9.26351C8.34247 9.18926 8.36988 9.10572 8.41557 9.05002C9.11915 8.10324 10.1425 7.40708 11.3395 7.12861C11.4035 7.11005 11.4675 7.17502 11.4583 7.24L11.2664 8.42812C11.2573 8.48381 11.2208 8.53022 11.1659 8.55807C10.5629 8.86438 10.0603 9.29136 9.65826 9.82045C9.63998 9.83901 9.61257 9.85757 9.58516 9.85757L8.44298 9.91327C8.38816 9.91327 8.34247 9.86686 8.34247 9.81116C8.34247 9.6348 8.34247 9.45844 8.34247 9.26351ZM8.25109 15.1391C7.79422 14.4615 7.49269 13.6725 7.39218 12.8C7.36476 12.5865 7.35563 12.373 7.35563 12.1688C7.35563 12.0946 7.42873 12.1317 7.45614 12.2152L8.11403 14.016C8.13231 14.0624 8.14145 14.1181 8.14145 14.1738C8.15972 14.4801 8.21454 14.7957 8.31506 15.1113C8.33333 15.1484 8.27851 15.1763 8.25109 15.1391ZM9.35672 13.9789C9.0826 13.9232 8.7902 13.9046 8.47953 13.9232C8.40643 13.9232 8.33333 13.8768 8.30592 13.8025L7.67544 12.0853C7.64802 12.0203 7.65716 11.9461 7.69371 11.8811C7.91301 11.482 8.23282 10.86 8.31506 10.2846C8.32419 10.2103 8.38816 10.1546 8.45212 10.1546L9.42982 10.1082C9.49378 10.1082 9.54861 10.1546 9.56688 10.2196C9.6674 10.7579 9.82273 11.2777 10.0786 11.7604C10.1334 11.8625 10.1425 11.9832 10.106 12.0946L9.49378 13.9046C9.47551 13.951 9.41155 13.9881 9.35672 13.9789ZM9.70395 14.0253L10.3162 12.206C10.3618 12.076 10.4806 11.9925 10.6177 11.9832C11.1659 11.9553 11.7142 11.8904 12.2624 11.7883C12.3812 11.7697 12.5 11.8068 12.5731 11.8997L13.8432 13.4683C13.9072 13.5426 13.9072 13.6447 13.8615 13.7282C13.5691 14.2202 13.3589 14.7122 13.2493 15.2134C13.231 15.3062 13.1579 15.3712 13.0665 15.3898L11.0563 15.6682C10.974 15.6775 10.8918 15.6404 10.8461 15.5754C10.4989 15.0927 10.1334 14.6472 9.75877 14.248C9.70395 14.1923 9.67653 14.1088 9.70395 14.0253ZM10.371 16.9492C10.3344 16.9306 10.2887 16.912 10.2522 16.8935C10.1608 16.8471 10.1974 16.6985 10.307 16.7078C10.307 16.7078 10.307 16.7078 10.3162 16.7078C10.3527 16.7078 10.3984 16.7264 10.4258 16.7542L10.4624 16.7821C10.5629 16.8563 10.4806 16.9956 10.371 16.9492ZM14.3732 16.5407L14.0716 17.0791C14.0351 17.1441 13.9711 17.1998 13.898 17.2183C13.633 17.2926 13.3589 17.3483 13.0757 17.3854C12.701 17.4318 12.3355 17.4318 11.9792 17.3947C11.7781 17.3761 11.5863 17.3019 11.4218 17.1812L10.7913 16.7264C10.6908 16.6521 10.6634 16.5222 10.7273 16.4201C10.7913 16.3087 10.837 16.1973 10.8827 16.0766C10.9101 15.9931 10.9832 15.9281 11.0746 15.9188L13.1488 15.6218C13.2493 15.6125 13.3406 15.6497 13.4046 15.7239C13.6605 16.0395 13.9437 16.2623 14.2909 16.3458C14.3823 16.3737 14.4189 16.4665 14.3732 16.5407ZM16.8311 15.0092C16.7398 15.1577 16.6301 15.3062 16.5205 15.4454C16.0179 16.0859 15.3874 16.5872 14.6747 16.9306C14.5742 16.977 14.4737 16.8656 14.5285 16.7635L14.7204 16.4201C14.7478 16.3644 14.7935 16.3273 14.8483 16.2994C15.4971 15.9745 15.9996 15.529 16.3651 15.0092C16.4017 14.9535 16.4656 14.9164 16.5387 14.9071L16.7489 14.8792C16.822 14.8792 16.8677 14.9535 16.8311 15.0092ZM17.1053 14.5172C17.0778 14.5729 17.023 14.61 16.9682 14.6193L16.6849 14.6565C16.5844 14.6657 16.5022 14.6008 16.4839 14.4987C16.42 14.0624 16.292 13.6911 16.155 13.3384C16.1367 13.3013 16.1367 13.2549 16.1458 13.2084L16.8037 11.1014C16.822 11.0364 16.8768 10.9807 16.9499 10.9622C17.0778 10.9343 17.1966 10.8972 17.2971 10.8508C17.3702 10.8136 17.4616 10.86 17.4799 10.9436C17.5347 11.1571 17.5713 11.3799 17.5987 11.6119C17.7175 12.6237 17.5439 13.6261 17.1053 14.5172Z" fill="#12172E"/>
<path d="M9.76791 9.94112C9.87756 9.81117 9.99634 9.68122 10.1151 9.55127C10.2339 9.4306 10.3618 9.30994 10.4898 9.18927C10.6177 9.07788 10.7547 8.9665 10.9009 8.87367C11.0471 8.78085 11.2025 8.68803 11.3578 8.61377C11.3761 8.60449 11.3944 8.60449 11.4035 8.61377C11.6776 8.73444 11.9426 8.87367 12.1985 9.02219C12.3264 9.09645 12.4543 9.17999 12.5731 9.26353C12.6919 9.34707 12.8198 9.4306 12.9295 9.53271C12.9386 9.54199 12.9477 9.56055 12.9295 9.57912C12.9203 9.5884 12.902 9.59768 12.8838 9.57912C12.7741 9.4863 12.6462 9.41204 12.5274 9.3285C12.3995 9.25424 12.2716 9.17999 12.1436 9.11501C11.8878 8.97578 11.6228 8.85511 11.3487 8.75301H11.4035C11.2482 8.8087 11.102 8.89224 10.9558 8.97578C10.8096 9.0686 10.6725 9.16142 10.5446 9.27281C10.4075 9.37491 10.2796 9.49558 10.1608 9.60697C10.0329 9.72763 9.91411 9.8483 9.80446 9.97825C9.79532 9.98754 9.77704 9.98754 9.75877 9.97825C9.75877 9.96897 9.74963 9.95041 9.76791 9.94112Z" fill="#6585C9"/>
<path d="M13.4503 15.4361C13.4777 15.2783 13.5234 15.1298 13.5599 14.9813C13.6056 14.8328 13.6513 14.6843 13.7061 14.5358C13.8158 14.2387 13.9437 13.951 14.1447 13.6911C14.1539 13.6818 14.1539 13.6818 14.163 13.6725C14.3001 13.6075 14.4463 13.5611 14.5925 13.524C14.7387 13.4869 14.8849 13.459 15.0219 13.4405C15.1681 13.4219 15.3143 13.4033 15.4605 13.3848C15.6067 13.3755 15.7529 13.3662 15.8991 13.3662C15.9083 13.3662 15.9174 13.3755 15.9174 13.3848C15.9174 13.3941 15.9083 13.4033 15.8991 13.4033C15.7529 13.4033 15.6067 13.4219 15.4697 13.4405C15.3235 13.459 15.1864 13.4869 15.0402 13.5147C14.894 13.5426 14.7569 13.5797 14.6199 13.6168C14.4828 13.6632 14.3458 13.7097 14.2178 13.7746L14.2361 13.7561C14.0442 13.9881 13.9072 14.2666 13.7884 14.5543C13.7244 14.6936 13.6787 14.8421 13.6239 14.9906C13.5782 15.1391 13.5325 15.2876 13.496 15.4361C13.496 15.4454 13.4777 15.4547 13.4686 15.4547C13.4594 15.4547 13.4503 15.4454 13.4503 15.4361Z" fill="#6585C9"/>
<path d="M23.7756 19.0285C23.7756 19.0285 23.6933 19.0007 23.5928 18.9728C23.7573 18.5737 23.8395 18.156 23.8395 17.7197C23.8395 17.5991 23.8304 17.4691 23.8213 17.3484C23.8304 17.2278 23.8395 17.1071 23.8395 16.9957C23.8395 16.4852 23.739 16.0489 23.5289 15.6869C23.2822 15.2507 22.9075 14.9536 22.4415 14.833C22.277 14.7866 22.0943 14.7587 21.9024 14.7587C21.6557 14.7587 21.3907 14.7958 21.1075 14.8887C20.4861 15.0743 19.8465 15.2228 19.2982 15.3435L18.9419 15.427C17.9825 15.6312 16.9956 15.789 16.027 15.9004L15.4514 15.9654L15.159 15.9932V16.0118C14.9945 15.9932 14.83 15.984 14.6564 15.984C14.5651 15.984 14.4737 15.984 14.3823 15.9932C13.8523 16.0304 13.3772 16.1603 12.9751 16.3831C12.8838 16.4295 12.8015 16.4852 12.7284 16.5409C12.4817 16.3831 12.2167 16.2624 11.9426 16.1789C11.6319 16.0861 11.2939 16.0304 10.9466 16.0118C10.8827 16.0118 10.8096 16.0025 10.7456 16.0025C10.2796 16.0025 9.85928 16.0861 9.49379 16.2624C9.3019 16.3552 9.11915 16.4666 8.96381 16.5966C8.73538 16.346 8.47039 16.1325 8.178 15.9654C7.84905 15.7705 7.50183 15.6405 7.12719 15.5755C6.95358 15.5477 6.78911 15.5291 6.62463 15.5291C6.3962 15.5291 6.16776 15.557 5.96674 15.622C5.79313 15.6684 5.62865 15.7426 5.48246 15.8262C5.25402 15.5848 4.99817 15.3806 4.71491 15.2135C4.3951 15.0186 4.03874 14.8701 3.64583 14.768C3.40826 14.703 3.17982 14.6752 2.96053 14.6752C2.77778 14.6752 2.60417 14.6937 2.43056 14.7401C1.99196 14.8608 1.62646 15.1207 1.37975 15.5013C1.15132 15.8447 1.04167 16.2717 1.04167 16.7637C1.04167 16.8843 1.0508 17.0143 1.05994 17.1442C1.04167 17.2556 1.04167 17.3763 1.04167 17.4877C1.04167 17.5248 1.04167 17.5619 1.04167 17.6083L0.968567 17.5991V17.9703V18.6944V20.3651V21.0892V21.2284L1.06908 21.3305L1.2701 21.5254C1.60819 21.8596 1.98282 22.0916 2.36659 22.2216C2.70468 22.333 3.07017 22.3887 3.49963 22.3887C3.91996 22.3887 4.31287 22.3051 4.66009 22.1566C4.89766 22.0545 5.09868 21.9153 5.28143 21.7482C5.46418 21.906 5.6652 22.0359 5.8845 22.1473C5.99415 22.203 6.11294 22.2494 6.23172 22.2866V22.3144V23.0384C6.23172 23.3726 6.40534 23.6789 6.6886 23.846C7.02668 24.0409 7.33735 24.1337 7.69371 24.1337H17.2423C17.7357 24.1337 18.0921 23.9759 18.3662 23.651C18.5947 23.3726 18.7591 22.8435 18.6403 22.4072C18.6495 22.3887 18.6495 22.3608 18.6586 22.3422H18.8596H19.8282L21.875 22.333L23.6933 22.3237H24.0223V21.9895V21.2655V20.096V19.372V19.1213L23.7756 19.0285Z" fill="#12172E"/>
<path d="M23.1908 19.2048C23.136 19.0099 23.072 18.8242 23.0172 18.6386C23.0263 18.62 23.0446 18.6015 23.0537 18.5829C23.136 18.453 23.2182 18.3044 23.2822 18.1559V18.1466C23.4375 17.7846 23.5106 17.4041 23.5106 17.0049C23.5106 16.5594 23.4192 16.1695 23.2456 15.8632C23.0446 15.5105 22.7339 15.2599 22.3593 15.1578C22.2222 15.1206 22.0669 15.0928 21.9115 15.0928C21.6922 15.0928 21.4638 15.1299 21.208 15.2042C20.6049 15.3806 19.9927 15.5291 19.3805 15.6683L19.0241 15.7518C18.0556 15.956 17.0596 16.1138 16.0727 16.2252L15.4971 16.2902V16.4109C15.4514 16.4016 15.3966 16.383 15.3509 16.3737C15.1316 16.3273 14.9031 16.3088 14.6747 16.3088C14.5925 16.3088 14.5102 16.3088 14.428 16.3181C13.9437 16.3459 13.5143 16.4666 13.1579 16.6708C13.0117 16.7543 12.8838 16.8471 12.7558 16.9492C12.4817 16.745 12.1893 16.5872 11.8695 16.4944C11.5771 16.4109 11.2756 16.3552 10.9558 16.3459C10.8918 16.3459 10.8278 16.3366 10.773 16.3366C10.3527 16.3366 9.97807 16.4109 9.65826 16.5687C9.38413 16.6986 9.14656 16.875 8.96381 17.0978C8.90899 17.0235 8.85416 16.9492 8.7902 16.8843C8.5709 16.6429 8.32419 16.4294 8.04093 16.2716C7.74853 16.0953 7.42872 15.9839 7.09978 15.9282C6.94444 15.9004 6.79824 15.8911 6.66118 15.8911C6.46016 15.8911 6.26827 15.9189 6.08552 15.9746C5.85709 16.0396 5.63779 16.151 5.45504 16.2902L5.34539 16.1695C5.11696 15.9189 4.86111 15.7054 4.56871 15.5291C4.27631 15.3527 3.94736 15.2135 3.59101 15.1206C3.38084 15.065 3.17982 15.0371 2.98793 15.0371C2.8326 15.0371 2.6864 15.0557 2.54934 15.0928C2.19298 15.1856 1.89144 15.4084 1.69042 15.724C1.49853 16.0117 1.40716 16.3737 1.40716 16.8007C1.40716 17.1999 1.48026 17.5619 1.61732 17.8682C1.64473 17.9331 1.68128 17.9888 1.7087 18.0538L1.33406 18.0074V20.4022L1.53508 20.5971C1.83662 20.8942 2.16557 21.1077 2.50365 21.219C2.80519 21.3211 3.14327 21.3676 3.53618 21.3676C3.91082 21.3676 4.25804 21.3026 4.55957 21.1633C4.86111 21.0241 5.11696 20.8292 5.2997 20.5786C5.50986 20.8199 5.76571 21.0148 6.05811 21.1541C6.23172 21.2376 6.42361 21.3026 6.61549 21.3304H6.59722V22.3329C6.59722 22.5464 6.70687 22.7506 6.88962 22.8527C7.14546 23.0012 7.41045 23.1033 7.73026 23.1033C7.73026 23.1033 16.7124 23.1033 17.2789 23.1033C17.7266 23.1033 17.9733 22.9455 18.1561 22.732C18.2017 22.6856 18.2383 22.6299 18.2657 22.5835C18.2657 22.5742 18.2748 22.5742 18.2748 22.565C18.3571 22.4164 18.3936 22.2494 18.3936 22.0637C18.3936 21.9523 18.3754 21.8409 18.3388 21.7296C18.3479 21.6739 18.3571 21.6089 18.3571 21.5439C18.3571 21.4604 18.3479 21.3768 18.3297 21.3026C18.5216 21.3026 18.8962 21.3026 18.8962 21.3026H19.8648L21.9115 21.2933L23.7299 21.284V19.3905C23.6842 19.3533 23.1999 19.2048 23.1908 19.2048Z" fill="#232D59"/>
<path d="M3.50878 20.857C3.19811 20.857 2.92398 20.8199 2.68641 20.7363C2.44884 20.6528 2.20213 20.5043 1.96455 20.2722C1.96455 19.8174 1.96455 19.3626 1.96455 18.9077C2.20213 18.9356 2.43056 18.9634 2.66814 18.9913C2.69555 19.214 2.72296 19.4461 2.75037 19.6689C2.8052 19.7524 2.90571 19.8267 3.04277 19.8916C3.17983 19.9566 3.33517 19.9937 3.49964 19.9937C3.61843 20.003 3.7098 19.9845 3.79204 19.9566C3.94738 19.8916 4.02961 19.7617 4.02961 19.5668C4.02961 19.4739 4.01134 19.3904 3.97479 19.3162C3.90169 19.1769 3.72808 19.0191 3.44482 18.852C3.12501 18.685 2.86002 18.5086 2.64986 18.3322C2.4397 18.1559 2.2935 17.961 2.19299 17.7382C2.09248 17.5154 2.04679 17.2555 2.04679 16.9492C2.04679 16.6614 2.10162 16.4201 2.2204 16.2438C2.33919 16.0674 2.49452 15.9467 2.70469 15.891C2.91485 15.8353 3.14328 15.8446 3.4174 15.9189C3.71894 16.0024 3.99306 16.1138 4.23064 16.2623C4.46821 16.4108 4.67837 16.5779 4.86112 16.7821C4.86112 17.1348 4.87026 17.4968 4.87026 17.8496C4.64182 17.8124 4.42252 17.7753 4.19409 17.7382C4.15754 17.5247 4.12099 17.3112 4.08444 17.0977C4.02961 17.0513 3.93824 16.9956 3.82859 16.9399C3.71894 16.8842 3.60015 16.8471 3.48137 16.81C3.37172 16.7821 3.28034 16.7821 3.20724 16.7914C3.12501 16.81 3.06104 16.8471 3.01536 16.9028C2.96967 16.9678 2.94226 17.0513 2.94226 17.1534C2.94226 17.2369 2.96053 17.3205 3.00622 17.404C3.05191 17.4876 3.12501 17.5804 3.24379 17.6732C3.36258 17.766 3.4905 17.8681 3.6367 17.961C4.06616 18.193 4.39511 18.4251 4.61441 18.6757C4.84284 18.9263 4.95249 19.2326 4.96163 19.6132C4.96163 19.8731 4.90681 20.0959 4.78802 20.2722C4.66923 20.4579 4.49562 20.5971 4.28546 20.6899C4.04789 20.8013 3.79204 20.857 3.50878 20.857ZM7.02669 20.857C6.7617 20.857 6.52413 20.8106 6.29569 20.6992C6.0764 20.5971 5.88451 20.4393 5.72004 20.2444C5.55556 20.0494 5.42764 19.8081 5.33626 19.5389C5.24489 19.2697 5.1992 18.9727 5.19007 18.6571C5.19007 18.6386 5.19007 18.6107 5.19007 18.5921C5.19007 18.2765 5.22661 17.9981 5.30885 17.7475C5.39109 17.4968 5.51901 17.2926 5.67435 17.1256C5.82968 16.9585 6.02157 16.8471 6.24087 16.7821C6.46017 16.7171 6.69774 16.7171 6.96273 16.7636C7.21857 16.81 7.46528 16.9028 7.68458 17.0327C7.90388 17.1627 8.1049 17.3298 8.27852 17.5154C8.44299 17.7103 8.58005 17.9238 8.67142 18.1559C8.7628 18.3972 8.81762 18.6478 8.81762 18.9077C8.81762 18.9263 8.81762 18.9449 8.81762 18.9634C8.81762 19.2326 8.78107 19.4832 8.6897 19.706C8.59833 19.9288 8.4704 20.133 8.30593 20.3001C8.14145 20.4671 7.94957 20.6064 7.73027 20.6992C7.52011 20.8013 7.28254 20.857 7.02669 20.857ZM7.01755 20.1237C7.20944 20.133 7.37391 20.0773 7.51097 19.9845C7.78509 19.771 7.92216 19.4183 7.91302 18.9077C7.91302 18.8892 7.91302 18.8613 7.91302 18.8428C7.91302 18.6014 7.86733 18.3879 7.79423 18.1837C7.72113 17.9888 7.61148 17.831 7.47442 17.7103C7.33736 17.5897 7.17289 17.5154 6.981 17.4876C6.77084 17.4597 6.60637 17.4876 6.48758 17.5711C6.35966 17.6639 6.26828 17.8032 6.20432 17.9888C6.14036 18.1744 6.11295 18.4065 6.12208 18.6757C6.12208 18.7035 6.12208 18.7221 6.12208 18.7499C6.12208 19.0191 6.15863 19.2605 6.23173 19.4647C6.29569 19.6689 6.39621 19.8267 6.53327 19.9473C6.65205 20.0587 6.81653 20.1144 7.01755 20.1237ZM10.9649 20.857C10.6086 20.857 10.2796 20.792 9.99635 20.6528C9.71309 20.5136 9.48466 20.3093 9.32018 20.0309C9.15571 19.7617 9.07347 19.4275 9.06433 19.0377C9.06433 18.982 9.06433 18.9263 9.06433 18.8706C9.06433 18.5179 9.1283 18.2023 9.28363 17.9424C9.42983 17.6825 9.63999 17.4876 9.92325 17.3576C10.1974 17.2277 10.5263 17.172 10.9192 17.1905C11.1842 17.1998 11.4401 17.2462 11.6868 17.3205C11.9335 17.3947 12.1528 17.5061 12.3629 17.6639C12.3629 17.9702 12.3629 18.2673 12.3629 18.5736C12.1345 18.5736 11.9152 18.5736 11.6868 18.5643C11.6594 18.3879 11.6228 18.2116 11.5954 18.0445C11.568 18.0259 11.5314 18.0074 11.504 17.9888C11.4766 17.9702 11.4401 17.9517 11.4035 17.9424C11.2665 17.8774 11.1203 17.8496 10.9466 17.8403C10.7548 17.831 10.5811 17.8681 10.4349 17.9424C10.2887 18.0259 10.1791 18.1466 10.0969 18.3044C10.0146 18.4622 9.97808 18.6664 9.97808 18.8985C9.97808 18.9541 9.97808 19.0098 9.97808 19.0655C9.97808 19.2883 10.0238 19.4832 10.106 19.6503C10.1882 19.8174 10.307 19.9566 10.4532 20.0494C10.5994 20.1423 10.773 20.1887 10.9649 20.198C11.0654 20.198 11.1751 20.1887 11.2756 20.1701C11.3852 20.1515 11.4858 20.1237 11.5863 20.0866C11.6137 19.9195 11.6502 19.7524 11.6776 19.5853C11.9061 19.5853 12.1254 19.5853 12.3538 19.5853C12.3538 19.8824 12.3538 20.1794 12.3538 20.4764C12.1985 20.5692 12.0066 20.6528 11.7781 20.727C11.5406 20.8199 11.2756 20.857 10.9649 20.857ZM14.4646 20.857C14.1082 20.857 13.7792 20.792 13.496 20.6528C13.2127 20.5136 12.9934 20.3186 12.829 20.068C12.6645 19.8081 12.5822 19.5018 12.5822 19.1305C12.5822 19.0748 12.5822 19.0191 12.5822 18.9727C12.5822 18.6386 12.6553 18.3322 12.8107 18.0723C12.966 17.8124 13.1762 17.6082 13.4594 17.4504C13.7427 17.2926 14.0716 17.2091 14.4554 17.1813C14.7204 17.1627 14.9762 17.1813 15.223 17.2277C15.4605 17.2741 15.689 17.1812 15.89 17.3298C15.89 17.6454 15.8809 18.1559 15.8809 18.4715C15.6616 18.49 15.4331 18.4993 15.2138 18.5086C15.1864 18.3322 15.159 18.1559 15.1224 17.9795C15.095 17.961 15.0585 17.9517 15.0311 17.9331C15.0037 17.9145 14.9671 17.9053 14.9397 17.896C14.8026 17.8496 14.6564 17.831 14.4828 17.831C14.2909 17.8403 14.1173 17.896 13.9711 17.9795C13.8249 18.0723 13.7153 18.2023 13.633 18.3601C13.5508 18.5272 13.5143 18.7221 13.5143 18.9541C13.5143 19.0098 13.5143 19.0655 13.5143 19.1212C13.5143 19.3347 13.5508 19.5296 13.633 19.6874C13.7153 19.8545 13.8249 19.9752 13.9803 20.068C14.1265 20.1608 14.3001 20.2072 14.492 20.198C14.5925 20.198 14.7021 20.1887 14.8026 20.1608C14.9123 20.1423 15.0128 20.1051 15.1133 20.0773C15.1499 19.9102 15.1773 19.7338 15.2138 19.5575C15.4331 19.5482 15.6616 19.5389 15.8809 19.5389C15.8809 19.8452 15.8717 20.1608 15.8717 20.4671C15.7164 20.5692 15.5245 20.6621 15.2869 20.7363C15.0402 20.8199 14.7752 20.857 14.4646 20.857ZM19.1977 19.5575C19.1886 19.9659 19.1886 20.3836 19.1795 20.792C18.1561 20.792 17.1235 20.8013 16.1002 20.8013C16.1002 20.6249 16.1002 20.4486 16.1093 20.2815C16.2372 20.2537 16.3743 20.2258 16.5022 20.1887C16.5113 19.344 16.5205 18.4993 16.5296 17.6454C16.4017 17.6361 16.2646 17.6175 16.1367 17.5989C16.1367 17.4226 16.1367 17.2462 16.1458 17.0699C17.1692 16.9585 18.1835 16.7914 19.1977 16.5779C19.1886 16.9863 19.1886 17.3855 19.1795 17.7939C18.951 17.831 18.7226 17.8588 18.485 17.896C18.4759 17.7567 18.4759 17.6175 18.4667 17.4783C18.1287 17.534 17.7906 17.5804 17.4525 17.6175C17.4525 17.8867 17.4434 18.1466 17.4434 18.4158C17.8454 18.3787 18.2566 18.3322 18.6586 18.2858C18.6586 18.5364 18.6495 18.7871 18.6495 19.047C18.2474 19.0841 17.8363 19.1119 17.4342 19.1398C17.4342 19.4461 17.4251 19.7617 17.4251 20.068C17.7814 20.0587 18.1378 20.0494 18.485 20.0309C18.4942 19.8824 18.5033 19.7338 18.5124 19.5946C18.7409 19.5853 18.9693 19.5668 19.1977 19.5575ZM22.2862 18.6757C22.4141 19.0841 22.542 19.5018 22.6791 19.9381C22.7979 19.9752 22.9167 20.003 23.0355 20.0402C23.0355 20.2815 23.0355 20.5321 23.0355 20.7735C22.67 20.7735 22.2953 20.7735 21.9298 20.7827C21.7745 20.198 21.6192 19.6225 21.473 19.0655C21.2628 19.0841 21.0618 19.1027 20.8516 19.1212C20.8516 19.4275 20.8425 19.7338 20.8425 20.0402C20.9704 20.068 21.1075 20.0959 21.2354 20.1237C21.2354 20.3465 21.2354 20.5692 21.2262 20.7827C20.6597 20.7827 20.0932 20.7827 19.5175 20.792C19.5175 20.5878 19.5267 20.3929 19.5267 20.1887C19.6546 20.1515 19.7917 20.1144 19.9196 20.0773C19.9287 19.0934 19.9379 18.1095 19.9561 17.1256C19.8282 17.1163 19.6912 17.1163 19.5632 17.107C19.5632 16.9028 19.5724 16.6986 19.5724 16.4944C20.1937 16.3551 20.8151 16.1973 21.4273 16.021C21.7288 15.9374 21.9847 15.9189 22.1948 15.9746C22.4141 16.0303 22.5786 16.1695 22.6974 16.3737C22.8162 16.5779 22.871 16.8471 22.871 17.1813C22.871 17.4876 22.807 17.7846 22.6882 18.0631C22.6334 18.1837 22.5786 18.2951 22.5055 18.3972C22.4415 18.5086 22.3684 18.6014 22.2862 18.6757ZM20.8608 17.0327C20.8608 17.4412 20.8516 17.8588 20.8516 18.2673C21.0435 18.2394 21.2262 18.2116 21.4181 18.1837C21.5917 18.1559 21.7288 18.0816 21.8293 17.961C21.9207 17.8403 21.9755 17.6732 21.9755 17.469C21.9755 17.2555 21.9298 17.0977 21.8385 16.9956C21.7471 16.8935 21.61 16.8657 21.4273 16.9028C21.2354 16.9492 21.0435 16.9956 20.8608 17.0327ZM7.69372 22.5835C7.59321 22.5835 7.51097 22.5742 7.43787 22.5556C7.36477 22.5371 7.29167 22.4999 7.21857 22.4535V22.1379H7.43787L7.46528 22.2957C7.48356 22.3143 7.51097 22.3329 7.55666 22.3421C7.60235 22.3514 7.64803 22.3607 7.70286 22.3607C7.73941 22.3607 7.76682 22.3607 7.79423 22.3421C7.83992 22.3236 7.86733 22.2864 7.86733 22.24C7.86733 22.2122 7.85819 22.1936 7.84906 22.1751C7.83078 22.1379 7.77596 22.1008 7.68458 22.073C7.58407 22.0451 7.50183 22.008 7.43787 21.9709C7.37391 21.9337 7.32822 21.8966 7.29167 21.8502C7.26426 21.8038 7.24599 21.7481 7.24599 21.6738C7.24599 21.6088 7.26426 21.5532 7.30081 21.4975C7.33736 21.4511 7.39218 21.4046 7.45615 21.3768C7.52011 21.3489 7.59321 21.3304 7.68458 21.3304C7.78509 21.3304 7.86733 21.3397 7.94043 21.3582C8.01353 21.3768 8.07749 21.4139 8.13232 21.4603V21.7481H7.92216L7.88561 21.5903C7.86733 21.581 7.83992 21.5717 7.80337 21.5624C7.76682 21.5532 7.73027 21.5532 7.69372 21.5532C7.65717 21.5532 7.62976 21.5532 7.60235 21.5624C7.57493 21.5717 7.55666 21.581 7.53838 21.5996C7.52011 21.6181 7.52011 21.6367 7.52011 21.6645C7.52011 21.6831 7.52925 21.7017 7.53838 21.7202C7.54752 21.7388 7.57493 21.7574 7.61148 21.7759C7.64803 21.7945 7.68458 21.8131 7.73027 21.8316C7.86733 21.8687 7.96784 21.9244 8.03181 21.9801C8.1049 22.0358 8.13232 22.1194 8.13232 22.2215C8.13232 22.2957 8.11404 22.3514 8.07749 22.3978C8.04094 22.4442 7.98612 22.4814 7.92216 22.5092C7.85819 22.5742 7.78509 22.5835 7.69372 22.5835ZM8.73539 22.3514V22.5649H8.20542V22.3514L8.3242 22.3236V21.5624L8.20542 21.5346V21.2933L8.78107 21.3582C8.87245 21.3582 8.95469 21.3768 9.02778 21.4046C9.10088 21.4418 9.14657 21.4882 9.19226 21.5439C9.22881 21.5996 9.24708 21.6738 9.24708 21.7481C9.24708 21.8316 9.22881 21.8966 9.19226 21.9523C9.15571 22.008 9.10088 22.0544 9.02778 22.0915C8.95469 22.1287 8.87245 22.1379 8.78107 22.1379H8.6166V22.305L8.73539 22.3514ZM8.78107 21.5903H8.6166V21.943H8.78107C8.8359 21.943 8.88159 21.9244 8.909 21.8966C8.93641 21.8687 8.95468 21.8223 8.95468 21.7759C8.95468 21.7202 8.93641 21.6831 8.909 21.646C8.88159 21.6088 8.8359 21.5903 8.78107 21.5903ZM9.86843 22.5835C9.78619 22.5835 9.71309 22.5649 9.63999 22.5371C9.57603 22.5092 9.51207 22.4628 9.46638 22.4071C9.42069 22.3514 9.37501 22.2864 9.34759 22.2122C9.32018 22.1379 9.31104 22.0544 9.31104 21.9709V21.9523C9.31104 21.8687 9.32018 21.7852 9.34759 21.711C9.37501 21.6367 9.41156 21.5717 9.46638 21.516C9.51207 21.4603 9.57603 21.4139 9.63999 21.3861C9.70395 21.3582 9.78619 21.3397 9.86843 21.3397C9.95066 21.3397 10.0238 21.3582 10.0877 21.3861C10.1608 21.4139 10.2156 21.4603 10.2705 21.516C10.3253 21.5717 10.3618 21.6367 10.3893 21.711C10.4167 21.7852 10.4349 21.8687 10.4349 21.9523V21.9709C10.4349 22.0544 10.4167 22.1379 10.3893 22.2122C10.3618 22.2864 10.3162 22.3514 10.2705 22.4071C10.2156 22.4628 10.1608 22.5092 10.0877 22.5371C10.0238 22.5742 9.95066 22.5835 9.86843 22.5835ZM9.86843 22.37C9.92325 22.37 9.97808 22.3514 10.0238 22.3236C10.106 22.2586 10.1517 22.1472 10.1517 21.9801V21.9616C10.1517 21.8873 10.1426 21.8223 10.1151 21.7574C10.0969 21.7017 10.0603 21.6553 10.0146 21.6181C9.96894 21.5903 9.92325 21.5717 9.85929 21.5717C9.79533 21.5717 9.7405 21.5903 9.70395 21.6181C9.6674 21.646 9.63085 21.6924 9.61258 21.7481C9.5943 21.8038 9.58517 21.878 9.58517 21.9523V21.9709C9.58517 22.0451 9.5943 22.1194 9.61258 22.1751C9.63085 22.2308 9.65827 22.2772 9.70395 22.3143C9.75878 22.3514 9.8136 22.37 9.86843 22.37ZM11.3761 22.0637L11.4949 22.2957L11.6045 22.3236V22.5649H11.2573L11.1111 22.1287H10.9192V22.3236L11.038 22.3514V22.5649H10.508V22.3329L10.6268 22.305V21.5532L10.508 21.5253V21.3118L11.0928 21.3582C11.1842 21.3582 11.2665 21.3768 11.3396 21.4046C11.4127 21.4325 11.4583 21.4789 11.4949 21.5346C11.5314 21.5903 11.5497 21.6553 11.5497 21.7295C11.5497 21.8038 11.5314 21.8687 11.4949 21.9244C11.4766 21.9523 11.4583 21.9709 11.4401 21.9987C11.4218 22.0265 11.3944 22.0544 11.3761 22.0637ZM10.9192 21.5903V21.9152H11.0928C11.1477 21.9152 11.1934 21.9059 11.2208 21.878C11.2482 21.8502 11.2665 21.8131 11.2665 21.7666C11.2665 21.7202 11.2482 21.6738 11.2208 21.646C11.1934 21.6181 11.1477 21.5996 11.0928 21.5996H10.9192V21.5903ZM12.4269 22.3329V22.5742H11.8969V22.3329L12.0157 22.305V21.5996H11.833L11.8238 21.7295H11.6045V21.3768H12.701V21.7295H12.4817L12.4726 21.5996H12.2898V22.305L12.4269 22.3329ZM13.898 22.5835C13.7884 22.5835 13.6879 22.5649 13.5965 22.5185C13.5051 22.4721 13.4412 22.4071 13.3863 22.3143C13.3315 22.2308 13.3132 22.1194 13.3132 21.9987V21.943C13.3132 21.8316 13.3406 21.7295 13.3863 21.6367C13.432 21.5439 13.496 21.4789 13.5874 21.4325C13.6696 21.3861 13.7701 21.3582 13.8889 21.3582C13.9711 21.3582 14.0534 21.3675 14.1265 21.3954C14.1996 21.4139 14.2727 21.4511 14.3366 21.5067V21.8131H14.1265L14.0991 21.6367C14.0899 21.6274 14.0808 21.6274 14.0716 21.6181C14.0625 21.6088 14.0534 21.6088 14.0442 21.5996C14.0077 21.581 13.9529 21.5717 13.9072 21.5717C13.8432 21.5717 13.7975 21.5903 13.7518 21.6181C13.7061 21.646 13.6696 21.6924 13.6513 21.7481C13.6239 21.8038 13.6148 21.8687 13.6148 21.9523V22.008C13.6148 22.0822 13.6239 22.1472 13.6513 22.2029C13.6787 22.2586 13.7153 22.305 13.761 22.3329C13.8067 22.3607 13.8615 22.3793 13.9163 22.3793C13.9437 22.3793 13.9803 22.3793 14.0168 22.37C14.0534 22.3607 14.0808 22.3514 14.1082 22.3421L14.1356 22.1751H14.3458V22.4814C14.3001 22.5185 14.2361 22.5463 14.163 22.5649C14.0808 22.5742 13.9985 22.5835 13.898 22.5835ZM15.3235 22.1843V22.5742H14.4097V22.3607L14.5285 22.3793V21.5717L14.4097 21.5439V21.3025H14.9671V21.5439L14.8209 21.5717V22.3514H15.1042L15.1133 22.1843H15.3235ZM15.9814 22.5835C15.8809 22.5835 15.7895 22.5649 15.7164 22.5371C15.6433 22.4999 15.5793 22.4535 15.5428 22.3886C15.4971 22.3236 15.4788 22.2493 15.4788 22.1565V21.5717L15.36 21.5439V21.3025H15.89V21.5439L15.7712 21.5717V22.1565C15.7712 22.2029 15.7803 22.2493 15.7986 22.2772C15.8352 22.3421 15.8991 22.37 15.9905 22.37C16.0362 22.37 16.0819 22.3607 16.1093 22.3514C16.1733 22.3236 16.2098 22.2586 16.2098 22.1565V21.5717L16.091 21.5439V21.3025H16.621V21.5439L16.5022 21.5717V22.1565C16.5022 22.2493 16.4839 22.3236 16.4382 22.3886C16.3925 22.4535 16.3377 22.4999 16.2646 22.5371C16.1733 22.5742 16.0819 22.5835 15.9814 22.5835ZM17.2515 22.5742H16.6575V22.3421L16.7763 22.3793V21.5717L16.6575 21.5439V21.2933L17.1875 21.3768C17.3337 21.3768 17.4525 21.4046 17.5347 21.4603C17.617 21.516 17.6627 21.5996 17.6627 21.711C17.6627 21.7666 17.6535 21.8223 17.6261 21.8595C17.5987 21.9059 17.5621 21.9337 17.5073 21.9616C17.553 21.9709 17.5896 21.9894 17.6261 22.0173C17.6535 22.0451 17.6809 22.073 17.6901 22.1101C17.7083 22.1472 17.7083 22.1843 17.7083 22.2215C17.7083 22.3421 17.6718 22.4257 17.5896 22.4907C17.5073 22.5371 17.3977 22.5742 17.2515 22.5742ZM17.1875 21.5903H17.0596V21.8688H17.1784C17.3154 21.8688 17.3794 21.8223 17.3794 21.7388C17.3794 21.6924 17.3611 21.6553 17.3337 21.6274C17.2972 21.5996 17.2515 21.5903 17.1875 21.5903ZM17.2606 22.0637H17.0596V22.3514H17.2515C17.3611 22.3514 17.4251 22.305 17.4251 22.2122C17.4251 22.1751 17.4159 22.1472 17.4068 22.1287C17.3794 22.0822 17.3337 22.0637 17.2606 22.0637Z" fill="#DEB28D"/>
<path d="M12.5 26.0551L13.0574 26.3521L12.9477 25.7209L13.3955 25.2754L12.7741 25.1825L12.5 24.6071L12.2167 25.1825L11.5954 25.2754L12.0523 25.7209L11.9426 26.3521L12.5 26.0551Z" fill="#FF893B"/>
<path d="M10.5263 25.5445L10.974 25.7859L10.8827 25.2754L11.2482 24.9226L10.7456 24.8484L10.5263 24.3843L10.2979 24.8484L9.80446 24.9226L10.1608 25.2754L10.0786 25.7859L10.5263 25.5445Z" fill="#FF893B"/>
<path d="M14.4737 25.5445L14.9214 25.7859L14.83 25.2754L15.1955 24.9226L14.693 24.8484L14.4737 24.3843L14.2453 24.8484L13.7518 24.9226L14.1082 25.2754L14.026 25.7859L14.4737 25.5445Z" fill="#FF893B"/>
</svg>
