<svg width="26" height="30" viewBox="0 0 26 30" fill="none" xmlns="http://www.w3.org/2000/svg">
<g clip-path="url(#clip0_230_73)">
<path d="M12.4867 28.275C12.4115 28.2001 9.85398 27.225 7.0708 24.6751C4.51327 22.35 1.20354 18.15 0.0752212 11.775L0 11.475L0.225664 11.25C0.300885 11.175 1.35398 9.90005 3.46018 8.55005C5.41593 7.35005 8.57522 5.92505 12.7124 5.92505H12.7876C20.2345 5.92505 25.0487 10.875 25.2743 11.1L25.5 11.325L25.4248 11.7C24.4469 18.075 21.0619 22.2751 18.5044 24.6751C15.646 27.225 13.0885 28.275 13.0133 28.35L12.7876 28.4251L12.4867 28.275Z" fill="#DD2A49"/>
<path d="M24.7478 11.55C24.7478 11.55 20.0088 6.52495 12.7124 6.59995C4.9646 6.67495 0.752213 11.7 0.752213 11.7C2.78319 23.625 12.7124 27.675 12.7124 27.675C12.7124 27.675 22.8673 23.55 24.7478 11.55Z" fill="#0A1633"/>
<path d="M22.0398 19.725C22.115 19.35 22.2655 17.625 21.8142 15.15L22.3407 15.375C22.3407 15.375 21.8894 11.475 21.2876 10.35C22.1903 3.75 20.4602 1.2 20.4602 1.2L19.7832 0.15L19.1814 1.35C18.8805 2.175 17 3.6 16.0221 4.35C15.9469 4.425 15.7965 4.5 15.7212 4.65C15.4956 4.8 15.2699 5.025 15.1195 5.25L15.0442 4.875L14.292 5.325L14.5929 3.975L13.2389 4.8C12.938 4.95 12.6372 5.175 12.4115 5.4L11.4336 5.625C11.2832 5.7 11.0575 5.7 10.9071 5.775C10.6062 5.4 10.3053 5.025 9.85398 4.65C9.70353 4.575 9.62831 4.5 9.47787 4.35C8.49999 3.6 6.61946 2.1 6.31858 1.35L5.79203 0L5.03982 1.2C5.03982 1.275 3.38495 4.125 4.21238 10.275C4.06194 10.8 3.15929 15.3 3.15929 15.3L3.53539 15.225C3.08407 17.7 3.53539 21.9 3.53539 21.9L3.98672 21.225C4.13716 21.975 5.49115 25.65 5.49115 25.725L5.3407 22.5C5.79203 24.45 8.27433 27.75 8.34955 27.825L7.97345 25.725C8.27433 26.175 8.65044 26.625 9.10176 27.075C10.0044 27.9 11.2832 28.95 11.9602 29.4L12.7876 30L13.1637 29.7C13.2389 29.625 14.969 28.2 16.1726 27.075C16.6239 26.625 17 26.175 17.3761 25.725L17.3009 27.6C17.3761 27.525 19.4823 24.45 20.0088 22.425V25.125C20.0088 25.05 21.2876 21.75 21.438 20.85L22.2655 22.2L22.0398 19.725Z" fill="white"/>
<path d="M17.4513 8.84993C17.3761 8.69993 19.708 11.9999 19.708 11.9999L20.0841 13.3499L20.5354 16.4249C20.5354 16.4249 21.1372 18.5999 18.5796 21.3749C16.0221 24.1499 15.0442 24.9749 15.0442 24.9749L12.7124 27.8999L12.9381 10.4999L17.4513 8.84993Z" fill="#0D4D8C"/>
<path d="M7.52212 8.84993C7.59735 8.69993 5.26549 11.9999 5.26549 11.9999L4.88938 13.3499L4.51328 16.4249C4.51328 16.4249 4.88938 18.1499 6.16814 20.4749C8.04867 23.6999 9.9292 24.9749 9.9292 24.9749L12.7876 27.8999L13.8407 9.67493L7.52212 8.84993Z" fill="#0D4D8C"/>
<path d="M12.938 20.625L12.1858 21.975C12.1858 21.975 10.9823 22.05 10.4557 20.775C9.92919 19.575 10.2301 18.075 10.2301 18.075C10.2301 18.075 8.8761 18.15 8.42477 18.825C8.42477 18.825 7.97344 16.725 8.34955 16.125C8.34955 16.125 7.59734 16.5 7.07079 17.1C7.07079 17.1 6.61946 15.75 7.07079 14.775C7.07079 14.775 7.52211 13.2 6.84512 12.45C6.84512 12.45 8.04866 12.9 9.40264 13.575C10.7566 14.325 11.5841 15.975 11.5841 15.975C11.5841 15.975 12.3363 15.675 12.2611 14.925C12.2611 14.925 11.9602 15.225 11.7345 15.15C11.7345 15.15 11.5088 14.1 11.0575 13.125C10.531 11.925 9.70353 10.8 9.70353 10.35L12.6372 11.55L12.8628 15.825L12.938 20.625Z" fill="#1795D2"/>
<path d="M12.6372 20.625L13.3894 21.975C13.3894 21.975 14.5929 22.05 15.1195 20.775C15.646 19.575 15.3451 18.075 15.3451 18.075C15.3451 18.075 16.6991 18.15 17.1504 18.825C17.1504 18.825 17.6018 16.725 17.2257 16.125C17.2257 16.125 17.9779 16.5 18.5044 17.1C18.5044 17.1 18.9557 15.75 18.5044 14.775C18.5044 14.775 18.0531 13.2 18.7301 12.45C18.7301 12.45 17.5265 12.9 16.1726 13.575C14.8186 14.325 13.9159 15.975 13.9159 15.975C13.9159 15.975 13.2389 15.675 13.3142 14.925C13.3142 14.925 13.615 15.225 13.8407 15.15C13.8407 15.15 14.0664 14.1 14.5177 13.125C15.0442 11.925 15.8717 10.8 15.8717 10.35L12.938 11.55L12.7124 15.825L12.6372 20.625Z" fill="#1795D2"/>
<path d="M13.9911 16.2C13.9911 16.2 14.8938 16.35 15.7212 16.275L15.4204 16.05C15.4204 16.05 17.677 15.75 17.8274 14.025C17.8274 14.025 17.6018 14.625 16.6991 14.85C15.7965 15.075 14.8186 15.225 14.8186 15.225L13.9911 16.2Z" fill="white"/>
<path d="M11.5088 16.2C11.5088 16.2 10.6062 16.35 9.77876 16.275L10.0796 16.05C10.0796 16.05 7.823 15.75 7.67256 14.025C7.67256 14.025 7.89823 14.625 8.80088 14.85C9.70354 15.075 10.6814 15.225 10.6814 15.225L11.5088 16.2Z" fill="white"/>
<path d="M13.9911 16.2C13.9911 16.2 14.8938 15.75 15.2699 15.45C15.2699 15.45 15.8717 15.6 16.5487 15.375C17.2257 15.15 17.677 14.625 17.7522 14.025C17.7522 14.025 17.6018 14.175 17.3009 14.25C17.3009 14.25 17.3009 13.8 17.6018 13.5C18.2035 12.825 18.6549 12.675 18.6549 12.675L18.8053 12C18.8053 12 17.6018 12.15 16.2478 13.05C15.2699 13.575 14.6681 14.55 13.9911 16.2Z" fill="#0A1633"/>
<path d="M16.9248 13.35C16.9248 13.35 16.5487 13.5 16.2478 13.725C16.1726 13.65 16.0973 13.65 15.9469 13.65C15.5708 13.65 15.0442 14.4 15.0442 14.7C15.0442 14.7 15.4203 15 15.8717 15C16.5487 14.925 16.6239 14.325 16.6239 14.025C16.5487 14.025 16.7743 13.725 16.9248 13.35Z" fill="white"/>
<path d="M16.3982 14.175C16.3982 14.475 16.1726 14.7 15.8717 14.7C15.5708 14.7 15.3451 14.475 15.3451 14.175C15.3451 13.875 15.5708 13.65 15.8717 13.65C16.1726 13.65 16.3982 13.875 16.3982 14.175Z" fill="#00ADEE"/>
<path d="M16.2478 14.025C16.2478 14.1 16.1726 14.175 16.0973 14.175C16.0221 14.175 15.9469 14.1 15.9469 14.025C15.9469 13.95 16.0221 13.875 16.0973 13.875C16.1726 13.875 16.2478 13.95 16.2478 14.025Z" fill="#00ADEE"/>
<path d="M14.8186 15.3C14.8186 15.3 15.7964 14.4 17.3009 13.275L16.0973 13.35C16.0973 13.35 14.969 13.725 14.8186 15.3Z" fill="#0A1633"/>
<path d="M12.7124 18.6C11.7345 18.6 10.7566 18.975 10.531 19.575C10.3053 20.1 10.6814 21 11.2832 21.675C11.9602 22.35 13.5398 22.275 14.1416 21.675C14.7434 21.075 15.1195 20.1 14.8938 19.575C14.6681 18.975 13.7655 18.6 12.7124 18.6Z" fill="#0A1633"/>
<path d="M11.5841 19.65H14.1416C14.0664 19.65 12.6372 18.75 11.5841 19.65Z" fill="white"/>
<path d="M15.9469 16.1999C15.9469 16.1999 17.8274 15.7499 18.4292 14.7749C18.5044 14.7749 18.5044 16.7249 15.9469 16.1999Z" fill="#0A1633"/>
<path d="M9.62831 16.1999C9.62831 16.1999 7.74778 15.7499 7.14601 14.7749C7.07079 14.7749 7.07079 16.7249 9.62831 16.1999Z" fill="#0A1633"/>
<path d="M10.9823 18.2249C10.9823 18.2249 12.4867 15.9749 14.3673 18.0749C14.3673 18.0749 12.6372 17.5499 10.9823 18.2249Z" fill="#0A1633"/>
<path d="M12.6372 23.775C11.6593 23.775 11.2832 23.475 11.2832 23.475C11.208 23.7 11.3584 24.225 11.8097 24.525C12.3363 24.9 13.2389 24.825 13.6903 24.525C14.1416 24.225 14.292 23.7 14.2168 23.475C14.1416 23.475 13.5398 23.775 12.6372 23.775Z" fill="#0A1633"/>
<path d="M11.5088 16.1999C11.5088 16.1999 10.6062 15.7499 10.2301 15.4499C10.2301 15.4499 9.62831 15.5999 8.95132 15.3749C8.27433 15.1499 7.823 14.6249 7.74778 14.0249C7.74778 14.0249 7.89822 14.1749 8.19911 14.2499C8.19911 14.2499 8.19911 13.7999 7.89822 13.4999C7.22123 12.7499 6.7699 12.5999 6.7699 12.5999L6.61946 11.9249C6.61946 11.9249 7.823 12.0749 9.17698 12.9749C10.2301 13.5749 10.8319 14.5499 11.5088 16.1999Z" fill="#0A1633"/>
<path d="M8.57521 13.35C8.57521 13.35 8.95132 13.5 9.2522 13.725C9.32742 13.65 9.40264 13.65 9.55309 13.65C9.92919 13.65 10.4557 14.4 10.4557 14.7C10.4557 14.7 10.0796 15 9.62831 15C8.95132 14.925 8.8761 14.325 8.8761 14.025C8.95132 14.025 8.80087 13.725 8.57521 13.35Z" fill="white"/>
<path d="M9.10176 14.1749C9.10176 14.4749 9.32742 14.6999 9.62831 14.6999C9.92919 14.6999 10.1549 14.4749 10.1549 14.1749C10.1549 13.8749 9.92919 13.6499 9.62831 13.6499C9.32742 13.6499 9.10176 13.8749 9.10176 14.1749Z" fill="#00ADEE"/>
<path d="M9.2522 14.0249C9.2522 14.0999 9.32742 14.1749 9.40264 14.1749C9.47786 14.1749 9.55308 14.0999 9.55308 14.0249C9.55308 13.9499 9.47786 13.8749 9.40264 13.8749C9.32742 13.8749 9.2522 13.9499 9.2522 14.0249Z" fill="#00ADEE"/>
<path d="M10.6814 15.2999C10.6814 15.2999 9.70354 14.3999 8.19911 13.2749L9.40265 13.3499C9.40265 13.3499 10.531 13.7249 10.6814 15.2999Z" fill="#0A1633"/>
<path d="M14.5929 8.32495C14.5929 8.32495 14.4425 6.52495 16.1726 5.17495C17.3009 4.27495 19.4823 2.62495 19.9336 1.57495C19.9336 1.57495 21.5885 4.27495 20.6858 10.425C20.6858 10.425 21.3628 12.075 21.438 13.8C21.438 13.8 20.7611 13.2 19.8584 12.75C19.8584 12.675 17.6018 9.14995 14.5929 8.32495Z" fill="#0A1633"/>
<path d="M18.8053 9.37495C17.677 8.09995 15.646 8.32495 13.5398 8.69995L12.7124 7.94995L11.5088 8.77495C9.40264 8.32495 7.82299 8.09995 6.69468 9.29995C5.56636 10.65 5.86724 12 5.86724 12C6.39379 11.85 7.74777 12.15 7.74777 12.15C6.99556 11.625 7.29645 10.35 7.29645 10.35C7.59733 11.4 9.85397 12.075 9.85397 12.075C9.2522 11.175 9.70353 10.575 9.70353 10.575C9.70353 10.575 10.3053 11.55 11.5841 12.525C12.0354 12.825 12.7876 16.05 12.7876 16.05C13.0133 15.675 13.615 12.825 14.0664 12.525C15.3451 11.55 15.9469 10.575 15.9469 10.575C15.9469 10.575 16.3982 11.175 15.7964 12.075C15.7964 12.075 18.0531 11.475 18.354 10.35C18.354 10.35 18.6549 11.625 17.9026 12.15C17.9026 12.15 19.2566 11.85 19.7832 12C19.6327 12 19.9336 10.65 18.8053 9.37495Z" fill="#0A1633"/>
<path d="M16.7743 5.99998C16.7743 5.99998 19.2566 4.94998 19.6327 3.22498C19.6327 3.22498 19.9336 4.79998 18.7301 5.92498C18.7301 5.92498 19.1814 6.07498 19.4823 5.92498C19.4823 5.92498 19.2566 6.89998 18.5796 7.12498C18.5796 7.12498 18.8805 7.19998 19.3318 7.12498L18.9557 7.64998C18.9557 7.64998 19.7832 8.62498 20.1593 9.67498C20.1593 9.67498 19.5575 8.24998 17.3761 6.97498C17.3761 6.97498 18.0531 6.82498 18.4292 6.52498C18.354 6.52498 17.2256 6.37498 16.7743 5.99998Z" fill="#0D4D8C"/>
<path d="M9.32743 8.47495L10.6814 6.59995C10.4557 6.14995 10.0796 5.62495 9.47787 5.17495C8.34956 4.27495 6.16814 2.62495 5.71681 1.57495C5.71681 1.57495 4.06194 4.27495 4.9646 10.425C4.9646 10.425 4.28761 12.075 4.21239 13.8C4.21239 13.8 4.88938 13.2 5.79203 12.75C5.79203 12.675 6.24336 9.22495 9.32743 8.47495Z" fill="#0A1633"/>
<path d="M8.87611 5.99998C8.87611 5.99998 6.3938 4.94998 6.0177 3.22498C6.0177 3.22498 5.71681 4.79998 6.92035 5.92498C6.92035 5.92498 6.46903 6.07498 6.16814 5.92498C6.16814 5.92498 6.3938 6.89998 7.0708 7.12498C7.0708 7.12498 6.76991 7.19998 6.31858 7.12498L6.69469 7.64998C6.69469 7.64998 5.86726 8.62498 5.49115 9.67498C5.49115 9.67498 6.09292 8.24998 8.27434 6.97498C8.27434 6.97498 7.59734 6.82498 7.22124 6.52498C7.29646 6.52498 8.42478 6.37498 8.87611 5.99998Z" fill="#0D4D8C"/>
<path d="M9.40265 9.15L6.69469 9.375C6.69469 9.375 7.82301 7.275 11.5841 6.225C11.5841 6.225 11.0575 7.05 11.0575 7.95C11.0575 7.95 12.1106 6.075 13.5398 5.25C13.5398 5.25 13.0133 7.425 13.4646 8.1C13.4646 8.1 13.615 6.3 14.5929 5.775L14.969 7.275C14.969 7.275 17.4513 7.275 19.1062 9.675L9.40265 9.15Z" fill="#0A1633"/>
<path d="M18.7301 12.5999C18.7301 12.5999 20.1593 12.6749 20.3849 17.6249L21.438 19.6499C21.438 19.6499 22.1902 14.8499 19.1062 9.67493L18.7301 12.5999Z" fill="#0A1633"/>
<path d="M6.7699 12.5999C6.7699 12.5999 5.3407 12.6749 5.11504 17.6249L4.06194 19.6499C4.06194 19.6499 3.30973 14.8499 6.3938 9.67493L6.7699 12.5999Z" fill="#0A1633"/>
<path d="M12.6372 22.125C11.5088 22.125 10.531 21.6 10.1549 20.85C10.1549 20.925 10.1549 20.925 10.1549 21C10.1549 22.2 11.2832 23.175 12.6372 23.175C14.0664 23.175 15.1195 22.2 15.1195 21C15.1195 20.925 15.1195 20.925 15.1195 20.85C14.8186 21.6 13.8407 22.125 12.6372 22.125Z" fill="#0A1633"/>
<path d="M21.438 19.6499C21.438 19.6499 21.438 17.1749 20.6106 16.4249C20.6106 16.4249 20.6858 17.2499 20.5354 17.6249C20.5354 17.6249 19.8584 17.1749 19.1814 16.8749C19.1814 16.8749 19.7832 17.3999 19.708 18.5999C19.708 18.5999 19.031 18.3749 18.2788 18.1499C18.2788 18.1499 18.7301 19.9499 18.354 21.0749C18.354 21.0749 17.5265 20.2499 16.6991 20.0249C16.6991 20.0249 17.0752 21.8999 16.0221 23.3999C14.969 24.8249 12.7876 26.0249 12.7876 26.0249C12.7876 26.0249 10.6062 24.8249 9.55309 23.3999C8.42477 21.8999 8.8761 20.0249 8.8761 20.0249C7.97345 20.2499 7.22123 21.0749 7.22123 21.0749C6.84513 19.9499 7.29645 18.1499 7.29645 18.1499C6.46902 18.2999 5.86725 18.5999 5.86725 18.5999C5.79203 17.3999 6.3938 16.8749 6.3938 16.8749C5.64159 17.0999 5.03982 17.6249 5.03982 17.6249C4.88938 17.2499 4.9646 16.4249 4.9646 16.4249C4.13716 17.2499 4.36283 19.6499 4.36283 19.6499C4.66371 19.1249 5.19026 18.4499 5.19026 18.4499C4.43805 20.0249 5.26548 22.2749 5.26548 22.2749C5.3407 21.5249 6.16814 20.9249 6.16814 20.9249C6.16814 23.3249 7.97345 25.6499 7.97345 25.6499C7.59734 24.1499 7.823 23.3999 7.823 23.3999C7.823 23.3999 8.49999 25.1249 9.9292 26.5499C11.1327 27.6749 13.0885 29.0999 13.0885 29.0999C13.0885 29.0999 14.8938 27.6749 16.0221 26.5499C17.4513 25.1249 18.2035 23.3999 18.2035 23.3999C18.2035 23.3999 18.354 24.1499 17.9026 25.6499C17.9026 25.6499 19.708 23.3249 19.708 20.9249C19.708 20.9249 20.5354 21.5999 20.6106 22.2749C20.6106 22.2749 21.438 20.0249 20.6858 18.4499C20.3849 18.4499 21.1372 19.0499 21.438 19.6499Z" fill="#0A1633"/>
<path d="M14.292 26.325L12.6372 26.1C12.6372 26.1 14.8938 25.05 15.2699 23.1C15.3451 23.1 15.4956 24.975 14.292 26.325Z" fill="#0A1633"/>
<path d="M10.9823 26.325L12.6372 26.1C12.6372 26.1 10.3805 25.05 10.0044 23.1C10.0044 23.1 9.85398 24.975 10.9823 26.325Z" fill="#0A1633"/>
<path d="M17.3009 6.975C17.3761 6.975 17.3761 6.975 17.3009 6.975C18.8053 6.9 19.031 6.225 19.031 6.225C18.5796 6.3 17.8274 5.85 17.8274 5.85C18.9557 5.25 19.4071 3.9 19.5575 3.375C19.1062 5.025 16.7743 6 16.7743 6C17.1504 6.375 18.354 6.525 18.354 6.525C18.0531 6.825 17.5265 6.975 17.3009 6.975Z" fill="#1795D2"/>
<path d="M8.27433 6.97495C8.27433 6.97495 8.19911 6.97495 8.27433 6.97495C6.76991 6.89995 6.54424 6.22495 6.54424 6.22495C6.99557 6.29995 7.74778 5.84995 7.74778 5.84995C6.61947 5.24995 6.09292 3.89995 5.94247 3.44995C6.46902 5.02495 8.80088 5.99995 8.80088 5.99995C8.42477 6.37495 7.22124 6.52495 7.22124 6.52495C7.59734 6.82495 8.12389 6.97495 8.27433 6.97495Z" fill="#1795D2"/>
<path d="M19.7078 3.22498C19.7078 3.29998 19.7078 3.29998 19.6328 3.37498C19.7078 3.29998 19.7078 3.22498 19.7078 3.22498Z" fill="#1795D2"/>
</g>
<defs>
<clipPath id="clip0_230_73">
<rect width="25.5" height="30" fill="white"/>
</clipPath>
</defs>
</svg>
