<svg width="29" height="30" viewBox="0 0 29 30" fill="none" xmlns="http://www.w3.org/2000/svg">
<path d="M14.5373 30C13.419 30 10.2134 27.45 8.42415 25.8C4.1748 21.9 3.50385 19.725 3.50385 18.75V2.55L3.7275 2.4C3.8766 2.325 7.23135 0 14.5373 0C21.8432 0 25.1234 2.325 25.2725 2.4L25.4961 2.55V18.75C25.4961 19.725 24.8252 21.9 20.5758 25.8C18.7866 27.45 15.581 30 14.5373 30Z" fill="#292929"/>
<path d="M4.69666 3.45005V18.75C4.69666 19.95 6.33676 22.2 9.09511 24.75C11.7789 27.15 14.0154 28.575 14.4627 28.65C14.91 28.575 17.2211 27.15 19.8303 24.75C22.5887 22.2 24.2288 19.95 24.2288 18.75V3.45005C23.3342 3.00005 20.2031 1.42505 14.4627 1.42505C8.72236 1.42505 5.59126 2.92505 4.69666 3.45005Z" fill="white"/>
<path d="M5.36761 4.19995V18.375C5.36761 19.5 6.93317 21.6 9.46787 23.9249C11.928 26.1749 14.09 27.525 14.4627 27.6C14.91 27.525 16.9974 26.1749 19.4576 23.9249C22.0668 21.6 23.5578 19.5 23.5578 18.375V4.19995C22.7378 3.74995 19.8303 2.32495 14.4627 2.32495C9.09512 2.32495 6.18767 3.74995 5.36761 4.19995Z" fill="#292929"/>
<path d="M5.88947 4.64998V18.225C5.88947 19.275 7.30592 21.3 9.76607 23.55C12.0771 25.725 14.09 26.925 14.4627 27C14.8355 26.925 16.8483 25.65 19.1594 23.55C21.6195 21.3 23.036 19.35 23.036 18.225V4.64998C22.2905 4.19998 19.5321 2.84998 14.4627 2.84998C9.39332 2.92498 6.70952 4.27498 5.88947 4.64998Z" fill="#E86A23"/>
<path d="M14.5373 23.775L14.6864 24.45H15.4319L14.8355 24.825L15.0591 25.5L14.5373 25.125L13.9409 25.5L14.1645 24.825L13.5681 24.45H14.3136L14.5373 23.775Z" fill="white"/>
<path d="M12.3753 23.25L12.5244 23.7H13.0463L12.6735 24L12.8226 24.525L12.3753 24.225L12.0026 24.525L12.1517 24L11.7789 23.7H12.2262L12.3753 23.25Z" fill="white"/>
<path d="M16.6247 23.25L16.7738 23.7H17.2956L16.8483 24L16.9974 24.525L16.6247 24.225L16.1774 24.525L16.3265 24L15.9537 23.7H16.4756L16.6247 23.25Z" fill="white"/>
<path d="M14.5372 11.175L5.81488 5.40002V6.75002L14.5372 12.6L23.1851 6.75002V5.40002L14.5372 11.175Z" fill="#292929"/>
<path d="M5.81488 7.65002V9.07502L14.5372 14.85L23.1851 9.07502V7.65002L14.5372 13.425L5.81488 7.65002Z" fill="#292929"/>
<path d="M5.81488 9.90002V11.325L14.5372 17.1L23.1851 11.325V9.90002L14.5372 15.75L5.81488 9.90002Z" fill="#292929"/>
<path d="M5.81488 12.225V13.575L14.5372 19.425L23.1851 13.575V12.225L14.5372 18L5.81488 12.225Z" fill="#292929"/>
<path d="M14.5373 20.775C18.284 20.775 21.3214 17.7193 21.3214 13.95C21.3214 10.1807 18.284 7.125 14.5373 7.125C10.7906 7.125 7.75323 10.1807 7.75323 13.95C7.75323 17.7193 10.7906 20.775 14.5373 20.775Z" fill="#E86A23"/>
<path d="M14.5373 20.025C17.8723 20.025 20.5758 17.3051 20.5758 13.95C20.5758 10.5949 17.8723 7.875 14.5373 7.875C11.2023 7.875 8.49872 10.5949 8.49872 13.95C8.49872 17.3051 11.2023 20.025 14.5373 20.025Z" fill="#292929"/>
<path d="M16.9533 18.9214C19.6893 17.5728 20.8205 14.2481 19.48 11.4955C18.1394 8.743 14.8346 7.60495 12.0986 8.95363C9.36258 10.3023 8.23135 13.627 9.57194 16.3795C10.9125 19.1321 14.2173 20.2701 16.9533 18.9214Z" fill="white"/>
<path d="M15.5064 13.275L13.1208 14.775V14.7L15.4318 13.275H15.5064Z" fill="#292929"/>
<path d="M15.581 11.175C15.581 11.25 15.2828 10.95 14.8355 10.725C14.3881 10.425 13.7917 10.2 13.2699 10.05V9.97498C14.4627 10.2 15.581 11.175 15.581 11.175Z" fill="#292929"/>
<path d="M11.48 11.025C11.2569 11.775 11.2569 12.45 11.2569 12.975C11.2569 13.5 11.3313 13.8 11.3313 13.8H11.2569C11.3313 13.875 11.0339 12.525 11.48 11.025Z" fill="#292929"/>
<path d="M17.4443 14.475C17.6674 15.6 17.37 16.875 17.37 16.875H17.2956C17.2956 16.875 17.37 16.575 17.4443 16.125C17.5187 15.6 17.5187 15 17.4443 14.475C17.37 14.4 17.37 14.325 17.2956 14.25H17.37C17.37 14.25 17.4443 14.4 17.4443 14.475Z" fill="#292929"/>
<path d="M14.6118 17.6999C15.0591 17.9249 15.5064 17.9999 15.5064 17.9999V18.0749C15.5064 18.0749 13.9408 17.6999 13.1208 16.7999C13.4935 17.1749 14.0899 17.4749 14.6118 17.6999Z" fill="#292929"/>
<path d="M17.5189 9.525C17.6676 10.275 17.4445 10.95 17.4445 10.95H17.3702C17.3702 10.95 17.4445 10.8 17.4445 10.5C17.5189 10.275 17.5189 9.9 17.5189 9.525C17.4445 9.45 17.4445 9.45 17.4445 9.375H17.5189C17.4445 9.45 17.5189 9.525 17.5189 9.525Z" fill="#292929"/>
<path d="M9.98969 15.0749C10.2133 15.1499 10.3624 15.2249 10.3624 15.2249V15.2999C10.3624 15.2999 9.69149 15.2249 9.09509 14.5499C9.46784 14.7749 9.76604 14.9249 9.98969 15.0749Z" fill="#292929"/>
<path d="M11.3316 17.025C11.3316 17.025 11.2572 17.55 11.4059 18.3C11.4059 18.375 11.4803 18.45 11.4803 18.525C11.4803 18.45 11.4059 18.375 11.4059 18.3C11.2572 17.55 11.3316 17.025 11.3316 17.025Z" fill="#292929"/>
<path d="M19.8303 13.5C19.6812 13.425 19.383 13.275 19.0848 13.125C18.7866 12.975 18.563 12.9 18.563 12.9V12.825C18.563 12.825 19.6067 13.275 19.8303 13.5Z" fill="#292929"/>
<path d="M19.9048 15.075C19.383 16.725 18.3393 17.4 18.3393 17.4C18.3393 17.4 18.5629 17.25 18.9357 16.875C19.2339 16.425 19.6812 15.9 19.9048 15.075Z" fill="#292929"/>
<path d="M15.4318 19.0499C15.4318 19.0499 14.1645 19.4249 12.8226 19.2749C12.8226 19.2749 14.3136 19.5749 15.4318 19.0499Z" fill="white"/>
<path d="M10.5115 10.725C10.5115 10.725 10.0642 10.875 9.69147 11.4C9.69147 11.4 9.91512 10.95 10.5115 10.65V10.725Z" fill="#292929"/>
<path d="M13.3444 9.07498C13.3444 9.07498 13.7917 8.77498 14.7609 8.47498C14.7609 8.47498 13.8663 8.62498 13.3444 8.99998V9.07498Z" fill="#292929"/>
<path d="M18.563 17.25C18.1903 18.15 17.1466 18.9 17.1466 18.9C16.1774 19.275 15.3574 19.2 15.3574 19.2V18C16.252 17.7 17.4448 16.8 17.4448 16.8L18.563 17.25Z" fill="#292929"/>
<path d="M17.4448 14.475C17.4448 14.475 15.8047 13.5 15.3574 13.35C15.3574 13.35 15.5065 11.625 15.4319 11.1C15.4319 11.1 16.5502 10.65 17.4448 10.8C17.4448 10.8 18.2648 11.625 18.6376 12.9C18.7121 12.9 18.0412 14.1 17.4448 14.475Z" fill="#292929"/>
<path d="M13.419 10.0501C13.419 10.0501 12.0026 10.5001 11.4062 11.3251C11.4062 11.3251 10.8843 10.8751 10.437 10.7251C10.437 10.7251 11.0334 9.52508 11.6298 9.22508C11.6298 9.22508 12.4499 8.85008 13.4936 8.92508C13.5681 8.92508 13.419 9.37508 13.419 10.0501Z" fill="#292929"/>
<path d="M13.27 16.95C13.27 16.95 13.27 15.375 13.27 14.7C13.27 14.7 11.9281 14.025 11.2571 13.65C11.2571 13.65 10.2134 14.7 10.1389 15.225C10.1389 15.225 10.3625 16.425 11.2571 17.25C11.3317 17.175 12.2263 17.475 13.27 16.95Z" fill="#292929"/>
<path d="M13.1954 16.875C13.1954 16.875 13.1954 15.375 13.1954 14.775C13.1954 14.775 11.9281 14.1 11.3317 13.725C11.3317 13.725 10.3625 14.7 10.288 15.225C10.288 15.225 10.5116 16.35 11.3317 17.175C11.3317 17.1 12.1517 17.4 13.1954 16.875Z" fill="#292929"/>
<path d="M19.8304 15.3C20.054 14.475 20.054 13.575 19.8304 12.675C19.8304 12.9 19.7558 13.275 19.6813 13.5C19.7558 13.5 19.9795 14.55 19.8304 15.3Z" fill="#292929"/>
<path d="M17.4447 9.60002C17.4447 9.60002 17.8175 9.67502 18.1902 9.82502C17.3702 9.07502 16.2519 8.55002 15.1337 8.40002C15.7301 8.55002 16.8483 8.92502 17.4447 9.60002Z" fill="#292929"/>
<path d="M9.02046 13.125C8.9461 13.8 8.9461 14.475 9.09482 15.15C9.09482 14.925 9.09482 14.7 9.24354 14.55C9.16918 14.55 9.09482 13.875 9.02046 13.125Z" fill="#292929"/>
<path d="M11.4808 18.375C11.108 18.3 10.5862 17.85 10.288 17.55C11.0335 18.45 12.0026 19.05 13.0463 19.35C12.2263 18.975 11.4808 18.375 11.4808 18.375Z" fill="#292929"/>
<g opacity="0.2">
<path d="M15.0592 13.425L13.4191 14.475C13.27 14.55 13.1209 14.55 12.9718 14.475L11.5553 13.725C11.4062 13.65 11.4062 13.65 11.5553 13.725L12.9718 14.325C13.1209 14.4 13.27 14.4 13.4191 14.325L15.0592 13.425C15.2083 13.35 15.2083 13.35 15.0592 13.425Z" fill="#292929"/>
<path d="M17.5193 14.475C17.5193 14.475 17.743 15.9 17.4448 16.725L18.4885 17.175L17.5193 16.65C17.5193 16.725 17.743 15.75 17.5193 14.475Z" fill="#292929"/>
<path d="M18.563 17.25C18.563 17.25 18.3393 18 17.3702 18.675C17.3702 18.675 18.2648 18.225 18.563 17.25Z" fill="#292929"/>
<path d="M15.5065 11.025C15.5065 11.025 14.4628 10.2 13.4936 9.975C13.4936 9.975 13.4191 9.6 13.5682 9C13.5682 9 13.4936 9.6 13.5682 9.975C13.4936 9.9 14.5373 10.125 15.5065 11.025Z" fill="#292929"/>
<path d="M11.4062 11.325C11.4062 11.325 11.1825 12.3 11.3316 13.5C11.3316 13.5 11.3316 12.075 11.4807 11.475C11.4807 11.4 11.5553 11.25 11.6298 11.175C11.8535 10.95 12.4499 10.425 13.4191 10.05C13.4191 10.125 12.3008 10.425 11.4062 11.325Z" fill="#292929"/>
<path d="M11.2571 13.575C11.2571 13.575 10.2879 14.475 10.2134 15.075C10.2134 15.075 10.2134 14.325 11.2571 13.575Z" fill="#292929"/>
</g>
<path d="M10.9589 5.85005V6.00005C10.8843 6.00005 10.8843 6.00005 10.8098 6.00005C10.7352 6.00005 10.7352 6.00005 10.6607 6.00005C10.5861 6.00005 10.5116 6.00005 10.437 6.00005C10.3625 6.00005 10.2879 6.00005 10.2879 6.00005C10.2879 6.00005 10.2134 5.92505 10.2134 5.85005C10.2134 5.77505 10.2134 5.70005 10.2134 5.62505C10.2134 5.55005 10.2134 5.47505 10.2134 5.40005C10.2134 5.32505 10.2879 5.25005 10.2879 5.25005C10.2879 5.25005 10.3625 5.17505 10.437 5.17505C10.5116 5.17505 10.5861 5.17505 10.6607 5.17505C10.7352 5.17505 10.8098 5.17505 10.8098 5.17505C10.8843 5.17505 10.8843 5.17505 10.9589 5.17505V5.40005C10.8843 5.40005 10.8843 5.40005 10.8098 5.40005C10.7352 5.40005 10.7352 5.40005 10.6607 5.40005C10.5861 5.40005 10.5861 5.40005 10.5116 5.40005C10.5116 5.40005 10.437 5.40005 10.437 5.47505V5.55005C10.437 5.62505 10.437 5.62505 10.437 5.70005C10.437 5.77505 10.437 5.85005 10.437 5.85005C10.437 5.92505 10.437 5.92505 10.437 5.92505C10.437 5.92505 10.5116 5.92505 10.5116 6.00005C10.5116 6.00005 10.5861 6.00005 10.6607 6.00005C10.7352 6.00005 10.7352 6.00005 10.8098 6.00005C10.8098 5.85005 10.8843 5.85005 10.9589 5.85005Z" fill="#292929"/>
<path d="M11.2571 6.07498H11.0334V5.09998H11.2571V5.47498H11.6298V5.09998H11.928V6.07498H11.7044V5.62498H11.3316V6.07498H11.2571Z" fill="#292929"/>
<path d="M12.9717 6.07498H12.7481C12.6735 5.99998 12.6735 5.99998 12.6735 5.99998V5.92498H12.3753C12.3753 5.99998 12.3008 6.07498 12.3008 6.07498H12.0771L12.3753 5.09998H12.7481L12.9717 6.07498ZM12.4499 5.24998C12.4499 5.32498 12.4499 5.39998 12.3753 5.47498C12.3753 5.54998 12.3008 5.62498 12.3008 5.69998H12.5244C12.5244 5.62498 12.4499 5.54998 12.4499 5.47498C12.5244 5.39998 12.4499 5.32498 12.4499 5.24998Z" fill="#292929"/>
<path d="M13.4936 5.99998C13.4936 5.92498 13.4936 5.84998 13.419 5.84998C13.419 5.77498 13.419 5.69998 13.3445 5.69998C13.2699 5.69998 13.3445 5.54998 13.2699 5.54998C13.2699 5.47498 13.2699 5.47498 13.2699 5.39998C13.2699 5.32498 13.2699 5.32498 13.2699 5.32498V5.39998V5.47498V5.54998V6.07498H13.0463V5.09998H13.419C13.419 5.17498 13.419 5.17498 13.4936 5.24998C13.5681 5.32498 13.4936 5.39998 13.5681 5.39998C13.5681 5.47498 13.5681 5.54998 13.6427 5.54998C13.6427 5.62498 13.6427 5.62498 13.6427 5.69998C13.6427 5.62498 13.6427 5.62498 13.6427 5.54998C13.6427 5.47498 13.6427 5.47498 13.7172 5.39998C13.7918 5.32498 13.7172 5.24998 13.7918 5.24998C13.8663 5.24998 13.7918 5.09998 13.8663 5.09998H14.1645V6.07498H13.9409V5.47498V5.39998V5.32498V5.24998V5.32498C13.9409 5.39998 13.9409 5.39998 13.9409 5.47498C13.9409 5.54998 13.9409 5.54998 13.8663 5.62498C13.8663 5.69998 13.8663 5.77498 13.7918 5.77498C13.7918 5.84998 13.7918 5.92498 13.7172 5.92498H13.4936V5.99998Z" fill="#292929"/>
<path d="M14.6118 6.07498H14.3882V5.09998H14.8355C14.91 5.09998 14.9846 5.09998 15.0591 5.09998C15.1337 5.09998 15.1337 5.17498 15.2082 5.24998C15.2828 5.32498 15.2828 5.39998 15.2828 5.47498C15.2828 5.54998 15.2828 5.62498 15.2082 5.69998C15.2082 5.77498 15.1337 5.77498 15.0591 5.84998C14.9846 5.92498 14.91 5.77498 14.7609 5.77498H14.6118V6.07498ZM14.7609 5.24998H14.6118V5.54998H14.7609C14.8355 5.54998 14.91 5.54998 14.91 5.54998C14.91 5.54998 14.91 5.47498 14.91 5.39998C14.91 5.32498 14.91 5.32498 14.91 5.24998C14.8355 5.32498 14.8355 5.24998 14.7609 5.24998Z" fill="#292929"/>
<path d="M15.5059 6.07498H15.2828V5.09998H15.5059V6.07498Z" fill="#292929"/>
<path d="M15.6555 5.55002C15.6555 5.40002 15.6555 5.32502 15.7301 5.25002C15.7301 5.17502 15.8046 5.10002 15.8792 5.10002C15.9537 5.10002 16.0283 5.02502 16.1774 5.02502C16.2519 5.02502 16.3265 5.02502 16.401 5.02502C16.4756 5.02502 16.4756 5.10002 16.5501 5.10002C16.5501 5.17502 16.6247 5.17502 16.6247 5.25002C16.6247 5.32502 16.6247 5.40002 16.6247 5.47502C16.6247 5.55002 16.6247 5.62502 16.6247 5.70002C16.6247 5.77502 16.5501 5.85002 16.5501 5.85002C16.5501 5.85002 16.4756 6.00002 16.401 6.07502C16.3265 6.07502 16.2519 6.07502 16.1774 6.07502C16.1028 6.07502 16.0283 6.07502 15.9537 6.07502C15.8792 6.07502 15.8792 6.00002 15.8046 6.00002C15.7301 6.00002 15.7301 5.92502 15.7301 5.85002C15.6555 5.70002 15.6555 5.62502 15.6555 5.55002ZM16.1774 5.85002C16.2519 5.85002 16.3265 5.85002 16.3265 5.85002L16.401 5.77502C16.401 5.70002 16.401 5.70002 16.401 5.62502C16.401 5.55002 16.401 5.47502 16.401 5.47502C16.401 5.40002 16.401 5.40002 16.3265 5.40002C16.3265 5.40002 16.2519 5.40002 16.1774 5.40002C16.1028 5.40002 16.0283 5.40002 16.0283 5.40002L15.9537 5.47502C15.9537 5.47502 15.9537 5.55002 15.9537 5.62502C15.9537 5.70002 15.9537 5.77502 15.9537 5.77502C15.9537 5.77502 15.9537 5.85002 16.0283 5.85002C16.0283 5.85002 16.1028 5.85002 16.1774 5.85002Z" fill="#292929"/>
<path d="M17.3702 5.09998H17.5938V6.07498H17.3702L17.1465 5.62498L17.072 5.54998C17.072 5.54998 17.072 5.47498 16.9974 5.47498C16.9974 5.47498 16.9974 5.39998 16.9229 5.39998C16.9229 5.47498 16.9229 5.47498 16.9229 5.54998C16.9229 5.62498 16.9229 5.62498 16.9229 5.69998V6.07498H16.6992V5.09998H16.9229L17.2211 5.47498L17.2956 5.54998C17.2956 5.54998 17.2956 5.62498 17.3702 5.62498C17.3702 5.62498 17.3702 5.69998 17.4447 5.69998C17.4447 5.62498 17.4447 5.62498 17.4447 5.54998C17.4447 5.47498 17.4447 5.47498 17.4447 5.39998V5.09998H17.3702Z" fill="#292929"/>
<path d="M17.7429 5.77498C17.8175 5.77498 17.8175 5.77498 17.892 5.77498C17.9666 5.77498 17.9666 5.77498 18.0411 5.77498C18.1157 5.77498 18.1902 5.77498 18.1902 5.77498H18.2648C18.2648 5.77498 18.2648 5.77498 18.2648 5.69998C18.2648 5.69998 18.2648 5.69998 18.2648 5.62498C18.2648 5.62498 18.2648 5.62498 18.1902 5.62498H18.1157H18.0411C17.9666 5.62498 17.892 5.62498 17.892 5.54998C17.8175 5.54998 17.8175 5.47498 17.8175 5.47498C17.8175 5.39998 17.8175 5.39998 17.8175 5.32498C17.8175 5.24998 17.8175 5.17498 17.892 5.17498C17.892 5.09998 17.9666 5.09998 18.0411 5.09998C18.1157 5.09998 18.1902 5.09998 18.2648 5.09998C18.4139 5.09998 18.4884 5.09998 18.6375 5.17498V5.39998C18.563 5.39998 18.4139 5.32498 18.3393 5.32498C18.2648 5.32498 18.2648 5.32498 18.1902 5.32498H18.1157C18.1157 5.32498 18.1157 5.32498 18.1157 5.39998C18.1157 5.47498 18.1157 5.47498 18.1157 5.47498C18.1157 5.47498 18.1157 5.47498 18.1902 5.47498H18.2648H18.3393C18.4139 5.47498 18.4884 5.47498 18.563 5.54998C18.6375 5.54998 18.6375 5.62498 18.6375 5.62498C18.6375 5.62498 18.6375 5.69998 18.6375 5.77498C18.6375 5.84998 18.6375 5.92498 18.563 5.92498C18.4884 5.99998 18.4884 5.99998 18.4139 5.99998C18.3393 5.99998 18.2648 5.99998 18.1157 5.99998C18.0411 5.99998 17.9666 5.99998 17.892 5.99998C17.8175 5.99998 17.7429 5.99998 17.7429 5.99998V5.77498Z" fill="#292929"/>
<path d="M9.16968 4.875L9.31878 5.325H9.76608L9.39333 5.55L9.54243 5.925L9.16968 5.7L8.87148 5.925L8.94603 5.55L8.64783 5.325H9.02058L9.16968 4.875Z" fill="white"/>
<path d="M19.8303 4.875L19.9794 5.325H20.3522L20.054 5.55L20.2031 5.925L19.8303 5.7L19.4576 5.925L19.6067 5.55L19.2339 5.325H19.6812L19.8303 4.875Z" fill="white"/>
<path d="M14.5373 15.6C5.51669 15.6 0.223633 13.425 0.223633 13.425V20.325C0.223633 20.325 6.56039 22.35 14.5373 22.35C22.5141 22.35 28.8509 20.325 28.8509 20.325V13.425C28.7763 13.425 23.5578 15.6 14.5373 15.6Z" fill="#E86A23"/>
<path d="M14.5372 22.5C6.56039 22.5 0.223624 20.475 0.149074 20.4H0.0745239V13.2L0.298174 13.275C0.372724 13.275 5.59123 15.45 14.5372 15.45C19.1594 15.45 22.8123 14.85 25.0488 14.325C27.4344 13.8 28.7763 13.275 28.7763 13.2L29 13.125V20.325H28.9254C28.7763 20.475 22.4396 22.5 14.5372 22.5ZM0.372724 20.25C1.19278 20.475 7.15679 22.275 14.5372 22.275C21.9177 22.275 27.8817 20.475 28.7018 20.25V13.575C27.6581 13.95 22.5141 15.675 14.5372 15.675C9.84059 15.675 6.18763 15.075 3.95113 14.55C2.08738 14.1 0.820025 13.725 0.372724 13.5V20.25Z" fill="#292929"/>
<path d="M14.5373 22.575C6.63496 22.575 0.22365 20.55 0.1491 20.475H0V13.125L0.298201 13.275C0.372751 13.275 5.66581 15.45 14.4627 15.45C19.0848 15.45 22.7378 14.85 24.8997 14.4C27.2853 13.875 28.5527 13.35 28.6273 13.35L28.9254 13.2V20.55L28.7763 20.625C28.7763 20.55 22.4396 22.575 14.5373 22.575ZM0.1491 20.325C0.22365 20.325 6.63496 22.425 14.5373 22.425C22.4396 22.425 28.7764 20.4 28.8509 20.4H28.9254V13.35L28.8509 13.425C28.7764 13.425 27.4344 14.025 25.1234 14.55C22.8869 15.075 19.3085 15.675 14.6118 15.675C5.74036 15.675 0.447301 13.5 0.372751 13.5L0.298201 13.425V20.325H0.1491ZM14.5373 22.35C7.15681 22.35 1.0437 20.55 0.372751 20.325H0.298201V13.5H0.372751C0.820051 13.65 2.01285 14.1 3.95116 14.55C6.18766 15.075 9.84062 15.675 14.5373 15.675C22.5887 15.675 27.7326 13.875 28.6273 13.575H28.7018V20.4H28.6273C28.0308 20.475 21.9177 22.35 14.5373 22.35ZM0.447301 20.175C1.3419 20.475 7.30591 22.2 14.5373 22.2C21.7686 22.2 27.7326 20.475 28.6273 20.175V13.725C27.4344 14.175 22.365 15.825 14.5373 15.825C9.84062 15.825 6.18766 15.225 3.95116 14.7C2.16195 14.325 0.969152 13.875 0.447301 13.725V20.175Z" fill="#292929"/>
<path d="M5.14398 20.025C4.92033 20.025 4.84578 19.95 4.62213 19.95C4.62213 18.675 4.62213 17.475 4.62213 16.2C5.21853 16.275 5.51673 16.35 6.11313 16.425C6.11313 16.65 6.11313 16.725 6.11313 16.95C5.74038 16.875 5.51673 16.875 5.14398 16.8C5.14398 17.175 5.14398 17.4 5.14398 17.85C5.44218 17.925 5.59128 17.925 5.81493 17.925C5.81493 18.15 5.81493 18.3 5.81493 18.525C5.51673 18.45 5.36763 18.45 5.14398 18.45C5.14398 19.05 5.14398 19.35 5.14398 20.025Z" fill="white"/>
<path d="M7.30595 16.575C7.5296 16.575 7.75325 16.725 7.90235 16.95C8.05145 17.175 8.126 17.4 8.126 17.625C8.126 18.45 8.126 18.825 8.126 19.65C8.126 19.875 8.05145 20.1 7.90235 20.25C7.75325 20.4 7.5296 20.475 7.30595 20.4C7.0823 20.4 6.85865 20.25 6.70955 20.025C6.56045 19.8 6.4859 19.575 6.4859 19.35C6.4859 18.525 6.4859 18.15 6.4859 17.325C6.4859 17.1 6.56045 16.875 6.70955 16.725C6.85865 16.575 7.0823 16.5 7.30595 16.575ZM7.60415 17.475C7.60415 17.4 7.60415 17.325 7.5296 17.25C7.45505 17.175 7.3805 17.175 7.30595 17.1C7.2314 17.1 7.15685 17.1 7.0823 17.175C7.00775 17.25 7.00775 17.325 7.00775 17.4C7.00775 18.225 7.00775 18.6 7.00775 19.425C7.00775 19.5 7.00775 19.575 7.0823 19.65C7.15685 19.725 7.2314 19.8 7.30595 19.8C7.3805 19.8 7.45505 19.8 7.5296 19.725C7.60415 19.65 7.60415 19.575 7.60415 19.5C7.60415 18.675 7.60415 18.3 7.60415 17.475Z" fill="white"/>
<path d="M9.39335 16.7999C9.61701 16.7999 9.84066 16.9499 9.98976 17.0999C10.1389 17.3249 10.2134 17.4749 10.2134 17.7749C10.2134 18.5999 10.2134 18.9749 10.2134 19.7999C10.2134 20.0249 10.1389 20.2499 9.98976 20.3999C9.84066 20.5499 9.61701 20.6249 9.39335 20.6249C9.1697 20.6249 8.94605 20.4749 8.79695 20.2499C8.64785 20.0249 8.5733 19.7999 8.5733 19.5749C8.5733 18.7499 8.5733 18.3749 8.5733 17.5499C8.5733 17.3249 8.64785 17.0999 8.79695 16.9499C8.94605 16.8749 9.1697 16.7999 9.39335 16.7999ZM9.69156 17.7749C9.69156 17.6999 9.69155 17.6249 9.617 17.5499C9.54245 17.4749 9.46791 17.4749 9.39335 17.3999C9.3188 17.3999 9.24425 17.3999 9.1697 17.4749C9.09515 17.5499 9.09515 17.6249 9.09515 17.6999C9.09515 18.5249 9.09515 18.8999 9.09515 19.7249C9.09515 19.7999 9.09515 19.8749 9.1697 19.9499C9.24425 20.0249 9.3188 20.0249 9.39335 20.0999C9.46791 20.0999 9.54245 20.0999 9.617 20.0249C9.69155 19.9499 9.69156 19.8749 9.69156 19.7999C9.69156 18.9749 9.69156 18.5249 9.69156 17.7749Z" fill="white"/>
<path d="M11.108 17.6249C10.8843 17.6249 10.7352 17.6249 10.5116 17.5499C10.5116 17.3249 10.5116 17.2499 10.5116 17.0249C11.1825 17.0999 11.4807 17.0999 12.1517 17.1749C12.1517 17.3999 12.1517 17.5499 12.1517 17.7749C11.928 17.7749 11.7789 17.7749 11.5553 17.6999C11.5553 18.9749 11.5553 19.5749 11.5553 20.8499C11.3316 20.8499 11.2571 20.8499 11.0334 20.7749C11.108 19.4999 11.108 18.8999 11.108 17.6249Z" fill="white"/>
<path d="M12.599 20.9249C12.599 19.6499 12.599 18.4499 12.599 17.1749C12.8972 17.1749 13.0463 17.1749 13.4191 17.1749C13.6427 17.1749 13.7918 17.2499 14.0155 17.3999C14.1646 17.4749 14.2391 17.6249 14.3137 17.8499C14.3137 17.9249 14.3882 18.0749 14.3882 18.2249C14.3882 18.4499 14.3137 18.6749 14.1646 18.8249C14.09 18.8999 14.0155 18.9749 14.0155 18.9749C14.0155 18.9749 14.2391 19.1249 14.3137 19.2749C14.3882 19.3499 14.3882 19.4999 14.4628 19.6499C14.4628 19.7249 14.4628 19.7999 14.4628 19.8749C14.4628 20.0999 14.3882 20.3249 14.3137 20.4749C14.2391 20.6249 14.1646 20.6999 14.0155 20.7749C13.8664 20.8499 13.7173 20.9249 13.6427 20.9249C13.1954 20.9249 12.9717 20.9249 12.599 20.9249ZM13.1954 18.7499C13.27 18.7499 13.3445 18.7499 13.4191 18.7499C13.5682 18.7499 13.7173 18.6749 13.7173 18.5249C13.7173 18.4499 13.7173 18.3749 13.7173 18.2999C13.7173 18.1499 13.7173 17.9999 13.6427 17.9249C13.5682 17.8499 13.4936 17.7749 13.4191 17.7749C13.3445 17.7749 13.27 17.7749 13.1954 17.7749C13.1954 18.1499 13.1954 18.3749 13.1954 18.7499ZM13.1954 20.3999C13.27 20.3999 13.3445 20.3999 13.4191 20.3999C13.5682 20.3999 13.7173 20.3249 13.7918 20.0999C13.7918 20.0249 13.7918 19.9499 13.7918 19.8749C13.7918 19.6499 13.7173 19.4999 13.6427 19.4249C13.5682 19.3499 13.4936 19.2749 13.3445 19.2749C13.27 19.2749 13.1954 19.2749 13.1209 19.2749C13.1954 19.7249 13.1954 19.9499 13.1954 20.3999Z" fill="white"/>
<path d="M15.3574 20.0999C15.2828 20.4749 15.2828 20.6249 15.2083 20.9249C14.9846 20.9249 14.9101 20.9249 14.6864 20.9249C14.9101 19.6499 15.0592 18.4499 15.2828 17.1749C15.581 17.1749 15.7301 17.1749 16.0283 17.1749C16.252 18.3749 16.4011 19.6499 16.6247 20.8499C16.4011 20.8499 16.3265 20.8499 16.1029 20.8499C16.0283 20.4749 16.0283 20.3249 15.9538 20.0249C15.7301 20.0999 15.581 20.0999 15.3574 20.0999ZM15.6556 18.0749C15.581 18.6749 15.5065 18.9749 15.4319 19.5749C15.581 19.5749 15.6556 19.5749 15.8047 19.5749C15.8047 18.9749 15.7301 18.6749 15.6556 18.0749Z" fill="white"/>
<path d="M18.4139 20.775C17.8175 20.85 17.5193 20.85 16.9974 20.925C16.9974 19.65 16.9974 18.45 16.9974 17.175C17.2211 17.175 17.2956 17.175 17.5193 17.1C17.5193 18.375 17.5193 18.975 17.5193 20.25C17.892 20.25 18.0411 20.175 18.4139 20.175C18.4139 20.4 18.4139 20.55 18.4139 20.775Z" fill="white"/>
<path d="M20.2031 20.55C19.6067 20.625 19.3085 20.625 18.7867 20.7C18.7867 19.425 18.7867 18.225 18.7867 16.95C19.0103 16.95 19.0849 16.95 19.3085 16.875C19.3085 18.15 19.3085 18.75 19.3085 20.025C19.6813 19.95 19.8304 19.95 20.2031 19.95C20.2031 20.175 20.2031 20.325 20.2031 20.55Z" fill="white"/>
<path d="M21.3959 20.4C21.1723 20.4 21.0977 20.475 20.8741 20.475C20.8741 19.2 20.8741 18 20.8741 16.725C21.4705 16.65 21.7687 16.575 22.3651 16.5C22.3651 16.725 22.3651 16.875 22.3651 17.1C21.9923 17.175 21.7687 17.175 21.3959 17.25C21.3959 17.625 21.3959 17.85 21.3959 18.3C21.6941 18.225 21.8432 18.225 22.1414 18.225C22.1414 18.45 22.1414 18.6 22.1414 18.825C21.8432 18.9 21.6941 18.9 21.3959 18.9C21.3959 19.425 21.3959 19.725 21.3959 20.4Z" fill="white"/>
<path d="M23.4833 20.0999C23.2597 20.0999 23.036 20.0999 22.8869 19.9499C22.7378 19.7999 22.6633 19.5749 22.6633 19.3499C22.6633 18.5249 22.6633 18.1499 22.6633 17.3249C22.6633 17.0999 22.7378 16.8749 22.8869 16.6499C23.036 16.4249 23.2597 16.3499 23.4833 16.2749C23.707 16.2749 23.9306 16.2749 24.0797 16.4249C24.2288 16.5749 24.3034 16.7999 24.3034 17.0249C24.3034 17.1749 24.3034 17.2499 24.3034 17.4749C24.0797 17.4749 24.0052 17.5499 23.7815 17.5499C23.7815 17.3999 23.7815 17.3249 23.7815 17.0999C23.7815 17.0249 23.7815 16.9499 23.707 16.8749C23.6324 16.7999 23.5579 16.7999 23.4833 16.7999C23.4088 16.7999 23.3342 16.8749 23.2597 16.9499C23.1851 17.0249 23.1851 17.0999 23.1851 17.1749C23.1851 17.9999 23.1851 18.3749 23.1851 19.1999C23.1851 19.2749 23.1851 19.3499 23.2597 19.4249C23.3342 19.4999 23.4088 19.4999 23.4833 19.4999C23.5579 19.4999 23.6324 19.4249 23.707 19.3499C23.7815 19.2749 23.7815 19.1999 23.7815 19.1249C23.7815 18.8999 23.7815 18.8249 23.7815 18.5999C24.0052 18.5999 24.0797 18.5249 24.3034 18.5249C24.3034 18.7499 24.3034 18.8249 24.3034 19.0499C24.3034 19.2749 24.2288 19.4999 24.0797 19.7249C23.9306 19.9499 23.7815 20.0999 23.4833 20.0999Z" fill="white"/>
</svg>
