<svg width="30" height="30" viewBox="0 0 30 30" fill="none" xmlns="http://www.w3.org/2000/svg">
<path d="M15 30C23.2843 30 30 23.2843 30 15C30 6.71573 23.2843 0 15 0C6.71573 0 0 6.71573 0 15C0 23.2843 6.71573 30 15 30Z" fill="#292929"/>
<path d="M15 28.8C22.6215 28.8 28.8 22.6215 28.8 15C28.8 7.37842 22.6215 1.19995 15 1.19995C7.37847 1.19995 1.2 7.37842 1.2 15C1.2 22.6215 7.37847 28.8 15 28.8Z" fill="#E82344"/>
<path d="M6.45 6.37493L7.35 5.54993L7.5 5.69993L6.825 6.29993L7.35 6.89993L8.025 6.29993L8.175 6.44993L7.5 7.04993L8.175 7.79993L7.95 8.02493L6.45 6.37493Z" fill="white"/>
<path d="M10.575 4.87492C10.95 5.54992 10.725 6.14992 10.2 6.44992C9.67499 6.74992 9.07499 6.52492 8.69999 5.92492C8.32499 5.24992 8.47499 4.64992 9.07499 4.34992C9.59999 4.12492 10.2 4.27492 10.575 4.87492ZM8.99999 5.84992C9.22499 6.29992 9.67499 6.52492 10.125 6.29992C10.575 6.07492 10.575 5.54992 10.275 5.09992C10.05 4.72492 9.59999 4.42492 9.14999 4.64992C8.77499 4.87492 8.77499 5.39992 8.99999 5.84992Z" fill="white"/>
<path d="M13.275 4.12497C13.5 4.87497 13.125 5.39997 12.525 5.54997C11.925 5.69997 11.4 5.32497 11.25 4.64997C11.1 3.97497 11.4 3.37497 12 3.22497C12.525 3.07497 13.05 3.44997 13.275 4.12497ZM11.55 4.57497C11.7 5.02497 12.075 5.39997 12.525 5.32497C12.975 5.17497 13.125 4.72497 12.975 4.19997C12.825 3.74997 12.525 3.37497 12 3.44997C11.55 3.59997 11.4 4.12497 11.55 4.57497Z" fill="white"/>
<path d="M14.325 3.14998H13.65V2.92498L15.375 2.84998V3.07498H14.7L14.775 5.09998H14.475L14.325 3.14998Z" fill="white"/>
<path d="M16.2 3C16.35 3 16.575 3 16.725 3.075C17.025 3.15 17.175 3.225 17.325 3.375C17.4 3.45 17.475 3.6 17.475 3.825C17.475 4.05 17.25 4.2 17.025 4.275C17.25 4.35 17.475 4.575 17.4 4.95C17.4 5.175 17.25 5.25 17.1 5.4C16.95 5.55 16.65 5.55 16.275 5.475C16.05 5.475 15.9 5.4 15.825 5.4L16.2 3ZM16.2 5.025C16.275 5.025 16.35 5.025 16.425 5.1C16.725 5.175 17.025 5.1 17.1 4.725C17.175 4.425 16.875 4.275 16.575 4.2L16.35 4.125L16.2 5.025ZM16.35 3.975L16.65 4.05C16.95 4.125 17.175 3.975 17.175 3.75C17.25 3.45 17.025 3.375 16.725 3.3C16.575 3.3 16.5 3.3 16.425 3.3L16.35 3.975Z" fill="white"/>
<path d="M18.45 5.09993L17.925 5.69993L17.625 5.54993L19.2 3.67493L19.5 3.82493L19.35 6.29993L19.05 6.14993L19.125 5.39993L18.45 5.09993ZM19.275 5.09993V4.42493C19.275 4.27493 19.275 4.12493 19.35 3.97493C19.275 4.12493 19.2 4.19993 19.05 4.34993L18.6 4.87493L19.275 5.09993Z" fill="white"/>
<path d="M21.15 4.57495L21.375 4.72495L20.25 6.44995L21.075 6.97495L20.925 7.19995L19.875 6.52495L21.15 4.57495Z" fill="white"/>
<path d="M22.95 5.92493L23.175 6.14993L21.75 7.64993L22.425 8.32493L22.275 8.47493L21.375 7.57493L22.95 5.92493Z" fill="white"/>
<path d="M7.875 23.1L7.275 23.625L6.675 23.175L6.9 23.925L6.375 24.375L7.125 24.3L7.35 25.05L7.575 24.3L8.325 24.225L7.65 23.85L7.875 23.1Z" fill="#292929"/>
<path d="M23.025 23.925L23.325 23.175L22.65 23.625L22.125 23.1L22.275 23.85L21.675 24.225L22.425 24.3L22.575 25.05L22.875 24.3L23.625 24.375L23.025 23.925Z" fill="#292929"/>
<path d="M15 23.625C19.7635 23.625 23.625 19.7635 23.625 15C23.625 10.2365 19.7635 6.375 15 6.375C10.2365 6.375 6.375 10.2365 6.375 15C6.375 19.7635 10.2365 23.625 15 23.625Z" fill="#292929"/>
<path d="M19.8753 20.9752C23.1771 18.2732 23.6633 13.4063 20.9614 10.1045C18.2595 6.80277 13.3926 6.31649 10.0908 9.0184C6.78904 11.7203 6.30276 16.5873 9.00467 19.889C11.7066 23.1908 16.5735 23.6771 19.8753 20.9752Z" fill="white"/>
<path d="M16.35 14.025L13.05 16.125L12.975 16.05L16.275 14.025H16.35Z" fill="#292929"/>
<path d="M16.5 11.1C16.425 11.175 16.05 10.8 15.45 10.425C14.85 10.05 14.025 9.67495 13.275 9.52495V9.44995C14.85 9.74995 16.5 11.1 16.5 11.1Z" fill="#292929"/>
<path d="M10.725 10.875C10.425 11.925 10.425 12.9 10.425 13.65C10.425 14.4 10.575 14.775 10.575 14.775H10.5C10.5 14.775 10.125 12.975 10.725 10.875Z" fill="#292929"/>
<path d="M19.125 15.675C19.5 17.25 19.05 19.05 19.05 19.05H18.975C18.975 19.05 19.05 18.6 19.125 17.925C19.2 17.325 19.2 16.425 19.125 15.675C19.05 15.6 18.975 15.45 18.975 15.375H19.05C19.05 15.45 19.05 15.525 19.125 15.675Z" fill="#292929"/>
<path d="M15.075 20.175C15.75 20.475 16.275 20.625 16.275 20.625V20.7C16.275 20.7 14.1 20.1 12.975 18.975L13.05 18.9C13.575 19.5 14.4 19.95 15.075 20.175Z" fill="#292929"/>
<path d="M19.2 8.85C19.425 9.9 19.125 10.875 19.125 10.875H19.05C19.05 10.875 19.125 10.65 19.2 10.275C19.2 9.825 19.275 9.375 19.2 8.85C19.125 8.775 19.125 8.7 19.05 8.625H19.125C19.125 8.625 19.2 8.775 19.2 8.85Z" fill="#292929"/>
<path d="M8.625 16.4999C8.925 16.6499 9.15 16.6499 9.15 16.6499V16.7249C9.15 16.7249 8.25 16.5749 7.425 15.7499L7.5 15.6749C7.875 16.1249 8.325 16.3499 8.625 16.4999Z" fill="#292929"/>
<path d="M10.5 19.2C10.5 19.2 10.425 19.95 10.65 20.925C10.65 21 10.725 21.15 10.725 21.225C10.725 21.075 10.65 21 10.65 20.925C10.425 20.025 10.5 19.2 10.5 19.2Z" fill="#292929"/>
<path d="M22.5 14.3249C22.275 14.1749 21.825 13.9499 21.45 13.7999C21.075 13.5749 20.7 13.4999 20.7 13.4999V13.4249C20.7 13.4249 22.125 14.0249 22.5 14.3249Z" fill="#292929"/>
<path d="M22.575 16.5C21.825 18.825 20.4 19.725 20.4 19.725C20.4 19.725 20.775 19.5 21.225 18.975C21.675 18.45 22.2 17.7 22.575 16.5Z" fill="#292929"/>
<path d="M16.275 22.0499C16.275 22.0499 14.475 22.5749 12.6 22.3499C12.6 22.3499 14.7 22.7249 16.275 22.1999V22.0499Z" fill="white"/>
<path d="M9.45 10.425C9.45 10.425 8.85 10.575 8.25 11.325C8.25 11.325 8.55 10.725 9.45 10.275V10.425Z" fill="#292929"/>
<path d="M13.35 8.17498C13.35 8.17498 14.025 7.72498 15.3 7.34998C15.3 7.34998 14.025 7.57498 13.275 8.09998L13.35 8.17498Z" fill="#292929"/>
<path d="M20.625 19.5751C20.1 20.8501 18.6 21.8251 18.6 21.8251C17.175 22.3501 16.05 22.2001 16.05 22.2001L16.125 20.5501C17.4 20.1001 19.05 18.8251 19.05 18.8251L20.625 19.5751Z" fill="#292929"/>
<path d="M19.125 15.675C19.125 15.675 16.875 14.325 16.2 14.1C16.2 14.1 16.35 11.7 16.275 10.95C16.275 10.95 17.85 10.275 19.125 10.5C19.125 10.5 20.25 11.625 20.85 13.425C20.85 13.5 19.95 15.15 19.125 15.675Z" fill="#292929"/>
<path d="M13.5 9.52505C13.5 9.52505 11.55 10.2 10.65 11.325C10.65 11.325 9.97499 10.725 9.22499 10.425C9.22499 10.425 10.05 8.77505 10.95 8.32505C10.95 8.32505 12.075 7.80005 13.65 7.95005C13.65 7.95005 13.425 8.62505 13.5 9.52505Z" fill="#292929"/>
<path d="M13.275 19.125C13.275 19.125 13.2 16.875 13.275 15.975C13.275 15.975 11.4 15 10.5 14.475C10.5 14.475 9 15.9 9 16.65C9 16.65 9.3 18.3 10.575 19.5C10.5 19.5 11.775 19.875 13.275 19.125Z" fill="#292929"/>
<path d="M13.125 18.975C13.125 18.975 13.05 16.875 13.125 15.975C13.125 15.975 11.325 15.075 10.5 14.55C10.5 14.55 9.075 15.9 9.075 16.65C9.075 16.65 9.375 18.225 10.575 19.35C10.5 19.35 11.7 19.725 13.125 18.975Z" fill="#292929"/>
<path d="M22.5 16.875C22.8 15.675 22.875 14.475 22.5 13.2C22.5 13.2 22.5 13.2 22.5 13.125C22.5 13.5 22.425 13.95 22.275 14.25C22.35 14.325 22.65 15.825 22.5 16.875Z" fill="#292929"/>
<path d="M19.125 8.92502C19.125 8.92502 19.65 9.00002 20.175 9.22502C18.975 8.17502 17.475 7.50002 15.9 7.27502C16.725 7.42502 18.225 7.95002 19.125 8.92502Z" fill="#292929"/>
<path d="M7.275 13.8C7.125 14.7 7.125 15.675 7.35 16.65C7.35 16.35 7.425 16.05 7.5 15.825C7.575 15.825 7.35 14.85 7.275 13.8Z" fill="#292929"/>
<path d="M10.725 21.1501C10.2 21.0751 9.45 20.4751 9 19.9501C9.975 21.1501 11.4 22.0501 12.9 22.5001C11.775 22.0501 10.725 21.1501 10.725 21.1501Z" fill="#292929"/>
<g opacity="0.2">
<path d="M15.825 14.25L13.5 15.675C13.35 15.75 13.05 15.75 12.9 15.675L10.875 14.625C10.725 14.55 10.725 14.55 10.875 14.625L12.9 15.525C13.05 15.6 13.35 15.6 13.5 15.525L15.825 14.25C15.975 14.1 15.975 14.1 15.825 14.25Z" fill="#292929"/>
<path d="M19.2 15.75C19.2 15.75 19.5 17.775 19.125 18.9L20.625 19.575L19.275 18.9C19.275 18.825 19.575 17.475 19.2 15.75Z" fill="#292929"/>
<path d="M20.7 19.6499C20.7 19.6499 20.325 20.6999 19.05 21.5999C19.05 21.5999 20.25 20.9249 20.7 19.6499Z" fill="#292929"/>
<path d="M16.35 10.875C16.35 10.875 14.85 9.67495 13.5 9.37495C13.5 9.37495 13.425 8.84995 13.65 7.94995C13.65 7.94995 13.575 8.77495 13.65 9.29995C13.575 9.37495 15 9.59995 16.35 10.875Z" fill="#292929"/>
<path d="M10.65 11.325C10.65 11.325 10.35 12.75 10.5 14.4C10.5 14.4 10.5 12.45 10.65 11.625C10.65 11.55 10.8 11.325 10.875 11.25C11.175 10.95 12 10.2 13.35 9.67498C13.425 9.59998 11.85 9.97499 10.65 11.325Z" fill="#292929"/>
<path d="M10.425 14.475C10.425 14.475 9.075 15.675 8.925 16.575C8.925 16.575 9 15.525 10.425 14.475Z" fill="#292929"/>
</g>
<path opacity="0.1" d="M22.5 13.2C21.825 10.425 19.8 8.39995 17.325 7.57495C17.925 8.47495 18.375 9.44995 18.675 10.575C19.8 15.3 16.875 19.95 12.15 21.075C11.625 21.225 11.025 21.3 10.5 21.3C12.225 22.575 14.475 23.1 16.8 22.575C20.925 21.6 23.475 17.4 22.5 13.2Z" fill="#292929"/>
</svg>
