<svg width="29" height="30" viewBox="0 0 29 30" fill="none" xmlns="http://www.w3.org/2000/svg">
<g clip-path="url(#clip0_232_1027)">
<path d="M14.0871 30C10.3414 30 9.28286 28.725 8.79429 28.2C7.73571 27 7.73571 25.5 7.81714 24.9C7.73571 24 7.16571 23.25 6.92143 22.9501C6.75857 22.875 6.59571 22.8 6.51429 22.725L6.43286 22.8L5.53714 22.2001C4.56 21.6 3.82714 20.925 3.33857 20.3251L1.30286 21.8251L0.732857 18.4501C0.488571 16.8 0.57 15.525 0.732857 14.55L0 14.25V13.275C0 13.05 0.0814287 11.4 1.95429 8.55005C-0.0814285 6.52505 0.732857 3.67505 1.05857 2.77505C1.46571 1.72505 2.19857 0.900049 2.28 0.825049L3.09429 -0.0749512L3.90857 0.825049C4.39714 1.35005 5.04857 2.02505 5.37429 2.32505C5.78143 2.32505 6.67714 2.25005 8.55 1.42505C9.28286 1.12505 11.6443 0.375049 14.25 0.375049C16.6929 0.375049 19.0543 1.12505 19.7871 1.42505C21.66 2.17505 22.5557 2.25005 22.9629 2.32505C23.2071 2.02505 23.6957 1.42505 24.0214 0.900049L24.6729 -0.0749512L25.4871 0.750049C25.5686 0.825049 26.6271 1.57505 27.1157 2.70005C27.93 4.42505 27.8486 6.90005 26.22 8.62505C26.7086 9.52505 27.6857 11.175 27.93 12.225L28.5 14.325L27.4414 14.475C27.6043 15.45 27.6857 16.8 27.4414 18.375L26.8714 21.75L24.8357 20.25C24.3471 20.85 23.6143 21.525 22.6371 22.125C22.6371 22.125 21.4157 22.8 21.2529 22.875C21.0086 23.175 20.4386 23.925 20.3571 24.825C20.4386 25.425 20.4386 26.925 19.38 28.125L19.2986 28.2C18.8914 28.8 17.8329 30 14.0871 30Z" fill="#ED6A28"/>
<path d="M14.0871 29.325C10.7486 29.325 9.77143 28.275 9.44571 27.825C8.55 26.7 8.63143 25.425 8.63143 24.975C8.55 23.7 7.73571 22.725 7.49143 22.425C7.16571 22.275 6.75857 22.05 6.43286 21.9L6.02571 21.675C4.80429 20.925 3.99 20.025 3.50143 19.425L1.87286 20.625L1.54714 18.45C1.22143 16.575 1.38429 15.075 1.62857 14.1L0.814285 13.875V13.425C0.814285 13.35 0.814285 11.625 2.93143 8.55C0.651428 6.675 1.46571 3.9 1.71 3C2.03571 2.025 2.68714 1.35 2.76857 1.35L3.01286 1.125L3.25714 1.35C3.58286 1.725 4.56 2.85 4.96714 3.075C4.96714 3.075 5.04857 3.15 5.29286 3.15C5.86286 3.15 6.84 3 8.79429 2.25C9.44571 2.025 11.7257 1.275 14.1686 1.275C16.4486 1.275 18.7286 1.95 19.38 2.25C21.3343 3 22.3114 3.15 22.8814 3.15C22.9629 3.15 23.2071 3.15 23.2071 3.15C23.5329 2.85 24.2657 1.8 24.51 1.425L24.6729 1.125L24.9171 1.35C24.9171 1.35 25.8943 2.025 26.3829 3.075C27.1157 4.5 27.1157 7.05 25.1614 8.55C25.7314 9.45 26.79 11.4 27.1157 12.45L27.5229 13.8L26.5457 13.95C26.79 14.925 26.9529 16.425 26.6271 18.3L26.3014 20.475L24.6729 19.275C24.1843 19.95 23.4514 20.775 22.1486 21.525C22.1486 21.525 21.09 22.125 20.6829 22.275C20.3571 22.575 19.5429 23.55 19.5429 24.825C19.6243 25.275 19.7057 26.55 18.7286 27.675V27.825C18.3214 28.275 17.5071 29.325 14.0871 29.325Z" fill="#390E01"/>
<path d="M14.0871 29.025C10.83 29.025 9.93429 27.975 9.60858 27.6C8.71286 26.55 8.87572 25.275 8.87572 24.9C8.79429 23.475 7.89858 22.425 7.57286 22.125C7.08429 21.9 6.67715 21.675 6.35144 21.45L6.18858 21.3C4.80429 20.475 4.07144 19.575 3.58286 18.825L2.11715 19.875L1.87286 18.15C1.54715 16.2 1.79144 14.625 2.03572 13.65L1.05858 13.5V13.275C1.05858 13.2 1.05858 11.475 3.33858 8.325C1.22144 6.9 1.54715 4.35 2.03572 3.075C2.36144 2.175 3.01286 1.5 3.01286 1.5C3.01286 1.5 4.23429 2.925 4.80429 3.3C4.88572 3.45 4.96715 3.45 5.29286 3.45C5.86286 3.45 6.92143 3.3 8.87572 2.475C9.52715 2.25 11.8071 1.575 14.1686 1.575C16.4486 1.575 18.5657 2.25 19.2171 2.475C21.1714 3.225 22.23 3.45 22.8 3.45C23.1257 3.45 23.2072 3.45 23.37 3.375C23.8586 2.925 24.8357 1.5 24.8357 1.5C24.8357 1.5 25.7314 2.175 26.22 3.075C26.8714 4.275 27.0343 6.9 24.9172 8.325C25.3243 9 26.6271 11.25 26.9529 12.375L27.2786 13.425L26.3014 13.575C26.5457 14.625 26.79 16.125 26.4643 18.15L26.22 19.875L24.7543 18.825C24.3471 19.5 23.5329 20.475 22.1486 21.3L21.9857 21.45C21.5786 21.675 21.1714 21.9 20.7643 22.125C20.4386 22.425 19.5429 23.475 19.4614 24.9C19.5429 25.2 19.6243 26.55 18.7286 27.525C18.1586 27.975 17.5071 29.025 14.0871 29.025Z" fill="#390E01"/>
<path d="M25.08 3.45007L24.4286 3.82507L23.2071 5.25007L19.5429 4.57507H15.39H12.7843H8.63142L4.96714 5.25007L3.82714 3.82507L3.09428 3.45007C2.93142 4.12507 3.09428 6.60007 4.07142 7.65007C4.39714 8.02507 7.16571 8.47507 7.16571 8.47507L6.26999 17.1001L8.30571 21.3001C8.30571 21.3001 10.0157 22.7251 10.0157 24.9751L11.1557 26.4751L14.0057 26.9251H14.0871H14.1686L17.0186 26.4751L18.1586 24.9751C18.24 22.7251 19.8686 21.3001 19.8686 21.3001L21.9043 17.1001L21.0086 8.47507C21.0086 8.47507 23.6957 7.95007 24.1028 7.65007C24.9171 6.82507 25.3243 4.12507 25.08 3.45007Z" fill="#390E01"/>
<path d="M25.8129 12.675C24.5914 8.32505 20.6014 5.55005 20.6014 5.55005C21.09 5.47505 22.3929 5.47505 22.3929 5.47505C22.3929 5.47505 22.3114 5.47505 22.3929 5.47505C23.94 5.47505 24.4286 3.82505 24.4286 3.82505C23.6957 4.95005 21.4971 4.42505 18.9729 3.37505C18.3214 3.15005 16.2857 2.55005 14.25 2.55005C12.1329 2.55005 10.0157 3.15005 9.36428 3.37505C6.84 4.35005 4.56 4.87505 3.82714 3.82505C3.82714 3.82505 4.47857 5.47505 6.10714 5.47505H6.35143C6.35143 5.47505 7.16571 5.47505 7.65428 5.55005C7.65428 5.55005 3.66428 8.32505 2.44286 12.675C2.44286 12.675 3.50143 12.375 3.99 12.3C3.99 12.3 2.85 13.425 3.42 16.875C3.42 16.875 4.15286 16.95 4.56 16.875C4.56 16.875 4.64143 19.725 8.30571 21.225C8.30571 21.225 8.79428 20.1 9.69 19.8L14.0871 15.15L18.4843 19.8C19.4614 20.025 19.8686 21.225 19.8686 21.225C23.5329 19.725 23.6143 16.875 23.6143 16.875C24.0214 16.95 25.08 17.175 25.08 17.175C24.7543 13.875 24.0214 13.2 24.0214 13.2C24.2657 11.925 25.8129 12.675 25.8129 12.675Z" fill="#ED6A28"/>
<path d="M6.92142 9.15002C6.92142 9.15002 6.51428 11.55 8.30571 13.425L7.97999 18.3C5.04857 11.175 6.92142 9.15002 6.92142 9.15002Z" fill="white"/>
<path d="M11.6443 8.62507C11.6443 8.62507 10.83 8.62507 10.4229 9.15007C10.4229 9.15007 9.69 7.87507 7.65429 7.57507C7.65429 7.57507 7.98 7.87507 7.98 8.10007C7.98 8.10007 7.16572 7.65007 6.27 8.85007L7.16572 9.22507C7.16572 9.22507 7.24715 10.9501 8.63143 11.3251C10.0157 11.7001 11.1557 11.1001 11.1557 11.1001C11.1557 11.1001 10.9114 9.37507 11.6443 8.62507Z" fill="white"/>
<path d="M10.0971 22.725C10.0971 22.725 10.3414 22.575 7.65428 21.225C3.58285 19.2 5.78143 15.525 5.78143 15.525C5.7 17.7 8.22428 19.2 8.22428 19.2C8.22428 19.2 9.60857 17.4 10.9114 17.25C12.2143 17.1 12.7029 18 12.7029 18L10.0971 22.725Z" fill="#390E01"/>
<path d="M13.9243 16.65C14.25 17.175 13.68 17.7 13.68 17.7C10.7486 17.7 9.36428 18.9 8.06142 16.65C7.32857 15.3 7.89857 12.75 8.71285 12.525C8.71285 12.525 9.52714 13.8 11.2371 14.325C12.7029 14.7 13.11 15.375 13.9243 16.65Z" fill="white"/>
<path d="M13.8429 16.725C10.9114 16.725 9.52714 17.925 8.22428 15.675C7.89857 15.15 7.81714 14.4 7.89857 13.65C7.65428 14.55 7.57285 15.825 8.06142 16.575C9.36428 18.825 10.7486 17.625 13.68 17.625C13.68 17.7 14.1686 17.175 13.8429 16.725C13.9243 16.725 13.8429 16.725 13.8429 16.725Z" fill="#B0B2B0"/>
<path d="M9.69 12.0751C9.69 12.0751 8.22429 12.3001 7.49143 13.5001C6.43286 15.2251 6.35143 17.4001 8.22429 20.1001L9.52714 17.9251C9.52714 17.9251 7.32857 16.2751 8.30571 13.7251C8.46857 13.0501 9.03857 12.3751 9.69 12.0751Z" fill="#390E01"/>
<path d="M7.89858 14.325C7.81715 14.175 8.63143 13.05 8.63143 13.05C8.63143 13.05 8.87572 13.95 10.5043 14.55C10.5043 14.55 8.55001 15.15 7.89858 14.325Z" fill="#390E01"/>
<path d="M7.57285 15.0001C7.57285 15.0001 7.89857 16.2751 9.93428 16.5751C9.93428 16.5751 8.06142 17.5501 7.32857 17.3251L7.57285 15.0001Z" fill="#390E01"/>
<path d="M5.13 6.60007C5.13 6.60007 3.99 6.82507 3.33857 5.77507C3.33857 5.77507 3.66428 6.00007 4.23428 5.77507C4.23428 5.77507 2.93142 5.17507 3.09428 3.45007C3.09428 3.45007 1.87285 6.30007 4.07142 7.65007C4.07142 7.65007 4.64142 6.97507 5.13 6.60007Z" fill="white"/>
<path d="M2.36143 12.675C3.25715 11.55 5.13001 11.175 5.13001 11.175C5.13001 11.175 4.23429 13.725 4.47858 16.125L5.86286 15.6C5.86286 15.6 5.13001 18.15 6.84001 20.55C4.47858 19.05 4.07143 17.4 4.07143 17.4C3.66429 17.475 2.85001 18.075 2.85001 18.075C2.28001 14.625 3.50144 12.675 3.50144 12.675C3.01286 12.825 2.36143 12.675 2.36143 12.675Z" fill="white"/>
<path d="M21.1714 9.15002C21.1714 9.15002 21.5786 11.55 19.7871 13.425L20.1129 18.3C23.0443 11.175 21.1714 9.15002 21.1714 9.15002Z" fill="white"/>
<path d="M16.53 8.62507C16.53 8.62507 17.3443 8.62507 17.7514 9.15007C17.7514 9.15007 18.4843 7.87507 20.52 7.57507C20.52 7.57507 20.1943 7.87507 20.1943 8.10007C20.1943 8.10007 21.0086 7.65007 21.9043 8.85007L20.9271 9.15007C20.9271 9.15007 21.0086 10.9501 19.6243 11.3251C18.24 11.7001 17.1 11.1001 17.1 11.1001C17.1 11.1001 17.3443 9.37507 16.53 8.62507Z" fill="white"/>
<path d="M18.1586 22.725C18.1586 22.725 18.24 22.95 20.6014 21.225C24.6729 18.3 22.3929 15.525 22.3929 15.525C22.4743 17.7 20.0314 19.2 20.0314 19.2C20.0314 19.2 18.7286 17.475 17.4257 17.25C16.1229 17.1 15.6343 18 15.6343 18L18.1586 22.725Z" fill="#390E01"/>
<path d="M14.3314 16.65C14.0057 17.175 14.5757 17.7 14.5757 17.7C17.5071 17.7 18.5657 18.75 20.1943 16.65C22.3929 13.875 19.2986 12.525 19.2986 12.525C19.2986 12.525 19.5429 13.875 15.7971 14.775C14.25 15.075 15.0643 15.375 14.3314 16.65Z" fill="white"/>
<path d="M20.52 13.5C20.6014 14.1 20.4386 14.85 19.7057 15.675C18.0771 17.7 17.0186 16.8 14.25 16.725C14.0871 17.175 14.4943 17.7 14.4943 17.7C17.4257 17.7 18.4843 18.75 20.1129 16.65C21.2529 15.225 21.0086 14.175 20.52 13.5Z" fill="#B0B2B0"/>
<path d="M17.1814 11.175C17.1814 11.175 17.4257 9.82499 18.9729 9.14999C19.6243 8.84999 20.8457 8.62499 21.9043 8.92499C21.9043 8.92499 21.4157 9.07499 21.0086 9.29999C21.0086 9.29999 20.9271 10.2 20.4386 10.575C20.0314 10.875 19.2986 11.175 17.9957 10.875C17.9957 10.875 17.67 10.875 17.1814 11.175Z" fill="#390E01"/>
<path d="M17.9957 10.425C17.9957 10.425 18.9729 9.37505 20.6829 9.30005C20.6829 9.30005 20.52 9.45005 20.3572 9.60005C20.3572 9.60005 20.4386 11.1 17.9957 10.425Z" fill="white"/>
<path d="M17.9957 10.2C17.9957 10.2 18.81 9.375 19.7872 9.375C19.7872 9.375 20.1129 9.9 19.7057 10.2C18.9729 10.725 17.9957 10.2 17.9957 10.2Z" fill="#390E01"/>
<path d="M19.38 9.90005C19.38 10.05 19.4614 10.125 19.6243 10.125C19.7871 10.125 19.8686 10.05 19.8686 9.90005C19.8686 9.75005 19.7871 9.67505 19.6243 9.67505C19.5429 9.67505 19.38 9.75005 19.38 9.90005Z" fill="white"/>
<path d="M16.53 13.425C16.6114 14.025 16.1228 14.4 16.1228 14.4C15.39 14.1 14.5757 14.025 14.0871 14.025C13.5986 14.025 12.7843 14.175 12.0514 14.4C12.0514 14.4 11.5628 14.1 11.6443 13.425C11.6443 13.425 10.6671 14.175 11.4 15.525C11.5628 15.825 11.8071 16.125 12.4586 16.425C12.9471 16.65 13.2728 16.5 13.5171 16.875C13.7614 17.25 13.68 17.775 13.68 17.775H14.0871H14.4943C14.4943 17.775 14.4128 17.175 14.6571 16.875C14.9014 16.5 15.2271 16.65 15.7157 16.425C16.3671 16.125 16.6114 15.825 16.7743 15.525C17.5071 14.175 16.53 13.425 16.53 13.425Z" fill="#390E01"/>
<path d="M12.6214 14.775C12.6214 14.775 14.0871 14.325 15.7157 14.775C15.7157 14.775 14.1686 13.725 12.6214 14.775Z" fill="white"/>
<path d="M18.4843 12.0751C18.4843 12.0751 19.95 12.3001 20.6829 13.5001C21.7414 15.2251 21.8229 17.4001 19.95 20.1001L18.5657 17.7751C18.5657 17.7751 20.8457 16.2751 19.8686 13.7251C19.7057 13.0501 19.1357 12.3751 18.4843 12.0751Z" fill="#390E01"/>
<path d="M20.6014 15.0001C20.6014 15.0001 20.2757 16.2751 18.24 16.5751C18.24 16.5751 20.1129 17.5501 20.8457 17.3251L20.6014 15.0001Z" fill="#390E01"/>
<path d="M20.2757 14.4C20.3572 14.25 19.5429 13.05 19.5429 13.05C19.5429 13.05 19.6243 13.95 17.67 14.55C17.67 14.55 19.7057 15.225 20.2757 14.4Z" fill="#390E01"/>
<path d="M16.9371 18.6001C16.9371 18.6001 18.24 18.7501 18.4028 19.1251C18.4028 19.1251 18.5657 21.0751 16.9371 22.9501C16.9371 22.9501 17.1814 19.3501 16.9371 18.6001Z" fill="white"/>
<path d="M16.9371 18.6001C16.9371 18.6001 17.5886 18.6751 18.0771 18.8251C18.0771 18.8251 17.5886 18.6001 17.5886 19.6501C17.5886 20.4001 17.5071 21.4501 16.9371 22.8751C16.9371 22.9501 17.1814 19.3501 16.9371 18.6001Z" fill="#B0B2B0"/>
<path d="M16.4486 23.025C17.0186 23.85 16.6929 24.975 16.6929 24.975C16.2043 25.275 15.6343 24.9 15.6343 24.9C15.6343 24.9 15.8786 24.6 16.1229 24.15C16.4486 23.4 16.4486 23.025 16.4486 23.025Z" fill="white"/>
<path d="M16.4486 23.025C16.6929 23.7 16.2043 24.75 16.2043 24.75C15.7971 24.9 15.6343 24.9 15.6343 24.9C15.6343 24.9 15.8786 24.6 16.1229 24.15C16.4486 23.4 16.4486 23.025 16.4486 23.025Z" fill="#B0B2B0"/>
<path d="M11.3186 18.6001C11.3186 18.6001 10.0157 18.7501 9.85285 19.1251C9.85285 19.1251 9.68999 21.0751 11.3186 22.9501C11.3186 22.9501 10.9929 19.3501 11.3186 18.6001Z" fill="white"/>
<path d="M11.8071 23.025C11.2371 23.85 11.6443 24.975 11.6443 24.975C12.0514 25.275 12.6214 24.9 12.6214 24.9C12.6214 24.9 12.3771 24.6 12.1329 24.15C11.7257 23.4 11.8071 23.025 11.8071 23.025Z" fill="white"/>
<path d="M11.8072 23.025C11.5629 23.775 11.97 24.675 11.97 24.675C12.2143 24.825 12.6214 24.825 12.6214 24.825C12.6214 24.825 12.3772 24.525 12.1329 24.075C11.7257 23.4 11.8072 23.025 11.8072 23.025Z" fill="#B0B2B0"/>
<path d="M17.2629 5.62505C16.1229 5.77505 15.0643 5.77505 15.0643 5.77505L14.25 5.92505L13.4357 5.77505C13.4357 5.77505 12.6214 5.77505 11.2371 5.62505C10.26 5.55005 9.20143 5.92505 8.87572 6.82506C8.87572 6.82506 10.1786 5.92505 11.97 6.45006C12.7843 6.67506 13.4357 7.12505 14.4129 7.12505C15.2271 7.12505 15.96 6.75005 16.7743 6.45006C18.5657 5.92505 19.8686 6.82506 19.8686 6.82506C19.2171 5.92505 18.1586 5.55005 17.2629 5.62505Z" fill="#390E01"/>
<path d="M17.4257 4.05005C16.53 3.90005 14.9829 3.97505 14.9829 3.97505C14.9829 3.97505 14.25 4.12505 14.25 4.05005L13.5171 3.97505C13.5171 3.97505 11.97 3.90005 11.0743 4.05005C10.0157 4.20005 9.12 4.80005 8.87572 5.40005C8.87572 5.40005 10.1786 4.50005 11.97 4.72505C12.7029 4.80005 13.2729 5.02505 14.25 5.02505C15.0643 5.02505 15.7971 4.87505 16.53 4.72505C18.3214 4.42505 19.6243 5.40005 19.6243 5.40005C19.38 4.80005 18.4843 4.20005 17.4257 4.05005Z" fill="#390E01"/>
<path d="M17.4257 2.62502C16.53 2.47502 14.9829 2.40002 14.9829 2.40002H13.5171C13.5171 2.40002 11.97 2.47502 11.0743 2.62502C10.0157 2.77502 9.12 3.37502 8.87572 3.97502C8.87572 3.97502 10.1786 3.07502 11.97 3.30002C12.7029 3.37502 13.2729 3.60002 14.25 3.60002C15.0643 3.60002 15.7971 3.45002 16.53 3.30002C18.3214 3.00002 19.6243 3.97502 19.6243 3.97502C19.38 3.37502 18.4843 2.77502 17.4257 2.62502Z" fill="#390E01"/>
<path d="M23.0443 6.60007C23.0443 6.60007 24.1843 6.82507 24.8357 5.77507C24.8357 5.77507 24.51 6.00007 23.94 5.77507C23.94 5.77507 25.2429 5.17507 25.08 3.45007C25.08 3.45007 26.3014 6.30007 24.1029 7.65007C24.1029 7.65007 23.5329 6.97507 23.0443 6.60007Z" fill="white"/>
<path d="M14.4943 11.925C14.4943 11.925 14.5757 11.325 14.9829 11.025C16.2857 10.05 16.0414 9.75 16.0414 9.75C16.0414 9.75 16.4486 9.9 16.53 10.425C16.53 10.425 17.2629 9.225 15.39 7.875C15.39 7.875 17.67 8.625 17.67 9.975C17.67 9.975 17.8329 9.9 18.1586 9.675C18.1586 9.675 17.8329 10.8 17.1 11.25C17.1814 11.175 15.7157 11.25 14.4943 11.925Z" fill="#390E01"/>
<path d="M11.3186 18.6001C11.3186 18.6001 10.6671 18.6751 10.1786 18.8251C10.1786 18.8251 10.6671 18.6001 10.6671 19.6501C10.6671 20.4001 10.7486 21.4501 11.3186 22.8751C11.3186 22.9501 10.9929 19.3501 11.3186 18.6001Z" fill="#B0B2B0"/>
<path d="M16.53 18.675C15.7971 18.225 12.4586 18.225 11.7257 18.675C11.7257 18.675 11.5629 19.725 12.3771 20.175L12.8657 19.35C12.8657 19.35 13.0286 19.5 13.0286 19.875C13.0286 19.875 13.5171 19.65 14.0871 19.65C14.5757 19.65 15.1457 19.875 15.1457 19.875C15.1457 19.575 15.2271 19.35 15.2271 19.35L15.8786 20.175C16.6114 19.425 16.53 18.675 16.53 18.675Z" fill="white"/>
<path d="M16.53 18.675C15.7971 18.225 12.4586 18.225 11.7257 18.675C11.7257 18.675 11.5629 19.725 12.3771 20.175C11.8071 19.5 12.2957 18.75 12.2957 18.75C13.11 18.375 15.1457 18.375 15.8786 18.75C15.8786 18.75 16.2043 19.35 15.96 20.1C16.6114 19.425 16.53 18.675 16.53 18.675Z" fill="#B0B2B0"/>
<path d="M12.7843 24.75C13.1914 24.975 14.9829 24.975 15.39 24.75C15.39 24.75 15.4714 24.15 14.9829 23.925L14.7386 24.375C14.7386 24.375 14.6571 24.3 14.6571 24.075C14.6571 24.075 14.4129 24.225 14.0871 24.225C13.8429 24.225 13.5171 24.075 13.5171 24.075C13.5171 24.225 13.4357 24.375 13.4357 24.375L13.11 24C12.7843 24.3 12.7843 24.75 12.7843 24.75Z" fill="white"/>
<path d="M23.0443 11.175C23.0443 11.175 23.94 13.725 23.6957 16.125L22.3114 15.6C22.3114 15.6 23.0443 18.15 21.3343 20.55C23.6957 19.125 24.0214 17.475 24.0214 17.475C24.4286 17.55 25.2429 18.15 25.2429 18.15C25.8129 14.7 24.5914 12.75 24.5914 12.75C25.1614 12.825 23.0443 11.175 23.0443 11.175Z" fill="white"/>
<path d="M24.6729 16.8L23.4514 16.725C23.4514 16.725 23.6143 18.45 21.4157 20.475C23.7771 19.05 24.1029 17.4 24.1029 17.4C24.51 17.475 25.3243 18.075 25.3243 18.075C25.8943 14.625 24.6729 12.675 24.6729 12.675C24.6729 12.675 25.5686 15.15 24.6729 16.8Z" fill="#B0B2B0"/>
<path d="M3.58285 16.8L4.80428 16.725C4.80428 16.725 4.64142 18.45 6.84 20.475C4.47857 19.05 4.07142 17.4 4.07142 17.4C3.66428 17.475 2.85 18.075 2.85 18.075C2.28 14.625 3.50143 12.675 3.50143 12.675C3.50143 12.675 2.68714 15.15 3.58285 16.8Z" fill="#B0B2B0"/>
<path d="M18.1586 24.9751C18.1586 24.9751 17.0186 26.3251 16.2043 26.0251C15.7971 25.8751 14.4129 25.7251 14.0871 25.7251C13.7614 25.7251 12.3771 25.8751 11.97 26.0251C11.1557 26.3251 10.0157 24.9751 10.0157 24.9751C10.0157 24.9751 9.77142 26.0251 10.5043 26.8501C10.7486 27.1501 12.3771 27.7501 14.0057 27.7501C15.7157 27.7501 17.4257 27.1501 17.67 26.8501C18.4029 26.0251 18.1586 24.9751 18.1586 24.9751Z" fill="white"/>
<path d="M14.0057 27.225C12.54 27.225 10.9114 26.925 10.1786 26.475C10.26 26.625 10.3414 26.775 10.4229 26.85C10.6671 27.15 12.2957 27.75 13.9243 27.75C15.6343 27.75 17.3443 27.15 17.5886 26.85C17.8329 26.625 17.9143 26.325 17.9957 26.025C17.8329 26.625 16.2857 27.225 14.0057 27.225Z" fill="#B0B2B0"/>
<path d="M17.1814 11.1751C17.1814 11.1751 18.0771 11.9251 20.3571 11.5501C20.3571 11.5501 18.4843 11.3251 17.7514 10.5751L17.1814 11.1751Z" fill="#390E01"/>
<path d="M21.09 9C21.09 9 21.9043 9.975 20.7643 11.175C20.7643 11.175 21.09 10.35 20.7643 9.675C20.7643 9.675 21.0086 9.3 21.09 9Z" fill="#390E01"/>
<path d="M20.6014 5.55005C20.6014 5.55005 22.4743 7.95005 21.9857 11.175C21.9857 11.175 23.4514 9.90005 22.8814 7.05005L20.6014 5.55005Z" fill="#390E01"/>
<path d="M11.0743 11.175C11.0743 11.175 10.83 9.82499 9.28285 9.14999C8.63142 8.84999 7.41 8.62499 6.35143 8.92499C6.35143 8.92499 6.84 9.07499 7.24714 9.29999C7.24714 9.29999 7.32857 10.2 7.81714 10.575C8.22428 10.875 8.95714 11.175 10.26 10.875C10.1786 10.875 10.5043 10.875 11.0743 11.175Z" fill="#390E01"/>
<path d="M10.1786 10.425C10.1786 10.425 9.20142 9.37505 7.49142 9.30005C7.49142 9.30005 7.65428 9.45005 7.81714 9.60005C7.81714 9.60005 7.81714 11.1 10.1786 10.425Z" fill="white"/>
<path d="M10.1786 10.2C10.1786 10.2 9.36428 9.375 8.38714 9.375C8.38714 9.375 8.06143 9.9 8.46857 10.2C9.20143 10.725 10.1786 10.2 10.1786 10.2Z" fill="#390E01"/>
<path d="M8.79428 9.90005C8.79428 10.05 8.71285 10.125 8.55 10.125C8.38714 10.125 8.30571 10.05 8.30571 9.90005C8.30571 9.75005 8.38714 9.67505 8.55 9.67505C8.71285 9.67505 8.79428 9.75005 8.79428 9.90005Z" fill="white"/>
<path d="M13.8429 11.925C13.8429 11.925 13.8429 11.4 12.9471 10.8C11.8071 10.05 12.1329 9.75 12.1329 9.75C12.1329 9.75 11.7257 9.9 11.6443 10.425C11.6443 10.425 10.9114 9.225 12.7843 7.875C12.7843 7.875 10.5043 8.625 10.5043 9.975C10.5043 9.975 10.3414 9.9 10.0157 9.675C10.0157 9.675 10.3414 10.8 11.0743 11.25C11.0743 11.175 12.7029 11.25 13.8429 11.925Z" fill="#390E01"/>
<path d="M11.0743 11.1751C11.0743 11.1751 10.1786 11.9251 7.89857 11.5501C7.89857 11.5501 9.77143 11.3251 10.5043 10.5751L11.0743 11.1751Z" fill="#390E01"/>
<path d="M7.08428 9C7.08428 9 6.27 9.975 7.40999 11.175C7.40999 11.175 7.08428 10.35 7.40999 9.675C7.40999 9.675 7.16571 9.3 7.08428 9Z" fill="#390E01"/>
<path d="M7.57286 5.55005C7.57286 5.55005 5.7 7.95005 6.18857 11.175C6.18857 11.175 4.72286 9.90005 5.29286 7.05005L7.57286 5.55005Z" fill="#390E01"/>
<path d="M11.0743 13.05C11.0743 13.05 6.35144 12.075 1.38429 13.65C1.38429 13.725 6.75858 10.575 11.0743 13.05Z" fill="white"/>
<path d="M11.0743 13.05C11.0743 13.05 6.10715 11.55 1.38429 13.65C1.38429 13.725 6.75858 10.575 11.0743 13.05Z" fill="#0E0D12"/>
<path d="M11.0743 14.025C11.0743 14.025 6.27001 13.875 1.62859 16.35C1.62859 16.35 6.43287 12.3 11.0743 14.025Z" fill="white"/>
<path d="M11.0743 14.025C11.0743 14.025 5.86287 13.425 1.62859 16.35C1.62859 16.35 6.43287 12.3 11.0743 14.025Z" fill="#0E0D12"/>
<path d="M11.4814 15.0749C11.4814 15.0749 6.67715 15.2249 2.19858 17.9249C2.28001 17.9249 6.84001 13.5749 11.4814 15.0749Z" fill="white"/>
<path d="M11.4814 15.0749C11.4814 15.0749 6.27001 14.7749 2.19858 17.9249C2.28001 17.9249 6.84001 13.5749 11.4814 15.0749Z" fill="#0E0D12"/>
<path d="M17.5072 13.05C17.5072 13.05 22.23 12.075 27.1972 13.65C27.1157 13.725 21.7415 10.575 17.5072 13.05Z" fill="white"/>
<path d="M17.5072 13.05C17.5072 13.05 22.4743 11.55 27.1972 13.65C27.1157 13.725 21.7415 10.575 17.5072 13.05Z" fill="#0E0D12"/>
<path d="M17.5072 14.025C17.5072 14.025 22.3115 13.875 26.9529 16.35C26.8715 16.35 22.0672 12.3 17.5072 14.025Z" fill="white"/>
<path d="M17.5072 14.025C17.5072 14.025 22.7186 13.425 26.9529 16.35C26.8715 16.35 22.0672 12.3 17.5072 14.025Z" fill="#0E0D12"/>
<path d="M17.0186 15.0749C17.0186 15.0749 21.8229 15.2249 26.3014 17.9249C26.3014 17.9249 21.7414 13.5749 17.0186 15.0749Z" fill="white"/>
<path d="M17.0186 15.0749C17.0186 15.0749 22.23 14.7749 26.3014 17.9249C26.3014 17.9249 21.7414 13.5749 17.0186 15.0749Z" fill="#0E0D12"/>
<path d="M14.82 15C14.82 15 14.5757 15.15 14.25 15.15C14.0057 15.15 13.68 15 13.68 15C13.68 15.15 13.5986 15.3 13.5986 15.3H14.9014C14.9014 15.225 14.82 15.15 14.82 15Z" fill="#B0B2B0"/>
<path d="M13.68 15.225L13.3543 14.775C13.2729 14.775 13.1914 15.3 13.68 15.225Z" fill="#B0B2B0"/>
<path d="M15.2271 14.775L14.9828 15.225C14.9014 15.225 15.39 15.225 15.2271 14.775Z" fill="#B0B2B0"/>
</g>
<defs>
<clipPath id="clip0_232_1027">
<rect width="28.5" height="30" fill="white"/>
</clipPath>
</defs>
</svg>
