<svg width="30" height="30" viewBox="0 0 30 30" fill="none" xmlns="http://www.w3.org/2000/svg">
<g clip-path="url(#clip0_232_1017)">
<path fill-rule="evenodd" clip-rule="evenodd" d="M27.7126 17.1899C27.2743 19.8941 26.0322 22.4018 24.1102 24.3721C21.6879 26.8683 18.4282 28.255 15 28.255C11.5717 28.255 8.3121 26.8683 5.88423 24.3721C3.96778 22.4018 2.72012 19.8941 2.28175 17.1899H0V16.797H2.22555H5.74372H6.27763C6.62046 18.5535 7.45785 20.1772 8.71113 21.4657C11.9258 24.7708 18.1304 24.7188 21.2889 21.4657C22.5422 20.1772 23.3795 18.5535 23.7224 16.797H24.2563H27.7744H30V17.1899H27.7126Z" fill="#383856"/>
<path fill-rule="evenodd" clip-rule="evenodd" d="M5.88423 5.62789C8.3121 3.13174 11.5661 1.745 15 1.745C18.4283 1.745 21.6879 3.13174 24.1158 5.62789C26.0322 7.59823 27.2799 10.1059 27.7182 12.8101H30.0056V13.203H27.7801H24.2619H23.728C23.3852 11.4465 22.5478 9.82281 21.2945 8.53429C19.6197 6.81241 17.3717 5.85324 15.0056 5.85324C12.6396 5.85324 10.3915 6.81241 8.71675 8.53429C7.46347 9.82281 6.62608 11.4465 6.28325 13.203H5.74934H2.22555H0V12.8101H2.28175C2.72012 10.1059 3.96778 7.59823 5.88423 5.62789Z" fill="#10C8C8"/>
<path fill-rule="evenodd" clip-rule="evenodd" d="M27.7182 15.0116C27.6958 15.0001 27.6733 14.9827 27.6564 14.9654C27.6396 14.9481 27.6227 14.9249 27.6115 14.9018C27.6002 14.8787 27.589 14.8556 27.5834 14.8267C27.5777 14.7978 27.5721 14.7689 27.5721 14.74C27.5721 14.6823 27.5834 14.6303 27.6002 14.584C27.6171 14.5378 27.6452 14.4974 27.6845 14.4627C27.7239 14.428 27.7688 14.3991 27.8194 14.3818C27.87 14.3645 27.9262 14.3529 27.9936 14.3529C28.0554 14.3529 28.1116 14.3645 28.1622 14.3818C28.2128 14.3991 28.2578 14.428 28.2971 14.4627C28.3364 14.4974 28.3645 14.5378 28.387 14.584C28.4039 14.6303 28.4151 14.6823 28.4151 14.74C28.4151 14.7689 28.4095 14.7978 28.4039 14.8267C28.3983 14.8556 28.387 14.8787 28.3758 14.9018C28.3645 14.9249 28.3477 14.9423 28.3308 14.9654C28.314 14.9827 28.2915 15.0001 28.269 15.0116C28.2971 15.0232 28.3196 15.0405 28.3364 15.0636C28.3589 15.0809 28.3758 15.1041 28.387 15.133C28.3983 15.1561 28.4095 15.185 28.4207 15.2138C28.4264 15.2427 28.432 15.2774 28.432 15.3121C28.432 15.3756 28.4207 15.4334 28.4039 15.4854C28.3814 15.5374 28.3533 15.5836 28.314 15.6183C28.2746 15.653 28.224 15.6819 28.1735 15.6992C28.1173 15.7165 28.0554 15.7281 27.988 15.7281C27.9206 15.7281 27.8587 15.7165 27.8025 15.6992C27.7463 15.6819 27.7014 15.653 27.662 15.6125C27.6227 15.5721 27.5946 15.5316 27.5721 15.4796C27.5496 15.4276 27.544 15.3699 27.544 15.3063C27.544 15.2716 27.5496 15.237 27.5553 15.2081C27.5609 15.1792 27.5721 15.1503 27.589 15.1272C27.6058 15.0983 27.6227 15.0752 27.6396 15.0578C27.6677 15.0405 27.6901 15.0232 27.7182 15.0116ZM28.0049 15.4739C28.0273 15.4739 28.0498 15.4739 28.0667 15.4623C28.0835 15.4565 28.1004 15.4392 28.1173 15.4276C28.1341 15.4103 28.1454 15.393 28.151 15.3699C28.1566 15.3467 28.1622 15.3236 28.1622 15.3005C28.1622 15.2774 28.1566 15.2543 28.151 15.2312C28.1454 15.2138 28.1341 15.1965 28.1173 15.1792C28.1004 15.1618 28.0835 15.1503 28.0667 15.1445C28.0498 15.1387 28.0273 15.133 28.0049 15.133C27.9824 15.133 27.9599 15.1387 27.943 15.1445C27.9262 15.1503 27.9093 15.1618 27.8925 15.1792C27.8812 15.1965 27.87 15.2138 27.8587 15.237C27.8531 15.2601 27.8475 15.2832 27.8475 15.3121C27.8475 15.3352 27.8531 15.3583 27.8587 15.3814C27.8644 15.4045 27.8756 15.4219 27.8925 15.4334C27.9093 15.4507 27.9262 15.4623 27.943 15.4681C27.9599 15.4739 27.9768 15.4739 28.0049 15.4739ZM28.0049 14.9076C28.0273 14.9076 28.0498 14.9076 28.0667 14.896C28.0835 14.8903 28.1004 14.8787 28.1116 14.8614C28.1229 14.8498 28.1341 14.8325 28.1397 14.8094C28.1454 14.792 28.151 14.7689 28.151 14.7458C28.151 14.7227 28.1454 14.6996 28.1397 14.6823C28.1341 14.6649 28.1229 14.6476 28.1116 14.636C28.1004 14.6245 28.0835 14.6129 28.0667 14.6071C28.0498 14.6014 28.0273 14.5956 28.0049 14.5956C27.9824 14.5956 27.9599 14.6014 27.943 14.6071C27.9262 14.6129 27.9093 14.6245 27.8925 14.6418C27.8812 14.6534 27.87 14.6707 27.8644 14.688C27.8587 14.7054 27.8531 14.7285 27.8531 14.7516C27.8531 14.7747 27.8587 14.792 27.8644 14.8152C27.87 14.8325 27.8812 14.8498 27.8981 14.8672C27.9093 14.8845 27.9262 14.896 27.9487 14.9018C27.9599 14.9076 27.9824 14.9134 28.0049 14.9076ZM26.8808 15.7108V14.7805L26.6336 14.9018V14.6129L27.1506 14.3529H27.1787V15.705H26.8808V15.7108ZM26.3357 15.2947C26.3357 15.3641 26.3245 15.4276 26.3076 15.4854C26.2907 15.5374 26.2626 15.5894 26.2233 15.6241C26.184 15.6645 26.139 15.6934 26.0884 15.7108C26.0378 15.7281 25.976 15.7397 25.9086 15.7397C25.8411 15.7397 25.7793 15.7281 25.7287 15.7108C25.6781 15.6934 25.6276 15.6645 25.5938 15.6241C25.5545 15.5836 25.5264 15.5374 25.5095 15.4854C25.4927 15.4334 25.4814 15.3699 25.4814 15.3005V14.8036C25.4814 14.7343 25.4927 14.6707 25.5095 14.6187C25.5264 14.5667 25.5545 14.5205 25.5938 14.48C25.6332 14.4396 25.6781 14.4107 25.7287 14.3934C25.7793 14.376 25.8411 14.3645 25.9086 14.3645C25.976 14.3645 26.0378 14.376 26.0884 14.3934C26.139 14.4107 26.184 14.4396 26.2233 14.48C26.2626 14.5205 26.2907 14.5667 26.3076 14.6187C26.3245 14.6707 26.3357 14.7343 26.3357 14.8036V15.2947ZM25.7681 14.8094V15.2774C25.7681 15.3063 25.7737 15.3352 25.7793 15.3583C25.7849 15.3814 25.7962 15.3987 25.8074 15.4161C25.8186 15.4334 25.8355 15.445 25.8524 15.4507C25.8692 15.4565 25.8861 15.4623 25.9086 15.4623C25.931 15.4623 25.9479 15.4565 25.9648 15.4507C25.9816 15.445 25.9929 15.4334 26.0041 15.4161C26.0154 15.3987 26.0266 15.3814 26.0322 15.3583C26.0378 15.3352 26.0434 15.3063 26.0434 15.2774V14.8036C26.0434 14.7747 26.0434 14.7458 26.0322 14.7285C26.0266 14.7054 26.0154 14.688 26.0041 14.6707C25.9929 14.6534 25.9816 14.6418 25.9648 14.636C25.9479 14.6303 25.931 14.6245 25.9086 14.6245C25.8861 14.6245 25.8692 14.6303 25.8524 14.636C25.8355 14.6476 25.8243 14.6591 25.8074 14.6707C25.7962 14.688 25.7849 14.7054 25.7793 14.7285C25.7737 14.7574 25.7681 14.7805 25.7681 14.8094ZM24.4024 15.7108V15.6761L24.9307 14.9192C24.9475 14.9018 24.9588 14.8845 24.9644 14.8672C24.9756 14.8498 24.9813 14.8383 24.9869 14.8267C24.9925 14.8152 24.9981 14.8036 24.9981 14.7978C24.9981 14.7863 25.0037 14.7747 25.0037 14.7689C25.0037 14.7458 24.9981 14.7285 24.9925 14.7111C24.9869 14.6938 24.9756 14.6823 24.9644 14.6649C24.9532 14.6534 24.9363 14.6418 24.9194 14.636C24.9026 14.6303 24.8857 14.6245 24.8632 14.6245C24.8408 14.6245 24.8183 14.6303 24.8014 14.636C24.7845 14.6418 24.7677 14.6534 24.7565 14.6707C24.7452 14.688 24.734 14.7054 24.7283 14.7285C24.7227 14.7516 24.7171 14.7747 24.7171 14.8036V14.8152H24.4192C24.4192 14.7458 24.4305 14.6823 24.453 14.6245C24.4754 14.5667 24.5035 14.5205 24.5429 14.48C24.5822 14.4396 24.6272 14.4107 24.6834 14.3876C24.7396 14.3702 24.8014 14.3587 24.8689 14.3587C24.9307 14.3587 24.9925 14.3702 25.0431 14.3876C25.0937 14.4049 25.1442 14.4338 25.1836 14.4685C25.2229 14.5031 25.251 14.5494 25.2735 14.5956C25.296 14.6418 25.3016 14.6996 25.3016 14.7574C25.3016 14.7805 25.3016 14.8036 25.296 14.8325C25.2904 14.8556 25.2847 14.8787 25.2791 14.9018C25.2735 14.9249 25.2623 14.9481 25.251 14.9712C25.2398 14.9943 25.2229 15.0174 25.2061 15.0405L24.9307 15.4276H25.296V15.7165H24.4024V15.7108ZM4.96252 15.5663C4.96252 15.5894 4.9569 15.6125 4.95128 15.6356C4.94566 15.6588 4.9288 15.6761 4.91756 15.6934C4.9007 15.7108 4.88384 15.7223 4.86136 15.7281C4.83888 15.7339 4.82202 15.7397 4.79392 15.7397C4.77144 15.7397 4.74896 15.7339 4.7321 15.7281C4.70962 15.7223 4.69276 15.7108 4.6759 15.6934C4.65904 15.6761 4.6478 15.6588 4.64217 15.6356C4.63655 15.6125 4.63094 15.5952 4.63094 15.5663C4.63094 15.5432 4.63655 15.5201 4.64217 15.5028C4.6478 15.4796 4.66466 15.4623 4.6759 15.445C4.69276 15.4276 4.70962 15.4161 4.7321 15.4103C4.75458 15.3987 4.77144 15.3987 4.79392 15.3987C4.8164 15.3987 4.83888 15.4045 4.85574 15.4103C4.87822 15.4219 4.89508 15.4334 4.90632 15.4507C4.92318 15.4681 4.93442 15.4854 4.94566 15.5085C4.96252 15.5259 4.96252 15.5432 4.96252 15.5663ZM4.11951 15.7108V14.6476H3.82726V14.376H4.73772V14.6476H4.44547V15.7108H4.11951ZM3.10227 15.3294C3.10227 15.3525 3.10789 15.3756 3.11351 15.3872C3.11913 15.4045 3.13037 15.4161 3.14723 15.4334C3.16409 15.445 3.18095 15.4565 3.19781 15.4623C3.21467 15.4681 3.23715 15.4739 3.26525 15.4739C3.28774 15.4739 3.31022 15.4739 3.32708 15.4681C3.34394 15.4623 3.3608 15.4565 3.37766 15.445C3.3889 15.4334 3.40014 15.4219 3.40576 15.4045C3.41138 15.3872 3.417 15.3756 3.417 15.3525C3.417 15.3352 3.41138 15.3236 3.40576 15.3063C3.40014 15.289 3.3889 15.2774 3.37766 15.2658C3.36642 15.2543 3.34394 15.2427 3.31584 15.2254C3.28774 15.2138 3.25401 15.1965 3.20905 15.1792C3.20343 15.1792 3.19781 15.1792 3.19219 15.1734C3.18657 15.1734 3.18095 15.1676 3.16971 15.1676C3.11913 15.1503 3.07417 15.133 3.03483 15.1098C2.99549 15.0925 2.96739 15.0694 2.93929 15.0521C2.91681 15.0347 2.89995 15.0174 2.88309 14.9943C2.86623 14.9712 2.84937 14.9481 2.83813 14.9249C2.82689 14.9018 2.81565 14.8729 2.81003 14.844C2.80441 14.8152 2.79879 14.7863 2.79879 14.7574C2.79879 14.6996 2.81003 14.6418 2.82689 14.5956C2.84937 14.5494 2.87747 14.5031 2.91681 14.4685C2.95615 14.4338 3.00111 14.4049 3.05731 14.3876C3.10789 14.3702 3.16971 14.3587 3.23715 14.3587C3.31022 14.3587 3.37766 14.3702 3.42824 14.3876C3.48444 14.4049 3.5294 14.4338 3.56874 14.4685C3.60808 14.5031 3.63618 14.5494 3.65866 14.5956C3.68114 14.6476 3.68676 14.7054 3.69238 14.7689H3.39452C3.39452 14.7458 3.3889 14.7227 3.38328 14.7054C3.37766 14.688 3.36642 14.6707 3.35518 14.6534C3.34394 14.6418 3.32708 14.6303 3.31022 14.6245C3.29336 14.6187 3.27087 14.6129 3.24839 14.6129C3.22591 14.6129 3.20905 14.6129 3.18657 14.6187C3.16971 14.6245 3.15285 14.6303 3.14161 14.6418C3.13037 14.6534 3.11913 14.6649 3.11351 14.6823C3.10789 14.6996 3.10227 14.7169 3.10227 14.7343C3.10227 14.7632 3.11913 14.7863 3.15285 14.8152C3.18657 14.8383 3.23153 14.8672 3.29898 14.8903C3.31022 14.896 3.32146 14.9018 3.3327 14.9018C3.34394 14.9076 3.34956 14.9076 3.3608 14.9134C3.36642 14.9134 3.36642 14.9192 3.37766 14.9192C3.38328 14.9192 3.3889 14.9249 3.40014 14.9249C3.45634 14.9481 3.50692 14.9712 3.55188 14.9943C3.59122 15.0174 3.62494 15.0463 3.64742 15.0694C3.66428 15.0867 3.67552 15.1041 3.68676 15.1214C3.698 15.1387 3.70362 15.1618 3.71486 15.1792C3.72048 15.1965 3.7261 15.2196 3.73172 15.2427C3.73734 15.2658 3.73734 15.289 3.73734 15.3179C3.73734 15.3814 3.7261 15.4392 3.70362 15.4912C3.68114 15.5432 3.64742 15.5894 3.60808 15.6299C3.56312 15.6703 3.51254 15.6992 3.45634 15.7165C3.40014 15.7339 3.3327 15.7454 3.25963 15.7454C3.19219 15.7454 3.13037 15.7339 3.07417 15.7165C3.01797 15.6992 2.97301 15.6703 2.93367 15.6356C2.89433 15.601 2.86061 15.5548 2.84375 15.5028C2.82127 15.4507 2.81003 15.393 2.81003 15.3294H3.10227ZM1.85461 15.7108V14.376H2.58522V14.636H2.18058V14.9076H2.58522V15.1618H2.18058V15.4392H2.58522V15.705H1.85461V15.7108Z" fill="white"/>
<path fill-rule="evenodd" clip-rule="evenodd" d="M23.8235 22.344L23.0199 21.7431L23.1716 21.5235L23.7673 21.5639C23.7786 21.5639 23.7898 21.5639 23.8011 21.5639C23.8123 21.5639 23.8235 21.5639 23.8348 21.5697C23.8404 21.5697 23.846 21.5697 23.8516 21.5697C23.8573 21.5697 23.8629 21.5697 23.8685 21.5697C23.8854 21.5697 23.9022 21.5755 23.9135 21.5755C23.9303 21.5755 23.9416 21.5813 23.9584 21.587C23.9416 21.5813 23.9247 21.5697 23.9078 21.5639C23.891 21.5582 23.8741 21.5466 23.8629 21.5408C23.846 21.5293 23.8348 21.5235 23.8179 21.5119C23.8011 21.5004 23.7898 21.4946 23.7786 21.483L23.402 21.1999L23.5482 20.9977L24.3518 21.5986L24.2057 21.8008L23.5931 21.7777C23.5819 21.7777 23.5706 21.7777 23.5594 21.7777C23.5482 21.7777 23.5313 21.7719 23.5201 21.7719C23.5144 21.7719 23.5032 21.7719 23.4976 21.7662C23.492 21.7662 23.4807 21.7662 23.4751 21.7604C23.4639 21.7604 23.4582 21.7604 23.447 21.7546C23.4414 21.7546 23.4301 21.7488 23.4189 21.7488C23.4358 21.7546 23.447 21.7604 23.4639 21.7662C23.4807 21.7719 23.492 21.7777 23.5032 21.7893C23.5144 21.7951 23.5313 21.8066 23.5425 21.8124C23.5538 21.824 23.5706 21.8297 23.5819 21.8413L23.9697 22.1302L23.8235 22.344ZM22.323 23.4707L22.5141 23.28L22.0982 23.0316L22.323 23.4707ZM22.2893 23.9734L21.8453 22.9911L22.0645 22.7716L23.003 23.2627L22.8119 23.4534L22.6827 23.3783L22.4073 23.6498L22.4803 23.7827L22.2893 23.9734ZM20.7437 24.245C20.7213 24.2334 20.7044 24.2276 20.6819 24.2276C20.6594 24.2219 20.6426 24.2219 20.6201 24.2219C20.5976 24.2219 20.5808 24.2276 20.5583 24.2334C20.5358 24.2392 20.5189 24.2508 20.5021 24.2623C20.4684 24.2854 20.4403 24.3085 20.4234 24.3374C20.4009 24.3663 20.3897 24.401 20.3841 24.4414C20.3784 24.4761 20.3784 24.5166 20.3897 24.5512C20.3953 24.5917 20.4122 24.6263 20.4346 24.6668C20.4571 24.7015 20.4852 24.7361 20.5133 24.7592C20.5414 24.7823 20.5751 24.7997 20.6089 24.8112C20.6426 24.8228 20.6819 24.8228 20.7156 24.817C20.7494 24.8112 20.7831 24.7997 20.8168 24.7766C20.8449 24.7592 20.8618 24.7419 20.8842 24.7188C20.9011 24.6957 20.918 24.6726 20.9292 24.6495C20.9404 24.6263 20.9461 24.5975 20.9517 24.5686C20.9517 24.5397 20.9517 24.5108 20.9461 24.4819L20.7269 24.6206L20.6257 24.453L21.0641 24.1699C21.0641 24.1756 21.0697 24.1756 21.0697 24.1814C21.0697 24.1872 21.0753 24.193 21.0809 24.1988C21.0866 24.2045 21.0866 24.2103 21.0922 24.2161C21.0978 24.2219 21.0978 24.2219 21.0978 24.2276C21.109 24.245 21.1147 24.2565 21.1259 24.2739C21.1315 24.2912 21.1428 24.3028 21.1484 24.3201C21.154 24.3259 21.154 24.3374 21.1596 24.3432C21.1652 24.349 21.1652 24.3605 21.1652 24.3663C21.1709 24.3894 21.1765 24.4125 21.1821 24.4357C21.1877 24.4588 21.1877 24.4761 21.1877 24.4992C21.1877 24.5512 21.1821 24.5974 21.1709 24.6437C21.1596 24.6899 21.1428 24.7303 21.1259 24.7708C21.1034 24.8112 21.0809 24.8459 21.0472 24.8748C21.0135 24.9095 20.9798 24.9384 20.9404 24.9615C20.9067 24.9846 20.8786 24.9961 20.8449 25.0135C20.8112 25.025 20.7831 25.0366 20.7494 25.0424C20.7156 25.0481 20.6819 25.0539 20.6482 25.0539C20.6145 25.0539 20.5808 25.0481 20.547 25.0424C20.5133 25.0366 20.4796 25.025 20.4515 25.0135C20.4234 25.0019 20.3897 24.9846 20.3672 24.9615C20.3391 24.9384 20.3166 24.9152 20.2885 24.8921C20.266 24.869 20.2436 24.8401 20.2211 24.8055C20.1986 24.7708 20.1874 24.7419 20.1705 24.7072C20.1593 24.6726 20.148 24.6379 20.1424 24.6032C20.1368 24.5686 20.1312 24.5339 20.1368 24.4992C20.1368 24.4646 20.1424 24.4299 20.148 24.3952C20.1536 24.3605 20.1649 24.3259 20.1761 24.297C20.1874 24.2681 20.2042 24.2392 20.2267 24.2103C20.2492 24.1814 20.2717 24.1583 20.2941 24.1294C20.3222 24.1063 20.3503 24.0832 20.3784 24.0601C20.4122 24.037 20.4459 24.0196 20.4852 24.0023C20.5189 23.9907 20.5583 23.9792 20.592 23.9734C20.6257 23.9676 20.6651 23.9676 20.6988 23.9676C20.7381 23.9734 20.7718 23.9792 20.8112 23.9907L20.7437 24.245ZM18.5182 24.9961C18.5519 24.9846 18.5856 24.973 18.6193 24.9672C18.6531 24.9615 18.6868 24.9557 18.7205 24.9557C18.7542 24.9557 18.788 24.9615 18.8217 24.9672C18.8554 24.973 18.8891 24.9846 18.9172 24.9961C18.9509 25.0077 18.979 25.025 19.0071 25.0481C19.0352 25.0655 19.0577 25.0886 19.0802 25.1175C19.1027 25.1464 19.1252 25.1695 19.142 25.2042C19.1589 25.233 19.1757 25.2677 19.1926 25.3024C19.2038 25.337 19.2151 25.3717 19.2207 25.4064C19.2263 25.4411 19.2319 25.4757 19.2319 25.5104C19.2319 25.5451 19.2263 25.5797 19.2207 25.6144C19.2151 25.6491 19.2038 25.678 19.187 25.7126C19.1757 25.7473 19.1589 25.7762 19.1364 25.8051C19.1195 25.834 19.0971 25.8571 19.069 25.886C19.0465 25.9091 19.0184 25.9322 18.9847 25.9495C18.9566 25.9669 18.9228 25.9842 18.8891 26.0015C18.8554 26.0131 18.8217 26.0246 18.788 26.0362C18.7542 26.042 18.7205 26.0478 18.6868 26.0478C18.6531 26.0478 18.6193 26.0478 18.5856 26.0362C18.5519 26.0304 18.5238 26.0189 18.4901 26.0015C18.4564 25.99 18.4283 25.9726 18.4002 25.9495C18.3721 25.9322 18.3496 25.9091 18.3271 25.886C18.3046 25.8629 18.2821 25.834 18.2653 25.8051C18.2484 25.7762 18.2316 25.7415 18.2147 25.7068C18.2035 25.6722 18.1922 25.6375 18.1866 25.6028C18.181 25.5682 18.1754 25.5335 18.1754 25.4988C18.1754 25.4642 18.181 25.4295 18.1866 25.3948C18.1922 25.3602 18.2035 25.3255 18.2147 25.2966C18.2259 25.2619 18.2428 25.233 18.2653 25.2042C18.2821 25.1753 18.3046 25.1521 18.3327 25.129C18.3552 25.1059 18.3833 25.0828 18.417 25.0655C18.4507 25.0308 18.4845 25.0135 18.5182 24.9961ZM18.8217 25.7762C18.861 25.7646 18.8891 25.7415 18.9116 25.7184C18.9341 25.6953 18.9566 25.6606 18.9678 25.626C18.979 25.5913 18.9847 25.5508 18.9847 25.5162C18.9847 25.4757 18.9734 25.4353 18.9566 25.3948C18.9397 25.3544 18.9228 25.3197 18.8947 25.2908C18.8723 25.2619 18.8385 25.2388 18.8104 25.2215C18.7767 25.2042 18.743 25.1926 18.7093 25.1926C18.6755 25.1926 18.6362 25.1984 18.6025 25.2157C18.5688 25.233 18.535 25.2504 18.5126 25.2735C18.4901 25.2966 18.4676 25.3313 18.4564 25.3659C18.4451 25.4006 18.4395 25.4353 18.4395 25.4757C18.4395 25.5162 18.4507 25.5566 18.4676 25.5971C18.4845 25.6375 18.5013 25.6722 18.5294 25.7011C18.5519 25.73 18.5856 25.7531 18.6137 25.7704C18.6474 25.7877 18.6812 25.7993 18.7149 25.7993C18.7486 25.7993 18.7823 25.7877 18.8217 25.7762ZM16.7816 26.5331L16.5961 25.5277L16.8434 25.4815L16.9895 26.2847L17.2368 26.2384L17.2761 26.4407L16.7816 26.5331ZM15.0281 26.3829C15.0281 26.4002 15.0337 26.4176 15.0394 26.4291C15.045 26.4407 15.0562 26.4522 15.0675 26.4638C15.0787 26.4753 15.0899 26.4811 15.1068 26.4869C15.1237 26.4927 15.1405 26.4927 15.1574 26.4927C15.1742 26.4927 15.1911 26.4869 15.208 26.4869C15.2248 26.4811 15.2361 26.4753 15.2473 26.4696C15.2585 26.458 15.2642 26.4522 15.2698 26.4407C15.2754 26.4291 15.2754 26.4176 15.2754 26.4002C15.2754 26.3887 15.2698 26.3771 15.2642 26.3656C15.2585 26.354 15.2529 26.3424 15.2417 26.3367C15.2304 26.3309 15.2136 26.3193 15.1911 26.3078C15.1686 26.2962 15.1405 26.2847 15.1068 26.2731C15.1012 26.2731 15.1012 26.2731 15.0956 26.2731C15.0899 26.2731 15.0843 26.2673 15.0787 26.2673C15.0394 26.2558 15.0056 26.2442 14.9775 26.2269C14.9494 26.2153 14.9213 26.198 14.9045 26.1864C14.8876 26.1749 14.8708 26.1575 14.8595 26.146C14.8483 26.1287 14.837 26.1113 14.8258 26.094C14.8146 26.0766 14.8089 26.0535 14.8033 26.0304C14.7977 26.0073 14.7977 25.9842 14.7921 25.9611C14.7921 25.9149 14.7977 25.8744 14.8089 25.834C14.8202 25.7935 14.8427 25.7646 14.8764 25.73C14.9045 25.7011 14.9382 25.678 14.9832 25.6606C15.0225 25.6433 15.0675 25.6375 15.118 25.6317C15.1742 25.6317 15.2248 25.6317 15.2698 25.6491C15.3147 25.6606 15.3485 25.678 15.3822 25.7068C15.4159 25.7357 15.4384 25.7646 15.4552 25.8051C15.4721 25.8455 15.4833 25.886 15.4833 25.938L15.2585 25.9438C15.2585 25.9264 15.2529 25.9091 15.2473 25.8917C15.2417 25.8744 15.2361 25.8629 15.2248 25.8571C15.2136 25.8455 15.2023 25.8397 15.1855 25.834C15.1686 25.8282 15.1574 25.8282 15.1349 25.8282C15.118 25.8282 15.1012 25.834 15.0899 25.834C15.0787 25.8397 15.0618 25.8455 15.0562 25.8571C15.045 25.8686 15.0394 25.8744 15.0337 25.886C15.0281 25.8975 15.0281 25.9091 15.0281 25.9264C15.0281 25.9495 15.0394 25.9669 15.0675 25.9842C15.0956 26.0015 15.1293 26.0189 15.1799 26.0362C15.1911 26.042 15.1967 26.042 15.208 26.0478C15.2136 26.0535 15.2248 26.0535 15.2304 26.0535C15.2304 26.0535 15.2361 26.0535 15.2417 26.0593C15.2473 26.0593 15.2529 26.0651 15.2585 26.0651C15.3035 26.0824 15.3428 26.094 15.3766 26.1113C15.4103 26.1287 15.4328 26.146 15.4552 26.1691C15.4665 26.1807 15.4777 26.1922 15.489 26.2095C15.4946 26.2211 15.5058 26.2384 15.5114 26.2558C15.5171 26.2731 15.5227 26.2847 15.5283 26.302C15.5339 26.3193 15.5339 26.3367 15.5339 26.3598C15.5339 26.406 15.5283 26.4522 15.5114 26.4927C15.4946 26.5331 15.4721 26.5678 15.4384 26.6025C15.4047 26.6313 15.3653 26.6602 15.326 26.6718C15.281 26.6891 15.2304 26.6949 15.1742 26.7007C15.1237 26.7007 15.0731 26.6949 15.0337 26.6834C14.9944 26.6718 14.9551 26.6545 14.9213 26.6256C14.8876 26.5967 14.8651 26.5678 14.8483 26.5273C14.8314 26.4869 14.8202 26.4464 14.8146 26.3944L15.0281 26.3829ZM11.8415 26.2269L12.0663 25.2273L12.4204 25.3139C12.4766 25.3255 12.5216 25.3486 12.5609 25.3717C12.6002 25.3948 12.634 25.4295 12.6564 25.4642C12.6845 25.4988 12.6958 25.5393 12.707 25.5855C12.7126 25.626 12.7126 25.6722 12.7014 25.7242C12.6902 25.7646 12.6789 25.7935 12.6621 25.8224C12.6452 25.8513 12.6227 25.8744 12.6002 25.8975C12.5778 25.9149 12.5497 25.9322 12.5216 25.938C12.4935 25.9438 12.4597 25.9438 12.426 25.9438L12.5834 26.4118L12.2911 26.3424L12.1731 25.8686L12.0776 26.2904L11.8415 26.2269ZM12.3361 25.4988L12.2687 25.4815L12.2068 25.7589L12.2799 25.7762C12.3024 25.782 12.3249 25.7877 12.3473 25.782C12.3698 25.7762 12.3867 25.7762 12.3979 25.7646C12.4148 25.7531 12.426 25.7415 12.4373 25.73C12.4485 25.7126 12.4541 25.6953 12.4597 25.6722C12.4654 25.6491 12.4654 25.6317 12.4654 25.6086C12.4654 25.5913 12.4541 25.574 12.4485 25.5566C12.4373 25.5451 12.426 25.5277 12.4092 25.5219C12.3811 25.5162 12.3586 25.5046 12.3361 25.4988ZM10.4983 24.5975L10.2735 25.1175C10.2567 25.1579 10.2454 25.1926 10.2398 25.2273C10.2342 25.2562 10.2286 25.285 10.2342 25.3082C10.2398 25.3313 10.2454 25.3486 10.2623 25.3659C10.2791 25.3833 10.296 25.3948 10.3185 25.4064C10.3466 25.4179 10.3691 25.4237 10.3915 25.4237C10.414 25.4237 10.4309 25.4179 10.4534 25.4006C10.4702 25.3891 10.4927 25.3659 10.5096 25.3428C10.5264 25.3139 10.5433 25.285 10.5658 25.2446L10.7906 24.7246L11.021 24.8286L10.7625 25.4295C10.74 25.4873 10.7063 25.5335 10.6726 25.5682C10.6388 25.6028 10.5939 25.6317 10.5489 25.6491C10.5039 25.6664 10.4534 25.6722 10.4028 25.6664C10.3522 25.6606 10.296 25.6433 10.2398 25.6202C10.1836 25.5913 10.133 25.5624 10.0937 25.5277C10.0543 25.4931 10.0262 25.4526 10.0038 25.4064C9.9869 25.3602 9.97566 25.3082 9.98128 25.2619C9.98128 25.2099 9.99814 25.1579 10.0206 25.1059L10.2791 24.505L10.4983 24.5975ZM8.94157 23.6094C8.96967 23.6325 8.99777 23.6556 9.02587 23.6845C9.04835 23.7076 9.07083 23.7365 9.08769 23.7654C9.10455 23.7943 9.12141 23.8232 9.13265 23.8578C9.14389 23.8925 9.15513 23.9214 9.16075 23.9561C9.16637 23.9907 9.16637 24.0254 9.16637 24.0601C9.16637 24.0948 9.16075 24.1294 9.15513 24.1641C9.14389 24.1988 9.13265 24.2334 9.12141 24.2623C9.10455 24.297 9.08769 24.3259 9.06521 24.3548C9.04273 24.3837 9.02025 24.4125 8.99777 24.4357C8.97529 24.4588 8.94719 24.4819 8.91909 24.4992C8.89098 24.5166 8.86288 24.5339 8.82916 24.5454C8.79544 24.557 8.76734 24.5686 8.73362 24.5743C8.6999 24.5801 8.66618 24.5801 8.63246 24.5801C8.59874 24.5801 8.56502 24.5743 8.5313 24.5628C8.49758 24.5512 8.46948 24.5397 8.43576 24.5281C8.40204 24.5108 8.37394 24.4934 8.34584 24.4703C8.31774 24.4472 8.28964 24.4241 8.26154 24.401C8.23906 24.3779 8.21658 24.349 8.19409 24.3201C8.17723 24.2912 8.16037 24.2623 8.14913 24.2276C8.13789 24.193 8.12665 24.1641 8.12665 24.1294C8.12103 24.0948 8.12103 24.0601 8.12103 24.0254C8.12103 23.9907 8.12665 23.9561 8.13227 23.9214C8.13789 23.8867 8.15475 23.8578 8.16599 23.8232C8.18285 23.7885 8.19972 23.7596 8.2222 23.7307C8.24468 23.7018 8.26716 23.6729 8.28964 23.6498C8.31212 23.6267 8.34022 23.6036 8.36832 23.5863C8.39642 23.5689 8.42452 23.5516 8.45824 23.5401C8.49196 23.5285 8.52006 23.5169 8.55378 23.5112C8.5875 23.5054 8.62122 23.5054 8.65494 23.5054C8.68866 23.5054 8.72238 23.5112 8.7561 23.5227C8.78982 23.5285 8.82354 23.5458 8.85164 23.5574C8.87974 23.5689 8.91347 23.5863 8.94157 23.6094ZM8.46948 24.2912C8.5032 24.3143 8.5313 24.3317 8.56502 24.3374C8.59874 24.3432 8.63246 24.3432 8.6718 24.3374C8.71114 24.3317 8.74486 24.3143 8.77296 24.2912C8.80106 24.2681 8.82916 24.2392 8.85726 24.2045C8.87975 24.1699 8.90223 24.1294 8.91347 24.0948C8.92471 24.0601 8.92471 24.0196 8.92471 23.985C8.91909 23.9445 8.90785 23.9156 8.89098 23.881C8.87412 23.8521 8.84602 23.8232 8.81792 23.8001C8.7842 23.777 8.75048 23.7596 8.71676 23.7538C8.68304 23.7481 8.64932 23.7481 8.60998 23.7538C8.57626 23.7596 8.54254 23.777 8.50882 23.8001C8.4751 23.8232 8.447 23.8521 8.42452 23.8867C8.40204 23.9214 8.37956 23.9561 8.37394 23.9965C8.3627 24.0312 8.3627 24.0716 8.3627 24.1063C8.36832 24.1468 8.37956 24.1814 8.39642 24.2103C8.41328 24.2392 8.43576 24.2681 8.46948 24.2912ZM6.70477 22.9565L7.03074 22.6387L7.2162 22.0146L7.40728 22.2284L7.29488 22.5173C7.29488 22.5231 7.28926 22.5289 7.28926 22.5347C7.28926 22.5404 7.28364 22.5462 7.27802 22.552C7.27802 22.5578 7.2724 22.5578 7.2724 22.5636C7.2724 22.5693 7.26678 22.5693 7.26678 22.5751C7.26678 22.5809 7.26116 22.5809 7.26116 22.5867C7.26116 22.5924 7.25554 22.5924 7.25554 22.5982C7.26116 22.5982 7.2724 22.5924 7.27802 22.5867C7.28364 22.5809 7.29488 22.5809 7.3005 22.5751C7.30612 22.5751 7.31174 22.5693 7.31736 22.5693C7.32298 22.5693 7.3286 22.5636 7.3286 22.5636L7.61523 22.4653L7.80631 22.6791L7.1881 22.8293L6.86214 23.1471L6.70477 22.9565Z" fill="white"/>
<path fill-rule="evenodd" clip-rule="evenodd" d="M14.8595 7.33246C16.1634 7.30934 17.3942 7.63292 18.462 8.22807C19.0465 8.55164 19.631 8.99078 20.1087 9.45881C21.4631 10.8051 22.323 12.6888 22.3567 14.7805C22.3904 16.8721 21.598 18.7789 20.2885 20.1772C19.4174 21.1017 18.3271 21.7893 17.13 22.1649C16.4893 22.3613 15.8149 22.4769 15.118 22.4885C13.0836 22.5231 11.2289 21.7084 9.86888 20.3621C8.51444 19.0158 7.65457 17.1321 7.62085 15.0405C7.58713 12.9488 8.37956 11.042 9.68904 9.6437C10.9929 8.25118 12.825 7.36713 14.8595 7.33246Z" fill="#BCBDC0"/>
<path fill-rule="evenodd" clip-rule="evenodd" d="M7.63208 14.4395C7.74448 12.5847 8.50319 10.9033 9.68903 9.64364C10.8749 8.38401 12.4766 7.54619 14.275 7.36707C15.1798 7.43062 16.0285 7.69064 16.7872 8.11244C17.2818 8.38401 17.7763 8.75959 18.181 9.15828C19.3331 10.3024 20.0581 11.8913 20.0862 13.6652C20.1143 15.4391 19.4455 17.057 18.3327 18.2357C17.5965 19.0215 16.6748 19.6051 15.6576 19.9229C15.118 20.0905 14.5448 20.1887 13.9491 20.2003C12.2237 20.2292 10.6501 19.5416 9.50357 18.3975C8.47509 17.369 7.78382 15.988 7.63208 14.4395Z" fill="white"/>
<path fill-rule="evenodd" clip-rule="evenodd" d="M13.8198 7.7427C14.1233 8.01428 14.4268 8.2974 14.6965 8.60364L16.4107 8.69609C16.6579 8.51119 16.9446 8.38408 17.2593 8.32052C17.4504 8.28007 17.6527 8.26851 17.8719 8.27429C16.9558 7.85249 15.9329 7.62714 14.8651 7.64448C14.5111 7.65025 14.1626 7.68492 13.8198 7.7427ZM19.8445 17.3459C19.5691 17.5077 19.2938 17.658 19.0128 17.8024C18.4058 18.1144 17.7145 18.4438 17.0738 18.6576L15.7081 20.7146C15.8543 20.9342 16.0229 21.1191 16.2083 21.2808C16.5006 21.5293 16.8322 21.7026 17.2143 21.8066C18.3102 21.4311 19.2881 20.7897 20.0693 19.9576C20.4852 19.5185 20.8449 19.0216 21.1371 18.49C20.8168 18.1722 20.4065 17.8371 19.8445 17.3459ZM20.5695 13.7577C21.1709 13.6422 21.6092 13.4862 21.879 13.3013C21.5699 11.8972 20.8674 10.6491 19.8951 9.68415C19.5186 9.31435 19.1083 8.985 18.6587 8.70187C18.1473 8.57475 17.7033 8.55164 17.3155 8.62676C17.1244 8.66142 16.9502 8.72498 16.7928 8.81166C17.1806 9.38369 17.5403 10.2793 17.855 11.4985C18.9678 12.2265 19.6984 12.735 20.5695 13.7577ZM12.5384 20.3506C12.1001 20.6164 11.6167 20.8244 11.0884 20.9746C12.2406 21.7604 13.6231 22.2053 15.1068 22.1764C15.6576 22.1649 16.1915 22.0898 16.7085 21.9627C16.4556 21.8529 16.2196 21.7026 16.0116 21.5235C15.7812 21.3271 15.5789 21.0902 15.4047 20.8186C14.1907 20.859 13.2409 20.703 12.5384 20.3506ZM10.7625 20.7377C11.3413 20.6048 11.8584 20.3968 12.3249 20.1194C12.027 19.4318 11.8303 18.5073 11.7347 17.3459C10.9311 16.9126 10.2005 16.2539 9.54291 15.364L9.65532 15.2774L8.00863 16.0516C8.25592 17.6464 9.00339 19.0678 10.0768 20.1368C10.2904 20.3506 10.5208 20.5528 10.7625 20.7377ZM15.4384 12.7928L17.6808 11.7989C18.3664 11.9434 19.867 13.3937 20.3953 14.0177C20.429 15.0809 20.266 16.0574 19.912 16.9472C19.5748 17.1495 19.2319 17.3402 18.8779 17.5251C18.4058 17.7677 17.5459 18.2011 17.0513 18.334L14.6291 16.2365C14.6572 16.0863 14.6853 15.9245 14.7246 15.7454C14.9213 14.7805 15.281 13.7173 15.4384 12.7928ZM10.74 11.903L10.2005 12.2381C9.68342 13.0355 9.50357 14.0409 9.66656 15.26L9.77896 15.1734C10.4196 16.0401 11.1278 16.6815 11.9146 17.0917C12.8812 16.7508 13.6849 16.4503 14.3256 16.1845C14.3537 16.0285 14.3818 15.861 14.4211 15.6876C14.6122 14.7458 14.9832 13.6711 15.1293 12.7812C14.3256 11.8741 13.5838 11.198 12.9093 10.7589C12.7239 10.8398 12.5384 10.9264 12.3473 11.0189C11.8078 11.2847 11.2739 11.5794 10.74 11.903ZM10.296 11.7758L10.5096 11.6834C11.0772 11.3309 11.6504 11.0189 12.2293 10.7358C12.4597 10.626 12.6902 10.5162 12.9262 10.4122L14.275 8.58631C14.0109 8.31474 13.7299 8.0605 13.4489 7.81204C12.072 8.12984 10.8524 8.8521 9.90822 9.8575C9.66094 10.1233 9.43051 10.4064 9.22257 10.7069L10.296 11.7758ZM14.8595 7.33246C16.1634 7.30934 17.3942 7.63292 18.462 8.22807C19.0465 8.55164 19.631 8.99078 20.1087 9.45881C21.4631 10.8051 22.323 12.6888 22.3567 14.7805C22.3904 16.8721 21.598 18.7789 20.2885 20.1772C19.4174 21.1017 18.3271 21.7893 17.13 22.1649C16.4893 22.3613 15.8149 22.4769 15.118 22.4885C13.0836 22.5231 11.2289 21.7084 9.86888 20.3621C8.51444 19.0158 7.65457 17.1321 7.62085 15.0405C7.58713 12.9488 8.37956 11.042 9.68904 9.6437C10.9929 8.25118 12.825 7.36713 14.8595 7.33246Z" fill="#383856"/>
<path fill-rule="evenodd" clip-rule="evenodd" d="M23.166 9.51651L22.4522 8.74802L22.3904 7.82352L21.716 7.09547L21.3001 7.50572L20.8112 6.97991L21.6542 6.15364L23.0199 7.62128C23.1042 7.71373 23.1828 7.77151 23.2671 7.80618C23.3683 7.84663 23.4526 7.83507 23.52 7.76574C23.6493 7.63862 23.61 7.46527 23.4076 7.23993L22.0307 5.77228L22.7782 5.69717L23.7786 6.7719C24.0259 7.03769 24.1776 7.30349 24.2338 7.5635C24.2956 7.85818 24.2226 8.10664 24.0146 8.30888C23.8966 8.42444 23.7561 8.488 23.5931 8.50533C23.4301 8.52267 23.2615 8.49378 23.0873 8.40711L23.166 9.51651ZM20.9629 6.37321L20.2885 6.70256L18.4788 5.76073L19.5129 3.66327L21.7272 4.81889L21.0528 5.14825L19.8782 4.53577L19.7658 4.76111L21.2495 5.53538L20.5751 5.86473L19.5017 5.30426L19.378 5.55272L20.9629 6.37321ZM18.4901 5.09047L17.9112 5.57583L16.7928 5.31003C16.405 5.21758 16.1072 5.03268 15.9048 4.74956C15.7025 4.46643 15.6351 4.16019 15.7138 3.82506C15.7868 3.48993 15.9779 3.24725 16.2758 3.10279C16.5736 2.95256 16.9221 2.92945 17.3155 3.0219L18.8779 3.39748L18.299 3.88284L17.1806 3.61704C16.9895 3.57082 16.8209 3.58815 16.6748 3.66327C16.5287 3.73839 16.4331 3.85973 16.3994 4.02151C16.3657 4.1833 16.3938 4.32775 16.4949 4.46065C16.5961 4.59355 16.7422 4.68022 16.9277 4.72644L18.4901 5.09047ZM15.2473 4.42598L14.8651 5.08469L13.7242 5.22914C13.3308 5.28114 12.988 5.20603 12.7014 5.01535C12.4148 4.82467 12.2518 4.5531 12.2124 4.21219C12.1731 3.87128 12.2686 3.5766 12.4991 3.33392C12.7295 3.09124 13.0442 2.941 13.4489 2.889L15.045 2.68677L14.6628 3.35125L13.5219 3.4957C13.3308 3.51882 13.1735 3.59393 13.0611 3.71527C12.9487 3.83661 12.9037 3.98107 12.9206 4.14863C12.943 4.31042 13.0217 4.43754 13.1566 4.52999C13.2971 4.61666 13.4601 4.65133 13.6512 4.62822L15.2473 4.42598ZM10.1105 4.53577L9.49794 4.85356C9.32372 4.94601 9.20008 5.06735 9.13825 5.22336C9.07081 5.37937 9.07643 5.5296 9.14949 5.67983C9.22256 5.83007 9.34058 5.92251 9.49794 5.95718C9.6553 5.99185 9.8239 5.96296 9.99813 5.87051L10.6107 5.55272C10.7849 5.46027 10.9086 5.33893 10.976 5.18869C11.0435 5.03846 11.0435 4.88823 10.9648 4.738C10.8917 4.58777 10.7737 4.49532 10.6107 4.45487C10.4534 4.4202 10.2848 4.44909 10.1105 4.53577ZM11.583 4.38554C11.7347 4.69178 11.7404 5.00957 11.6055 5.33315C11.4706 5.65672 11.2289 5.91096 10.8749 6.09586L10.2623 6.41366C9.90259 6.59856 9.55976 6.65056 9.22818 6.56966C8.89659 6.48877 8.65493 6.29231 8.50319 5.98607C8.35144 5.67983 8.34582 5.36782 8.48633 5.06157C8.62683 4.74956 8.87411 4.5011 9.2338 4.3162L9.84638 3.9984C10.2061 3.8135 10.5489 3.75572 10.8749 3.82506C11.1952 3.89439 11.4369 4.07929 11.583 4.38554ZM7.09816 5.73184L7.24429 6.48299L6.18209 7.74262C6.12589 7.81196 6.12027 7.86396 6.16523 7.90441C6.21019 7.94486 6.26639 7.9333 6.32259 7.86396L7.08692 6.9568C7.26677 6.74301 7.46909 6.61011 7.69389 6.55233C7.92994 6.50033 8.13226 6.55233 8.30648 6.70256C8.47509 6.85279 8.55377 7.05503 8.53129 7.29771C8.51443 7.52883 8.41326 7.75418 8.2278 7.96797L6.8565 9.60318L6.71038 8.85202L7.78381 7.58084C7.8344 7.52305 7.86812 7.46527 7.88498 7.40171C7.91308 7.32082 7.90184 7.26304 7.8625 7.22259C7.81753 7.18215 7.76133 7.18215 7.68827 7.22259C7.63207 7.25148 7.58149 7.29771 7.53091 7.35549L6.7722 8.26265C6.6036 8.46489 6.41813 8.59201 6.21581 8.64401C5.99663 8.70179 5.81117 8.66134 5.6538 8.52267C5.49644 8.37822 5.429 8.19332 5.45148 7.96219C5.47396 7.7484 5.57512 7.54039 5.74372 7.33815L7.09816 5.73184Z" fill="white"/>
<path d="M29.3481 17.7273C28.8029 20.7781 27.3642 23.5054 25.3128 25.6086C22.6714 28.3243 19.024 30 14.9944 30C10.9648 30 7.31734 28.3186 4.67591 25.6086C2.63019 23.5054 1.18583 20.7781 0.640686 17.7273H1.32634C1.86024 20.5874 3.22592 23.1414 5.14799 25.1233C7.66579 27.7119 11.1446 29.3124 14.9888 29.3124C18.8329 29.3124 22.3117 27.7119 24.8295 25.1233C26.7516 23.1471 28.1173 20.5874 28.6512 17.7273H29.3481ZM15 0C19.0296 0 22.677 1.68143 25.3185 4.39137C27.3642 6.49461 28.8029 9.2161 29.3481 12.2612H28.6624C28.1229 9.40678 26.7628 6.85863 24.8408 4.88251C22.323 2.29391 18.8441 0.693374 15 0.693374C11.1559 0.693374 7.67703 2.29391 5.15923 4.88251C3.23716 6.85863 1.8771 9.40678 1.33758 12.2612H0.651926C1.19707 9.2161 2.63582 6.49461 4.68153 4.39137C7.32296 1.68143 10.9704 0 15 0Z" fill="#10C8C8"/>
</g>
<defs>
<clipPath id="clip0_232_1017">
<rect width="30" height="30" fill="white"/>
</clipPath>
</defs>
</svg>
