<svg width="131" height="51" viewBox="0 0 131 51" fill="none" xmlns="http://www.w3.org/2000/svg">
<g clip-path="url(#clip0_349_33)">
<path d="M43.3 0C36.5 0 30.8 4.6 29.1 11.1C28.3 12.5 27.3 13.7 26.4 14.5C24.1 16.6 22.8 19.5 23 22.2C23.1 24.5 24.2 26.5 26.1 27.9C24.9 28.3 23.4 28.8 21.7 30.3C17.2 34.2 20.2 40.9 21.4 42.2L23 44C23 44 23 44.1 22.9 44.2C22.1 46 20.1 47 17.1 47.2L12.3 47.5L16.6 49.7C18.3 50.6 20 51 21.7 51C25.8 51 28.6 48.5 29.7001 46.3C30.6 44.5 30.9001 43 31.2001 41.8C31.4001 40.6 31.6 39.9 32.1 39.5L32.3 39.3L33 39.4C34.1 39.6 35.1 39.7 36 39.7C40.9 39.7 43.2001 36.7 45 34.3C45.6 33.5 46.2001 32.8 46.8 32.2C47.2001 31.8 47.7001 31.4 48.2001 31C50.6001 29 54 26.2 55.9001 21.9C57.2001 19.7 57.9001 17.1 57.9001 14.6C57.9001 6.5 51.3 0 43.3 0ZM28.5 23.8C28.7001 23.4 29 23.2 29.3 23.2C29.6 23.2 29.9 23.4 30.1 23.7C30.4 24.3 30.1 25.2 29.3 26.1C29 26.5 28.7 26.8 28.3 27V26.7C28.2 25.7 28.3 24.1 28.5 23.8ZM30.4 36.3C32.8 35.9 35.5 35.5 37.6 33.1C37.6 33.2 37.5001 33.4 37.4001 33.5C36.6001 35.2 34.5 36.6 33.1 36.7L26.2 37.5C27.4 36.8 28.8 36.6 30.4 36.3ZM23.7 41.6C24.2 39.7 24.9 38.6 25.8 37.8L27 38C24.7 39.1 24.1 41 23.6 42.5C23.5 42.7 23.5 42.9 23.4 43.2L23.7 41.6Z" fill="white"/>
<path d="M24.1001 44.6999C23.3001 46.3999 21.4001 48.0999 17.2001 48.3999C22.7001 51.1999 27.1001 48.3999 28.6001 45.5999C30.4001 42.2999 29.6001 39.8999 31.2001 38.3999C24.8001 38.8999 25.4001 41.9999 24.1001 44.6999Z" fill="#262262"/>
<path d="M43.2 1.19995C36.9 1.19995 31.7 5.59995 30.3 11.5C29.5 12.8 28.5 14.2 27.2 15.4C23.7 18.6 22.9 23.8 26.8 26.7C26.7 25.8 26.7 23.7999 27.2 23C28.9 20 33.6 22.6999 30.2 26.7999C28 29.4 25.7 28.4 22.5 31.2C18.8 34.5 21.4 40.2 22.3 41.2C24.8 31 34.8 38.7999 38.1 29.2C41.1 33.4 36.3 37.6 33.2 37.9C41.3 39.6 42.9 33.7 45.8 31.1C48.2 28.9 52.4 26.1 54.6 21.1C55.8 19.1 56.5 16.8 56.5 14.4C56.5 7.19995 50.6 1.19995 43.2 1.19995ZM53.1 20.5C52.4 21.5 51.7 22.2999 50.9 23C51.1 22.7999 51.2 22.5 51.4 22.2999L51.5 22.1L51.6 21.9C51.6 21.9 51.6 21.9 51.6 21.7999C51.8 21.4 52 21.1 52.1 20.7C51.3 20.8 50.2 21 49.2 20.9H49.1L49 21.4C49 21.5 48.9 21.6999 48.9 21.7999C48.8 21.9 48.8 22.1 48.7 22.2V22.2999C48.6 22.4 48.5 22.6 48.4 22.7C48 23.3 47.4 23.9 46.8 24.5C46.7 24.6 46.6 24.6999 46.4 24.7999C45.9 25.2999 45.4 25.6999 44.9 26.2999C44.5 26.6999 44.2 27.2 44 27.7C43.9 28 43.8 28.3 43.8 28.6C43.9 28.2 44.1 27.9 44.4 27.6C44.7 27.3 45.1 27 45.4 26.7C46.1 26.3 46.9 25.9 47.6 25.5C48.4 25.1 49.2 24.6 49.9 24C49.9 24 50 24 50 23.9C50 24.9 48.6 25.9 46.9 27.1C45.2 28.3 43.2 29.8999 41.9 32.0999C42.6 30.2999 42.8 28.7999 42.6 27.5C42.4 26.5 42 25.6 41.5 24.9C41.6 24.7999 41.6 24.7 41.7 24.6C41.9 24.2 42.2 23.6999 42.5 23.2999C42.9 22.6999 43.4 22.2 43.9 21.7C44.4 21.2 45.1 20.9 45.8 20.7C45.1 20.7 44.3 20.9 43.6 21.2999C43.1 21.5 42.7 21.9 42.2 22.2C42.1 22.3 42 22.2999 42 22.4C41.9 22.5 41.8 22.6 41.7 22.6C41.4 22.9 41 23.3 40.7 23.6C40.6 23.7 40.6 23.6999 40.5 23.7999C39.8 24.5 39 25.5 38 26.2999C36.1 27.9 33.8 29.4 31.4 29.4C33.3 28.2999 34.2 26 34.4 23.9C34.5 22.6999 34.4 21.6 34.1 20.9C33.7 20.2999 33.3 19.7 33 19C33.2 18.9 33.3 18.9 33.5 18.7999C34 18.5 34.4 18.1999 34.9 17.7999C35 17.6999 35 17.7 35.1 17.6C35.2 17.5 35.3 17.4 35.4 17.2999L35.5 17.2C36 16.6 36.4 15.9 36.5 15.1C36.7 14.3 36.6 13.6 36.5 12.9C36.5 13.6 36.3 14.3 36 15C35.7 15.6 35.3 16.1 34.7 16.5C34.6 16.6 34.5 16.7 34.3 16.7C34.2 16.8 34.1 16.8 34 16.9C33.7 17.1 33.3 17.1999 32.9 17.2999C32.8 17.2999 32.6 17.4 32.5 17.4C32.3 17.4 32.2 17.5 32 17.5C31.6 17.5 31.1 17.6 30.7 17.6C29.1 17.9 27.6 18.5 27.1 19.7999C27.2 18.9 28.7 17.3 30.3 15.7C31.1 14.9 32 14.1 32.8 13.5C33 13.3 33.2 13.2 33.3 13C33.2 13.5 32.9 14 32.5 14.5C32.4 14.7 32.2 14.9 32 15.1C32 15.1 32 15.1 31.9 15.2C31.5 15.6 31 16 30.5 16.3C31 16.2 31.5 16 32 15.8C32.1 15.8 32.1 15.7 32.2 15.7C32.3 15.7 32.3 15.6 32.4 15.6C32.6 15.5 32.7 15.4 32.9 15.3C32.9 15.3 33 15.3 33 15.2C33 15.2 33.1 15.2 33.1 15.1C33.9 14.5 34.6 13.7 35 12.7C35.4 11.7 35.5 10.6 35.4 9.49995C35.4 9.39995 35.4 9.39995 35.4 9.29995C35.3 8.79995 35.3 8.39995 35.1 7.89995C35 7.99995 34.9 7.99995 34.9 8.09995C34.8 8.19995 34.8 8.19995 34.7 8.29995L34.6 8.39995C34.3 8.69995 34 8.99995 33.7 9.29995C33.5 9.49995 33.3 9.69995 33.1 9.99995C33.2 9.79995 33.3 9.59995 33.4 9.29995C33.8 8.59995 34.3 7.79995 34.8 7.19995C35.3 6.59995 35.9 5.99995 36.6 5.39995C36.7 5.29995 36.8 5.19995 37 5.09995C37.9 4.39995 38.8 3.79995 39.9 3.39995C41.2 2.89995 42.6 2.69995 43.9 2.69995C42.9 2.89995 42 3.29995 41.1 3.79995C42 3.99995 42.9 4.49995 44 4.99995V4.89995V4.99995C45.2 4.19995 46.7 3.49995 47.3 3.39995C49.1 4.09995 50.7 5.19995 51.9 6.59995C52.2 6.89995 52.4 7.29995 52.7 7.59995C52.8 7.69995 52.8 7.69995 52.9 7.79995C53.3 8.39995 53.7 8.99995 54 9.69995C54.3 10.3 54.5 10.9 54.7 11.5C54.3 10.9 53.9 10.3 53.4 9.69995C53.3 9.59995 53.2 9.49995 53.1 9.39995C53.1 9.49995 53.1 9.59995 53.1 9.69995C53 10.1 52.9 10.5 52.8 11C53.7 11.8 54.4 13 54.8 13.8C54.8 14 54.8 14.1 54.8 14.3C54.8 16.7 54.1 18.7 53.1 20.5Z" fill="#262262"/>
<path d="M42.9001 9.7999L40.2001 11.6999L35.7001 11.2999L39.9001 12.7999L40.3001 14.0999C40.6001 13.9999 40.9001 13.8999 41.3001 13.7999C42.7001 13.4999 44.2001 13.3999 45.6001 13.4999C44.2001 13.6999 42.9001 14.1999 41.6001 14.7999C41.3001 14.9999 41.0001 15.0999 40.7001 15.2999C40.4001 15.4999 40.0001 15.7999 39.7001 16.0999C39.0001 16.6999 38.5001 17.4999 38.1001 18.1999C38.0001 18.3999 37.9001 18.6999 37.8001 18.8999C37.8001 18.9999 37.8001 18.9999 37.7001 19.0999C37.5001 19.4999 37.4001 19.8999 37.3001 20.2999C37.2001 20.5999 37.1001 20.8999 37.0001 21.2999C36.9001 21.7999 36.8001 22.3999 36.6001 22.8999C36.4001 23.5999 36.3001 24.3999 36.0001 24.9999C35.9001 25.1999 35.8001 25.3999 35.8001 25.4999C35.8001 25.4999 35.8001 25.5999 35.7001 25.5999C35.5001 25.9999 35.2001 26.3999 34.7001 26.5999C35.1001 26.4999 35.4001 26.2999 35.7001 26.0999C35.8001 25.9999 36.0001 25.7999 36.1001 25.6999C36.2001 25.4999 36.4001 25.3999 36.5001 25.1999C36.7001 24.8999 36.8001 24.6999 37.0001 24.3999C37.2001 23.9999 37.5001 23.5999 37.7001 23.1999C37.8001 22.9999 37.9001 22.7999 38.0001 22.5999C38.1001 22.3999 38.2001 22.2999 38.3001 22.0999C38.4001 21.8999 38.6001 21.5999 38.7001 21.3999C38.8001 21.2999 38.8001 21.1999 38.9001 21.0999C39.1001 20.7999 39.3001 20.4999 39.5001 20.2999C39.5001 20.2999 39.5001 20.2999 39.6001 20.1999C39.8001 19.9999 39.9001 19.7999 40.1001 19.5999C40.4001 19.1999 40.8001 18.8999 41.2001 18.6999C41.8001 18.2999 42.5001 18.0999 43.2001 17.9999C44.3001 17.7999 45.6001 17.9999 46.9001 18.2999H47.0001L49.0001 20.5999L47.5001 17.2999L47.4001 16.9999L48.7001 12.9999L51.5001 11.8999L52.6001 11.4999L51.6001 11.5999L48.4001 11.8999L45.7001 9.9999L44.9001 9.3999L44.0001 5.3999L43.6001 9.2999L42.9001 9.7999Z" fill="#262262"/>
<path d="M46.8 18.0999L48.8 20.3999L46.8 18.0999Z" fill="#EE2840"/>
<path d="M54.7001 14.0999C54.3001 13.2999 53.5001 12.0999 52.7001 11.2999C52.8001 10.7999 52.9001 10.3999 53.0001 9.9999C53.0001 9.8999 53.0001 9.7999 53.0001 9.6999C53.1001 9.7999 53.2001 9.8999 53.3001 9.9999C53.8001 10.4999 54.2001 11.0999 54.6001 11.7999C54.4001 11.1999 54.2001 10.5999 53.9001 9.9999C53.6001 9.3999 53.2001 8.6999 52.8001 8.0999C52.7001 7.9999 52.7001 7.9999 52.6001 7.8999C52.4001 7.4999 52.1001 7.1999 51.8001 6.8999C51.8001 7.1999 51.9001 7.5999 51.9001 7.8999C51.9001 8.5999 51.8001 9.2999 51.7001 9.8999C51.6001 10.3999 51.5001 10.8999 51.3001 11.3999L52.3001 11.2999L51.2001 11.6999L52.3001 11.2999L51.0001 12.4999C50.2001 14.3999 48.9001 15.9999 47.3001 17.1999L48.8001 20.4999L46.7001 19.1999C45.7001 18.9999 44.7001 18.9999 43.7001 19.1999C42.7001 19.3999 41.8001 19.8999 41.0001 20.6999C40.7001 20.9999 40.4001 21.2999 40.1001 21.5999C39.9001 21.7999 39.7001 21.9999 39.6001 22.2999C39.5001 22.3999 39.4001 22.5999 39.3001 22.6999C39.1001 22.8999 38.9001 23.1999 38.8001 23.3999L38.7001 23.4999C38.0001 24.3999 37.2001 25.1999 36.3001 25.7999C36.2001 25.8999 36.0001 25.9999 35.9001 25.9999C36.0001 25.8999 36.1001 25.7999 36.2001 25.6999C36.6001 25.2999 36.9001 24.7999 37.2001 24.2999C37.4001 23.8999 37.6001 23.3999 37.8001 22.9999C37.9001 22.8999 37.9001 22.6999 38.0001 22.5999C37.9001 22.7999 37.8001 22.9999 37.7001 23.1999C37.5001 23.5999 37.3001 23.9999 37.0001 24.3999C36.8001 24.6999 36.7001 24.8999 36.5001 25.1999C36.4001 25.3999 36.2001 25.4999 36.1001 25.6999C36.0001 25.7999 35.8001 25.9999 35.7001 26.0999C35.4001 26.2999 35.1001 26.4999 34.7001 26.5999C35.1001 26.2999 35.5001 25.9999 35.7001 25.5999L35.8001 25.4999C35.9001 25.2999 36.0001 25.0999 36.0001 24.9999C36.3001 24.2999 36.4001 23.5999 36.6001 22.8999C36.7001 22.3999 36.8001 21.8999 37.0001 21.2999C37.1001 20.9999 37.2001 20.6999 37.3001 20.2999C37.4001 19.8999 37.5001 19.4999 37.7001 19.0999C37.0001 18.8999 36.3001 18.6999 35.7001 18.3999C35.4001 18.2999 35.1001 18.1999 34.7001 18.0999C34.3001 18.4999 33.8001 18.7999 33.3001 19.0999C33.1001 19.1999 33.0001 19.1999 32.8001 19.2999C33.1001 19.9999 33.4001 20.5999 33.9001 21.1999C34.2001 21.8999 34.4001 22.9999 34.2001 24.1999C34.0001 26.2999 33.0001 28.5999 31.2001 29.6999C33.6001 29.6999 35.9001 28.1999 37.8001 26.5999C38.8001 25.6999 39.7001 24.7999 40.3001 24.0999C40.4001 23.9999 40.4001 23.9999 40.5001 23.8999C40.8001 23.5999 41.1001 23.1999 41.5001 22.8999C41.6001 22.7999 41.7001 22.6999 41.8001 22.6999C41.9001 22.5999 42.0001 22.5999 42.0001 22.4999C42.4001 22.1999 42.9001 21.7999 43.4001 21.5999C44.1001 21.1999 44.9001 21.0999 45.6001 20.9999C44.9001 21.1999 44.2001 21.4999 43.7001 21.9999C43.2001 22.4999 42.7001 22.9999 42.3001 23.5999C42.0001 23.9999 41.8001 24.3999 41.5001 24.8999C41.4001 24.9999 41.4001 25.0999 41.3001 25.1999C41.9001 25.8999 42.3001 26.7999 42.4001 27.7999C42.6001 29.0999 42.4001 30.5999 41.7001 32.3999C43.0001 30.1999 45.0001 28.5999 46.7001 27.3999C48.4001 26.1999 49.8001 25.1999 49.8001 24.1999C49.8001 24.1999 49.7001 24.1999 49.7001 24.2999C49.0001 24.8999 48.2001 25.3999 47.4001 25.7999C46.6001 26.1999 45.9001 26.5999 45.2001 26.9999C44.8001 27.1999 44.5001 27.4999 44.2001 27.8999C44.0001 28.1999 43.8001 28.4999 43.6001 28.8999C43.6001 28.5999 43.7001 28.2999 43.8001 27.9999C44.0001 27.4999 44.4001 26.9999 44.7001 26.5999C45.2001 26.0999 45.7001 25.5999 46.2001 25.0999C46.3001 24.9999 46.5001 24.8999 46.6001 24.7999C47.2001 24.1999 47.8001 23.5999 48.2001 22.9999C48.3001 22.8999 48.4001 22.6999 48.5001 22.5999V22.4999C48.6001 22.3999 48.6001 22.2999 48.7001 22.0999C48.8001 21.9999 48.8001 21.7999 48.9001 21.5999L49.0001 21.0999H49.1001C50.1001 21.1999 51.2001 20.9999 52.0001 20.8999C51.9001 21.2999 51.7001 21.6999 51.5001 21.9999C51.5001 21.9999 51.5001 21.9999 51.5001 22.0999C51.4001 22.1999 51.4001 22.3999 51.3001 22.4999C51.1001 22.6999 51.0001 22.9999 50.8001 23.1999C51.6001 22.4999 52.4001 21.6999 53.0001 20.6999C54.1001 18.9999 54.7001 16.8999 54.7001 14.6999C54.8001 14.3999 54.8001 14.1999 54.7001 14.0999Z" fill="#EE2840"/>
<path d="M46.8001 18.0997C45.4001 17.7997 44.2001 17.5997 43.0001 17.7997C42.3001 17.8997 41.6001 18.0997 41.0001 18.4997C40.6001 18.6997 40.2001 19.0997 39.9001 19.3997C39.7001 19.5997 39.6001 19.7997 39.4001 19.9997C39.4001 19.9997 39.4001 19.9997 39.3001 20.0997C39.1001 20.3997 38.9001 20.5997 38.7001 20.8997C38.6001 20.9997 38.6001 21.0997 38.5001 21.1997C38.4001 21.3997 38.2001 21.6997 38.1001 21.8997C38.0001 22.0997 37.9001 22.1997 37.8001 22.3997C37.7001 22.4997 37.7001 22.6997 37.6001 22.7997C37.4001 23.2997 37.2001 23.6997 37.0001 24.0997C36.7001 24.5997 36.4001 25.0997 36.0001 25.4997C35.9001 25.5997 35.8001 25.6997 35.7001 25.7997C35.8001 25.6997 36.0001 25.5997 36.1001 25.5997C37.0001 24.9997 37.8001 24.0997 38.5001 23.2997L38.6001 23.1997C38.8001 22.9997 39.0001 22.6997 39.1001 22.4997C39.2001 22.3997 39.3001 22.1997 39.4001 22.0997C39.6001 21.8997 39.8001 21.6997 39.9001 21.3997C40.2001 21.0997 40.5001 20.7997 40.8001 20.4997C41.6001 19.6997 42.5001 19.1997 43.5001 18.9997C44.4001 18.7997 45.4001 18.7997 46.5001 18.9997L48.6001 20.2997L46.8001 18.0997Z" fill="white"/>
<path d="M37.7 18.8999C37.8 18.6999 37.9 18.3999 38 18.1999C38.4 17.3999 38.9 16.6999 39.6 16.0999C39.9 15.7999 40.2 15.5999 40.6 15.2999C40.9 15.0999 41.2 14.8999 41.5 14.7999C42.7 14.1999 44.1 13.6999 45.5 13.4999C44.1 13.3999 42.6 13.4999 41.2 13.7999C40.9 13.8999 40.6 13.9999 40.2 14.0999L39.8 12.7999L35.6 11.2999L40.1 11.6999L42.8 9.79985L43.6 9.19985L44 5.39985C42.7 4.79985 41.7 4.49985 40.8 4.29985C40.9 4.29985 41 4.19985 41 4.19985C41.8 3.69985 42.8 3.39985 43.8 3.09985C42.5 3.09985 41.1 3.29985 39.8 3.79985C38.8 4.19985 37.8 4.69985 36.9 5.49985C36.8 5.59985 36.7 5.69985 36.6 5.79985C35.9 6.29985 35.3 6.89985 34.8 7.59985C34.2 8.29985 33.8 8.99985 33.4 9.69985C33.3 9.89985 33.2 10.0999 33.1 10.3999C33.3 10.1999 33.5 9.89985 33.7 9.69985C34 9.39985 34.3 9.09985 34.6 8.79985L34.7 8.69985C34.8 8.59985 34.8 8.59985 34.9 8.49985C35 8.39985 35.1 8.39985 35.1 8.29985C35.2 8.69985 35.3 9.19985 35.4 9.69985C35.4 9.79985 35.4 9.79985 35.4 9.89985C35.5 10.9999 35.4 12.0999 35 13.0999C34.6 14.0999 33.9 14.8999 33.1 15.4999C33.1 15.4999 33 15.4999 33 15.5999C33 15.5999 32.9 15.5999 32.9 15.6999C32.7 15.7999 32.6 15.8999 32.4 15.9999C32.1 15.9999 32.1 15.9999 32 15.9999C31.9 15.9999 31.9 16.0999 31.8 16.0999C31.3 16.2999 30.8 16.4999 30.3 16.5999C30.8 16.2999 31.3 15.8999 31.7 15.4999C31.7 15.4999 31.7 15.4999 31.8 15.3999C32 15.1999 32.1 14.9999 32.3 14.7999C32.7 14.2999 32.9 13.7999 33.1 13.2999C32.9 13.4999 32.8 13.5999 32.6 13.7999C31.8 14.4999 30.9 15.1999 30.1 15.9999C28.5 17.4999 27 19.0999 26.9 20.0999C27.4 18.7999 28.9 18.1999 30.5 17.8999C30.9 17.7999 31.4 17.7999 31.8 17.7999C32 17.7999 32.1 17.6999 32.3 17.6999C32.4 17.6999 32.6 17.5999 32.7 17.5999C33.1 17.4999 33.4 17.3999 33.8 17.1999C33.9 17.0999 34 17.0999 34.1 16.9999C34.2 16.8999 34.3 16.7999 34.5 16.7999C35 16.3999 35.5 15.8999 35.8 15.2999C36.1 14.6999 36.2 13.9999 36.3 13.1999C36.4 13.8999 36.5 14.6999 36.3 15.3999C36.1 16.0999 35.8 16.8999 35.3 17.4999L35.2 17.5999C35.1 17.6999 35 17.7999 34.9 17.8999C34.8 17.9999 34.8 17.9999 34.7 18.0999C35.1 18.1999 35.4 18.2999 35.7 18.3999C36.4 18.6999 37 18.9999 37.7 19.0999C37.7 18.9999 37.7 18.8999 37.7 18.8999Z" fill="white"/>
<path d="M45.6 9.8998L48.3 11.7998L51.5 11.4998C51.7 10.9998 51.8 10.4998 51.9 9.9998C52 9.2998 52.1 8.6998 52.1 7.9998C52.1 7.6998 52.1 7.2998 52 6.9998C50.8 5.5998 49.2 4.4998 47.4 3.7998C46.8 3.8998 45.3 4.5998 44.1 5.3998L44.8 9.2998L45.6 9.8998Z" fill="white"/>
<path d="M51.3001 11.7999L48.5001 12.8999L47.2001 16.8999L47.3001 17.1999C48.9001 15.9999 50.2001 14.3999 51.0001 12.4999L52.3001 11.3999L51.3001 11.7999Z" fill="white"/>
<path d="M18.5 24.4001C17.6 26.4001 16.6 28.1001 15.3 29.5001C14.1 30.9001 12.7 31.9001 11.3 32.5001C9.9 33.2001 8.5 33.5001 7.2 33.5001C6.2 33.5001 5.3 33.3001 4.4 32.9001C3.5 32.5001 2.7 31.8001 2.1 31.0001C1.4 30.1001 0.9 29.0001 0.6 27.7001C0.2 26.3001 0 24.8001 0 23.0001C0 19.6001 0.5 16.6001 1.5 14.0001C2.5 11.4001 3.7 9.3001 5.2 7.6001C6.7 5.9001 8.3 4.6001 10 3.8001C11.7 3.0001 13.3 2.6001 14.8 2.6001C15.9 2.6001 16.8 2.8001 17.6 3.2001C18.4 3.6001 19 4.1001 19.5 4.7001C20 5.3001 20.4 6.1001 20.6 6.9001C20.9 7.7001 21 8.6001 21 9.5001L15.5 10.5001C15.3 9.4001 14.9 8.7001 14.5 8.2001C14.1 7.7001 13.6 7.5001 13.1 7.5001C12.6 7.6001 11.8 8.0001 11 9.0001C10.2 9.9001 9.5 11.2001 8.8 12.7001C8.1 14.2001 7.5 15.8001 7 17.6001C6.5 19.4001 6.3 21.1001 6.2 22.9001C6.2 24.6001 6.4 25.7001 6.9 26.4001C7.4 27.1001 8 27.5001 8.8 27.5001C9.3 27.5001 9.9 27.4001 10.5 27.1001C11.1 26.8001 11.6 26.5001 12 26.0001C12.5 25.5001 12.8 24.9001 13.1 24.3001C13.4 23.6001 13.6 22.9001 13.6 22.2001L9.3 22.8001L10.1 18.8001C11.4 18.6001 12.6 18.5001 13.8 18.3001C14.8 18.2001 15.9 18.0001 17 17.8001C18.1 17.6001 19.1 17.4001 20 17.3001C19.9 20.0001 19.4 22.3001 18.5 24.4001Z" fill="#111111"/>
<path d="M72 32.1C71.2 32.2 70.5 32.4 69.8 32.5C69.9 31.6 70 30.8 70.1 29.9C70.2 29.2 70.3 28.4 70.3 27.7C70.4 27 70.4 26.3 70.5 25.8H67L65.4 31.6C64.8 31.7 64.1 31.8 63.3 31.9C62.5 32 61.8 32.1 61.1 32.2C60.2 32.3 59.4 32.4 58.6 32.5C59.7 29 60.7 25.5 61.8 22C62.2 20.6 62.7 19.1 63.1 17.5C63.6 15.9 64 14.4 64.5 12.8C65 11.2 65.4 9.7 65.8 8.3C66.2 6.9 66.6 5.5 66.9 4.3C68.7 4.2 70.6 4 72.4 3.8C74.3 3.6 76.1 3.4 77.9 3C78 3.7 77.9 4.8 77.8 6C77.7 7.3 77.6 8.6 77.5 10.1C77.4 11.6 77.3 13.2 77.3 14.8C77.2 16.4 77.1 18 77.1 19.6C77 23.3 76.8 27.2 76.7 31.3C75.9 31.4 75.1 31.5 74.3 31.6C73.5 31.8 72.8 31.9 72 32.1ZM68 21.7C68.1 21.7 68.3 21.7 68.6 21.7C68.9 21.7 69.2 21.7 69.5 21.7C69.8 21.7 70.1 21.7 70.4 21.7C70.7 21.7 70.9 21.7 71 21.6C71 21.4 71 21.2 71.1 20.8C71.2 20.4 71.2 20 71.2 19.5C71.2 19 71.3 18.5 71.3 17.9C71.4 17.3 71.4 16.7 71.5 16.2C71.6 14.8 71.7 13.4 71.9 11.8L72 8.1H71.4L70.5 11.5L68 21.7Z" fill="#111111"/>
<path d="M87.2 31.3001C86.3 31.4001 85.4 31.4001 84.4 31.5001C83.4 31.6001 82.6 31.7001 81.7 31.9001C80.8 32.1001 80 32.3001 79.3 32.5001C79.5 31.3001 79.6 30.0001 79.9 28.5001C80.1 27.0001 80.4 25.5001 80.6 23.9001C80.9 22.3001 81.2 20.7001 81.4 19.1001C81.7 17.5001 82 16.0001 82.3 14.5001C83 11.0001 83.7 7.40015 84.4 3.80015L91.4 2.90015C90.7 6.00015 90 9.00015 89.3 11.9001C89 13.2001 88.7 14.5001 88.4 15.8001C88.1 17.1001 87.8 18.5001 87.6 19.7001C87.4 20.9001 87.1 22.2001 86.9 23.4001C86.7 24.6001 86.5 25.7001 86.4 26.6001C87.1 26.5001 87.8 26.5001 88.5 26.5001C89.3 26.5001 89.9 26.5001 90.5 26.5001C90.5 27.0001 90.6 27.5001 90.6 28.0001C90.7 28.5001 90.7 28.9001 90.8 29.3001C90.9 29.7001 90.9 30.1001 91 30.4001C91 30.7001 91.1 30.9001 91.1 31.0001C90.9 31.0001 90.7 31.0001 90.5 31.0001C90.3 31.0001 90.1 31.0001 89.9 31.0001C89 31.2001 88.1 31.2001 87.2 31.3001Z" fill="#111111"/>
<path d="M112.6 16.5C112.2 18.1 111.6 19.6 110.9 21.1C110.2 22.6 109.3 24.1 108.2 25.5C107.1 26.9 106 28.1 104.6 29.2001C103.3 30.3001 101.8 31.1 100.2 31.7001C98.6 32.3001 96.9 32.7001 95.1 32.7001C94.7 32.7001 94.4 32.7 94 32.6C93.6 32.6 93.3 32.5 92.9 32.5C93.6 28.8 94.3 25.2001 95 21.7001C95.3 20.2001 95.5 18.7 95.8 17.1C96.1 15.5 96.4 13.9 96.6 12.4C96.9 10.9 97.1 9.40005 97.4 8.00005C97.7 6.60005 97.9 5.30005 98 4.20005C99.1 4.00005 100.3 3.80005 101.5 3.60005C102.7 3.40005 103.9 3.30005 105.1 3.30005C106.5 3.30005 107.8 3.50005 108.8 4.00005C109.8 4.50005 110.6 5.10005 111.2 5.90005C111.8 6.70005 112.3 7.60005 112.6 8.70005C112.9 9.80005 113 10.9 113 12.1C113.2 13.4 113 14.9 112.6 16.5ZM102.9 13.5C102.6 14.9 102.3 16.4 101.9 17.9C101.5 19.4 101.3 20.9 100.9 22.5C100.6 24.1 100.3 25.8001 100 27.7001C100.6 27.3001 101.3 26.7001 101.9 26C102.5 25.3 103.1 24.4 103.6 23.5C104.1 22.6 104.6 21.5 105.1 20.5C105.5 19.4 105.9 18.4 106.2 17.4C106.5 16.4 106.8 15.4 106.9 14.6C107.1 13.7 107.2 13 107.2 12.3C107.2 11.3 106.9 10.5 106.4 10C105.9 9.40005 105 9.20005 103.8 9.20005C103.5 10.5 103.2 12 102.9 13.5Z" fill="#111111"/>
<path d="M112.8 32.5L118 4.1L130.7 3C130.5 3.6 130.4 4.2 130.2 4.8C130.1 5.3 129.9 5.8 129.8 6.4C129.7 7 129.6 7.4 129.5 7.9C129.2 7.9 128.9 7.9 128.4 8C127.9 8 127.4 8 126.8 8C126.2 8 125.7 8 125.1 8C124.5 8 124 8 123.6 8L122.2 15.2C123 15.1 123.8 15.1 124.5 15.1C125.1 15.1 125.7 15.1 126.3 15.1C126.9 15.1 127.4 15.1 127.7 15.1C127.6 15.8 127.5 16.6 127.4 17.3C127.3 18 127.2 18.8 127.1 19.5C126.8 19.5 126.4 19.5 125.8 19.6C125.2 19.6 124.6 19.6 124 19.7C123.3 19.7 122.5 19.8 121.7 19.8L120.3 27.2L126.1 26.3L125.7 30.9L112.8 32.5Z" fill="#111111"/>
</g>
<defs>
<clipPath id="clip0_349_33">
<rect width="130.7" height="51" fill="white"/>
</clipPath>
</defs>
</svg>
