<svg width="37" height="36" viewBox="0 0 37 36" fill="none" xmlns="http://www.w3.org/2000/svg">
<g clip-path="url(#clip0_274_14)">
<path d="M1.89001 6.12001C2.25001 6.30001 3.06001 6.84001 3.69001 8.19001C5.04001 10.8 4.32001 14.4 3.42001 16.83C2.07001 20.7 2.07001 24.03 3.51001 26.46C4.77002 28.62 7.02002 30.06 10.08 30.69C13.32 31.32 15.3 32.22 16.47 32.94C17.37 33.48 17.91 33.93 18.09 34.2C18.27 34.02 18.81 33.48 19.71 32.94C20.88 32.31 22.86 31.32 26.1 30.69C29.16 30.06 31.5 28.62 32.67 26.46C34.11 24.03 34.11 20.7 32.76 16.92C31.86 14.4 31.14 10.89 32.4 8.19001C33.03 6.93001 33.93 6.30001 34.29 6.12001L30.6 1.26001C29.97 1.35001 25.38 1.80001 18.09 1.80001C10.8 1.80001 6.21001 1.35001 5.58001 1.26001L1.89001 6.12001Z" fill="#292929"/>
<path d="M9.89999 11.7H6.12V30.06H9.89999V11.7Z" fill="#24D17E"/>
<path d="M16.65 11.7H12.87V32.0399H16.65V11.7Z" fill="#24D17E"/>
<path d="M23.4 11.7H19.62V32.0399H23.4V11.7Z" fill="#24D17E"/>
<path d="M30.15 11.7H26.37V30.06H30.15V11.7Z" fill="#24D17E"/>
<path d="M3.69001 8.37004C5.04001 11.16 4.23001 14.76 3.33001 17.37C7.29001 15.12 12.42 13.77 18 13.77C23.58 13.77 28.71 15.12 32.67 17.37C31.77 14.76 31.05 11.07 32.31 8.37004C32.94 7.02004 33.84 6.48004 34.2 6.21004L30.51 1.17004C29.97 1.35004 25.38 1.80004 18.09 1.80004C10.8 1.80004 6.21001 1.35004 5.58001 1.26004L1.89001 6.30004C2.25001 6.48004 3.06001 7.11004 3.69001 8.37004Z" fill="#292929"/>
<path d="M18.09 36L17.28 34.92C17.19 34.83 15.3 32.85 9.9 31.77C6.48 31.14 3.87 29.43 2.52 27C0.9 24.3 0.9 20.61 2.34 16.47C4.95 9 1.53 7.2 1.26 7.11L0 6.57L0.9 5.49L5.04 0L5.58 0.09C5.67 0.09 10.26 0.63 18.09 0.63C25.92 0.63 30.6 0.09 30.6 0.09L31.23 0L36.27 6.66L35.01 7.11C34.74 7.2 31.32 9 33.93 16.47C35.37 20.61 35.28 24.3 33.75 27C32.31 29.43 29.79 31.14 26.37 31.77C20.88 32.85 19.08 34.83 18.99 34.92L18.09 36ZM3.15 5.94C4.59 7.2 6.66 10.26 4.23 17.19C2.97 20.79 2.97 23.85 4.23 26.01C5.31 27.9 7.38 29.25 10.26 29.79C14.67 30.6 17.01 32.04 18.09 32.94C19.17 32.04 21.51 30.69 25.92 29.79C28.71 29.25 30.78 27.99 31.95 26.01C33.21 23.85 33.21 20.79 31.95 17.19C29.61 10.26 31.68 7.2 33.12 5.94L30.24 2.16C28.8 2.34 24.57 2.61 18.09 2.61C11.7 2.61 7.47 2.34 6.03 2.16L3.15 5.94Z" fill="#292929"/>
<path d="M9.18 4.94995C9.81 4.94995 10.17 5.30995 10.17 6.11995C10.17 6.47995 10.17 6.65995 10.17 7.01995C10.17 7.10995 10.17 7.19995 10.08 7.19995C9.81 7.19995 9.63 7.19995 9.36 7.19995C9.27 7.19995 9.27001 7.10995 9.27001 7.01995C9.27001 6.74995 9.27001 6.56995 9.27001 6.29995C9.27001 6.02995 9.18001 5.93995 9.00001 5.93995C8.82001 5.93995 8.82001 5.93995 8.64001 5.93995C8.46001 5.93995 8.37001 6.02995 8.37001 6.29995C8.37001 6.74995 8.37001 7.01995 8.37001 7.55995C9.00001 7.82995 9.36 7.91995 10.08 8.09995C10.17 8.18995 10.26 8.18995 10.26 8.36995C10.26 9.17995 10.26 9.89995 10.26 10.98C10.26 12.06 9.90001 12.51 9.27001 12.69C8.91001 12.78 8.82 12.78 8.46 12.87C7.83 13.05 7.47001 12.78 7.47001 11.52C7.47001 10.98 7.47001 10.62 7.47001 9.98995C7.47001 9.80995 7.47 9.71995 7.56 9.71995C7.83 9.71995 8.01 9.62995 8.28 9.62995C8.37 9.62995 8.37001 9.71995 8.37001 9.80995C8.37001 10.26 8.37001 10.44 8.37001 10.89C8.37001 11.25 8.46001 11.43 8.64001 11.34C8.82001 11.34 8.82001 11.34 9.00001 11.25C9.18001 11.25 9.27001 11.07 9.27001 10.71C9.27001 9.98995 9.27001 9.62995 9.27001 8.99995C8.55001 8.90995 8.19 8.72995 7.56 8.54995C7.38 8.45995 7.38 8.36995 7.38 8.27995C7.38 7.46995 7.38 7.01995 7.38 6.20995C7.38 5.39995 7.74001 4.94995 8.37001 4.94995C8.64001 4.94995 8.82 4.94995 9.18 4.94995Z" fill="#E82344"/>
<path d="M11.07 6.11995C11.07 5.30995 11.43 4.94995 12.06 4.94995C12.42 4.94995 12.51 4.94995 12.87 4.94995C13.5 4.94995 13.86 5.30995 13.86 6.11995C13.86 7.55995 13.86 9.08995 13.86 10.53C13.86 11.43 13.5 11.88 12.87 11.97C12.51 12.06 12.42 12.06 12.06 12.15C11.43 12.24 11.07 12.06 11.07 10.98C11.07 9.26995 11.07 7.73995 11.07 6.11995ZM12.69 10.8C12.87 10.8 12.96 10.62 12.96 10.35C12.96 8.45995 12.96 7.82995 12.96 6.29995C12.96 6.11995 12.87 5.93995 12.69 5.93995C12.51 5.93995 12.42 5.93995 12.24 5.93995C12.06 5.93995 11.97 6.02995 11.97 6.29995C11.97 7.82995 11.97 8.45995 11.97 10.53C11.97 10.8 12.06 10.98 12.24 10.89C12.42 10.89 12.51 10.8 12.69 10.8Z" fill="#E82344"/>
<path d="M17.64 6.92992C17.64 7.01992 17.64 7.01992 17.55 7.01992C17.28 7.01992 17.1 7.01992 16.83 7.01992C16.74 7.01992 16.74 6.92992 16.74 6.92992C16.74 6.65992 16.74 6.56992 16.74 6.29992C16.74 6.11992 16.65 5.93992 16.47 5.93992C16.29 5.93992 16.29 5.93992 16.11 5.93992C15.93 5.93992 15.84 6.02992 15.84 6.29992C15.84 7.73992 15.84 8.45992 15.84 10.0799C15.84 10.3499 15.93 10.4399 16.11 10.4399C16.29 10.4399 16.29 10.4399 16.47 10.4399C16.65 10.4399 16.74 10.3499 16.74 10.0799C16.74 9.80992 16.74 9.62992 16.74 9.35992C16.74 9.26992 16.74 9.17992 16.83 9.17992C17.1 9.17992 17.28 9.17992 17.55 9.17992C17.64 9.17992 17.64 9.26992 17.64 9.35992C17.64 9.71992 17.64 9.89992 17.64 10.2599C17.64 11.0699 17.28 11.4299 16.65 11.5199C16.29 11.5199 16.2 11.5199 15.84 11.6099C15.21 11.6999 14.85 11.3399 14.76 10.5299C14.76 9.08992 14.76 7.64992 14.76 6.20992C14.76 5.48992 15.12 5.03992 15.84 5.03992C16.2 5.03992 16.29 5.03992 16.65 5.03992C17.28 5.03992 17.64 5.39992 17.64 6.20992C17.64 6.38992 17.64 6.56992 17.64 6.92992Z" fill="#E82344"/>
<path d="M21.42 6.9299C21.42 7.0199 21.42 7.0199 21.33 7.0199C21.06 7.0199 20.88 7.0199 20.61 7.0199C20.52 7.0199 20.52 6.9299 20.52 6.9299C20.52 6.6599 20.52 6.5699 20.52 6.2999C20.52 6.1199 20.43 5.9399 20.25 5.9399C20.07 5.9399 20.07 5.9399 19.89 5.9399C19.71 5.9399 19.62 6.0299 19.62 6.2999C19.62 7.7399 19.62 8.4599 19.62 10.0799C19.62 10.3499 19.71 10.4399 19.89 10.4399C20.07 10.4399 20.07 10.4399 20.25 10.4399C20.43 10.4399 20.52 10.3499 20.52 10.0799C20.52 9.8099 20.52 9.6299 20.52 9.3599C20.52 9.2699 20.52 9.1799 20.61 9.1799C20.88 9.1799 21.06 9.1799 21.33 9.1799C21.42 9.1799 21.42 9.2699 21.42 9.3599C21.42 9.8099 21.42 9.9899 21.42 10.4399C21.42 11.3399 21.06 11.6099 20.43 11.5199C20.07 11.5199 19.98 11.5199 19.62 11.4299C18.99 11.4299 18.63 10.9799 18.63 10.1699C18.63 8.3699 18.63 7.6499 18.63 5.9399C18.63 5.2199 18.99 4.7699 19.62 4.7699C19.98 4.7699 20.07 4.7699 20.43 4.7699C21.06 4.7699 21.42 5.1299 21.42 5.9399C21.42 6.3899 21.42 6.5699 21.42 6.9299Z" fill="#E82344"/>
<path d="M25.11 5.84986C25.11 5.93986 25.11 6.02986 25.02 6.02986C24.3 6.02986 23.94 6.02986 23.22 6.02986C23.22 6.65986 23.22 7.01986 23.22 7.64986C23.76 7.64986 24.03 7.64986 24.57 7.64986C24.66 7.64986 24.66 7.73986 24.66 7.82986C24.66 8.18986 24.66 8.27986 24.66 8.63986C24.66 8.72986 24.66 8.81986 24.57 8.81986C24.03 8.81986 23.76 8.81986 23.22 8.72986C23.22 9.44986 23.22 9.98986 23.22 10.7999C23.94 10.8899 24.3 10.9799 25.02 11.0699C25.11 11.0699 25.11 11.1599 25.11 11.2499C25.11 11.6999 25.11 11.8799 25.11 12.2399C25.11 12.3299 25.11 12.3299 25.02 12.3299C23.94 12.0599 23.49 11.9699 22.41 11.7899C22.32 11.7899 22.32 11.6999 22.32 11.6099C22.32 9.35986 22.32 7.19986 22.32 4.94986C22.32 4.85986 22.32 4.85986 22.41 4.85986C23.49 4.85986 23.94 4.85986 25.02 4.85986C25.11 4.85986 25.11 4.94986 25.11 4.94986C25.11 5.30986 25.11 5.48986 25.11 5.84986Z" fill="#E82344"/>
<path d="M28.89 8.27995C28.89 8.81995 28.71 9.44995 28.35 9.62995C28.53 10.98 28.62 12.06 28.89 13.14C28.89 13.23 28.89 13.32 28.8 13.23C28.53 13.14 28.35 13.14 28.08 13.05C27.99 13.05 27.99 12.96 27.99 12.87C27.81 11.97 27.72 10.98 27.45 9.62995C27.27 9.62995 27.18 9.62995 27 9.53995C27 10.8 27 11.7 27 12.51C27 12.6 27 12.6 26.91 12.6C26.55 12.69 26.37 12.6 26.1 12.6C26.01 12.6 26.01 12.51 26.01 12.42C26.01 9.98995 26.01 7.46995 26.01 5.03995C26.01 4.94995 26.01 4.94995 26.1 4.94995C26.82 4.94995 27.18 4.94995 27.9 4.94995C28.53 4.94995 28.89 5.30995 28.89 6.20995C28.89 7.01995 28.89 7.55995 28.89 8.27995ZM27.63 8.36995C27.81 8.36995 27.9 8.27995 27.9 8.09995C27.9 7.46995 27.9 7.10995 27.9 6.47995C27.9 6.20995 27.81 6.11995 27.63 6.11995C27.36 6.11995 27.18 6.11995 26.91 6.11995C26.91 7.01995 26.91 7.55995 26.91 8.36995C27.18 8.27995 27.36 8.27995 27.63 8.36995Z" fill="#E82344"/>
<path d="M9.18 4.77002C9.81 4.77002 10.17 5.13002 10.17 5.94002C10.17 6.30002 10.17 6.48002 10.17 6.84002C10.17 6.93002 10.17 7.02002 10.08 7.02002C9.81 7.02002 9.63 7.02002 9.36 7.02002C9.27 7.02002 9.27001 6.93002 9.27001 6.84002C9.27001 6.57002 9.27001 6.39002 9.27001 6.12002C9.27001 5.85002 9.18 5.76002 9.00001 5.76002C8.82001 5.76002 8.82001 5.76002 8.64001 5.76002C8.46001 5.76002 8.37001 5.85002 8.37001 6.12002C8.37001 6.57002 8.37001 6.84002 8.37001 7.38002C9.00001 7.65002 9.36 7.74002 10.08 7.92002C10.08 8.10002 10.17 8.10002 10.17 8.28002C10.17 9.09002 10.17 9.81002 10.17 10.89C10.17 11.97 9.81 12.42 9.18 12.6C8.82 12.69 8.73001 12.69 8.37001 12.78C7.74001 12.96 7.38 12.69 7.38 11.43C7.38 10.89 7.38 10.53 7.38 9.90002C7.38 9.72002 7.38001 9.63002 7.47001 9.63002C7.74001 9.63002 7.92001 9.54002 8.19001 9.54002C8.28001 9.54002 8.28 9.63002 8.28 9.72002C8.28 10.17 8.28 10.35 8.28 10.8C8.28 11.16 8.37001 11.34 8.55001 11.25C8.73001 11.25 8.73 11.25 8.91 11.16C9.09 11.16 9.18 10.98 9.18 10.62C9.18 9.90002 9.18 9.54002 9.18 8.91002C8.55 8.73002 8.19 8.64002 7.56 8.37002C7.38 8.37002 7.38 8.28002 7.38 8.10002C7.38 7.29002 7.38 6.84002 7.38 6.03002C7.38 5.22002 7.74001 4.77002 8.37001 4.77002C8.64001 4.77002 8.82 4.77002 9.18 4.77002Z" fill="#292929"/>
<path d="M11.07 5.94002C11.07 5.13002 11.43 4.77002 12.06 4.77002C12.42 4.77002 12.51 4.77002 12.87 4.77002C13.5 4.77002 13.86 5.13002 13.86 5.94002C13.86 7.38002 13.86 8.91002 13.86 10.35C13.86 11.25 13.5 11.7 12.87 11.79C12.51 11.88 12.42 11.88 12.06 11.97C11.43 12.06 11.07 11.88 11.07 10.8C11.07 9.18002 11.07 7.56002 11.07 5.94002ZM12.69 10.71C12.87 10.71 12.96 10.53 12.96 10.26C12.96 8.37002 12.96 7.74002 12.96 6.21002C12.96 6.03002 12.87 5.85002 12.69 5.85002C12.51 5.85002 12.42 5.85002 12.24 5.85002C12.06 5.85002 11.97 5.94002 11.97 6.21002C11.97 7.74002 11.97 8.37002 11.97 10.44C11.97 10.71 12.06 10.89 12.24 10.8C12.42 10.71 12.51 10.71 12.69 10.71Z" fill="#292929"/>
<path d="M17.64 6.74999C17.64 6.83999 17.64 6.83999 17.55 6.83999C17.28 6.83999 17.1 6.83999 16.83 6.83999C16.74 6.83999 16.74 6.74999 16.74 6.74999C16.74 6.47999 16.74 6.38999 16.74 6.11999C16.74 5.93999 16.65 5.75999 16.47 5.75999C16.29 5.75999 16.29 5.75999 16.11 5.75999C15.93 5.75999 15.84 5.84999 15.84 6.11999C15.84 7.55999 15.84 8.27999 15.84 9.89999C15.84 10.17 15.93 10.26 16.11 10.26C16.29 10.26 16.29 10.26 16.47 10.26C16.65 10.26 16.74 10.17 16.74 9.89999C16.74 9.62999 16.74 9.44999 16.74 9.17999C16.74 9.08998 16.74 8.99999 16.83 8.99999C17.1 8.99999 17.28 8.99999 17.55 8.99999C17.64 8.99999 17.64 9.08998 17.64 9.17999C17.64 9.53999 17.64 9.71999 17.64 10.08C17.64 10.89 17.28 11.25 16.65 11.34C16.29 11.34 16.2 11.34 15.84 11.43C15.21 11.52 14.85 11.16 14.76 10.35C14.76 8.90999 14.76 7.46999 14.76 6.02999C14.76 5.30999 15.12 4.85999 15.84 4.85999C16.2 4.85999 16.29 4.85999 16.65 4.85999C17.28 4.85999 17.64 5.21999 17.64 6.02999C17.64 6.20999 17.64 6.38999 17.64 6.74999Z" fill="#292929"/>
<path d="M21.42 6.74997C21.42 6.83997 21.42 6.83997 21.33 6.83997C21.06 6.83997 20.88 6.83997 20.61 6.83997C20.52 6.83997 20.52 6.74997 20.52 6.74997C20.52 6.47997 20.52 6.38997 20.52 6.11997C20.52 5.93997 20.43 5.75997 20.25 5.75997C20.07 5.75997 20.07 5.75997 19.89 5.75997C19.71 5.75997 19.62 5.84997 19.62 6.11997C19.62 7.55997 19.62 8.27997 19.62 9.89997C19.62 10.17 19.71 10.26 19.89 10.26C20.07 10.26 20.07 10.26 20.25 10.26C20.43 10.26 20.52 10.17 20.52 9.89997C20.52 9.62997 20.52 9.44997 20.52 9.17997C20.52 9.08997 20.52 8.99997 20.61 8.99997C20.88 8.99997 21.06 8.99997 21.33 8.99997C21.42 8.99997 21.42 9.08997 21.42 9.17997C21.42 9.62997 21.42 9.80997 21.42 10.26C21.42 11.16 21.06 11.43 20.43 11.34C20.07 11.34 19.98 11.34 19.62 11.25C18.99 11.25 18.63 10.8 18.63 9.98997C18.63 8.18997 18.63 7.46997 18.63 5.75997C18.63 5.03997 18.99 4.58997 19.62 4.58997C19.98 4.58997 20.07 4.58997 20.43 4.58997C21.06 4.58997 21.42 4.94997 21.42 5.75997C21.42 6.29997 21.42 6.47997 21.42 6.74997Z" fill="#292929"/>
<path d="M25.11 5.66993C25.11 5.75993 25.11 5.84993 25.02 5.84993C24.3 5.84993 23.94 5.84993 23.22 5.84993C23.22 6.47993 23.22 6.83993 23.22 7.46993C23.76 7.46993 24.03 7.46993 24.57 7.46993C24.66 7.46993 24.66 7.55993 24.66 7.64993C24.66 8.00993 24.66 8.09993 24.66 8.45993C24.66 8.54993 24.66 8.63993 24.57 8.63993C24.03 8.63993 23.76 8.63993 23.22 8.54993C23.22 9.26993 23.22 9.80993 23.22 10.6199C23.94 10.7099 24.3 10.7999 25.02 10.8899C25.11 10.8899 25.11 10.9799 25.11 11.0699C25.11 11.5199 25.11 11.6999 25.11 12.0599C25.11 12.1499 25.11 12.1499 25.02 12.1499C23.94 11.8799 23.49 11.7899 22.41 11.6099C22.32 11.6099 22.32 11.5199 22.32 11.4299C22.32 9.17993 22.32 7.01993 22.32 4.76993C22.32 4.67993 22.32 4.67993 22.41 4.67993C23.49 4.67993 23.94 4.67993 25.02 4.67993C25.11 4.67993 25.11 4.76993 25.11 4.76993C25.11 5.21993 25.11 5.39993 25.11 5.66993Z" fill="#292929"/>
<path d="M28.89 8.18993C28.89 8.72993 28.71 9.35993 28.35 9.53993C28.53 10.8899 28.62 11.9699 28.89 13.0499C28.89 13.1399 28.89 13.2299 28.8 13.1399C28.53 13.0499 28.35 13.0499 28.08 12.9599C27.99 12.9599 27.99 12.8699 27.99 12.7799C27.81 11.8799 27.72 10.8899 27.45 9.53993C27.27 9.53993 27.18 9.53993 27 9.44993C27 10.7099 27 11.6099 27 12.4199C27 12.5099 27 12.5099 26.91 12.5099C26.64 12.4199 26.46 12.4199 26.19 12.3299C26.1 12.3299 26.1 12.2399 26.1 12.1499C26.1 9.71993 26.1 7.19993 26.1 4.76993C26.1 4.67993 26.1 4.67993 26.19 4.67993C26.91 4.67993 27.27 4.67993 27.99 4.67993C28.62 4.67993 28.98 5.03993 28.98 5.93993C28.89 6.83993 28.89 7.37993 28.89 8.18993ZM27.63 8.18993C27.81 8.18993 27.9 8.09993 27.9 7.82993C27.9 7.19993 27.9 6.83993 27.9 6.20993C27.9 5.93993 27.81 5.84993 27.63 5.84993C27.36 5.84993 27.18 5.84993 26.91 5.84993C26.91 6.74993 26.91 7.28993 26.91 8.09993C27.18 8.18993 27.36 8.18993 27.63 8.18993Z" fill="#292929"/>
<path d="M9.18 4.40991C9.81 4.40991 10.17 4.76991 10.17 5.57991C10.17 5.93991 10.17 6.11991 10.17 6.47991C10.17 6.56991 10.17 6.65991 10.08 6.65991C9.81 6.65991 9.63 6.65991 9.36 6.65991C9.27 6.65991 9.27001 6.56991 9.27001 6.47991C9.27001 6.20991 9.27001 6.02991 9.27001 5.75991C9.27001 5.48991 9.18001 5.39991 9.00001 5.39991C8.82001 5.39991 8.82001 5.39991 8.64001 5.39991C8.46001 5.39991 8.37001 5.48991 8.37001 5.75991C8.37001 6.20991 8.37001 6.47991 8.37001 7.01991C9.00001 7.28991 9.36 7.37991 10.08 7.55991C10.17 7.64991 10.26 7.64991 10.26 7.82991C10.26 8.63991 10.26 9.35991 10.26 10.4399C10.26 11.5199 9.90001 11.9699 9.27001 12.1499C8.91001 12.2399 8.82 12.2399 8.46 12.3299C7.83 12.5099 7.47001 12.2399 7.47001 10.9799C7.47001 10.4399 7.47001 10.0799 7.47001 9.44991C7.47001 9.26991 7.47 9.17991 7.56 9.17991C7.83 9.17991 8.01 9.08991 8.28 9.08991C8.37 9.08991 8.37001 9.17991 8.37001 9.26991C8.37001 9.71991 8.37001 9.89991 8.37001 10.3499C8.37001 10.7099 8.46001 10.8899 8.64001 10.7999C8.82001 10.7999 8.82001 10.7999 9.00001 10.7099C9.18001 10.7099 9.27001 10.5299 9.27001 10.1699C9.27001 9.44991 9.27001 9.08991 9.27001 8.45991C8.55001 8.45991 8.19 8.27991 7.56 8.09991C7.38 8.00991 7.38 7.91991 7.38 7.73991C7.38 6.92991 7.38 6.47991 7.38 5.66991C7.38 4.85991 7.74001 4.40991 8.37001 4.40991C8.64001 4.40991 8.82 4.40991 9.18 4.40991Z" fill="white"/>
<path d="M11.07 5.57991C11.07 4.76991 11.43 4.40991 12.06 4.40991C12.42 4.40991 12.51 4.40991 12.87 4.40991C13.5 4.40991 13.86 4.76991 13.86 5.57991C13.86 7.01991 13.86 8.54991 13.86 9.98991C13.86 10.8899 13.5 11.3399 12.87 11.4299C12.51 11.5199 12.42 11.5199 12.06 11.6099C11.43 11.6999 11.07 11.5199 11.07 10.4399C11.07 8.81991 11.07 7.19991 11.07 5.57991ZM12.69 10.3499C12.87 10.3499 12.96 10.1699 12.96 9.89991C12.96 8.00991 12.96 7.37991 12.96 5.84991C12.96 5.66991 12.87 5.48991 12.69 5.48991C12.51 5.48991 12.42 5.48991 12.24 5.48991C12.06 5.48991 11.97 5.57991 11.97 5.84991C11.97 7.37991 11.97 8.00991 11.97 10.0799C11.97 10.3499 12.06 10.5299 12.24 10.4399C12.42 10.3499 12.51 10.3499 12.69 10.3499Z" fill="white"/>
<path d="M17.64 6.47997C17.64 6.56997 17.64 6.56997 17.55 6.56997C17.28 6.56997 17.1 6.56997 16.83 6.56997C16.74 6.56997 16.74 6.47997 16.74 6.47997C16.74 6.20997 16.74 6.11997 16.74 5.84997C16.74 5.66997 16.65 5.48997 16.47 5.48997C16.29 5.48997 16.29 5.48997 16.11 5.48997C15.93 5.48997 15.84 5.57997 15.84 5.84997C15.84 7.28997 15.84 8.00997 15.84 9.62997C15.84 9.89997 15.93 9.98997 16.11 9.98997C16.29 9.98997 16.29 9.98997 16.47 9.98997C16.65 9.98997 16.74 9.89997 16.74 9.62997C16.74 9.35997 16.74 9.17997 16.74 8.90997C16.74 8.81997 16.74 8.72997 16.83 8.72997C17.1 8.72997 17.28 8.72997 17.55 8.72997C17.64 8.72997 17.64 8.81997 17.64 8.90997C17.64 9.26997 17.64 9.44997 17.64 9.80997C17.64 10.62 17.28 10.98 16.65 11.07C16.29 11.07 16.2 11.07 15.84 11.16C15.21 11.25 14.85 10.89 14.76 10.08C14.76 8.63997 14.76 7.19997 14.76 5.75997C14.76 5.03997 15.12 4.58997 15.84 4.58997C16.2 4.58997 16.29 4.58997 16.65 4.58997C17.28 4.58997 17.64 4.94997 17.64 5.75997C17.64 5.93997 17.64 6.11997 17.64 6.47997Z" fill="white"/>
<path d="M21.42 6.47995C21.42 6.56995 21.42 6.56995 21.33 6.56995C21.06 6.56995 20.88 6.56995 20.61 6.56995C20.52 6.56995 20.52 6.47995 20.52 6.47995C20.52 6.20995 20.52 6.11995 20.52 5.84995C20.52 5.66995 20.43 5.48995 20.25 5.48995C20.07 5.48995 20.07 5.48995 19.89 5.48995C19.71 5.48995 19.62 5.57995 19.62 5.84995C19.62 7.28995 19.62 8.00995 19.62 9.62995C19.62 9.89995 19.71 9.98995 19.89 9.98995C20.07 9.98995 20.07 9.98995 20.25 9.98995C20.43 9.98995 20.52 9.89995 20.52 9.62995C20.52 9.35995 20.52 9.17995 20.52 8.90995C20.52 8.81995 20.52 8.72995 20.61 8.72995C20.88 8.72995 21.06 8.72995 21.33 8.72995C21.42 8.72995 21.42 8.81995 21.42 8.90995C21.42 9.35995 21.42 9.53995 21.42 9.98995C21.42 10.8899 21.06 11.1599 20.43 11.0699C20.07 11.0699 19.98 11.0699 19.62 10.9799C18.99 10.9799 18.63 10.5299 18.63 9.71995C18.63 7.91995 18.63 7.19995 18.63 5.48995C18.63 4.76995 18.99 4.31995 19.62 4.31995C19.98 4.31995 20.07 4.31995 20.43 4.31995C21.06 4.31995 21.42 4.67995 21.42 5.48995C21.42 5.93995 21.42 6.11995 21.42 6.47995Z" fill="white"/>
<path d="M25.11 5.39991C25.11 5.48991 25.11 5.57991 25.02 5.57991C24.3 5.57991 23.94 5.57991 23.22 5.57991C23.22 6.20991 23.22 6.56991 23.22 7.19991C23.76 7.19991 24.03 7.19991 24.57 7.19991C24.66 7.19991 24.66 7.28991 24.66 7.37991C24.66 7.73991 24.66 7.82991 24.66 8.18991C24.66 8.27991 24.66 8.36991 24.57 8.36991C24.03 8.36991 23.76 8.36991 23.22 8.27991C23.22 8.99991 23.22 9.53991 23.22 10.3499C23.94 10.4399 24.3 10.5299 25.02 10.6199C25.11 10.6199 25.11 10.7099 25.11 10.7999C25.11 11.2499 25.11 11.4299 25.11 11.7899C25.11 11.8799 25.11 11.8799 25.02 11.8799C23.94 11.6099 23.49 11.5199 22.41 11.3399C22.32 11.3399 22.32 11.2499 22.32 11.1599C22.32 8.90991 22.32 6.74991 22.32 4.49991C22.32 4.40991 22.32 4.40991 22.41 4.40991C23.49 4.40991 23.94 4.40991 25.02 4.40991C25.11 4.40991 25.11 4.49991 25.11 4.49991C25.11 4.85991 25.11 5.03991 25.11 5.39991Z" fill="white"/>
<path d="M28.89 7.82995C28.89 8.36995 28.71 8.99995 28.35 9.17995C28.53 10.5299 28.62 11.6099 28.89 12.6899C28.89 12.7799 28.89 12.8699 28.8 12.7799C28.53 12.6899 28.35 12.6899 28.08 12.5999C27.99 12.5999 27.99 12.5099 27.99 12.4199C27.81 11.5199 27.72 10.5299 27.45 9.17995C27.27 9.17995 27.18 9.17995 27 9.08995C27 10.3499 27 11.2499 27 12.0599C27 12.1499 27 12.1499 26.91 12.1499C26.64 12.0599 26.46 12.0599 26.19 11.9699C26.1 11.9699 26.1 11.8799 26.1 11.7899C26.1 9.35995 26.1 6.83995 26.1 4.40995C26.1 4.31995 26.1 4.31995 26.19 4.31995C26.91 4.31995 27.27 4.31995 27.99 4.31995C28.62 4.31995 28.98 4.67995 28.98 5.57995C28.89 6.56995 28.89 7.01995 28.89 7.82995ZM27.63 7.82995C27.81 7.82995 27.9 7.73995 27.9 7.55995C27.9 6.92995 27.9 6.56995 27.9 5.93995C27.9 5.66995 27.81 5.57995 27.63 5.57995C27.36 5.57995 27.18 5.57995 26.91 5.57995C26.91 6.47995 26.91 7.01995 26.91 7.82995C27.18 7.82995 27.36 7.82995 27.63 7.82995Z" fill="white"/>
<path d="M18.09 33.2101L17.91 33.0301C16.92 32.2201 14.67 30.78 10.17 29.97C7.29001 29.43 5.13001 28.08 3.96001 26.1C2.70001 23.85 2.70001 20.7001 3.96001 17.1C6.30001 10.35 4.32001 7.38005 2.97001 6.12005L2.70001 5.94005L5.85001 1.80005H6.03001C7.56001 1.98005 11.7 2.34005 18.09 2.34005C24.48 2.34005 28.71 1.98005 30.24 1.89005H30.42L33.57 6.03005L33.3 6.12005C31.95 7.29005 29.97 10.35 32.31 17.01C33.57 20.7 33.57 23.76 32.22 26.1C31.05 28.08 28.89 29.43 26.01 29.97C21.6 30.78 19.26 32.2201 18.27 33.0301L18.09 33.2101ZM3.51001 5.85005C4.95001 7.29005 6.84001 10.5301 4.50001 17.2801C3.24001 20.7901 3.33001 23.76 4.50001 25.8301C5.58001 27.7201 7.56001 28.8901 10.35 29.43C14.49 30.2401 16.83 31.5 18.09 32.49C19.35 31.5 21.78 30.2401 25.83 29.43C28.53 28.8901 30.6 27.6301 31.68 25.8301C32.94 23.67 32.94 20.7001 31.68 17.2801C29.34 10.5301 31.23 7.29005 32.67 5.94005L30.06 2.52005C28.44 2.61005 24.3 2.97005 18.09 2.97005C11.88 2.97005 7.74001 2.61005 6.12001 2.52005L3.51001 5.85005Z" fill="#24D17E"/>
<path d="M18.09 12.6L18.36 13.41H19.08L18.54 13.86L18.72 14.58L18.09 14.13L17.46 14.58L17.73 13.86L17.1 13.41H17.91L18.09 12.6Z" fill="white"/>
<path d="M11.25 13.23L11.43 13.95H12.24L11.61 14.4L11.88 15.12L11.25 14.67L10.62 15.12L10.8 14.4L10.26 13.95H10.98L11.25 13.23Z" fill="white"/>
<path d="M25.02 13.23L25.2 13.95H26.01L25.38 14.4L25.65 15.12L25.02 14.67L24.39 15.12L24.57 14.4L24.03 13.95H24.75L25.02 13.23Z" fill="white"/>
</g>
<defs>
<clipPath id="clip0_274_14">
<rect width="36.18" height="36" fill="white"/>
</clipPath>
</defs>
</svg>
