<svg width="40" height="40" viewBox="0 0 40 40" fill="none" xmlns="http://www.w3.org/2000/svg">
<path d="M20 40C31.0457 40 40 31.0457 40 20C40 8.9543 31.0457 0 20 0C8.9543 0 0 8.9543 0 20C0 31.0457 8.9543 40 20 40Z" fill="#292929"/>
<path d="M20 38.4C30.162 38.4 38.4 30.162 38.4 20C38.4 9.83794 30.162 1.59998 20 1.59998C9.83797 1.59998 1.60001 9.83794 1.60001 20C1.60001 30.162 9.83797 38.4 20 38.4Z" fill="#E82344"/>
<path d="M8.60001 8.50002L9.80001 7.40002L10 7.60002L9.10001 8.40002L9.80001 9.20002L10.7 8.40002L10.9 8.60002L10 9.40002L10.9 10.4L10.6 10.7L8.60001 8.50002Z" fill="white"/>
<path d="M14.1 6.50002C14.6 7.40002 14.3 8.20002 13.6 8.60002C12.9 9.00002 12.1 8.70002 11.6 7.90002C11.1 7.00002 11.3 6.20002 12.1 5.80002C12.8 5.50002 13.6 5.70002 14.1 6.50002ZM12 7.80002C12.3 8.40002 12.9 8.70002 13.5 8.40002C14.1 8.10002 14.1 7.40002 13.7 6.80002C13.4 6.30002 12.8 5.90002 12.2 6.20002C11.7 6.50002 11.7 7.20002 12 7.80002Z" fill="white"/>
<path d="M17.7 5.5C18 6.5 17.5 7.2 16.7 7.4C15.9 7.6 15.2 7.1 15 6.2C14.8 5.3 15.2 4.5 16 4.3C16.7 4.1 17.4 4.6 17.7 5.5ZM15.4 6.1C15.6 6.7 16.1 7.2 16.7 7.1C17.3 6.9 17.5 6.3 17.3 5.6C17.1 5 16.7 4.5 16 4.6C15.4 4.8 15.2 5.5 15.4 6.1Z" fill="white"/>
<path d="M19.1 4.20005H18.2V3.90005L20.5 3.80005V4.10005H19.6L19.7 6.80005H19.3L19.1 4.20005Z" fill="white"/>
<path d="M21.6 4C21.8 4 22.1 4 22.3 4.1C22.7 4.2 22.9 4.3 23.1 4.5C23.2 4.6 23.3 4.8 23.3 5.1C23.3 5.4 23 5.6 22.7 5.7C23 5.8 23.3 6.1 23.2 6.6C23.2 6.9 23 7 22.8 7.2C22.6 7.4 22.2 7.4 21.7 7.3C21.4 7.3 21.2 7.2 21.1 7.2L21.6 4ZM21.6 6.7C21.7 6.7 21.8 6.7 21.9 6.8C22.3 6.9 22.7 6.8 22.8 6.3C22.9 5.9 22.5 5.7 22.1 5.6L21.8 5.5L21.6 6.7ZM21.8 5.3L22.2 5.4C22.6 5.5 22.9 5.3 22.9 5C23 4.6 22.7 4.5 22.3 4.4C22.1 4.4 22 4.4 21.9 4.4L21.8 5.3Z" fill="white"/>
<path d="M24.6 6.80002L23.9 7.60002L23.5 7.40002L25.6 4.90002L26 5.10002L25.8 8.40002L25.4 8.20002L25.5 7.20002L24.6 6.80002ZM25.7 6.80002V5.90002C25.7 5.70002 25.7 5.50002 25.8 5.30002C25.7 5.50002 25.6 5.60002 25.4 5.80002L24.8 6.50002L25.7 6.80002Z" fill="white"/>
<path d="M28.2 6.1001L28.5 6.3001L27 8.6001L28.1 9.3001L27.9 9.6001L26.5 8.7001L28.2 6.1001Z" fill="white"/>
<path d="M30.6 7.90002L30.9 8.20002L29 10.2L29.9 11.1L29.7 11.3L28.5 10.1L30.6 7.90002Z" fill="white"/>
<path d="M10.5 30.8L9.7 31.5L8.9 30.9L9.2 31.9L8.5 32.5L9.5 32.4001L9.8 33.4001L10.1 32.4001L11.1 32.3L10.2 31.8L10.5 30.8Z" fill="#292929"/>
<path d="M30.7 31.9L31.1 30.9L30.2 31.5L29.5 30.8L29.7 31.8L28.9 32.3L29.9 32.4001L30.1 33.4001L30.5 32.4001L31.5 32.5L30.7 31.9Z" fill="#292929"/>
<path d="M20 31.5C26.3513 31.5 31.5 26.3513 31.5 20C31.5 13.6487 26.3513 8.5 20 8.5C13.6487 8.5 8.5 13.6487 8.5 20C8.5 26.3513 13.6487 31.5 20 31.5Z" fill="#292929"/>
<path d="M26.5004 27.967C30.9028 24.3644 31.5511 17.8752 27.9486 13.4728C24.346 9.07044 17.8568 8.42207 13.4544 12.0246C9.05206 15.6272 8.40369 22.1164 12.0062 26.5188C15.6088 30.9211 22.098 31.5695 26.5004 27.967Z" fill="white"/>
<path d="M21.8 18.7L17.4 21.5L17.3 21.4L21.7 18.7H21.8Z" fill="#292929"/>
<path d="M22 14.8C21.9 14.9 21.4 14.4 20.6 13.9C19.8 13.4 18.7 12.9 17.7 12.7V12.6C19.8 13 22 14.8 22 14.8Z" fill="#292929"/>
<path d="M14.3 14.4999C13.9 15.8999 13.9 17.1999 13.9 18.1999C13.9 19.1999 14.1 19.6999 14.1 19.6999H14C14 19.6999 13.5 17.2999 14.3 14.4999Z" fill="#292929"/>
<path d="M25.5 20.8999C26 22.9999 25.4 25.3999 25.4 25.3999H25.3C25.3 25.3999 25.4 24.7999 25.5 23.8999C25.6 23.0999 25.6 21.8999 25.5 20.8999C25.4 20.7999 25.3 20.5999 25.3 20.4999H25.4C25.4 20.5999 25.4 20.6999 25.5 20.8999Z" fill="#292929"/>
<path d="M20.1 26.9C21 27.3 21.7 27.5 21.7 27.5V27.6C21.7 27.6 18.8 26.7999 17.3 25.2999L17.4 25.2C18.1 26 19.2 26.6 20.1 26.9Z" fill="#292929"/>
<path d="M25.6 11.7999C25.9 13.1999 25.5 14.4999 25.5 14.4999H25.4C25.4 14.4999 25.5 14.1999 25.6 13.6999C25.6 13.0999 25.7 12.4999 25.6 11.7999C25.5 11.6999 25.5 11.5999 25.4 11.4999H25.5C25.5 11.4999 25.6 11.6999 25.6 11.7999Z" fill="#292929"/>
<path d="M11.5 21.9999C11.9 22.1999 12.2 22.1999 12.2 22.1999V22.2999C12.2 22.2999 11 22.0999 9.90001 20.9999L10 20.8999C10.5 21.4999 11.1 21.7999 11.5 21.9999Z" fill="#292929"/>
<path d="M14 25.6C14 25.6 13.9 26.6 14.2 27.9C14.2 28 14.3 28.2 14.3 28.3C14.3 28.1 14.2 28 14.2 27.9C13.9 26.7 14 25.6 14 25.6Z" fill="#292929"/>
<path d="M30 19.0999C29.7 18.8999 29.1 18.5999 28.6 18.3999C28.1 18.0999 27.6 17.9999 27.6 17.9999V17.8999C27.6 17.8999 29.5 18.6999 30 19.0999Z" fill="#292929"/>
<path d="M30.1 21.9999C29.1 25.0999 27.2 26.2999 27.2 26.2999C27.2 26.2999 27.7 25.9999 28.3 25.2999C28.9 24.5999 29.6 23.5999 30.1 21.9999Z" fill="#292929"/>
<path d="M21.7 29.3999C21.7 29.3999 19.3 30.0999 16.8 29.7999C16.8 29.7999 19.6 30.2999 21.7 29.5999V29.3999Z" fill="white"/>
<path d="M12.6 13.9C12.6 13.9 11.8 14.1 11 15.1C11 15.1 11.4 14.3 12.6 13.7V13.9Z" fill="#292929"/>
<path d="M17.8 10.8999C17.8 10.8999 18.7 10.2999 20.4 9.79993C20.4 9.79993 18.7 10.0999 17.7 10.7999L17.8 10.8999Z" fill="#292929"/>
<path d="M27.5 26.1C26.8 27.8 24.8 29.1 24.8 29.1C22.9 29.8 21.4 29.6 21.4 29.6L21.5 27.4C23.2 26.8 25.4 25.1 25.4 25.1L27.5 26.1Z" fill="#292929"/>
<path d="M25.5 20.8999C25.5 20.8999 22.5 19.0999 21.6 18.7999C21.6 18.7999 21.8 15.5999 21.7 14.5999C21.7 14.5999 23.8 13.6999 25.5 13.9999C25.5 13.9999 27 15.4999 27.8 17.8999C27.8 17.9999 26.6 20.1999 25.5 20.8999Z" fill="#292929"/>
<path d="M18 12.6999C18 12.6999 15.4 13.5999 14.2 15.0999C14.2 15.0999 13.3 14.2999 12.3 13.8999C12.3 13.8999 13.4 11.6999 14.6 11.0999C14.6 11.0999 16.1 10.3999 18.2 10.5999C18.2 10.5999 17.9 11.4999 18 12.6999Z" fill="#292929"/>
<path d="M17.7 25.4999C17.7 25.4999 17.6 22.4999 17.7 21.2999C17.7 21.2999 15.2 19.9999 14 19.2999C14 19.2999 12 21.1999 12 22.1999C12 22.1999 12.4 24.3999 14.1 25.9999C14 25.9999 15.7 26.4999 17.7 25.4999Z" fill="#292929"/>
<path d="M17.5 25.2999C17.5 25.2999 17.4 22.4999 17.5 21.2999C17.5 21.2999 15.1 20.0999 14 19.3999C14 19.3999 12.1 21.1999 12.1 22.1999C12.1 22.1999 12.5 24.2999 14.1 25.7999C14 25.7999 15.6 26.2999 17.5 25.2999Z" fill="#292929"/>
<path d="M30 22.5C30.4 20.9 30.5 19.3 30 17.6C30 17.6 30 17.6 30 17.5C30 18 29.9 18.6 29.7 19C29.8 19.1 30.2 21.1 30 22.5Z" fill="#292929"/>
<path d="M25.5 11.9C25.5 11.9 26.2 12 26.9 12.3C25.3 10.9 23.3 9.99995 21.2 9.69995C22.3 9.89995 24.3 10.6 25.5 11.9Z" fill="#292929"/>
<path d="M9.70001 18.3999C9.50001 19.5999 9.50001 20.8999 9.80001 22.1999C9.80001 21.7999 9.90001 21.3999 10 21.0999C10.1 21.0999 9.80001 19.7999 9.70001 18.3999Z" fill="#292929"/>
<path d="M14.3 28.2C13.6 28.1 12.6 27.3 12 26.6C13.3 28.2 15.2 29.4 17.2 30C15.7 29.4 14.3 28.2 14.3 28.2Z" fill="#292929"/>
<g opacity="0.2">
<path d="M21.1 19L18 20.9C17.8 21 17.4 21 17.2 20.9L14.5 19.5C14.3 19.4 14.3 19.4 14.5 19.5L17.2 20.7C17.4 20.8 17.8 20.8 18 20.7L21.1 19C21.3 18.8 21.3 18.8 21.1 19Z" fill="#292929"/>
<path d="M25.6 21C25.6 21 26 23.7 25.5 25.2L27.5 26.1L25.7 25.2C25.7 25.1 26.1 23.3 25.6 21Z" fill="#292929"/>
<path d="M27.6 26.2C27.6 26.2 27.1 27.5999 25.4 28.7999C25.4 28.7999 27 27.9 27.6 26.2Z" fill="#292929"/>
<path d="M21.8 14.5C21.8 14.5 19.8 12.9 18 12.5C18 12.5 17.9 11.8 18.2 10.6C18.2 10.6 18.1 11.7 18.2 12.4C18.1 12.5 20 12.8 21.8 14.5Z" fill="#292929"/>
<path d="M14.2 15.0999C14.2 15.0999 13.8 16.9999 14 19.1999C14 19.1999 14 16.5999 14.2 15.4999C14.2 15.3999 14.4 15.0999 14.5 14.9999C14.9 14.5999 16 13.5999 17.8 12.8999C17.9 12.7999 15.8 13.2999 14.2 15.0999Z" fill="#292929"/>
<path d="M13.9 19.2999C13.9 19.2999 12.1 20.8999 11.9 22.0999C11.9 22.0999 12 20.6999 13.9 19.2999Z" fill="#292929"/>
</g>
<path opacity="0.1" d="M30 17.6C29.1 13.9 26.4 11.2 23.1 10.1C23.9 11.3 24.5 12.6 24.9 14.1C26.4 20.4 22.5 26.6 16.2 28.1C15.5 28.3 14.7 28.4 14 28.4C16.3 30.1 19.3 30.8 22.4 30.1C27.9 28.8 31.3 23.2 30 17.6Z" fill="#292929"/>
</svg>
