<svg width="39" height="40" viewBox="0 0 39 40" fill="none" xmlns="http://www.w3.org/2000/svg">
<g clip-path="url(#clip0_274_111)">
<path d="M19.5 40C18 40 13.7 36.6 11.3 34.4C5.6 29.2 4.7 26.3 4.7 25V3.4L5 3.2C5.2 3.1 9.7 0 19.5 0C29.3 0 33.7 3.1 33.9 3.2L34.2 3.4V25C34.2 26.3 33.3 29.2 27.6 34.4C25.2 36.6 20.9 40 19.5 40Z" fill="#292929"/>
<path d="M6.3 4.60002V25C6.3 26.6 8.5 29.6 12.2 33C15.8 36.2 18.8 38.1 19.4 38.2C20 38.1 23.1 36.2 26.6 33C30.3 29.6 32.5 26.6 32.5 25V4.60002C31.3 4.00002 27.1 1.90002 19.4 1.90002C11.7 1.90002 7.5 3.90002 6.3 4.60002Z" fill="white"/>
<path d="M7.2 5.59998V24.5C7.2 26 9.3 28.8 12.7 31.9C16 34.9 18.9 36.7 19.4 36.8C20 36.7 22.8 34.9 26.1 31.9C29.6 28.8 31.6 26 31.6 24.5V5.59998C30.5 4.99998 26.6 3.09998 19.4 3.09998C12.2 3.09998 8.3 4.99998 7.2 5.59998Z" fill="#292929"/>
<path d="M7.89999 6.20005V24.3C7.89999 25.7 9.79999 28.4 13.1 31.4C16.2 34.3 18.9 35.9001 19.4 36C19.9 35.9001 22.6 34.2 25.7 31.4C29 28.4 30.9 25.8 30.9 24.3V6.20005C29.9 5.60005 26.2 3.80005 19.4 3.80005C12.6 3.90005 8.99999 5.70005 7.89999 6.20005Z" fill="#E86A23"/>
<path d="M19.5 31.7L19.7 32.5999H20.7L19.9 33.0999L20.2 34L19.5 33.5L18.7 34L19 33.0999L18.2 32.5999H19.2L19.5 31.7Z" fill="white"/>
<path d="M16.6 31L16.8 31.6H17.5L17 32L17.2 32.7L16.6 32.3L16.1 32.7L16.3 32L15.8 31.6H16.4L16.6 31Z" fill="white"/>
<path d="M22.3 31L22.5 31.6H23.2L22.6 32L22.8 32.7L22.3 32.3L21.7 32.7L21.9 32L21.4 31.6H22.1L22.3 31Z" fill="white"/>
<path d="M19.5 14.9L7.8 7.19995V8.99995L19.5 16.8L31.1 8.99995V7.19995L19.5 14.9Z" fill="#292929"/>
<path d="M7.8 10.2V12.1L19.5 19.8L31.1 12.1V10.2L19.5 17.9L7.8 10.2Z" fill="#292929"/>
<path d="M7.8 13.2V15.1L19.5 22.8L31.1 15.1V13.2L19.5 21L7.8 13.2Z" fill="#292929"/>
<path d="M7.8 16.2999V18.0999L19.5 25.8999L31.1 18.0999V16.2999L19.5 23.9999L7.8 16.2999Z" fill="#292929"/>
<path d="M19.5 27.7C24.5258 27.7 28.6 23.6258 28.6 18.6C28.6 13.5742 24.5258 9.5 19.5 9.5C14.4742 9.5 10.4 13.5742 10.4 18.6C10.4 23.6258 14.4742 27.7 19.5 27.7Z" fill="#E86A23"/>
<path d="M19.5 26.7C23.9735 26.7 27.6 23.0735 27.6 18.6C27.6 14.1265 23.9735 10.5 19.5 10.5C15.0265 10.5 11.4 14.1265 11.4 18.6C11.4 23.0735 15.0265 26.7 19.5 26.7Z" fill="#292929"/>
<path d="M22.7408 25.2285C26.4108 23.4303 27.9282 18.9973 26.13 15.3273C24.3318 11.6572 19.8988 10.1399 16.2288 11.9381C12.5588 13.7363 11.0414 18.1692 12.8396 21.8393C14.6378 25.5093 19.0708 27.0267 22.7408 25.2285Z" fill="white"/>
<path d="M20.8 17.7001L17.6 19.7001V19.6001L20.7 17.7001H20.8Z" fill="#292929"/>
<path d="M20.9 14.9C20.9 15 20.5 14.6 19.9 14.3C19.3 13.9 18.5 13.6 17.8 13.4V13.3C19.4 13.6 20.9 14.9 20.9 14.9Z" fill="#292929"/>
<path d="M15.4 14.7001C15.1 15.7001 15.1 16.6001 15.1 17.3001C15.1 18.0001 15.2 18.4001 15.2 18.4001H15.1C15.2 18.5001 14.8 16.7001 15.4 14.7001Z" fill="#292929"/>
<path d="M23.4 19.3C23.7 20.8 23.3 22.5 23.3 22.5H23.2C23.2 22.5 23.3 22.1 23.4 21.5C23.5 20.8 23.5 20 23.4 19.3C23.3 19.2 23.3 19.1 23.2 19H23.3C23.3 19 23.4 19.2 23.4 19.3Z" fill="#292929"/>
<path d="M19.6 23.6C20.2 23.9 20.8 24 20.8 24V24.1C20.8 24.1 18.7 23.6 17.6 22.4C18.1 22.9 18.9 23.3 19.6 23.6Z" fill="#292929"/>
<path d="M23.5 12.7C23.7 13.7 23.4 14.6 23.4 14.6H23.3C23.3 14.6 23.4 14.4 23.4 14C23.5 13.7 23.5 13.2 23.5 12.7C23.4 12.6 23.4 12.6 23.4 12.5H23.5C23.4 12.6 23.5 12.7 23.5 12.7Z" fill="#292929"/>
<path d="M13.4 20.1C13.7 20.2 13.9 20.3 13.9 20.3V20.4C13.9 20.4 13 20.3 12.2 19.4C12.7 19.7 13.1 19.9 13.4 20.1Z" fill="#292929"/>
<path d="M15.2 22.7001C15.2 22.7001 15.1 23.4001 15.3 24.4001C15.3 24.5001 15.4 24.6001 15.4 24.7001C15.4 24.6001 15.3 24.5001 15.3 24.4001C15.1 23.4001 15.2 22.7001 15.2 22.7001Z" fill="#292929"/>
<path d="M26.6 18.0001C26.4 17.9001 26 17.7001 25.6 17.5001C25.2 17.3001 24.9 17.2001 24.9 17.2001V17.1001C24.9 17.1001 26.3 17.7001 26.6 18.0001Z" fill="#292929"/>
<path d="M26.7 20.1001C26 22.3001 24.6 23.2001 24.6 23.2001C24.6 23.2001 24.9 23.0001 25.4 22.5001C25.8 21.9001 26.4 21.2001 26.7 20.1001Z" fill="#292929"/>
<path d="M20.7 25.4C20.7 25.4 19 25.9 17.2 25.7C17.2 25.7 19.2 26.1 20.7 25.4Z" fill="white"/>
<path d="M14.1 14.3001C14.1 14.3001 13.5 14.5001 13 15.2001C13 15.2001 13.3 14.6001 14.1 14.2001V14.3001Z" fill="#292929"/>
<path d="M17.9 12.1C17.9 12.1 18.5 11.7 19.8 11.3C19.8 11.3 18.6 11.5 17.9 12V12.1Z" fill="#292929"/>
<path d="M24.9 23C24.4 24.2 23 25.2 23 25.2C21.7 25.7 20.6 25.6 20.6 25.6V24C21.8 23.6 23.4 22.4 23.4 22.4L24.9 23Z" fill="#292929"/>
<path d="M23.4 19.3001C23.4 19.3001 21.2 18.0001 20.6 17.8001C20.6 17.8001 20.8 15.5001 20.7 14.8001C20.7 14.8001 22.2 14.2001 23.4 14.4001C23.4 14.4001 24.5 15.5001 25 17.2001C25.1 17.2001 24.2 18.8001 23.4 19.3001Z" fill="#292929"/>
<path d="M18 13.4001C18 13.4001 16.1 14.0001 15.3 15.1001C15.3 15.1001 14.6 14.5001 14 14.3001C14 14.3001 14.8 12.7001 15.6 12.3001C15.6 12.3001 16.7 11.8001 18.1 11.9001C18.2 11.9001 18 12.5001 18 13.4001Z" fill="#292929"/>
<path d="M17.8 22.6001C17.8 22.6001 17.8 20.5001 17.8 19.6001C17.8 19.6001 16 18.7001 15.1 18.2001C15.1 18.2001 13.7 19.6001 13.6 20.3001C13.6 20.3001 13.9 21.9001 15.1 23.0001C15.2 22.9001 16.4 23.3001 17.8 22.6001Z" fill="#292929"/>
<path d="M17.7 22.5C17.7 22.5 17.7 20.5001 17.7 19.7001C17.7 19.7001 16 18.8 15.2 18.3C15.2 18.3 13.9 19.6 13.8 20.3C13.8 20.3 14.1 21.8 15.2 22.9C15.2 22.8 16.3 23.2 17.7 22.5Z" fill="#292929"/>
<path d="M26.6 20.4C26.9 19.3 26.9 18.1 26.6 16.9C26.6 17.2 26.5 17.7 26.4 18C26.5 18 26.8 19.4 26.6 20.4Z" fill="#292929"/>
<path d="M23.4 12.8001C23.4 12.8001 23.9 12.9001 24.4 13.1001C23.3 12.1001 21.8 11.4001 20.3 11.2001C21.1 11.4001 22.6 11.9001 23.4 12.8001Z" fill="#292929"/>
<path d="M12.1 17.5001C12 18.4001 12 19.3001 12.2 20.2001C12.2 19.9001 12.2 19.6001 12.4 19.4001C12.3 19.4001 12.2 18.5001 12.1 17.5001Z" fill="#292929"/>
<path d="M15.4 24.5C14.9 24.4 14.2 23.8 13.8 23.4C14.8 24.6 16.1 25.4 17.5 25.8C16.4 25.3 15.4 24.5 15.4 24.5Z" fill="#292929"/>
<g opacity="0.2">
<path d="M20.2 17.9L18 19.3C17.8 19.4 17.6 19.4 17.4 19.3L15.5 18.3C15.3 18.2 15.3 18.2 15.5 18.3L17.4 19.1C17.6 19.2 17.8 19.2 18 19.1L20.2 17.9C20.4 17.8 20.4 17.8 20.2 17.9Z" fill="#292929"/>
<path d="M23.5 19.3C23.5 19.3 23.8 21.2 23.4 22.3L24.8 22.9L23.5 22.2001C23.5 22.3001 23.8 21 23.5 19.3Z" fill="#292929"/>
<path d="M24.9 23C24.9 23 24.6 24 23.3 24.9C23.3 24.9 24.5 24.3 24.9 23Z" fill="#292929"/>
<path d="M20.8 14.7C20.8 14.7 19.4 13.6 18.1 13.3C18.1 13.3 18 12.8 18.2 12C18.2 12 18.1 12.8 18.2 13.3C18.1 13.2 19.5 13.5 20.8 14.7Z" fill="#292929"/>
<path d="M15.3 15.1C15.3 15.1 15 16.4 15.2 18C15.2 18 15.2 16.1 15.4 15.3C15.4 15.2 15.5 15 15.6 14.9C15.9 14.6 16.7 13.9 18 13.4C18 13.5 16.5 13.9 15.3 15.1Z" fill="#292929"/>
<path d="M15.1 18.1C15.1 18.1 13.8 19.3 13.7 20.1C13.7 20.1 13.7 19.1 15.1 18.1Z" fill="#292929"/>
</g>
<path d="M14.7 7.7999V7.9999C14.6 7.9999 14.6 7.9999 14.5 7.9999C14.4 7.9999 14.4 7.9999 14.3 7.9999C14.2 7.9999 14.1 7.9999 14 7.9999C13.9 7.9999 13.8 7.9999 13.8 7.9999C13.8 7.9999 13.7 7.8999 13.7 7.7999C13.7 7.6999 13.7 7.5999 13.7 7.4999C13.7 7.3999 13.7 7.2999 13.7 7.1999C13.7 7.0999 13.8 6.9999 13.8 6.9999C13.8 6.9999 13.9 6.8999 14 6.8999C14.1 6.8999 14.2 6.8999 14.3 6.8999C14.4 6.8999 14.5 6.8999 14.5 6.8999C14.6 6.8999 14.6 6.8999 14.7 6.8999V7.1999C14.6 7.1999 14.6 7.1999 14.5 7.1999C14.4 7.1999 14.4 7.1999 14.3 7.1999C14.2 7.1999 14.2 7.1999 14.1 7.1999C14.1 7.1999 14 7.1999 14 7.2999V7.3999C14 7.4999 14 7.4999 14 7.5999C14 7.6999 14 7.7999 14 7.7999C14 7.8999 14 7.8999 14 7.8999C14 7.8999 14.1 7.8999 14.1 7.9999C14.1 7.9999 14.2 7.9999 14.3 7.9999C14.4 7.9999 14.4 7.9999 14.5 7.9999C14.5 7.7999 14.6 7.7999 14.7 7.7999Z" fill="#292929"/>
<path d="M15.1 8.09993H14.8V6.79993H15.1V7.29993H15.6V6.79993H16V8.09993H15.7V7.49993H15.2V8.09993H15.1Z" fill="#292929"/>
<path d="M17.4 8.09993H17.1C17 7.99993 17 7.99993 17 7.99993V7.89993H16.6C16.6 7.99993 16.5 8.09993 16.5 8.09993H16.2L16.6 6.79993H17.1L17.4 8.09993ZM16.7 6.99993C16.7 7.09993 16.7 7.19993 16.6 7.29993C16.6 7.39993 16.5 7.49993 16.5 7.59993H16.8C16.8 7.49993 16.7 7.39993 16.7 7.29993C16.8 7.19993 16.7 7.09993 16.7 6.99993Z" fill="#292929"/>
<path d="M18.1 7.99993C18.1 7.89993 18.1 7.79993 18 7.79993C18 7.69993 18 7.59993 17.9 7.59993C17.8 7.59993 17.9 7.39993 17.8 7.39993C17.8 7.29993 17.8 7.29993 17.8 7.19993C17.8 7.09993 17.8 7.09993 17.8 7.09993V7.19993V7.29993V7.39993V8.09993H17.5V6.79993H18C18 6.89993 18 6.89993 18.1 6.99993C18.2 7.09993 18.1 7.19993 18.2 7.19993C18.2 7.29993 18.2 7.39993 18.3 7.39993C18.3 7.49993 18.3 7.49993 18.3 7.59993C18.3 7.49993 18.3 7.49993 18.3 7.39993C18.3 7.29993 18.3 7.29993 18.4 7.19993C18.5 7.09993 18.4 6.99993 18.5 6.99993C18.6 6.99993 18.5 6.79993 18.6 6.79993H19V8.09993H18.7V7.29993V7.19993V7.09993V6.99993V7.09993C18.7 7.19993 18.7 7.19993 18.7 7.29993C18.7 7.39993 18.7 7.39993 18.6 7.49993C18.6 7.59993 18.6 7.69993 18.5 7.69993C18.5 7.79993 18.5 7.89993 18.4 7.89993H18.1V7.99993Z" fill="#292929"/>
<path d="M19.6 8.09993H19.3V6.79993H19.9C20 6.79993 20.1 6.79993 20.2 6.79993C20.3 6.79993 20.3 6.89993 20.4 6.99993C20.5 7.09993 20.5 7.19993 20.5 7.29993C20.5 7.39993 20.5 7.49993 20.4 7.59993C20.4 7.69993 20.3 7.69993 20.2 7.79993C20.1 7.89993 20 7.69993 19.8 7.69993H19.6V8.09993ZM19.8 6.99993H19.6V7.39993H19.8C19.9 7.39993 20 7.39993 20 7.39993C20 7.39993 20 7.29993 20 7.19993C20 7.09993 20 7.09993 20 6.99993C19.9 7.09993 19.9 6.99993 19.8 6.99993Z" fill="#292929"/>
<path d="M20.8 8.09993H20.5V6.79993H20.8V8.09993Z" fill="#292929"/>
<path d="M21 7.39995C21 7.19995 21 7.09995 21.1 6.99995C21.1 6.89995 21.2 6.79995 21.3 6.79995C21.4 6.79995 21.5 6.69995 21.7 6.69995C21.8 6.69995 21.9 6.69995 22 6.69995C22.1 6.69995 22.1 6.79995 22.2 6.79995C22.2 6.89995 22.3 6.89995 22.3 6.99995C22.3 7.09995 22.3 7.19995 22.3 7.29995C22.3 7.39995 22.3 7.49995 22.3 7.59995C22.3 7.69995 22.2 7.79995 22.2 7.79995C22.2 7.79995 22.1 7.99995 22 8.09995C21.9 8.09995 21.8 8.09995 21.7 8.09995C21.6 8.09995 21.5 8.09995 21.4 8.09995C21.3 8.09995 21.3 7.99995 21.2 7.99995C21.1 7.99995 21.1 7.89995 21.1 7.79995C21 7.59995 21 7.49995 21 7.39995ZM21.7 7.79995C21.8 7.79995 21.9 7.79995 21.9 7.79995L22 7.69995C22 7.59995 22 7.59995 22 7.49995C22 7.39995 22 7.29995 22 7.29995C22 7.19995 22 7.19995 21.9 7.19995C21.9 7.19995 21.8 7.19995 21.7 7.19995C21.6 7.19995 21.5 7.19995 21.5 7.19995L21.4 7.29995C21.4 7.29995 21.4 7.39995 21.4 7.49995C21.4 7.59995 21.4 7.69995 21.4 7.69995C21.4 7.69995 21.4 7.79995 21.5 7.79995C21.5 7.79995 21.6 7.79995 21.7 7.79995Z" fill="#292929"/>
<path d="M23.3 6.79993H23.6V8.09993H23.3L23 7.49993L22.9 7.39993C22.9 7.39993 22.9 7.29993 22.8 7.29993C22.8 7.29993 22.8 7.19993 22.7 7.19993C22.7 7.29993 22.7 7.29993 22.7 7.39993C22.7 7.49993 22.7 7.49993 22.7 7.59993V8.09993H22.4V6.79993H22.7L23.1 7.29993L23.2 7.39993C23.2 7.39993 23.2 7.49993 23.3 7.49993C23.3 7.49993 23.3 7.59993 23.4 7.59993C23.4 7.49993 23.4 7.49993 23.4 7.39993C23.4 7.29993 23.4 7.29993 23.4 7.19993V6.79993H23.3Z" fill="#292929"/>
<path d="M23.8 7.69993C23.9 7.69993 23.9 7.69993 24 7.69993C24.1 7.69993 24.1 7.69993 24.2 7.69993C24.3 7.69993 24.4 7.69993 24.4 7.69993H24.5C24.5 7.69993 24.5 7.69993 24.5 7.59993C24.5 7.59993 24.5 7.59993 24.5 7.49993C24.5 7.49993 24.5 7.49993 24.4 7.49993H24.3H24.2C24.1 7.49993 24 7.49993 24 7.39993C23.9 7.39993 23.9 7.29993 23.9 7.29993C23.9 7.19993 23.9 7.19993 23.9 7.09993C23.9 6.99993 23.9 6.89993 24 6.89993C24 6.79993 24.1 6.79993 24.2 6.79993C24.3 6.79993 24.4 6.79993 24.5 6.79993C24.7 6.79993 24.8 6.79993 25 6.89993V7.19993C24.9 7.19993 24.7 7.09993 24.6 7.09993C24.5 7.09993 24.5 7.09993 24.4 7.09993H24.3C24.3 7.09993 24.3 7.09993 24.3 7.19993C24.3 7.29993 24.3 7.29993 24.3 7.29993C24.3 7.29993 24.3 7.29993 24.4 7.29993H24.5H24.6C24.7 7.29993 24.8 7.29993 24.9 7.39993C25 7.39993 25 7.49993 25 7.49993C25 7.49993 25 7.59993 25 7.69993C25 7.79993 25 7.89993 24.9 7.89993C24.8 7.99993 24.8 7.99993 24.7 7.99993C24.6 7.99993 24.5 7.99993 24.3 7.99993C24.2 7.99993 24.1 7.99993 24 7.99993C23.9 7.99993 23.8 7.99993 23.8 7.99993V7.69993Z" fill="#292929"/>
<path d="M12.3 6.5L12.5 7.1H13.1L12.6 7.4L12.8 7.9L12.3 7.6L11.9 7.9L12 7.4L11.6 7.1H12.1L12.3 6.5Z" fill="white"/>
<path d="M26.6 6.5L26.8 7.1H27.3L26.9 7.4L27.1 7.9L26.6 7.6L26.1 7.9L26.3 7.4L25.8 7.1H26.4L26.6 6.5Z" fill="white"/>
<path d="M19.5 20.8C7.4 20.8 0.300003 17.9 0.300003 17.9V27.1C0.300003 27.1 8.8 29.8 19.5 29.8C30.2 29.8 38.7 27.1 38.7 27.1V17.9C38.6 17.9 31.6 20.8 19.5 20.8Z" fill="#E86A23"/>
<path d="M19.5 30C8.8 30 0.299998 27.3 0.199998 27.2H0.0999985V17.6L0.399998 17.7C0.499998 17.7 7.5 20.6 19.5 20.6C25.7 20.6 30.6 19.8 33.6 19.1C36.8 18.4 38.6 17.7 38.6 17.6L38.9 17.5V27.1H38.8C38.6 27.3 30.1 30 19.5 30ZM0.499998 27C1.6 27.3 9.6 29.7 19.5 29.7C29.4 29.7 37.4 27.3 38.5 27V18.1C37.1 18.6 30.2 20.9 19.5 20.9C13.2 20.9 8.3 20.1 5.3 19.4C2.8 18.8 1.1 18.3 0.499998 18V27Z" fill="#292929"/>
<path d="M19.5 30.1C8.9 30.1 0.3 27.4 0.2 27.3H0V17.5L0.4 17.7C0.5 17.7 7.6 20.6 19.4 20.6C25.6 20.6 30.5 19.8 33.4 19.2C36.6 18.5 38.3 17.8 38.4 17.8L38.8 17.6V27.4L38.6 27.5C38.6 27.4 30.1 30.1 19.5 30.1ZM0.2 27.1C0.3 27.1 8.9 29.9 19.5 29.9C30.1 29.9 38.6 27.2 38.7 27.2H38.8V17.8L38.7 17.9C38.6 17.9 36.8 18.7 33.7 19.4C30.7 20.1 25.9 20.9 19.6 20.9C7.7 20.9 0.6 18 0.5 18L0.4 17.9V27.1H0.2ZM19.5 29.8C9.6 29.8 1.4 27.4 0.5 27.1H0.4V18H0.5C1.1 18.2 2.7 18.8 5.3 19.4C8.3 20.1 13.2 20.9 19.5 20.9C30.3 20.9 37.2 18.5 38.4 18.1H38.5V27.2H38.4C37.6 27.3 29.4 29.8 19.5 29.8ZM0.6 26.9C1.8 27.3 9.8 29.6 19.5 29.6C29.2 29.6 37.2 27.3 38.4 26.9V18.3C36.8 18.9 30 21.1 19.5 21.1C13.2 21.1 8.3 20.3 5.3 19.6C2.9 19.1 1.3 18.5 0.6 18.3V26.9Z" fill="#292929"/>
<path d="M6.9 26.7C6.6 26.7 6.5 26.6 6.2 26.6C6.2 24.9 6.2 23.3 6.2 21.6C7 21.7 7.4 21.8 8.2 21.9C8.2 22.2 8.2 22.3 8.2 22.6C7.7 22.5 7.4 22.5 6.9 22.4C6.9 22.9 6.9 23.2 6.9 23.8C7.3 23.9 7.5 23.9 7.8 23.9C7.8 24.2 7.8 24.4 7.8 24.7C7.4 24.6 7.2 24.6 6.9 24.6C6.9 25.4 6.9 25.8 6.9 26.7Z" fill="white"/>
<path d="M9.8 22.1C10.1 22.1 10.4 22.3 10.6 22.6C10.8 22.9 10.9 23.2 10.9 23.5C10.9 24.6 10.9 25.1 10.9 26.2C10.9 26.5 10.8 26.8 10.6 27C10.4 27.2 10.1 27.3 9.8 27.2C9.5 27.2 9.2 27 9 26.7C8.8 26.4 8.7 26.1 8.7 25.8C8.7 24.7 8.7 24.2 8.7 23.1C8.7 22.8 8.8 22.5 9 22.3C9.2 22.1 9.5 22 9.8 22.1ZM10.2 23.3C10.2 23.2 10.2 23.1 10.1 23C10 22.9 9.9 22.9 9.8 22.8C9.7 22.8 9.6 22.8 9.5 22.9C9.4 23 9.4 23.1 9.4 23.2C9.4 24.3 9.4 24.8 9.4 25.9C9.4 26 9.4 26.1 9.5 26.2C9.6 26.3 9.7 26.4 9.8 26.4C9.9 26.4 10 26.4 10.1 26.3C10.2 26.2 10.2 26.1 10.2 26C10.2 24.9 10.2 24.4 10.2 23.3Z" fill="white"/>
<path d="M12.6 22.4C12.9 22.4 13.2 22.6 13.4 22.8C13.6 23.1 13.7 23.3 13.7 23.7C13.7 24.8 13.7 25.3 13.7 26.4C13.7 26.7 13.6 27 13.4 27.2C13.2 27.4 12.9 27.5 12.6 27.5C12.3 27.5 12 27.3 11.8 27C11.6 26.7 11.5 26.4 11.5 26.1C11.5 25 11.5 24.5 11.5 23.4C11.5 23.1 11.6 22.8 11.8 22.6C12 22.5 12.3 22.4 12.6 22.4ZM13 23.7C13 23.6 13 23.5 12.9 23.4C12.8 23.3 12.7 23.3 12.6 23.2C12.5 23.2 12.4 23.2 12.3 23.3C12.2 23.4 12.2 23.5 12.2 23.6C12.2 24.7 12.2 25.2 12.2 26.3C12.2 26.4 12.2 26.5 12.3 26.6C12.4 26.7 12.5 26.7 12.6 26.8C12.7 26.8 12.8 26.8 12.9 26.7C13 26.6 13 26.5 13 26.4C13 25.3 13 24.7 13 23.7Z" fill="white"/>
<path d="M14.9 23.5C14.6 23.5 14.4 23.5 14.1 23.4C14.1 23.1 14.1 23 14.1 22.7C15 22.8 15.4 22.8 16.3 22.9C16.3 23.2 16.3 23.4 16.3 23.7C16 23.7 15.8 23.7 15.5 23.6C15.5 25.3 15.5 26.0999 15.5 27.7999C15.2 27.7999 15.1 27.8 14.8 27.7C14.9 26 14.9 25.2 14.9 23.5Z" fill="white"/>
<path d="M16.9 27.9C16.9 26.2 16.9 24.6 16.9 22.9C17.3 22.9 17.5 22.9 18 22.9C18.3 22.9 18.5 23 18.8 23.2C19 23.3 19.1 23.5 19.2 23.8C19.2 23.9 19.3 24.1 19.3 24.3C19.3 24.6 19.2 24.9 19 25.1C18.9 25.2 18.8 25.3 18.8 25.3C18.8 25.3 19.1 25.5 19.2 25.7C19.3 25.8 19.3 26 19.4 26.2C19.4 26.3 19.4 26.4 19.4 26.5C19.4 26.8 19.3 27.1 19.2 27.3C19.1 27.5 19 27.6 18.8 27.7C18.6 27.8 18.4 27.9 18.3 27.9C17.7 27.9 17.4 27.9 16.9 27.9ZM17.7 25C17.8 25 17.9 25 18 25C18.2 25 18.4 24.9 18.4 24.7C18.4 24.6 18.4 24.5 18.4 24.4C18.4 24.2 18.4 24 18.3 23.9C18.2 23.8 18.1 23.7 18 23.7C17.9 23.7 17.8 23.7 17.7 23.7C17.7 24.2 17.7 24.5 17.7 25ZM17.7 27.2C17.8 27.2 17.9 27.2 18 27.2C18.2 27.2 18.4 27.1 18.5 26.8C18.5 26.7 18.5 26.6 18.5 26.5C18.5 26.2 18.4 26 18.3 25.9C18.2 25.8 18.1 25.7 17.9 25.7C17.8 25.7 17.7 25.7 17.6 25.7C17.7 26.3 17.7 26.6 17.7 27.2Z" fill="white"/>
<path d="M20.6 26.8C20.5 27.3 20.5 27.5 20.4 27.9C20.1 27.9 20 27.9 19.7 27.9C20 26.2 20.2 24.6 20.5 22.9C20.9 22.9 21.1 22.9 21.5 22.9C21.8 24.5 22 26.2 22.3 27.8C22 27.8 21.9 27.8 21.6 27.8C21.5 27.3 21.5 27.1 21.4 26.7C21.1 26.8 20.9 26.8 20.6 26.8ZM21 24.1C20.9 24.9 20.8 25.3 20.7 26.1C20.9 26.1 21 26.1 21.2 26.1C21.2 25.3 21.1 24.9 21 24.1Z" fill="white"/>
<path d="M24.7 27.6999C23.9 27.7999 23.5 27.7999 22.8 27.8999C22.8 26.1999 22.8 24.5999 22.8 22.8999C23.1 22.8999 23.2 22.8999 23.5 22.7999C23.5 24.4999 23.5 25.2999 23.5 26.9999C24 26.9999 24.2 26.8999 24.7 26.8999C24.7 27.1999 24.7 27.3999 24.7 27.6999Z" fill="white"/>
<path d="M27.1 27.4C26.3 27.5 25.9 27.5 25.2 27.6C25.2 25.9 25.2 24.3 25.2 22.6C25.5 22.6 25.6 22.6 25.9 22.5C25.9 24.2 25.9 25 25.9 26.7C26.4 26.6 26.6 26.6 27.1 26.6C27.1 26.9 27.1 27.1 27.1 27.4Z" fill="white"/>
<path d="M28.7 27.2C28.4 27.2 28.3 27.3 28 27.3C28 25.6 28 24 28 22.3C28.8 22.2 29.2 22.1 30 22C30 22.3 30 22.5 30 22.8C29.5 22.9 29.2 22.9 28.7 23C28.7 23.5 28.7 23.8 28.7 24.4C29.1 24.3 29.3 24.3 29.7 24.3C29.7 24.6 29.7 24.8 29.7 25.1C29.3 25.2 29.1 25.2 28.7 25.2C28.7 25.9 28.7 26.3 28.7 27.2Z" fill="white"/>
<path d="M31.5 26.7999C31.2 26.7999 30.9 26.8 30.7 26.6C30.5 26.4 30.4 26.0999 30.4 25.7999C30.4 24.6999 30.4 24.2 30.4 23.1C30.4 22.8 30.5 22.5 30.7 22.2C30.9 21.9 31.2 21.8 31.5 21.7C31.8 21.7 32.1 21.7 32.3 21.9C32.5 22.1 32.6 22.4 32.6 22.7C32.6 22.9 32.6 22.9999 32.6 23.2999C32.3 23.2999 32.2 23.4 31.9 23.4C31.9 23.1999 31.9 23.0999 31.9 22.7999C31.9 22.6999 31.9 22.6 31.8 22.5C31.7 22.4 31.6 22.4 31.5 22.4C31.4 22.4 31.3 22.5 31.2 22.6C31.1 22.7 31.1 22.8 31.1 22.9C31.1 23.9999 31.1 24.5 31.1 25.6C31.1 25.7 31.1 25.8 31.2 25.9C31.3 25.9999 31.4 26 31.5 26C31.6 26 31.7 25.8999 31.8 25.7999C31.9 25.6999 31.9 25.6 31.9 25.5C31.9 25.2 31.9 25.0999 31.9 24.7999C32.2 24.7999 32.3 24.7 32.6 24.7C32.6 25 32.6 25.1 32.6 25.4C32.6 25.6999 32.5 25.9999 32.3 26.2999C32.1 26.5999 31.9 26.7999 31.5 26.7999Z" fill="white"/>
</g>
<defs>
<clipPath id="clip0_274_111">
<rect width="38.9" height="40" fill="white"/>
</clipPath>
</defs>
</svg>
