<svg width="40" height="40" viewBox="0 0 40 40" fill="none" xmlns="http://www.w3.org/2000/svg">
<g clip-path="url(#clip0_274_193)">
<path fill-rule="evenodd" clip-rule="evenodd" d="M36.9502 22.9199C36.3657 26.5254 34.7096 29.869 32.1469 32.4961C28.9172 35.8243 24.571 37.6733 20 37.6733C15.429 37.6733 11.0828 35.8243 7.84563 32.4961C5.29037 29.869 3.62683 26.5254 3.04234 22.9199H0V22.396H2.9674H7.6583H8.37018C8.82728 24.7381 9.9438 26.9029 11.6148 28.621C15.9011 33.0277 24.1738 32.9584 28.3852 28.621C30.0562 26.9029 31.1727 24.7381 31.6298 22.396H32.3417H37.0326H40V22.9199H36.9502Z" fill="#383856"/>
<path fill-rule="evenodd" clip-rule="evenodd" d="M7.84563 7.50386C11.0828 4.17566 15.4215 2.32666 20 2.32666C24.571 2.32666 28.9172 4.17566 32.1544 7.50386C34.7096 10.131 36.3732 13.4746 36.9577 17.0801H40.0075V17.604H37.0401H32.3492H31.6373C31.1802 15.2619 30.0637 13.0971 28.3927 11.379C26.1596 9.08321 23.1622 7.80432 20.0075 7.80432C16.8528 7.80432 13.8554 9.08321 11.6223 11.379C9.95129 13.0971 8.83477 15.2619 8.37767 17.604H7.66579H2.9674H0V17.0801H3.04234C3.62683 13.4746 5.29037 10.131 7.84563 7.50386Z" fill="#10C8C8"/>
<path fill-rule="evenodd" clip-rule="evenodd" d="M36.9577 20.0154C36.9277 20 36.8977 19.9768 36.8752 19.9537C36.8528 19.9306 36.8303 19.8998 36.8153 19.869C36.8003 19.8382 36.7853 19.8073 36.7778 19.7688C36.7703 19.7303 36.7628 19.6918 36.7628 19.6533C36.7628 19.5762 36.7778 19.5069 36.8003 19.4453C36.8228 19.3836 36.8602 19.3297 36.9127 19.2835C36.9652 19.2372 37.0251 19.1987 37.0925 19.1756C37.16 19.1525 37.2349 19.1371 37.3248 19.1371C37.4073 19.1371 37.4822 19.1525 37.5496 19.1756C37.6171 19.1987 37.677 19.2372 37.7295 19.2835C37.7819 19.3297 37.8194 19.3836 37.8494 19.4453C37.8719 19.5069 37.8869 19.5762 37.8869 19.6533C37.8869 19.6918 37.8794 19.7303 37.8719 19.7688C37.8644 19.8073 37.8494 19.8382 37.8344 19.869C37.8194 19.8998 37.7969 19.9229 37.7744 19.9537C37.752 19.9768 37.722 20 37.692 20.0154C37.7295 20.0308 37.7595 20.0539 37.7819 20.0847C37.8119 20.1078 37.8344 20.1386 37.8494 20.1771C37.8644 20.208 37.8794 20.2465 37.8943 20.285C37.9018 20.3235 37.9093 20.3698 37.9093 20.416C37.9093 20.5007 37.8943 20.5778 37.8719 20.6471C37.8419 20.7164 37.8044 20.7781 37.752 20.8243C37.6995 20.8705 37.6321 20.909 37.5646 20.9322C37.4897 20.9553 37.4073 20.9707 37.3173 20.9707C37.2274 20.9707 37.145 20.9553 37.0701 20.9322C36.9951 20.909 36.9352 20.8705 36.8827 20.8166C36.8303 20.7627 36.7928 20.7087 36.7628 20.6394C36.7329 20.5701 36.7254 20.493 36.7254 20.4083C36.7254 20.362 36.7329 20.3158 36.7404 20.2773C36.7478 20.2388 36.7628 20.2003 36.7853 20.1694C36.8078 20.1309 36.8303 20.1001 36.8528 20.077C36.8902 20.0539 36.9202 20.0308 36.9577 20.0154ZM37.3398 20.6317C37.3698 20.6317 37.3998 20.6317 37.4223 20.6163C37.4447 20.6086 37.4672 20.5855 37.4897 20.5701C37.5122 20.5469 37.5272 20.5238 37.5347 20.493C37.5422 20.4622 37.5496 20.4314 37.5496 20.4006C37.5496 20.3698 37.5422 20.3389 37.5347 20.3081C37.5272 20.285 37.5122 20.2619 37.4897 20.2388C37.4672 20.2157 37.4447 20.2003 37.4223 20.1926C37.3998 20.1849 37.3698 20.1771 37.3398 20.1771C37.3099 20.1771 37.2799 20.1849 37.2574 20.1926C37.2349 20.2003 37.2124 20.2157 37.19 20.2388C37.175 20.2619 37.16 20.285 37.145 20.3158C37.1375 20.3466 37.13 20.3775 37.13 20.416C37.13 20.4468 37.1375 20.4776 37.145 20.5084C37.1525 20.5392 37.1675 20.5624 37.19 20.5778C37.2124 20.6009 37.2349 20.6163 37.2574 20.624C37.2799 20.6317 37.3024 20.6317 37.3398 20.6317ZM37.3398 19.8767C37.3698 19.8767 37.3998 19.8767 37.4223 19.8613C37.4447 19.8536 37.4672 19.8382 37.4822 19.8151C37.4972 19.7996 37.5122 19.7765 37.5197 19.7457C37.5272 19.7226 37.5347 19.6918 37.5347 19.661C37.5347 19.6302 37.5272 19.5993 37.5197 19.5762C37.5122 19.5531 37.4972 19.53 37.4822 19.5146C37.4672 19.4992 37.4447 19.4838 37.4223 19.4761C37.3998 19.4684 37.3698 19.4607 37.3398 19.4607C37.3099 19.4607 37.2799 19.4684 37.2574 19.4761C37.2349 19.4838 37.2124 19.4992 37.19 19.5223C37.175 19.5377 37.16 19.5608 37.1525 19.5839C37.145 19.607 37.1375 19.6379 37.1375 19.6687C37.1375 19.6995 37.145 19.7226 37.1525 19.7534C37.16 19.7765 37.175 19.7996 37.1975 19.8228C37.2124 19.8459 37.2349 19.8613 37.2649 19.869C37.2799 19.8767 37.3099 19.8844 37.3398 19.8767ZM35.8411 20.9476V19.7072L35.5114 19.869V19.4838L36.2008 19.1371H36.2383V20.9399H35.8411V20.9476ZM35.1143 20.3929C35.1143 20.4853 35.0993 20.5701 35.0768 20.6471C35.0543 20.7164 35.0169 20.7858 34.9644 20.832C34.912 20.8859 34.852 20.9245 34.7846 20.9476C34.7171 20.9707 34.6347 20.9861 34.5448 20.9861C34.4549 20.9861 34.3724 20.9707 34.305 20.9476C34.2375 20.9245 34.1701 20.8859 34.1251 20.832C34.0727 20.7781 34.0352 20.7164 34.0127 20.6471C33.9903 20.5778 33.9753 20.493 33.9753 20.4006V19.738C33.9753 19.6456 33.9903 19.5608 34.0127 19.4915C34.0352 19.4221 34.0727 19.3605 34.1251 19.3066C34.1776 19.2526 34.2375 19.2141 34.305 19.191C34.3724 19.1679 34.4549 19.1525 34.5448 19.1525C34.6347 19.1525 34.7171 19.1679 34.7846 19.191C34.852 19.2141 34.912 19.2526 34.9644 19.3066C35.0169 19.3605 35.0543 19.4221 35.0768 19.4915C35.0993 19.5608 35.1143 19.6456 35.1143 19.738V20.3929ZM34.3574 19.7457V20.3698C34.3574 20.4083 34.3649 20.4468 34.3724 20.4776C34.3799 20.5084 34.3949 20.5315 34.4099 20.5546C34.4249 20.5778 34.4474 20.5932 34.4698 20.6009C34.4923 20.6086 34.5148 20.6163 34.5448 20.6163C34.5747 20.6163 34.5972 20.6086 34.6197 20.6009C34.6422 20.5932 34.6572 20.5778 34.6722 20.5546C34.6872 20.5315 34.7021 20.5084 34.7096 20.4776C34.7171 20.4468 34.7246 20.4083 34.7246 20.3698V19.738C34.7246 19.6995 34.7246 19.661 34.7096 19.6379C34.7021 19.607 34.6872 19.5839 34.6722 19.5608C34.6572 19.5377 34.6422 19.5223 34.6197 19.5146C34.5972 19.5069 34.5747 19.4992 34.5448 19.4992C34.5148 19.4992 34.4923 19.5069 34.4698 19.5146C34.4474 19.53 34.4324 19.5454 34.4099 19.5608C34.3949 19.5839 34.3799 19.607 34.3724 19.6379C34.3649 19.6764 34.3574 19.7072 34.3574 19.7457ZM32.5365 20.9476V20.9013L33.2409 19.8921C33.2634 19.869 33.2784 19.8459 33.2859 19.8228C33.3009 19.7996 33.3084 19.7842 33.3159 19.7688C33.3233 19.7534 33.3308 19.738 33.3308 19.7303C33.3308 19.7149 33.3383 19.6995 33.3383 19.6918C33.3383 19.661 33.3308 19.6379 33.3233 19.6147C33.3159 19.5916 33.3009 19.5762 33.2859 19.5531C33.2709 19.5377 33.2484 19.5223 33.2259 19.5146C33.2034 19.5069 33.181 19.4992 33.151 19.4992C33.121 19.4992 33.091 19.5069 33.0686 19.5146C33.0461 19.5223 33.0236 19.5377 33.0086 19.5608C32.9936 19.5839 32.9786 19.607 32.9712 19.6379C32.9637 19.6687 32.9562 19.6995 32.9562 19.738V19.7534H32.559C32.559 19.661 32.574 19.5762 32.604 19.4992C32.6339 19.4221 32.6714 19.3605 32.7239 19.3066C32.7763 19.2526 32.8363 19.2141 32.9112 19.1833C32.9861 19.1602 33.0686 19.1448 33.1585 19.1448C33.2409 19.1448 33.3233 19.1602 33.3908 19.1833C33.4582 19.2064 33.5257 19.2449 33.5781 19.2912C33.6306 19.3374 33.668 19.399 33.698 19.4607C33.728 19.5223 33.7355 19.5993 33.7355 19.6764C33.7355 19.7072 33.7355 19.738 33.728 19.7765C33.7205 19.8073 33.713 19.8382 33.7055 19.869C33.698 19.8998 33.683 19.9306 33.668 19.9614C33.6531 19.9922 33.6306 20.0231 33.6081 20.0539L33.2409 20.5701H33.728V20.9553H32.5365V20.9476ZM6.61671 20.755C6.61671 20.7858 6.60922 20.8166 6.60173 20.8474C6.59423 20.8782 6.57175 20.9013 6.55677 20.9245C6.53429 20.9476 6.51181 20.963 6.48183 20.9707C6.45186 20.9784 6.42938 20.9861 6.39191 20.9861C6.36194 20.9861 6.33196 20.9784 6.30948 20.9707C6.27951 20.963 6.25703 20.9476 6.23455 20.9245C6.21207 20.9013 6.19708 20.8782 6.18959 20.8474C6.18209 20.8166 6.1746 20.7935 6.1746 20.755C6.1746 20.7241 6.18209 20.6933 6.18959 20.6702C6.19708 20.6394 6.21956 20.6163 6.23455 20.5932C6.25703 20.5701 6.27951 20.5547 6.30948 20.5469C6.33946 20.5315 6.36194 20.5315 6.39191 20.5315C6.42188 20.5315 6.45186 20.5392 6.47434 20.5469C6.50431 20.5624 6.52679 20.5778 6.54178 20.6009C6.56426 20.624 6.57925 20.6471 6.59423 20.6779C6.61671 20.701 6.61671 20.7241 6.61671 20.755ZM5.4927 20.9476V19.53H5.10304V19.1679H6.31698V19.53H5.92732V20.9476H5.4927ZM4.13638 20.4391C4.13638 20.4699 4.14388 20.5007 4.15137 20.5161C4.15886 20.5392 4.17385 20.5547 4.19633 20.5778C4.21881 20.5932 4.24129 20.6086 4.26377 20.6163C4.28625 20.624 4.31623 20.6317 4.35369 20.6317C4.38367 20.6317 4.41364 20.6317 4.43612 20.624C4.4586 20.6163 4.48108 20.6086 4.50356 20.5932C4.51855 20.5778 4.53354 20.5624 4.54103 20.5392C4.54852 20.5161 4.55602 20.5007 4.55602 20.4699C4.55602 20.4468 4.54852 20.4314 4.54103 20.4083C4.53354 20.3852 4.51855 20.3698 4.50356 20.3543C4.48858 20.3389 4.4586 20.3235 4.42113 20.3004C4.38367 20.285 4.33871 20.2619 4.27876 20.2388C4.27127 20.2388 4.26377 20.2388 4.25628 20.2311C4.24879 20.2311 4.24129 20.2234 4.22631 20.2234C4.15886 20.2003 4.09892 20.1771 4.04646 20.1463C3.99401 20.1232 3.95654 20.0924 3.91907 20.0693C3.8891 20.0462 3.86662 20.0231 3.84414 19.9922C3.82166 19.9614 3.79918 19.9306 3.78419 19.8998C3.7692 19.869 3.75422 19.8305 3.74672 19.7919C3.73923 19.7534 3.73174 19.7149 3.73174 19.6764C3.73174 19.5993 3.74672 19.5223 3.7692 19.4607C3.79918 19.399 3.83665 19.3374 3.8891 19.2912C3.94155 19.2449 4.0015 19.2064 4.07644 19.1833C4.14388 19.1602 4.2263 19.1448 4.31623 19.1448C4.41364 19.1448 4.50356 19.1602 4.571 19.1833C4.64594 19.2064 4.70589 19.2449 4.75834 19.2912C4.81079 19.3374 4.84826 19.399 4.87823 19.4607C4.90821 19.53 4.9157 19.607 4.92319 19.6918H4.52604C4.52604 19.661 4.51855 19.6302 4.51106 19.607C4.50356 19.5839 4.48858 19.5608 4.47359 19.5377C4.4586 19.5223 4.43612 19.5069 4.41364 19.4992C4.39116 19.4915 4.36119 19.4838 4.33121 19.4838C4.30124 19.4838 4.27876 19.4838 4.24879 19.4915C4.22631 19.4992 4.20382 19.5069 4.18884 19.5223C4.17385 19.5377 4.15886 19.5531 4.15137 19.5762C4.14388 19.5993 4.13638 19.6224 4.13638 19.6456C4.13638 19.6841 4.15886 19.7149 4.20382 19.7534C4.24879 19.7842 4.30873 19.8228 4.39865 19.8536C4.41364 19.8613 4.42863 19.869 4.44361 19.869C4.4586 19.8767 4.4661 19.8767 4.48108 19.8844C4.48858 19.8844 4.48858 19.8921 4.50356 19.8921C4.51106 19.8921 4.51855 19.8998 4.53354 19.8998C4.60847 19.9306 4.67591 19.9614 4.73586 19.9922C4.78831 20.0231 4.83327 20.0616 4.86325 20.0924C4.88573 20.1155 4.90071 20.1386 4.9157 20.1617C4.93069 20.1849 4.93818 20.2157 4.95317 20.2388C4.96066 20.2619 4.96816 20.2927 4.97565 20.3235C4.98314 20.3543 4.98314 20.3852 4.98314 20.4237C4.98314 20.5084 4.96816 20.5855 4.93818 20.6548C4.90821 20.7241 4.86325 20.7858 4.81079 20.8397C4.75085 20.8936 4.68341 20.9322 4.60847 20.9553C4.53354 20.9784 4.44361 20.9938 4.3462 20.9938C4.25628 20.9938 4.17385 20.9784 4.09892 20.9553C4.02398 20.9322 3.96403 20.8936 3.91158 20.8474C3.85913 20.8012 3.81417 20.7395 3.79169 20.6702C3.76171 20.6009 3.74672 20.5238 3.74672 20.4391H4.13638ZM2.47284 20.9476V19.1679H3.44699V19.5146H2.90746V19.8767H3.44699V20.2157H2.90746V20.5855H3.44699V20.9399H2.47284V20.9476Z" fill="white"/>
<path fill-rule="evenodd" clip-rule="evenodd" d="M31.7647 29.792L30.6931 28.9908L30.8955 28.698L31.6898 28.752C31.7047 28.752 31.7197 28.752 31.7347 28.752C31.7497 28.752 31.7647 28.752 31.7797 28.7597C31.7872 28.7597 31.7947 28.7597 31.8022 28.7597C31.8097 28.7597 31.8172 28.7597 31.8246 28.7597C31.8471 28.7597 31.8696 28.7674 31.8846 28.7674C31.9071 28.7674 31.9221 28.7751 31.9445 28.7828C31.9221 28.7751 31.8996 28.7597 31.8771 28.752C31.8546 28.7443 31.8321 28.7288 31.8172 28.7211C31.7947 28.7057 31.7797 28.698 31.7572 28.6826C31.7347 28.6672 31.7197 28.6595 31.7047 28.6441L31.2027 28.2666L31.3975 27.9969L32.4691 28.7982L32.2743 29.0678L31.4575 29.037C31.4425 29.037 31.4275 29.037 31.4125 29.037C31.3975 29.037 31.375 29.0293 31.3601 29.0293C31.3526 29.0293 31.3376 29.0293 31.3301 29.0216C31.3226 29.0216 31.3076 29.0216 31.3001 29.0139C31.2851 29.0139 31.2776 29.0139 31.2626 29.0062C31.2551 29.0062 31.2402 28.9985 31.2252 28.9985C31.2477 29.0062 31.2626 29.0139 31.2851 29.0216C31.3076 29.0293 31.3226 29.037 31.3376 29.0524C31.3526 29.0601 31.375 29.0755 31.39 29.0832C31.405 29.0986 31.4275 29.1063 31.4425 29.1218L31.9595 29.507L31.7647 29.792ZM29.7639 31.2943L30.0187 31.0401L29.4642 30.7088L29.7639 31.2943ZM29.719 31.9646L29.127 30.6549L29.4192 30.3621L30.6707 31.017L30.4159 31.2712L30.2435 31.1711L29.8764 31.5332L29.9738 31.7104L29.719 31.9646ZM27.6583 32.3267C27.6283 32.3113 27.6058 32.3036 27.5759 32.3036C27.5459 32.2959 27.5234 32.2959 27.4934 32.2959C27.4635 32.2959 27.441 32.3036 27.411 32.3113C27.381 32.319 27.3586 32.3344 27.3361 32.3498C27.2911 32.3806 27.2536 32.4114 27.2312 32.45C27.2012 32.4885 27.1862 32.5347 27.1787 32.5886C27.1712 32.6349 27.1712 32.6888 27.1862 32.735C27.1937 32.7889 27.2162 32.8352 27.2462 32.8891C27.2761 32.9353 27.3136 32.9815 27.3511 33.0124C27.3885 33.0432 27.4335 33.0663 27.4784 33.0817C27.5234 33.0971 27.5759 33.0971 27.6208 33.0894C27.6658 33.0817 27.7107 33.0663 27.7557 33.0355C27.7932 33.0124 27.8157 32.9892 27.8456 32.9584C27.8681 32.9276 27.8906 32.8968 27.9056 32.866C27.9206 32.8352 27.9281 32.7966 27.9355 32.7581C27.9355 32.7196 27.9355 32.6811 27.9281 32.6426L27.6358 32.8275L27.5009 32.604L28.0854 32.2265C28.0854 32.2342 28.0929 32.2342 28.0929 32.2419C28.0929 32.2496 28.1004 32.2573 28.1079 32.2651C28.1154 32.2728 28.1154 32.2805 28.1229 32.2882C28.1304 32.2959 28.1304 32.2959 28.1304 32.3036C28.1454 32.3267 28.1529 32.3421 28.1678 32.3652C28.1753 32.3883 28.1903 32.4037 28.1978 32.4268C28.2053 32.4345 28.2053 32.45 28.2128 32.4577C28.2203 32.4654 28.2203 32.4808 28.2203 32.4885C28.2278 32.5193 28.2353 32.5501 28.2428 32.5809C28.2503 32.6117 28.2503 32.6349 28.2503 32.6657C28.2503 32.735 28.2428 32.7966 28.2278 32.8583C28.2128 32.9199 28.1903 32.9738 28.1678 33.0278C28.1379 33.0817 28.1079 33.1279 28.0629 33.1664C28.018 33.2127 27.973 33.2512 27.9206 33.282C27.8756 33.3128 27.8381 33.3282 27.7932 33.3513C27.7482 33.3667 27.7107 33.3822 27.6658 33.3899C27.6208 33.3976 27.5759 33.4053 27.5309 33.4053C27.4859 33.4053 27.441 33.3976 27.396 33.3899C27.3511 33.3822 27.3061 33.3667 27.2686 33.3513C27.2312 33.3359 27.1862 33.3128 27.1562 33.282C27.1188 33.2512 27.0888 33.2204 27.0513 33.1896C27.0213 33.1587 26.9914 33.1202 26.9614 33.074C26.9314 33.0278 26.9164 32.9892 26.894 32.943C26.879 32.8968 26.864 32.8506 26.8565 32.8043C26.849 32.7581 26.8415 32.7119 26.849 32.6657C26.849 32.6194 26.8565 32.5732 26.864 32.527C26.8715 32.4808 26.8865 32.4345 26.9015 32.396C26.9164 32.3575 26.9389 32.319 26.9689 32.2805C26.9989 32.2419 27.0288 32.2111 27.0588 32.1726C27.0963 32.1418 27.1337 32.111 27.1712 32.0802C27.2162 32.0493 27.2611 32.0262 27.3136 32.0031C27.3586 31.9877 27.411 31.9723 27.456 31.9646C27.5009 31.9569 27.5534 31.9569 27.5983 31.9569C27.6508 31.9646 27.6958 31.9723 27.7482 31.9877L27.6583 32.3267ZM24.6909 33.3282C24.7358 33.3128 24.7808 33.2974 24.8258 33.2897C24.8707 33.282 24.9157 33.2743 24.9606 33.2743C25.0056 33.2743 25.0506 33.282 25.0955 33.2897C25.1405 33.2974 25.1855 33.3128 25.2229 33.3282C25.2679 33.3436 25.3053 33.3667 25.3428 33.3976C25.3803 33.4207 25.4103 33.4515 25.4402 33.49C25.4702 33.5285 25.5002 33.5594 25.5227 33.6056C25.5451 33.6441 25.5676 33.6903 25.5901 33.7365C25.6051 33.7828 25.6201 33.829 25.6276 33.8752C25.6351 33.9214 25.6426 33.9677 25.6426 34.0139C25.6426 34.0601 25.6351 34.1063 25.6276 34.1526C25.6201 34.1988 25.6051 34.2373 25.5826 34.2835C25.5676 34.3298 25.5451 34.3683 25.5152 34.4068C25.4927 34.4453 25.4627 34.4761 25.4252 34.5147C25.3953 34.5455 25.3578 34.5763 25.3128 34.5994C25.2754 34.6225 25.2304 34.6456 25.1855 34.6688C25.1405 34.6842 25.0955 34.6996 25.0506 34.715C25.0056 34.7227 24.9606 34.7304 24.9157 34.7304C24.8707 34.7304 24.8258 34.7304 24.7808 34.715C24.7358 34.7073 24.6984 34.6919 24.6534 34.6688C24.6085 34.6533 24.571 34.6302 24.5335 34.5994C24.4961 34.5763 24.4661 34.5455 24.4361 34.5147C24.4061 34.4839 24.3762 34.4453 24.3537 34.4068C24.3312 34.3683 24.3087 34.3221 24.2862 34.2758C24.2713 34.2296 24.2563 34.1834 24.2488 34.1372C24.2413 34.0909 24.2338 34.0447 24.2338 33.9985C24.2338 33.9523 24.2413 33.906 24.2488 33.8598C24.2563 33.8136 24.2713 33.7674 24.2862 33.7288C24.3012 33.6826 24.3237 33.6441 24.3537 33.6056C24.3762 33.5671 24.4061 33.5362 24.4436 33.5054C24.4736 33.4746 24.511 33.4438 24.556 33.4207C24.601 33.3745 24.6459 33.3513 24.6909 33.3282ZM25.0955 34.3683C25.148 34.3529 25.1855 34.3221 25.2154 34.2912C25.2454 34.2604 25.2754 34.2142 25.2904 34.168C25.3053 34.1218 25.3128 34.0678 25.3128 34.0216C25.3128 33.9677 25.2979 33.9137 25.2754 33.8598C25.2529 33.8059 25.2304 33.7597 25.1929 33.7211C25.163 33.6826 25.118 33.6518 25.0805 33.6287C25.0356 33.6056 24.9906 33.5902 24.9457 33.5902C24.9007 33.5902 24.8482 33.5979 24.8033 33.621C24.7583 33.6441 24.7134 33.6672 24.6834 33.698C24.6534 33.7288 24.6234 33.7751 24.6085 33.8213C24.5935 33.8675 24.586 33.9137 24.586 33.9677C24.586 34.0216 24.601 34.0755 24.6234 34.1295C24.6459 34.1834 24.6684 34.2296 24.7059 34.2681C24.7358 34.3067 24.7808 34.3375 24.8183 34.3606C24.8632 34.3837 24.9082 34.3991 24.9532 34.3991C24.9981 34.3991 25.0431 34.3837 25.0955 34.3683ZM22.3754 35.3775L22.1281 34.037L22.4578 33.9754L22.6527 35.0463L22.9824 34.9846L23.0348 35.2543L22.3754 35.3775ZM20.0375 35.1772C20.0375 35.2003 20.045 35.2235 20.0524 35.2389C20.0599 35.2543 20.0749 35.2697 20.0899 35.2851C20.1049 35.3005 20.1199 35.3082 20.1424 35.3159C20.1648 35.3236 20.1873 35.3236 20.2098 35.3236C20.2323 35.3236 20.2548 35.3159 20.2772 35.3159C20.2997 35.3082 20.3147 35.3005 20.3297 35.2928C20.3447 35.2774 20.3522 35.2697 20.3597 35.2543C20.3672 35.2389 20.3672 35.2235 20.3672 35.2003C20.3672 35.1849 20.3597 35.1695 20.3522 35.1541C20.3447 35.1387 20.3372 35.1233 20.3222 35.1156C20.3072 35.1079 20.2847 35.0925 20.2548 35.0771C20.2248 35.0617 20.1873 35.0463 20.1424 35.0308C20.1349 35.0308 20.1349 35.0308 20.1274 35.0308C20.1199 35.0308 20.1124 35.0231 20.1049 35.0231C20.0524 35.0077 20.0075 34.9923 19.97 34.9692C19.9325 34.9538 19.8951 34.9307 19.8726 34.9153C19.8501 34.8999 19.8276 34.8768 19.8127 34.8614C19.7977 34.8382 19.7827 34.8151 19.7677 34.792C19.7527 34.7689 19.7452 34.7381 19.7377 34.7073C19.7302 34.6765 19.7302 34.6456 19.7227 34.6148C19.7227 34.5532 19.7302 34.4993 19.7452 34.4453C19.7602 34.3914 19.7902 34.3529 19.8351 34.3067C19.8726 34.2681 19.9176 34.2373 19.9775 34.2142C20.03 34.1911 20.0899 34.1834 20.1574 34.1757C20.2323 34.1757 20.2997 34.1757 20.3597 34.1988C20.4196 34.2142 20.4646 34.2373 20.5095 34.2758C20.5545 34.3144 20.5845 34.3529 20.607 34.4068C20.6294 34.4607 20.6444 34.5147 20.6444 34.584L20.3447 34.5917C20.3447 34.5686 20.3372 34.5455 20.3297 34.5224C20.3222 34.4993 20.3147 34.4839 20.2997 34.4761C20.2847 34.4607 20.2698 34.453 20.2473 34.4453C20.2248 34.4376 20.2098 34.4376 20.1798 34.4376C20.1574 34.4376 20.1349 34.4453 20.1199 34.4453C20.1049 34.453 20.0824 34.4607 20.0749 34.4761C20.0599 34.4916 20.0524 34.4993 20.045 34.5147C20.0375 34.5301 20.0375 34.5455 20.0375 34.5686C20.0375 34.5994 20.0524 34.6225 20.0899 34.6456C20.1274 34.6688 20.1723 34.6919 20.2398 34.715C20.2548 34.7227 20.2623 34.7227 20.2772 34.7304C20.2847 34.7381 20.2997 34.7381 20.3072 34.7381C20.3072 34.7381 20.3147 34.7381 20.3222 34.7458C20.3297 34.7458 20.3372 34.7535 20.3447 34.7535C20.4046 34.7766 20.4571 34.792 20.5021 34.8151C20.547 34.8382 20.577 34.8614 20.607 34.8922C20.6219 34.9076 20.6369 34.923 20.6519 34.9461C20.6594 34.9615 20.6744 34.9846 20.6819 35.0077C20.6894 35.0308 20.6969 35.0463 20.7044 35.0694C20.7119 35.0925 20.7119 35.1156 20.7119 35.1464C20.7119 35.208 20.7044 35.2697 20.6819 35.3236C20.6594 35.3775 20.6294 35.4238 20.5845 35.47C20.5395 35.5085 20.4871 35.547 20.4346 35.5624C20.3747 35.5855 20.3072 35.5933 20.2323 35.601C20.1648 35.601 20.0974 35.5932 20.045 35.5778C19.9925 35.5624 19.94 35.5393 19.8951 35.5008C19.8501 35.4623 19.8201 35.4238 19.7977 35.3698C19.7752 35.3159 19.7602 35.262 19.7527 35.1926L20.0375 35.1772ZM15.7887 34.9692L16.0884 33.6364L16.5605 33.752C16.6354 33.7674 16.6954 33.7982 16.7478 33.829C16.8003 33.8598 16.8452 33.906 16.8752 33.9523C16.9127 33.9985 16.9277 34.0524 16.9427 34.1141C16.9502 34.168 16.9502 34.2296 16.9352 34.299C16.9202 34.3529 16.9052 34.3914 16.8827 34.4299C16.8602 34.4684 16.8303 34.4993 16.8003 34.5301C16.7703 34.5532 16.7328 34.5763 16.6954 34.584C16.6579 34.5917 16.613 34.5917 16.568 34.5917L16.7778 35.2157L16.3881 35.1233L16.2308 34.4916L16.1034 35.054L15.7887 34.9692ZM16.4481 33.9985L16.3582 33.9754L16.2757 34.3452L16.3732 34.3683C16.4031 34.376 16.4331 34.3837 16.4631 34.376C16.4931 34.3683 16.5155 34.3683 16.5305 34.3529C16.553 34.3375 16.568 34.3221 16.583 34.3067C16.598 34.2835 16.6055 34.2604 16.613 34.2296C16.6204 34.1988 16.6204 34.1757 16.6204 34.1449C16.6204 34.1218 16.6055 34.0986 16.598 34.0755C16.583 34.0601 16.568 34.037 16.5455 34.0293C16.508 34.0216 16.4781 34.0062 16.4481 33.9985ZM13.9977 32.7966L13.698 33.49C13.6755 33.5439 13.6605 33.5902 13.653 33.6364C13.6455 33.6749 13.6381 33.7134 13.6455 33.7443C13.653 33.7751 13.6605 33.7982 13.683 33.8213C13.7055 33.8444 13.728 33.8598 13.758 33.8752C13.7954 33.8906 13.8254 33.8983 13.8554 33.8983C13.8853 33.8983 13.9078 33.8906 13.9378 33.8675C13.9603 33.8521 13.9902 33.8213 14.0127 33.7905C14.0352 33.752 14.0577 33.7134 14.0877 33.6595L14.3874 32.9661L14.6946 33.1048L14.3499 33.906C14.32 33.9831 14.275 34.0447 14.23 34.0909C14.1851 34.1372 14.1251 34.1757 14.0652 34.1988C14.0052 34.2219 13.9378 34.2296 13.8704 34.2219C13.8029 34.2142 13.728 34.1911 13.653 34.1603C13.5781 34.1218 13.5107 34.0832 13.4582 34.037C13.4058 33.9908 13.3683 33.9369 13.3383 33.8752C13.3158 33.8136 13.3009 33.7443 13.3083 33.6826C13.3083 33.6133 13.3308 33.5439 13.3608 33.4746L13.7055 32.6734L13.9977 32.7966ZM11.9221 31.4792C11.9595 31.51 11.997 31.5409 12.0345 31.5794C12.0644 31.6102 12.0944 31.6487 12.1169 31.6872C12.1394 31.7258 12.1618 31.7643 12.1768 31.8105C12.1918 31.8567 12.2068 31.8953 12.2143 31.9415C12.2218 31.9877 12.2218 32.0339 12.2218 32.0802C12.2218 32.1264 12.2143 32.1726 12.2068 32.2188C12.1918 32.2651 12.1768 32.3113 12.1618 32.3498C12.1394 32.396 12.1169 32.4345 12.0869 32.4731C12.0569 32.5116 12.027 32.5501 11.997 32.5809C11.967 32.6117 11.9296 32.6426 11.8921 32.6657C11.8546 32.6888 11.8171 32.7119 11.7722 32.7273C11.7272 32.7427 11.6898 32.7581 11.6448 32.7658C11.5998 32.7735 11.5549 32.7735 11.5099 32.7735C11.465 32.7735 11.42 32.7658 11.375 32.7504C11.3301 32.735 11.2926 32.7196 11.2476 32.7042C11.2027 32.6811 11.1652 32.658 11.1278 32.6271C11.0903 32.5963 11.0528 32.5655 11.0154 32.5347C10.9854 32.5039 10.9554 32.4654 10.9254 32.4268C10.9029 32.3883 10.8805 32.3498 10.8655 32.3036C10.8505 32.2573 10.8355 32.2188 10.8355 32.1726C10.828 32.1264 10.828 32.0802 10.828 32.0339C10.828 31.9877 10.8355 31.9415 10.843 31.8953C10.8505 31.849 10.873 31.8105 10.888 31.7643C10.9104 31.7181 10.9329 31.6795 10.9629 31.641C10.9929 31.6025 11.0228 31.564 11.0528 31.5332C11.0828 31.5023 11.1203 31.4715 11.1577 31.4484C11.1952 31.4253 11.2327 31.4022 11.2776 31.3868C11.3226 31.3714 11.36 31.356 11.405 31.3483C11.45 31.3406 11.4949 31.3406 11.5399 31.3406C11.5849 31.3406 11.6298 31.3483 11.6748 31.3637C11.7197 31.3714 11.7647 31.3945 11.8022 31.4099C11.8396 31.4253 11.8846 31.4484 11.9221 31.4792ZM11.2926 32.3883C11.3376 32.4191 11.375 32.4422 11.42 32.45C11.465 32.4577 11.5099 32.4577 11.5624 32.45C11.6148 32.4422 11.6598 32.4191 11.6973 32.3883C11.7347 32.3575 11.7722 32.319 11.8097 32.2728C11.8396 32.2265 11.8696 32.1726 11.8846 32.1264C11.8996 32.0802 11.8996 32.0262 11.8996 31.98C11.8921 31.9261 11.8771 31.8875 11.8546 31.8413C11.8321 31.8028 11.7947 31.7643 11.7572 31.7335C11.7122 31.7026 11.6673 31.6795 11.6223 31.6718C11.5774 31.6641 11.5324 31.6641 11.4799 31.6718C11.435 31.6795 11.39 31.7026 11.3451 31.7335C11.3001 31.7643 11.2626 31.8028 11.2327 31.849C11.2027 31.8953 11.1727 31.9415 11.1652 31.9954C11.1502 32.0416 11.1502 32.0956 11.1502 32.1418C11.1577 32.1957 11.1727 32.2419 11.1952 32.2805C11.2177 32.319 11.2476 32.3575 11.2926 32.3883ZM8.93967 30.6087L9.37429 30.1849L9.62157 29.3529L9.87635 29.6379L9.72648 30.0231C9.72648 30.0308 9.71898 30.0386 9.71898 30.0463C9.71898 30.054 9.71149 30.0617 9.704 30.0694C9.704 30.0771 9.6965 30.0771 9.6965 30.0848C9.6965 30.0925 9.68901 30.0925 9.68901 30.1002C9.68901 30.1079 9.68152 30.1079 9.68152 30.1156C9.68152 30.1233 9.67402 30.1233 9.67402 30.131C9.68152 30.131 9.6965 30.1233 9.704 30.1156C9.71149 30.1079 9.72648 30.1079 9.73397 30.1002C9.74146 30.1002 9.74896 30.0925 9.75645 30.0925C9.76395 30.0925 9.77144 30.0848 9.77144 30.0848L10.1536 29.9538L10.4084 30.2389L9.5841 30.4392L9.14948 30.8629L8.93967 30.6087Z" fill="white"/>
<path fill-rule="evenodd" clip-rule="evenodd" d="M19.8127 9.77657C21.5511 9.74575 23.1922 10.1772 24.616 10.9707C25.3953 11.4021 26.1746 11.9877 26.8115 12.6117C28.6175 14.4068 29.764 16.9183 29.8089 19.7072C29.8539 22.4961 28.7973 25.0385 27.0513 26.9029C25.8898 28.1356 24.4361 29.0524 22.84 29.5532C21.9858 29.8151 21.0865 29.9692 20.1574 29.9846C17.4447 30.0308 14.9719 28.9445 13.1585 27.1495C11.3526 25.3544 10.2061 22.8428 10.1611 20.0539C10.1161 17.265 11.1727 14.7226 12.9187 12.8582C14.6572 11.0015 17.1 9.82279 19.8127 9.77657Z" fill="#BCBDC0"/>
<path fill-rule="evenodd" clip-rule="evenodd" d="M10.1761 19.2526C10.326 16.7796 11.3376 14.5377 12.9187 12.8582C14.4998 11.1787 16.6354 10.0616 19.0333 9.82275C20.2398 9.9075 21.3713 10.2542 22.3829 10.8166C23.0423 11.1787 23.7017 11.6795 24.2413 12.211C25.7774 13.7365 26.7441 15.8551 26.7816 18.2203C26.819 20.5855 25.9273 22.7426 24.4436 24.3143C23.462 25.362 22.233 26.1402 20.8767 26.5639C20.1574 26.7873 19.393 26.9183 18.5987 26.9337C16.2982 26.9722 14.2001 26.0554 12.6714 24.53C11.3001 23.1587 10.3784 21.3174 10.1761 19.2526Z" fill="white"/>
<path fill-rule="evenodd" clip-rule="evenodd" d="M18.4264 10.3236C18.831 10.6857 19.2357 11.0632 19.5954 11.4715L21.8809 11.5948C22.2106 11.3482 22.5927 11.1787 23.0124 11.094C23.2671 11.0401 23.5369 11.0246 23.8292 11.0323C22.6077 10.4699 21.2439 10.1695 19.8202 10.1926C19.3481 10.2003 18.8835 10.2465 18.4264 10.3236ZM26.4593 23.1279C26.0922 23.3436 25.725 23.5439 25.3503 23.7365C24.541 24.1525 23.6193 24.5917 22.7651 24.8767L20.9442 27.6194C21.139 27.9122 21.3638 28.1587 21.6111 28.3744C22.0007 28.7057 22.4429 28.9368 22.9524 29.0755C24.4136 28.5747 25.7175 27.7196 26.7591 26.6102C27.3136 26.0246 27.7932 25.3621 28.1828 24.6533C27.7557 24.2296 27.2087 23.7827 26.4593 23.1279ZM27.426 18.3436C28.2278 18.1895 28.8123 17.9815 29.172 17.735C28.7598 15.8629 27.8232 14.1988 26.5268 12.9122C26.0247 12.4191 25.4777 11.98 24.8782 11.6025C24.1963 11.433 23.6043 11.4021 23.0873 11.5023C22.8325 11.5485 22.6002 11.6333 22.3904 11.7488C22.9075 12.5115 23.387 13.7057 23.8067 15.3313C25.2904 16.302 26.2645 16.98 27.426 18.3436ZM16.7179 27.134C16.1334 27.4884 15.4889 27.7658 14.7846 27.9661C16.3207 29.0139 18.1641 29.6071 20.1424 29.5686C20.8767 29.5531 21.5886 29.453 22.278 29.2835C21.9408 29.1371 21.6261 28.9368 21.3488 28.698C21.0416 28.436 20.7718 28.1202 20.5395 27.7581C18.9209 27.812 17.6546 27.604 16.7179 27.134ZM14.3499 27.6502C15.1218 27.473 15.8112 27.1957 16.4331 26.8259C16.036 25.9091 15.7737 24.6764 15.6463 23.1279C14.5747 22.5501 13.6006 21.6718 12.7239 20.4854L12.8737 20.3698L10.6782 21.4021C11.0079 23.5285 12.0045 25.4237 13.4357 26.849C13.7205 27.134 14.0277 27.4037 14.3499 27.6502ZM20.5845 17.057L23.5744 15.7319C24.4886 15.9245 26.4893 17.8582 27.1937 18.6903C27.2387 20.1078 27.0214 21.4098 26.5493 22.5963C26.0997 22.8659 25.6426 23.1202 25.1705 23.3667C24.541 23.6903 23.3945 24.2681 22.7351 24.4453L19.5054 21.6487C19.5429 21.4484 19.5804 21.2327 19.6328 20.9938C19.8951 19.7072 20.3747 18.2897 20.5845 17.057ZM14.32 15.8706L13.6006 16.3174C12.9112 17.3806 12.6714 18.7211 12.8887 20.3467L13.0386 20.2311C13.8928 21.3867 14.837 22.2419 15.8861 22.7889C17.175 22.3343 18.2465 21.9337 19.1008 21.5793C19.1383 21.3713 19.1757 21.1479 19.2282 20.9168C19.483 19.661 19.9775 18.228 20.1724 17.0416C19.1008 15.832 18.1117 14.9307 17.2124 14.3451C16.9652 14.453 16.7179 14.5686 16.4631 14.6918C15.7437 15.0462 15.0318 15.4391 14.32 15.8706ZM13.728 15.7011L14.0127 15.5778C14.7696 15.1078 15.5339 14.6918 16.3057 14.3143C16.613 14.1679 16.9202 14.0216 17.2349 13.8829L19.0333 11.4484C18.6812 11.0863 18.3065 10.7473 17.9318 10.416C16.0959 10.8397 14.4698 11.8028 13.2109 13.1433C12.8812 13.4977 12.574 13.8752 12.2967 14.2758L13.728 15.7011ZM19.8127 9.77657C21.5511 9.74575 23.1922 10.1772 24.616 10.9707C25.3953 11.4021 26.1746 11.9877 26.8115 12.6117C28.6175 14.4068 29.764 16.9183 29.8089 19.7072C29.8539 22.4961 28.7973 25.0385 27.0513 26.9029C25.8898 28.1356 24.4361 29.0524 22.84 29.5532C21.9858 29.8151 21.0865 29.9692 20.1574 29.9846C17.4447 30.0308 14.9719 28.9445 13.1585 27.1495C11.3526 25.3544 10.2061 22.8428 10.1611 20.0539C10.1161 17.265 11.1727 14.7226 12.9187 12.8582C14.6572 11.0015 17.1 9.82279 19.8127 9.77657Z" fill="#383856"/>
<path fill-rule="evenodd" clip-rule="evenodd" d="M30.888 12.6887L29.9363 11.6641L29.8539 10.4314L28.9547 9.46067L28.4002 10.0077L27.7482 9.30659L28.8722 8.20489L30.6932 10.1617C30.8056 10.285 30.9105 10.3621 31.0229 10.4083C31.1577 10.4622 31.2701 10.4468 31.3601 10.3544C31.5324 10.1849 31.48 9.95374 31.2102 9.65328L29.3743 7.69642L30.3709 7.59626L31.7048 9.02924C32.0345 9.38363 32.2368 9.73802 32.3117 10.0847C32.3942 10.4776 32.2968 10.8089 32.0195 11.0785C31.8621 11.2326 31.6748 11.3174 31.4575 11.3405C31.2402 11.3636 31.0154 11.3251 30.7831 11.2095L30.888 12.6887ZM27.9506 8.49765L27.0513 8.93679L24.6385 7.68101L26.0172 4.8844L28.9697 6.42523L28.0704 6.86437L26.5043 6.04773L26.3545 6.34819L28.3327 7.38055L27.4335 7.81969L26.0023 7.07238L25.8374 7.40366L27.9506 8.49765ZM24.6534 6.78733L23.8816 7.43448L22.3904 7.08009C21.8734 6.95682 21.4762 6.71029 21.2065 6.33278C20.9367 5.95528 20.8468 5.54696 20.9517 5.10012C21.0491 4.65328 21.3039 4.3297 21.701 4.1371C22.0982 3.93679 22.5628 3.90597 23.0873 4.02924L25.1705 4.53001L24.3987 5.17716L22.9075 4.82277C22.6527 4.76113 22.4279 4.78425 22.2331 4.8844C22.0382 4.98455 21.9108 5.14634 21.8659 5.36206C21.8209 5.57777 21.8584 5.77038 21.9933 5.94757C22.1281 6.12477 22.323 6.24033 22.5703 6.30197L24.6534 6.78733ZM20.3297 5.90135L19.8202 6.77962L18.299 6.97223C17.7745 7.04157 17.3174 6.94141 16.9352 6.68717C16.553 6.43294 16.3357 6.07084 16.2833 5.6163C16.2308 5.16175 16.3582 4.76884 16.6654 4.44526C16.9727 4.12169 17.3923 3.92138 17.9318 3.85204L20.06 3.5824L19.5504 4.46838L18.0292 4.66098C17.7745 4.6918 17.5646 4.79195 17.4148 4.95374C17.2649 5.11553 17.205 5.30813 17.2274 5.53155C17.2574 5.74727 17.3623 5.91676 17.5422 6.04002C17.7295 6.15559 17.9468 6.20181 18.2016 6.171L20.3297 5.90135ZM13.4807 6.04773L12.6639 6.47146C12.4316 6.59472 12.2668 6.75651 12.1844 6.96452C12.0944 7.17254 12.1019 7.37284 12.1993 7.57315C12.2968 7.77346 12.4541 7.89673 12.6639 7.94295C12.8737 7.98918 13.0985 7.95066 13.3308 7.82739L14.1476 7.40366C14.3799 7.28039 14.5448 7.11861 14.6347 6.9183C14.7246 6.71799 14.7246 6.51768 14.6197 6.31737C14.5223 6.11707 14.3649 5.9938 14.1476 5.93987C13.9378 5.89365 13.713 5.93217 13.4807 6.04773ZM15.444 5.84742C15.6463 6.25574 15.6538 6.67947 15.474 7.1109C15.2941 7.54234 14.9719 7.88132 14.4998 8.12785L13.683 8.55158C13.2035 8.79811 12.7464 8.86745 12.3042 8.75959C11.8621 8.65173 11.5399 8.38979 11.3376 7.98147C11.1353 7.57315 11.1278 7.15713 11.3151 6.74881C11.5024 6.33278 11.8322 6.0015 12.3117 5.75497L13.1285 5.33124C13.6081 5.08471 14.0652 5.00767 14.4998 5.10012C14.9269 5.19257 15.2492 5.4391 15.444 5.84742ZM9.46423 7.64249L9.65906 8.64403L8.2428 10.3235C8.16786 10.416 8.16037 10.4853 8.22032 10.5393C8.28027 10.5932 8.3552 10.5778 8.43013 10.4853L9.44924 9.27577C9.68903 8.99072 9.9588 8.81352 10.2585 8.73648C10.5733 8.66714 10.843 8.73648 11.0753 8.93679C11.3001 9.1371 11.405 9.40674 11.3751 9.73032C11.3526 10.0385 11.2177 10.3389 10.9704 10.624L9.14201 12.8043L8.94718 11.8027L10.3784 10.1078C10.4459 10.0308 10.4908 9.95374 10.5133 9.86899C10.5508 9.76113 10.5358 9.68409 10.4833 9.63016C10.4234 9.57623 10.3485 9.57623 10.251 9.63016C10.1761 9.66868 10.1087 9.73032 10.0412 9.80736L9.02961 11.0169C8.80481 11.2866 8.55752 11.456 8.28776 11.5254C7.99551 11.6024 7.74823 11.5485 7.53841 11.3636C7.3286 11.171 7.23868 10.9245 7.26865 10.6163C7.29862 10.3312 7.43351 10.0539 7.65831 9.78425L9.46423 7.64249Z" fill="white"/>
<path d="M39.1308 23.6364C38.4039 27.7042 36.4856 31.3405 33.7505 34.1448C30.2285 37.7658 25.3653 40 19.9925 40C14.6197 40 9.75646 37.7581 6.23454 34.1448C3.50693 31.3405 1.58111 27.7042 0.854248 23.6364H1.76845C2.48033 27.4499 4.30123 30.8552 6.86399 33.4977C10.2211 36.9492 14.8595 39.0832 19.985 39.0832C25.1105 39.0832 29.749 36.9492 33.106 33.4977C35.6688 30.8629 37.4897 27.4499 38.2016 23.6364H39.1308ZM20 0C25.3728 0 30.236 2.24191 33.758 5.85516C36.4856 8.65948 38.4039 12.2881 39.1308 16.3482H38.2166C37.4972 12.5424 35.6838 9.14484 33.121 6.51002C29.764 3.05855 25.1255 0.924499 20 0.924499C14.8745 0.924499 10.236 3.05855 6.87898 6.51002C4.31622 9.14484 2.50281 12.5424 1.78343 16.3482H0.869235C1.5961 12.2881 3.51442 8.65948 6.24203 5.85516C9.76395 2.24191 14.6272 0 20 0Z" fill="#10C8C8"/>
</g>
<defs>
<clipPath id="clip0_274_193">
<rect width="40" height="40" fill="white"/>
</clipPath>
</defs>
</svg>
