<svg width="24" height="20" viewBox="0 0 24 20" fill="none" xmlns="http://www.w3.org/2000/svg">
<path fill-rule="evenodd" clip-rule="evenodd" d="M8.65591 10.7869C8.65591 10.4693 8.43219 10.1963 8.12057 10.1337L4.60495 9.43057C4.38123 9.38596 4.15018 9.4592 3.99304 9.62433C3.83524 9.78946 3.77332 10.0238 3.82858 10.2449L6.13638 19.4954C6.21028 19.7923 6.47729 20.0001 6.78291 20.0001H9.44626C9.67863 20.0001 9.8937 19.8789 10.0149 19.6805C10.1354 19.4821 10.1441 19.235 10.0375 19.0286C9.22187 17.4513 8.52873 15.8206 8.65458 14.0295C8.65524 14.0142 8.65591 13.9982 8.65591 13.9829V10.7869ZM7.32423 11.3329V13.9609C7.21304 15.6255 7.69177 17.1769 8.37825 18.6684H7.30292L5.37532 10.9427L7.32423 11.3329Z" fill="white"/>
<path fill-rule="evenodd" clip-rule="evenodd" d="M4.66087 4.66096C4.66087 4.29341 4.36257 3.99512 3.99503 3.99512H0.665838C0.298295 3.99512 0 4.29341 0 4.66096V9.32182C0 9.68936 0.298295 9.98766 0.665838 9.98766H3.99503C4.36257 9.98766 4.66087 9.68936 4.66087 9.32182V4.66096ZM3.32919 5.32679V8.65598H1.33168V5.32679H3.32919Z" fill="white"/>
<path fill-rule="evenodd" clip-rule="evenodd" d="M17.9776 8.65618H18.6435C19.011 8.65618 19.3093 8.35789 19.3093 7.99035V5.32699C19.3093 4.95945 19.011 4.66116 18.6435 4.66116H17.9776V0.666128C17.9776 0.46105 17.8831 0.267291 17.7213 0.141448C17.5602 0.0149384 17.3491 -0.0296726 17.15 0.0202653L3.83323 3.34945C3.53693 3.42336 3.32919 3.6897 3.32919 3.99532V9.98786C3.32919 10.3055 3.55291 10.5785 3.86453 10.641L17.1813 13.3044C17.377 13.343 17.5795 13.2924 17.7339 13.1659C17.8884 13.0394 17.9776 12.851 17.9776 12.6512V8.65618ZM8.6559 3.51658L16.646 1.51907V11.8389L8.6559 10.2409V3.51658ZM7.32422 3.8495V9.97454L4.66087 9.44187V4.51534L7.32422 3.8495Z" fill="white"/>
<path fill-rule="evenodd" clip-rule="evenodd" d="M19.5197 2.62959L23.5147 1.29791C23.8636 1.18139 24.052 0.803858 23.9362 0.455625C23.8197 0.106726 23.4421 -0.0817063 23.0939 0.0341495L19.0989 1.36583C18.75 1.48235 18.5615 1.85988 18.6774 2.20811C18.7939 2.55701 19.1715 2.74544 19.5197 2.62959Z" fill="white"/>
<path fill-rule="evenodd" clip-rule="evenodd" d="M20.641 7.32435H23.3043C23.6719 7.32435 23.9702 7.02606 23.9702 6.65851C23.9702 6.29097 23.6719 5.99268 23.3043 5.99268H20.641C20.2734 5.99268 19.9751 6.29097 19.9751 6.65851C19.9751 7.02606 20.2734 7.32435 20.641 7.32435Z" fill="white"/>
<path fill-rule="evenodd" clip-rule="evenodd" d="M19.0117 12.5806L23.0067 14.5781C23.335 14.7425 23.7358 14.6094 23.8996 14.2805C24.0641 13.9522 23.9309 13.5514 23.602 13.3876L19.6069 11.3901C19.2787 11.2256 18.8779 11.3588 18.7141 11.6877C18.5496 12.0159 18.6828 12.4168 19.0117 12.5806Z" fill="white"/>
</svg>
