<svg width="21" height="20" viewBox="0 0 21 20" fill="none" xmlns="http://www.w3.org/2000/svg">
<path d="M3.66555 4.77032C3.48879 4.77032 3.30272 4.69589 3.17247 4.56565C2.90267 4.29585 2.90267 3.84928 3.17247 3.57949L6.54961 0.202349C6.81941 -0.0674497 7.26597 -0.0674497 7.53577 0.202349C7.80557 0.472148 7.80557 0.918711 7.53577 1.18851L4.15863 4.56565C4.01908 4.69589 3.84232 4.77032 3.66555 4.77032Z" fill="white"/>
<path d="M16.3368 4.77032C16.16 4.77032 15.9833 4.7052 15.8437 4.56565L12.4666 1.18851C12.1968 0.918711 12.1968 0.472148 12.4666 0.202349C12.7364 -0.0674497 13.1829 -0.0674497 13.4527 0.202349L16.8299 3.57949C17.0997 3.84928 17.0997 4.29585 16.8299 4.56565C16.6996 4.69589 16.5136 4.77032 16.3368 4.77032Z" fill="white"/>
<path d="M17.6393 8.69622C17.5741 8.69622 17.509 8.69622 17.4439 8.69622H17.2299H2.55844C1.9072 8.70552 1.16293 8.70552 0.623328 8.16593C0.195372 7.74727 0 7.09603 0 6.13778C0 3.57935 1.86998 3.57935 2.76311 3.57935H17.2392C18.1323 3.57935 20.0023 3.57935 20.0023 6.13778C20.0023 7.10534 19.807 7.74727 19.379 8.16593C18.8952 8.6497 18.244 8.69622 17.6393 8.69622ZM2.76311 7.30071H17.4532C17.8718 7.31001 18.2626 7.31001 18.3928 7.17976C18.458 7.11464 18.5975 6.89136 18.5975 6.13778C18.5975 5.0865 18.337 4.97486 17.2299 4.97486H2.76311C1.65601 4.97486 1.39551 5.0865 1.39551 6.13778C1.39551 6.89136 1.54437 7.11464 1.60019 7.17976C1.73043 7.30071 2.13048 7.30071 2.53983 7.30071H2.76311Z" fill="white"/>
<path d="M7.91721 15.8601C7.53577 15.8601 7.21945 15.5438 7.21945 15.1623V11.8596C7.21945 11.4782 7.53577 11.1619 7.91721 11.1619C8.29865 11.1619 8.61496 11.4782 8.61496 11.8596V15.1623C8.61496 15.5531 8.29865 15.8601 7.91721 15.8601Z" fill="white"/>
<path d="M12.1967 15.8601C11.8153 15.8601 11.499 15.5438 11.499 15.1623V11.8596C11.499 11.4782 11.8153 11.1619 12.1967 11.1619C12.5782 11.1619 12.8945 11.4782 12.8945 11.8596V15.1623C12.8945 15.5531 12.5782 15.8601 12.1967 15.8601Z" fill="white"/>
<path d="M12.6899 20H7.0799C3.74928 20 3.00501 18.0184 2.7166 16.2972L1.40482 8.24977C1.3397 7.86833 1.60019 7.5148 1.98163 7.44968C2.36307 7.38456 2.7166 7.64505 2.78172 8.02649L4.0935 16.0646C4.3633 17.7113 4.92151 18.6045 7.0799 18.6045H12.6899C15.0808 18.6045 15.3506 17.7672 15.6576 16.1484L17.2206 8.00788C17.295 7.62645 17.6579 7.37525 18.0393 7.45898C18.4207 7.53341 18.6626 7.89624 18.5882 8.27768L17.0252 16.4182C16.6624 18.3068 16.0577 20 12.6899 20Z" fill="white"/>
</svg>
