<svg width="12" height="20" viewBox="0 0 12 20" fill="none" xmlns="http://www.w3.org/2000/svg">
<path d="M9.57562 10.0017L0.261916 1.3742C0.0940925 1.22254 0 1.01808 0 0.805039C0 0.592003 0.0940925 0.387534 0.261916 0.235877C0.344441 0.161171 0.442808 0.101844 0.551294 0.0613493C0.65978 0.0208543 0.776218 0 0.893829 0C1.01144 0 1.12788 0.0208543 1.23636 0.0613493C1.34485 0.101844 1.44322 0.161171 1.52574 0.235877L11.7381 9.43084C11.9059 9.5825 12 9.78696 12 10C12 10.213 11.9059 10.4175 11.7381 10.5692L1.52574 19.7641C1.44322 19.8388 1.34485 19.8982 1.23636 19.9387C1.12788 19.9791 1.01144 20 0.893829 20C0.776218 20 0.65978 19.9791 0.551294 19.9387C0.442808 19.8982 0.344441 19.8388 0.261916 19.7641C0.0940925 19.6125 0 19.408 0 19.195C0 18.9819 0.0940925 18.7775 0.261916 18.6258L9.57562 10.0017Z" fill="white" fill-opacity="0.2"/>
</svg>
