<svg width="12" height="20" viewBox="0 0 12 20" fill="none" xmlns="http://www.w3.org/2000/svg">
<path d="M2.42438 10.0017L11.7381 1.3742C11.9059 1.22254 12 1.01808 12 0.805039C12 0.592003 11.9059 0.387534 11.7381 0.235877C11.6556 0.161171 11.5572 0.101844 11.4487 0.0613493C11.3402 0.0208543 11.2238 0 11.1062 0C10.9886 0 10.8721 0.0208543 10.7636 0.0613493C10.6552 0.101844 10.5568 0.161171 10.4743 0.235877L0.261916 9.43084C0.0940924 9.5825 -1.07148e-07 9.78696 -1.07148e-07 10C-1.07148e-07 10.213 0.0940924 10.4175 0.261916 10.5692L10.4743 19.7641C10.5568 19.8388 10.6552 19.8982 10.7636 19.9387C10.8721 19.9791 10.9886 20 11.1062 20C11.2238 20 11.3402 19.9791 11.4487 19.9387C11.5572 19.8982 11.6556 19.8388 11.7381 19.7641C11.9059 19.6125 12 19.408 12 19.195C12 18.9819 11.9059 18.7775 11.7381 18.6258L2.42438 10.0017Z" fill="white" fill-opacity="0.2"/>
</svg>
