<svg width="14" height="14" viewBox="0 0 14 14" fill="none" xmlns="http://www.w3.org/2000/svg">
<path d="M10.8816 9.89766L11.1156 11.7936C11.1756 12.2915 10.6416 12.6395 10.2156 12.3815L7.70172 10.8876C7.42573 10.8876 7.15575 10.8696 6.89176 10.8336C7.33574 10.3116 7.59973 9.65164 7.59973 8.93767C7.59973 7.23374 6.12378 5.85382 4.29986 5.85382C3.60389 5.85382 2.96191 6.0518 2.42793 6.39978C2.40994 6.24979 2.40393 6.09979 2.40393 5.9438C2.40393 3.21391 4.77384 1 7.70172 1C10.6296 1 12.9995 3.21391 12.9995 5.9438C12.9995 7.56373 12.1655 8.99769 10.8816 9.89766Z" stroke="white" stroke-opacity="0.8" stroke-width="1.5" stroke-linecap="round" stroke-linejoin="round"/>
<path d="M7.59974 8.93773C7.59974 9.6517 7.33575 10.3117 6.89177 10.8337C6.29779 11.5536 5.35583 12.0156 4.29987 12.0156L2.73393 12.9456C2.46994 13.1076 2.13395 12.8856 2.16995 12.5796L2.31995 11.3977C1.51598 10.8397 1 9.94569 1 8.93773C1 7.88177 1.56398 6.95182 2.42795 6.39984C2.96192 6.05186 3.6039 5.85388 4.29987 5.85388C6.1238 5.85388 7.59974 7.2338 7.59974 8.93773Z" stroke="white" stroke-opacity="0.8" stroke-width="1.5" stroke-linecap="round" stroke-linejoin="round"/>
</svg>
