<svg width="16" height="16" viewBox="0 0 16 16" fill="none" xmlns="http://www.w3.org/2000/svg">
<g clip-path="url(#clip0_289_537)">
<path d="M12.96 0H3.04C1.36 0 0 1.36 0 3.04V12.88C0 14.64 1.36 16 3.04 16H8C8.32 16 8.64 15.76 8.64 15.36V10.4C8.64 10.08 8.4 9.76 8 9.76H7.36V8.56H8C8.32 8.56 8.64 8.32 8.64 7.92V5.84C8.64 4.96 9.36 4.32 10.16 4.32H11.68V5.52H11.04C10.4 5.52 9.84 6.08 9.84 6.72V8C9.84 8.32 10.08 8.64 10.48 8.64H11.52L11.2 9.84H10.48C10.16 9.84 9.84 10.08 9.84 10.48V12.96C9.84 13.28 10.08 13.6 10.48 13.6C10.8 13.6 11.12 13.36 11.12 12.96V11.12H11.76C12.08 11.12 12.32 10.96 12.4 10.64L13.04 8.16C13.12 8 13.04 7.76 12.96 7.6C12.8 7.44 12.64 7.36 12.48 7.36H11.28V6.8H12.48C12.8 6.8 13.12 6.56 13.12 6.16V3.68C13.12 3.36 12.88 3.04 12.48 3.04H10.32C8.8 3.04 7.52 4.32 7.52 5.84V7.36H6.8C6.4 7.36 6.16 7.68 6.16 8V10.48C6.16 10.8 6.4 11.12 6.8 11.12H7.44V14.8H3.04C2 14.8 1.2 14 1.2 12.96V3.04C1.2 2 2 1.2 3.04 1.2H12.88C13.92 1.2 14.72 2 14.72 3.04V12.88C14.72 13.92 13.92 14.72 12.88 14.72H10.4C10.08 14.72 9.76 14.96 9.76 15.36C9.76 15.68 10 16 10.4 16H12.88C14.56 16 15.92 14.64 15.92 12.96V3.04C16 1.36 14.64 0 12.96 0Z" fill="#1877F2"/>
</g>
<defs>
<clipPath id="clip0_289_537">
<rect width="16" height="16" fill="white"/>
</clipPath>
</defs>
</svg>
