<svg width="14" height="14" viewBox="0 0 14 14" fill="none" xmlns="http://www.w3.org/2000/svg">
<path d="M7 0C5.61553 0 4.26215 0.410543 3.11101 1.17971C1.95987 1.94888 1.06266 3.04213 0.532846 4.32121C0.00303299 5.6003 -0.13559 7.00776 0.134506 8.36563C0.404603 9.7235 1.07129 10.9708 2.05026 11.9497C3.02922 12.9287 4.2765 13.5954 5.63437 13.8655C6.99224 14.1356 8.3997 13.997 9.67879 13.4672C10.9579 12.9373 12.0511 12.0401 12.8203 10.889C13.5895 9.73784 14 8.38447 14 7C14 6.08075 13.8189 5.17049 13.4672 4.32121C13.1154 3.47194 12.5998 2.70026 11.9497 2.05025C11.2997 1.40024 10.5281 0.884626 9.67879 0.532843C8.82951 0.18106 7.91925 0 7 0ZM2.205 5.439L1.505 5.999C1.5983 5.51353 1.75603 5.0427 1.974 4.599L2.205 5.439ZM3.171 6.461L4.312 6.839L4.823 8.883L4.032 9.674L2.044 9.597C1.75041 9.0393 1.55393 8.43567 1.463 7.812L3.171 6.461ZM4.032 11.081L4.354 11.9C3.90978 11.6599 3.50007 11.3609 3.136 11.011L4.032 11.081ZM5.691 6.608L7 5.74L8.302 6.608L7.854 8.4H6.146L5.691 6.608ZM9.954 11.081L10.857 11.046C10.4929 11.3831 10.0857 11.6702 9.646 11.9L9.954 11.081ZM11.949 9.597L9.961 9.674L9.17 8.883L9.681 6.839L10.822 6.461L12.53 7.812C12.4413 8.43524 12.2472 9.03885 11.956 9.597H11.949ZM11.788 5.439L12.033 4.571C12.251 5.0147 12.4087 5.48553 12.502 5.971L11.788 5.439ZM11.004 3.087L10.437 5.117L9.212 5.523L7.7 4.529V3.178L9.478 1.988C10.045 2.26569 10.5609 2.63727 11.004 3.087ZM7.756 1.456L7 1.96L6.244 1.456C6.49445 1.42028 6.74703 1.40157 7 1.4C7.25298 1.40157 7.50556 1.42028 7.756 1.456ZM4.522 1.988L6.3 3.178V4.529L4.795 5.53L3.57 5.117L3.003 3.087C3.44398 2.63791 3.95751 2.26637 4.522 1.988ZM6.062 12.488L5.285 10.388L5.894 9.779H8.113L8.722 10.388L7.945 12.488C7.3248 12.6012 6.68921 12.6012 6.069 12.488H6.062Z" fill="#999999"/>
</svg>
