<svg width="16" height="16" viewBox="0 0 16 16" fill="none" xmlns="http://www.w3.org/2000/svg">
<path d="M8 0C3.58174 0 0 3.58174 0 8C0 12.4183 3.58174 16 8 16C12.4183 16 16 12.4183 16 8C16 3.58174 12.4183 0 8 0ZM8.25046 14.5506C8.15918 14.6324 8.06441 14.6496 8.00082 14.6496C7.93662 14.6496 7.84082 14.6322 7.7481 14.5489C6.62215 13.536 5.79344 12.241 5.32185 10.8074C7.07918 10.3584 8.92513 10.3522 10.6851 10.7887C10.2144 12.2306 9.38215 13.5331 8.25046 14.5506ZM5.02031 9.61436C4.9241 9.08636 4.87179 8.54667 4.87179 8C4.87179 7.45333 4.9241 6.91364 5.0201 6.38564C6.01026 6.63815 7.02544 6.76492 8.04103 6.76492C9.02974 6.76492 10.0183 6.64451 10.9836 6.40513C11.0773 6.92697 11.1284 7.4601 11.1284 8C11.1284 8.5399 11.0773 9.07303 10.9836 9.59487C9.02667 9.10954 6.97436 9.11569 5.02031 9.61436ZM7.74974 1.44944C7.84082 1.36759 7.93579 1.35036 7.99918 1.35036C8.06338 1.35036 8.15918 1.368 8.2519 1.45108C9.38277 2.46831 10.2142 3.77026 10.6847 5.21128C8.92472 5.64759 7.07877 5.64164 5.32144 5.19262C5.79323 3.75836 6.62277 2.46256 7.74974 1.44944ZM12.1678 6.04554C12.8421 5.80328 13.4989 5.49928 14.1307 5.13456C14.5395 6.00533 14.7692 6.97621 14.7692 8C14.7692 9.0238 14.5395 9.99467 14.1309 10.8654C13.4991 10.5005 12.8423 10.1967 12.168 9.95446C12.2919 9.31733 12.3592 8.66359 12.3592 8C12.359 7.33641 12.2919 6.68287 12.1678 6.04554ZM13.5085 4.07282C12.9772 4.37928 12.4265 4.63877 11.8615 4.84862C11.4683 3.63692 10.8494 2.51569 10.0429 1.54626C11.4539 1.99405 12.665 2.89313 13.5085 4.07282ZM5.95733 1.54646C5.15713 2.50831 4.54215 3.61969 4.14872 4.82051C3.58831 4.60779 3.04185 4.34769 2.51528 4.03959C3.35754 2.87631 4.55938 1.98995 5.95733 1.54646ZM1.88574 5.09744C2.51364 5.46523 3.16656 5.77272 3.83713 6.01867C3.70974 6.66441 3.64103 7.32718 3.64103 8C3.64103 8.67282 3.70954 9.33559 3.83713 9.98133C3.16656 10.2275 2.51364 10.5348 1.88574 10.9026C1.46626 10.0224 1.23077 9.03836 1.23077 8C1.23077 6.96164 1.46626 5.97764 1.88574 5.09744ZM2.51528 11.9602C3.04164 11.6523 3.5881 11.392 4.14872 11.1793C4.54215 12.3801 5.15713 13.4917 5.95733 14.4535C4.55938 14.0101 3.35754 13.1237 2.51528 11.9602ZM10.0429 14.4535C10.8494 13.4839 11.4681 12.3629 11.8613 11.1512C12.4263 11.361 12.977 11.6207 13.5083 11.927C12.665 13.1067 11.4539 14.0057 10.0429 14.4535Z" fill="white"/>
</svg>
