<svg width="16" height="16" viewBox="0 0 16 16" fill="none" xmlns="http://www.w3.org/2000/svg">
<path d="M10.8859 6.25211C10.5663 6.41191 10.4065 6.73151 10.4864 7.05111C10.9658 8.40941 10.3266 9.84761 8.96831 10.4069C7.61001 10.8863 6.17181 10.2471 5.61251 8.88881C5.05321 7.53051 5.77231 6.17221 7.13061 5.61291C7.68991 5.37321 8.40901 5.37321 8.96831 5.61291C9.28791 5.77271 9.68741 5.53301 9.76731 5.21341C9.92711 4.8938 9.68741 4.4943 9.36781 4.4144C7.37031 3.6154 5.13311 4.6541 4.33411 6.65161C3.77481 8.08981 4.17431 9.68781 5.21301 10.8064C6.73111 12.3245 9.20801 12.3245 10.7261 10.8064C11.8447 9.68781 12.1643 8.08981 11.605 6.65161C11.605 6.33201 11.2055 6.17221 10.8859 6.25211Z" fill="#E1306C"/>
<path d="M12.4853 4.09481C12.8384 4.09481 13.1245 3.80863 13.1245 3.45561C13.1245 3.10259 12.8384 2.81641 12.4853 2.81641C12.1323 2.81641 11.8461 3.10259 11.8461 3.45561C11.8461 3.80863 12.1323 4.09481 12.4853 4.09481Z" fill="#E1306C"/>
<path d="M15.7603 3.45568C15.7603 1.69788 14.3221 0.259675 12.5643 0.179775C9.52809 -0.0599251 6.49189 -0.0599251 3.45568 0.179775C1.69788 0.179775 0.259675 1.61798 0.179775 3.37578C-0.0599251 6.41198 -0.0599251 9.44819 0.179775 12.4844C0.179775 14.2422 1.61798 15.6804 3.37578 15.7603C4.89388 15.9201 6.41198 16 8.00999 16C9.60799 16 11.0462 15.9201 12.5643 15.7603C14.3221 15.7603 15.7603 14.3221 15.7603 12.5643C16 9.52809 16 6.49189 15.7603 3.45568ZM14.4819 12.5643C14.4819 13.603 13.603 14.4819 12.5643 14.4819H12.4844C9.52809 14.8015 6.49189 14.8015 3.45568 14.4819C2.41698 14.4819 1.53808 13.603 1.53808 12.5643C1.53808 12.5643 1.53808 12.5643 1.53808 12.4844C1.29838 9.44819 1.29838 6.49189 1.53808 3.45568C1.53808 2.41698 2.41698 1.53808 3.45568 1.53808C3.45568 1.53808 3.45568 1.53808 3.53558 1.53808C5.05368 1.37828 6.49189 1.29838 8.00999 1.29838C9.52809 1.29838 11.0462 1.37828 12.5643 1.53808C13.603 1.53808 14.4819 2.41698 14.4819 3.45568C14.4819 3.45568 14.4819 3.45568 14.4819 3.53558C14.7216 6.49189 14.7216 9.52809 14.4819 12.5643Z" fill="#E1306C"/>
</svg>
