<svg width="20" height="21" viewBox="0 0 20 21" fill="none" xmlns="http://www.w3.org/2000/svg">
<path d="M13.6244 7.8249C13.2244 8.0249 13.0244 8.4249 13.1244 8.8249C13.7244 10.5249 12.9244 12.3249 11.2244 13.0249C9.5244 13.6249 7.7244 12.8249 7.0244 11.1249C6.3244 9.4249 7.2244 7.7249 8.9244 7.0249C9.6244 6.7249 10.5244 6.7249 11.2244 7.0249C11.6244 7.2249 12.1244 6.9249 12.2244 6.5249C12.4244 6.1249 12.1244 5.6249 11.7244 5.5249C9.2244 4.5249 6.4244 5.8249 5.4244 8.3249C4.7244 10.1249 5.2244 12.1249 6.5244 13.5249C8.4244 15.4249 11.5244 15.4249 13.4244 13.5249C14.8244 12.1249 15.2244 10.1249 14.5244 8.3249C14.5244 7.9249 14.0244 7.7249 13.6244 7.8249Z" fill="white"/>
<path d="M15.6262 5.1249C16.068 5.1249 16.4262 4.76673 16.4262 4.3249C16.4262 3.88307 16.068 3.5249 15.6262 3.5249C15.1843 3.5249 14.8262 3.88307 14.8262 4.3249C14.8262 4.76673 15.1843 5.1249 15.6262 5.1249Z" fill="white"/>
<path d="M19.725 4.325C19.725 2.125 17.925 0.325 15.725 0.225C11.925 -0.075 8.125 -0.075 4.325 0.225C2.125 0.225 0.325 2.025 0.225 4.225C-0.075 8.025 -0.075 11.825 0.225 15.625C0.225 17.825 2.025 19.625 4.225 19.725C6.125 19.925 8.025 20.025 10.025 20.025C12.025 20.025 13.825 19.925 15.725 19.725C17.925 19.725 19.725 17.925 19.725 15.725C20.025 11.925 20.025 8.125 19.725 4.325ZM18.125 15.725C18.125 17.025 17.025 18.125 15.725 18.125H15.625C11.925 18.525 8.125 18.525 4.325 18.125C3.025 18.125 1.925 17.025 1.925 15.725C1.925 15.725 1.925 15.725 1.925 15.625C1.625 11.825 1.625 8.125 1.925 4.325C1.925 3.025 3.025 1.925 4.325 1.925C4.325 1.925 4.325 1.925 4.425 1.925C6.325 1.725 8.125 1.625 10.025 1.625C11.925 1.625 13.825 1.725 15.725 1.925C17.025 1.925 18.125 3.025 18.125 4.325C18.125 4.325 18.125 4.325 18.125 4.425C18.425 8.125 18.425 11.925 18.125 15.725Z" fill="white"/>
</svg>
