<svg width="25" height="25" viewBox="0 0 25 25" fill="none" xmlns="http://www.w3.org/2000/svg">
<path d="M0 2.08333C0 0.932943 0.799665 0 1.78571 0H23.2143C24.202 0 25 0.932943 25 2.08333C25 3.23568 24.202 4.16667 23.2143 4.16667H1.78571C0.799665 4.16667 0 3.23568 0 2.08333ZM0 12.5C0 11.3477 0.799665 10.4167 1.78571 10.4167H23.2143C24.202 10.4167 25 11.3477 25 12.5C25 13.6523 24.202 14.5833 23.2143 14.5833H1.78571C0.799665 14.5833 0 13.6523 0 12.5ZM23.2143 25H1.78571C0.799665 25 0 24.069 0 22.9167C0 21.7643 0.799665 20.8333 1.78571 20.8333H23.2143C24.202 20.8333 25 21.7643 25 22.9167C25 24.069 24.202 25 23.2143 25Z" fill="white"/>
</svg>
