<svg width="20" height="20" viewBox="0 0 20 20" fill="none" xmlns="http://www.w3.org/2000/svg">
<path d="M14.0199 3.75C14.6788 3.75 15.2131 3.19036 15.2131 2.5C15.2131 1.80964 14.6788 1.25 14.0199 1.25C13.3609 1.25 12.8267 1.80964 12.8267 2.5C12.8267 3.19036 13.3609 3.75 14.0199 3.75Z" stroke="#FF4500" stroke-width="2" stroke-linecap="round" stroke-linejoin="round"/>
<path d="M12.0064 13.75C11.2456 14.1617 10.4017 14.3766 9.54544 14.3766C8.68914 14.3766 7.84529 14.1617 7.0845 13.75" stroke="#FF4500" stroke-width="2" stroke-linecap="round" stroke-linejoin="round"/>
<path d="M9.54544 5.625L10.142 1.875L12.8416 2.3125" stroke="#FF4500" stroke-width="2" stroke-linecap="round" stroke-linejoin="round"/>
<path d="M4.42969 7.02344C5.7944 6.14844 7.58417 5.625 9.54546 5.625C11.5068 5.625 13.2965 6.14844 14.6612 7.02344C14.8177 6.79842 15.0201 6.61274 15.2537 6.47989C15.4873 6.34703 15.7461 6.27034 16.0115 6.25538C16.2769 6.24042 16.5422 6.28757 16.788 6.3934C17.0338 6.49923 17.254 6.66108 17.4327 6.86721C17.6114 7.07333 17.744 7.31856 17.8209 7.58507C17.8978 7.85159 17.9171 8.1327 17.8774 8.408C17.8376 8.68329 17.7399 8.94587 17.5912 9.17664C17.4425 9.40742 17.2466 9.60061 17.0178 9.74219V9.74219C17.2053 10.2206 17.3015 10.7328 17.3011 11.25C17.3011 14.3594 13.826 16.875 9.54546 16.875C5.26492 16.875 1.78978 14.3594 1.78978 11.25C1.78937 10.7328 1.88565 10.2206 2.07316 9.74219V9.74219C1.84431 9.60061 1.64843 9.40742 1.49975 9.17664C1.35106 8.94587 1.2533 8.68329 1.21357 8.408C1.17383 8.1327 1.19312 7.85159 1.27003 7.58507C1.34694 7.31856 1.47955 7.07333 1.65821 6.86721C1.83687 6.66108 2.05712 6.49923 2.30294 6.3934C2.54877 6.28757 2.814 6.24042 3.07939 6.25538C3.34478 6.27034 3.60365 6.34703 3.83722 6.47989C4.07078 6.61274 4.27317 6.79842 4.42969 7.02344V7.02344Z" stroke="#FF4500" stroke-width="2" stroke-linecap="round" stroke-linejoin="round"/>
<path d="M6.5625 11.4062C7.1391 11.4062 7.60653 10.9166 7.60653 10.3125C7.60653 9.70844 7.1391 9.21875 6.5625 9.21875C5.98589 9.21875 5.51846 9.70844 5.51846 10.3125C5.51846 10.9166 5.98589 11.4062 6.5625 11.4062Z" fill="#FF4500"/>
<path d="M12.5284 11.4062C13.105 11.4062 13.5724 10.9166 13.5724 10.3125C13.5724 9.70844 13.105 9.21875 12.5284 9.21875C11.9518 9.21875 11.4844 9.70844 11.4844 10.3125C11.4844 10.9166 11.9518 11.4062 12.5284 11.4062Z" fill="#FF4500"/>
</svg>
