<svg width="19" height="16" viewBox="0 0 19 16" fill="none" xmlns="http://www.w3.org/2000/svg">
<path d="M18.0698 2.34901C17.9909 2.27011 17.9909 2.27011 17.912 2.1912C18.0698 1.87557 18.1487 1.55994 18.2276 1.24431C18.3065 1.00759 18.1487 0.691958 17.912 0.534143C17.6753 0.376328 17.3596 0.376328 17.1229 0.534143C16.6495 0.849773 16.0971 1.08649 15.5448 1.1654C14.2033 -0.097117 12.2307 -0.333839 10.5736 0.455235C8.83763 1.32322 7.96965 3.2959 8.4431 5.18968C8.522 5.58422 8.91654 5.82094 9.31108 5.74203C9.70562 5.66313 9.94234 5.26859 9.86343 4.87405C9.5478 3.61153 10.1002 2.34901 11.2838 1.71775C12.4674 1.0865 13.9666 1.40212 14.8346 2.42792C14.9924 2.58574 15.2291 2.66464 15.4659 2.58574H15.6237C15.387 2.90136 15.387 3.2959 15.6237 3.61153C15.7026 3.69044 15.7815 3.69044 15.8604 3.76935C15.7026 3.92716 15.5448 4.16389 15.6237 4.40061C15.8604 7.39909 14.5979 10.3976 12.2307 12.2913C9.78452 14.4219 6.3915 14.9742 3.39302 13.8695C4.57663 13.6328 5.68134 13.1593 6.54932 12.3703C6.70713 12.1335 6.78604 11.8968 6.62822 11.5812C6.47041 11.3445 6.23369 11.1866 5.99697 11.1866C5.20789 11.1866 4.41882 10.7921 3.86646 10.2398C4.10319 10.1608 4.33991 10.0819 4.57663 10.003C4.81335 9.84522 4.97117 9.6085 4.97117 9.29287C4.97117 8.97724 4.73445 8.74052 4.41882 8.74052C3.47193 8.50379 2.68285 7.87253 2.28832 7.00455C2.44613 7.00455 2.60395 7.00455 2.84067 7.08346C3.1563 7.08346 3.39302 6.92564 3.55083 6.68892C3.62974 6.37329 3.55084 6.05766 3.31411 5.89985C2.1305 4.87405 1.89378 3.69044 2.05159 2.90137C3.39302 4.3217 5.05008 5.26859 6.94386 5.66313C7.33839 5.74203 7.73293 5.50531 7.81184 5.11077C7.89074 4.71624 7.65402 4.3217 7.25948 4.24279C5.36571 3.76935 3.70865 2.74355 2.52504 1.1654C2.36722 1.00759 2.20941 0.92868 1.97269 0.92868C1.73596 0.92868 1.57815 1.00759 1.42033 1.1654C0.473445 2.34901 0.394537 4.08498 1.18361 5.3475H1.1047C0.867981 5.4264 0.789074 5.66313 0.710167 5.89985C0.710167 7.08346 1.18361 8.26707 2.05159 9.05615C1.89378 9.21396 1.81487 9.52959 1.89378 9.76631C2.28832 10.871 3.07739 11.739 4.10319 12.2913C2.99848 12.6859 1.81487 12.9226 0.710167 12.9226C0.315629 12.9226 0 13.2382 0 13.6328C0 13.8695 0.157815 14.1062 0.315629 14.264C2.1305 15.3687 4.18209 16 6.23369 16C8.67982 16 11.047 15.0531 12.9408 13.475C15.5448 11.3445 17.044 8.18816 16.8862 4.79514C17.4385 4.40061 17.8331 3.84826 17.9909 3.217C18.3065 2.74355 18.2276 2.50683 18.0698 2.34901Z" fill="#1DA1F2"/>
</svg>
