<svg width="18" height="20" viewBox="0 0 18 20" fill="none" xmlns="http://www.w3.org/2000/svg">
<path d="M8.68825 10.6977C5.73942 10.6977 3.33942 8.29768 3.33942 5.34884C3.33942 2.4 5.73942 0 8.68825 0C11.6371 0 14.0371 2.4 14.0371 5.34884C14.0371 8.29768 11.6371 10.6977 8.68825 10.6977ZM8.68825 1.39535C6.51151 1.39535 4.73477 3.17209 4.73477 5.34884C4.73477 7.52558 6.51151 9.30233 8.68825 9.30233C10.865 9.30233 12.6417 7.52558 12.6417 5.34884C12.6417 3.17209 10.865 1.39535 8.68825 1.39535Z" fill="white"/>
<path d="M16.6791 20C16.2977 20 15.9814 19.6837 15.9814 19.3023C15.9814 16.093 12.707 13.4884 8.68837 13.4884C4.66976 13.4884 1.39535 16.093 1.39535 19.3023C1.39535 19.6837 1.07907 20 0.697674 20C0.316279 20 0 19.6837 0 19.3023C0 15.3302 3.89767 12.093 8.68837 12.093C13.4791 12.093 17.3767 15.3302 17.3767 19.3023C17.3767 19.6837 17.0605 20 16.6791 20Z" fill="white"/>
</svg>
