<svg width="20" height="30" viewBox="0 0 20 30" fill="none" xmlns="http://www.w3.org/2000/svg">
<g clip-path="url(#clip0_407_6)">
<path d="M19.4125 21.1758C20.1937 21.9082 20.1937 23.0947 19.4125 23.8271C19.025 24.1934 18.5125 24.375 18 24.375C17.4875 24.375 16.9762 24.1919 16.5862 23.8257L10 17.6543L3.41437 23.8242C3.02375 24.1934 2.51187 24.375 2 24.375C1.48812 24.375 0.976875 24.1934 0.585937 23.8242C-0.195312 23.0918 -0.195312 21.9053 0.585937 21.1729L7.17344 14.9971L0.585937 8.82422C-0.195312 8.0918 -0.195312 6.90527 0.585937 6.17285C1.36719 5.44043 2.63281 5.44043 3.41406 6.17285L10 12.3516L16.5875 6.17578C17.3687 5.44336 18.6344 5.44336 19.4156 6.17578C20.1969 6.9082 20.1969 8.09473 19.4156 8.82715L12.8281 15.0029L19.4125 21.1758Z" fill="white"/>
</g>
<defs>
<clipPath id="clip0_407_6">
<rect width="20" height="30" fill="white"/>
</clipPath>
</defs>
</svg>
